%TF.GenerationSoftware,KiCad,Pcbnew,8.0.1*%
%TF.CreationDate,2024-04-11T01:32:40-05:00*%
%TF.ProjectId,FeatherWing_KC5,46656174-6865-4725-9769-6e675f4b4335,rev?*%
%TF.SameCoordinates,Original*%
%TF.FileFunction,AssemblyDrawing,Top*%
%FSLAX46Y46*%
G04 Gerber Fmt 4.6, Leading zero omitted, Abs format (unit mm)*
G04 Created by KiCad (PCBNEW 8.0.1) date 2024-04-11 01:32:40*
%MOMM*%
%LPD*%
G01*
G04 APERTURE LIST*
%ADD10C,0.150000*%
%ADD11C,0.060000*%
%ADD12C,0.080000*%
%ADD13C,0.120000*%
%ADD14C,0.100000*%
G04 APERTURE END LIST*
D10*
X28768152Y-51537619D02*
X28768152Y-51156667D01*
X29434819Y-51394762D02*
X28577676Y-51394762D01*
X28577676Y-51394762D02*
X28482438Y-51347143D01*
X28482438Y-51347143D02*
X28434819Y-51251905D01*
X28434819Y-51251905D02*
X28434819Y-51156667D01*
X29387200Y-50442381D02*
X29434819Y-50537619D01*
X29434819Y-50537619D02*
X29434819Y-50728095D01*
X29434819Y-50728095D02*
X29387200Y-50823333D01*
X29387200Y-50823333D02*
X29291961Y-50870952D01*
X29291961Y-50870952D02*
X28911009Y-50870952D01*
X28911009Y-50870952D02*
X28815771Y-50823333D01*
X28815771Y-50823333D02*
X28768152Y-50728095D01*
X28768152Y-50728095D02*
X28768152Y-50537619D01*
X28768152Y-50537619D02*
X28815771Y-50442381D01*
X28815771Y-50442381D02*
X28911009Y-50394762D01*
X28911009Y-50394762D02*
X29006247Y-50394762D01*
X29006247Y-50394762D02*
X29101485Y-50870952D01*
X29434819Y-49537619D02*
X28911009Y-49537619D01*
X28911009Y-49537619D02*
X28815771Y-49585238D01*
X28815771Y-49585238D02*
X28768152Y-49680476D01*
X28768152Y-49680476D02*
X28768152Y-49870952D01*
X28768152Y-49870952D02*
X28815771Y-49966190D01*
X29387200Y-49537619D02*
X29434819Y-49632857D01*
X29434819Y-49632857D02*
X29434819Y-49870952D01*
X29434819Y-49870952D02*
X29387200Y-49966190D01*
X29387200Y-49966190D02*
X29291961Y-50013809D01*
X29291961Y-50013809D02*
X29196723Y-50013809D01*
X29196723Y-50013809D02*
X29101485Y-49966190D01*
X29101485Y-49966190D02*
X29053866Y-49870952D01*
X29053866Y-49870952D02*
X29053866Y-49632857D01*
X29053866Y-49632857D02*
X29006247Y-49537619D01*
X28768152Y-49204285D02*
X28768152Y-48823333D01*
X28434819Y-49061428D02*
X29291961Y-49061428D01*
X29291961Y-49061428D02*
X29387200Y-49013809D01*
X29387200Y-49013809D02*
X29434819Y-48918571D01*
X29434819Y-48918571D02*
X29434819Y-48823333D01*
X29434819Y-48489999D02*
X28434819Y-48489999D01*
X29434819Y-48061428D02*
X28911009Y-48061428D01*
X28911009Y-48061428D02*
X28815771Y-48109047D01*
X28815771Y-48109047D02*
X28768152Y-48204285D01*
X28768152Y-48204285D02*
X28768152Y-48347142D01*
X28768152Y-48347142D02*
X28815771Y-48442380D01*
X28815771Y-48442380D02*
X28863390Y-48489999D01*
X29387200Y-47204285D02*
X29434819Y-47299523D01*
X29434819Y-47299523D02*
X29434819Y-47489999D01*
X29434819Y-47489999D02*
X29387200Y-47585237D01*
X29387200Y-47585237D02*
X29291961Y-47632856D01*
X29291961Y-47632856D02*
X28911009Y-47632856D01*
X28911009Y-47632856D02*
X28815771Y-47585237D01*
X28815771Y-47585237D02*
X28768152Y-47489999D01*
X28768152Y-47489999D02*
X28768152Y-47299523D01*
X28768152Y-47299523D02*
X28815771Y-47204285D01*
X28815771Y-47204285D02*
X28911009Y-47156666D01*
X28911009Y-47156666D02*
X29006247Y-47156666D01*
X29006247Y-47156666D02*
X29101485Y-47632856D01*
X29434819Y-46728094D02*
X28768152Y-46728094D01*
X28958628Y-46728094D02*
X28863390Y-46680475D01*
X28863390Y-46680475D02*
X28815771Y-46632856D01*
X28815771Y-46632856D02*
X28768152Y-46537618D01*
X28768152Y-46537618D02*
X28768152Y-46442380D01*
X29434819Y-45204284D02*
X29387200Y-45299522D01*
X29387200Y-45299522D02*
X29291961Y-45347141D01*
X29291961Y-45347141D02*
X28434819Y-45347141D01*
X29434819Y-44680474D02*
X29387200Y-44775712D01*
X29387200Y-44775712D02*
X29339580Y-44823331D01*
X29339580Y-44823331D02*
X29244342Y-44870950D01*
X29244342Y-44870950D02*
X28958628Y-44870950D01*
X28958628Y-44870950D02*
X28863390Y-44823331D01*
X28863390Y-44823331D02*
X28815771Y-44775712D01*
X28815771Y-44775712D02*
X28768152Y-44680474D01*
X28768152Y-44680474D02*
X28768152Y-44537617D01*
X28768152Y-44537617D02*
X28815771Y-44442379D01*
X28815771Y-44442379D02*
X28863390Y-44394760D01*
X28863390Y-44394760D02*
X28958628Y-44347141D01*
X28958628Y-44347141D02*
X29244342Y-44347141D01*
X29244342Y-44347141D02*
X29339580Y-44394760D01*
X29339580Y-44394760D02*
X29387200Y-44442379D01*
X29387200Y-44442379D02*
X29434819Y-44537617D01*
X29434819Y-44537617D02*
X29434819Y-44680474D01*
X28768152Y-43918569D02*
X29434819Y-43918569D01*
X28863390Y-43918569D02*
X28815771Y-43870950D01*
X28815771Y-43870950D02*
X28768152Y-43775712D01*
X28768152Y-43775712D02*
X28768152Y-43632855D01*
X28768152Y-43632855D02*
X28815771Y-43537617D01*
X28815771Y-43537617D02*
X28911009Y-43489998D01*
X28911009Y-43489998D02*
X29434819Y-43489998D01*
X28768152Y-42585236D02*
X29577676Y-42585236D01*
X29577676Y-42585236D02*
X29672914Y-42632855D01*
X29672914Y-42632855D02*
X29720533Y-42680474D01*
X29720533Y-42680474D02*
X29768152Y-42775712D01*
X29768152Y-42775712D02*
X29768152Y-42918569D01*
X29768152Y-42918569D02*
X29720533Y-43013807D01*
X29387200Y-42585236D02*
X29434819Y-42680474D01*
X29434819Y-42680474D02*
X29434819Y-42870950D01*
X29434819Y-42870950D02*
X29387200Y-42966188D01*
X29387200Y-42966188D02*
X29339580Y-43013807D01*
X29339580Y-43013807D02*
X29244342Y-43061426D01*
X29244342Y-43061426D02*
X28958628Y-43061426D01*
X28958628Y-43061426D02*
X28863390Y-43013807D01*
X28863390Y-43013807D02*
X28815771Y-42966188D01*
X28815771Y-42966188D02*
X28768152Y-42870950D01*
X28768152Y-42870950D02*
X28768152Y-42680474D01*
X28768152Y-42680474D02*
X28815771Y-42585236D01*
X50466666Y-46444819D02*
X50466666Y-47159104D01*
X50466666Y-47159104D02*
X50419047Y-47301961D01*
X50419047Y-47301961D02*
X50323809Y-47397200D01*
X50323809Y-47397200D02*
X50180952Y-47444819D01*
X50180952Y-47444819D02*
X50085714Y-47444819D01*
X51466666Y-47444819D02*
X50895238Y-47444819D01*
X51180952Y-47444819D02*
X51180952Y-46444819D01*
X51180952Y-46444819D02*
X51085714Y-46587676D01*
X51085714Y-46587676D02*
X50990476Y-46682914D01*
X50990476Y-46682914D02*
X50895238Y-46730533D01*
X38928152Y-31503334D02*
X38928152Y-31122382D01*
X39594819Y-31360477D02*
X38737676Y-31360477D01*
X38737676Y-31360477D02*
X38642438Y-31312858D01*
X38642438Y-31312858D02*
X38594819Y-31217620D01*
X38594819Y-31217620D02*
X38594819Y-31122382D01*
X39547200Y-30408096D02*
X39594819Y-30503334D01*
X39594819Y-30503334D02*
X39594819Y-30693810D01*
X39594819Y-30693810D02*
X39547200Y-30789048D01*
X39547200Y-30789048D02*
X39451961Y-30836667D01*
X39451961Y-30836667D02*
X39071009Y-30836667D01*
X39071009Y-30836667D02*
X38975771Y-30789048D01*
X38975771Y-30789048D02*
X38928152Y-30693810D01*
X38928152Y-30693810D02*
X38928152Y-30503334D01*
X38928152Y-30503334D02*
X38975771Y-30408096D01*
X38975771Y-30408096D02*
X39071009Y-30360477D01*
X39071009Y-30360477D02*
X39166247Y-30360477D01*
X39166247Y-30360477D02*
X39261485Y-30836667D01*
X39594819Y-29503334D02*
X39071009Y-29503334D01*
X39071009Y-29503334D02*
X38975771Y-29550953D01*
X38975771Y-29550953D02*
X38928152Y-29646191D01*
X38928152Y-29646191D02*
X38928152Y-29836667D01*
X38928152Y-29836667D02*
X38975771Y-29931905D01*
X39547200Y-29503334D02*
X39594819Y-29598572D01*
X39594819Y-29598572D02*
X39594819Y-29836667D01*
X39594819Y-29836667D02*
X39547200Y-29931905D01*
X39547200Y-29931905D02*
X39451961Y-29979524D01*
X39451961Y-29979524D02*
X39356723Y-29979524D01*
X39356723Y-29979524D02*
X39261485Y-29931905D01*
X39261485Y-29931905D02*
X39213866Y-29836667D01*
X39213866Y-29836667D02*
X39213866Y-29598572D01*
X39213866Y-29598572D02*
X39166247Y-29503334D01*
X38928152Y-29170000D02*
X38928152Y-28789048D01*
X38594819Y-29027143D02*
X39451961Y-29027143D01*
X39451961Y-29027143D02*
X39547200Y-28979524D01*
X39547200Y-28979524D02*
X39594819Y-28884286D01*
X39594819Y-28884286D02*
X39594819Y-28789048D01*
X39594819Y-28455714D02*
X38594819Y-28455714D01*
X39594819Y-28027143D02*
X39071009Y-28027143D01*
X39071009Y-28027143D02*
X38975771Y-28074762D01*
X38975771Y-28074762D02*
X38928152Y-28170000D01*
X38928152Y-28170000D02*
X38928152Y-28312857D01*
X38928152Y-28312857D02*
X38975771Y-28408095D01*
X38975771Y-28408095D02*
X39023390Y-28455714D01*
X39547200Y-27170000D02*
X39594819Y-27265238D01*
X39594819Y-27265238D02*
X39594819Y-27455714D01*
X39594819Y-27455714D02*
X39547200Y-27550952D01*
X39547200Y-27550952D02*
X39451961Y-27598571D01*
X39451961Y-27598571D02*
X39071009Y-27598571D01*
X39071009Y-27598571D02*
X38975771Y-27550952D01*
X38975771Y-27550952D02*
X38928152Y-27455714D01*
X38928152Y-27455714D02*
X38928152Y-27265238D01*
X38928152Y-27265238D02*
X38975771Y-27170000D01*
X38975771Y-27170000D02*
X39071009Y-27122381D01*
X39071009Y-27122381D02*
X39166247Y-27122381D01*
X39166247Y-27122381D02*
X39261485Y-27598571D01*
X39594819Y-26693809D02*
X38928152Y-26693809D01*
X39118628Y-26693809D02*
X39023390Y-26646190D01*
X39023390Y-26646190D02*
X38975771Y-26598571D01*
X38975771Y-26598571D02*
X38928152Y-26503333D01*
X38928152Y-26503333D02*
X38928152Y-26408095D01*
X39547200Y-25360475D02*
X39594819Y-25265237D01*
X39594819Y-25265237D02*
X39594819Y-25074761D01*
X39594819Y-25074761D02*
X39547200Y-24979523D01*
X39547200Y-24979523D02*
X39451961Y-24931904D01*
X39451961Y-24931904D02*
X39404342Y-24931904D01*
X39404342Y-24931904D02*
X39309104Y-24979523D01*
X39309104Y-24979523D02*
X39261485Y-25074761D01*
X39261485Y-25074761D02*
X39261485Y-25217618D01*
X39261485Y-25217618D02*
X39213866Y-25312856D01*
X39213866Y-25312856D02*
X39118628Y-25360475D01*
X39118628Y-25360475D02*
X39071009Y-25360475D01*
X39071009Y-25360475D02*
X38975771Y-25312856D01*
X38975771Y-25312856D02*
X38928152Y-25217618D01*
X38928152Y-25217618D02*
X38928152Y-25074761D01*
X38928152Y-25074761D02*
X38975771Y-24979523D01*
X39594819Y-24503332D02*
X38594819Y-24503332D01*
X39594819Y-24074761D02*
X39071009Y-24074761D01*
X39071009Y-24074761D02*
X38975771Y-24122380D01*
X38975771Y-24122380D02*
X38928152Y-24217618D01*
X38928152Y-24217618D02*
X38928152Y-24360475D01*
X38928152Y-24360475D02*
X38975771Y-24455713D01*
X38975771Y-24455713D02*
X39023390Y-24503332D01*
X39594819Y-23455713D02*
X39547200Y-23550951D01*
X39547200Y-23550951D02*
X39499580Y-23598570D01*
X39499580Y-23598570D02*
X39404342Y-23646189D01*
X39404342Y-23646189D02*
X39118628Y-23646189D01*
X39118628Y-23646189D02*
X39023390Y-23598570D01*
X39023390Y-23598570D02*
X38975771Y-23550951D01*
X38975771Y-23550951D02*
X38928152Y-23455713D01*
X38928152Y-23455713D02*
X38928152Y-23312856D01*
X38928152Y-23312856D02*
X38975771Y-23217618D01*
X38975771Y-23217618D02*
X39023390Y-23169999D01*
X39023390Y-23169999D02*
X39118628Y-23122380D01*
X39118628Y-23122380D02*
X39404342Y-23122380D01*
X39404342Y-23122380D02*
X39499580Y-23169999D01*
X39499580Y-23169999D02*
X39547200Y-23217618D01*
X39547200Y-23217618D02*
X39594819Y-23312856D01*
X39594819Y-23312856D02*
X39594819Y-23455713D01*
X39594819Y-22693808D02*
X38928152Y-22693808D01*
X39118628Y-22693808D02*
X39023390Y-22646189D01*
X39023390Y-22646189D02*
X38975771Y-22598570D01*
X38975771Y-22598570D02*
X38928152Y-22503332D01*
X38928152Y-22503332D02*
X38928152Y-22408094D01*
X38928152Y-22217617D02*
X38928152Y-21836665D01*
X38594819Y-22074760D02*
X39451961Y-22074760D01*
X39451961Y-22074760D02*
X39547200Y-22027141D01*
X39547200Y-22027141D02*
X39594819Y-21931903D01*
X39594819Y-21931903D02*
X39594819Y-21836665D01*
X55546666Y-26124819D02*
X55546666Y-26839104D01*
X55546666Y-26839104D02*
X55499047Y-26981961D01*
X55499047Y-26981961D02*
X55403809Y-27077200D01*
X55403809Y-27077200D02*
X55260952Y-27124819D01*
X55260952Y-27124819D02*
X55165714Y-27124819D01*
X55975238Y-26220057D02*
X56022857Y-26172438D01*
X56022857Y-26172438D02*
X56118095Y-26124819D01*
X56118095Y-26124819D02*
X56356190Y-26124819D01*
X56356190Y-26124819D02*
X56451428Y-26172438D01*
X56451428Y-26172438D02*
X56499047Y-26220057D01*
X56499047Y-26220057D02*
X56546666Y-26315295D01*
X56546666Y-26315295D02*
X56546666Y-26410533D01*
X56546666Y-26410533D02*
X56499047Y-26553390D01*
X56499047Y-26553390D02*
X55927619Y-27124819D01*
X55927619Y-27124819D02*
X56546666Y-27124819D01*
X24892523Y-48492580D02*
X24844904Y-48540200D01*
X24844904Y-48540200D02*
X24702047Y-48587819D01*
X24702047Y-48587819D02*
X24606809Y-48587819D01*
X24606809Y-48587819D02*
X24463952Y-48540200D01*
X24463952Y-48540200D02*
X24368714Y-48444961D01*
X24368714Y-48444961D02*
X24321095Y-48349723D01*
X24321095Y-48349723D02*
X24273476Y-48159247D01*
X24273476Y-48159247D02*
X24273476Y-48016390D01*
X24273476Y-48016390D02*
X24321095Y-47825914D01*
X24321095Y-47825914D02*
X24368714Y-47730676D01*
X24368714Y-47730676D02*
X24463952Y-47635438D01*
X24463952Y-47635438D02*
X24606809Y-47587819D01*
X24606809Y-47587819D02*
X24702047Y-47587819D01*
X24702047Y-47587819D02*
X24844904Y-47635438D01*
X24844904Y-47635438D02*
X24892523Y-47683057D01*
X25463952Y-48587819D02*
X25368714Y-48540200D01*
X25368714Y-48540200D02*
X25321095Y-48492580D01*
X25321095Y-48492580D02*
X25273476Y-48397342D01*
X25273476Y-48397342D02*
X25273476Y-48111628D01*
X25273476Y-48111628D02*
X25321095Y-48016390D01*
X25321095Y-48016390D02*
X25368714Y-47968771D01*
X25368714Y-47968771D02*
X25463952Y-47921152D01*
X25463952Y-47921152D02*
X25606809Y-47921152D01*
X25606809Y-47921152D02*
X25702047Y-47968771D01*
X25702047Y-47968771D02*
X25749666Y-48016390D01*
X25749666Y-48016390D02*
X25797285Y-48111628D01*
X25797285Y-48111628D02*
X25797285Y-48397342D01*
X25797285Y-48397342D02*
X25749666Y-48492580D01*
X25749666Y-48492580D02*
X25702047Y-48540200D01*
X25702047Y-48540200D02*
X25606809Y-48587819D01*
X25606809Y-48587819D02*
X25463952Y-48587819D01*
X26225857Y-47921152D02*
X26225857Y-48587819D01*
X26225857Y-48016390D02*
X26273476Y-47968771D01*
X26273476Y-47968771D02*
X26368714Y-47921152D01*
X26368714Y-47921152D02*
X26511571Y-47921152D01*
X26511571Y-47921152D02*
X26606809Y-47968771D01*
X26606809Y-47968771D02*
X26654428Y-48064009D01*
X26654428Y-48064009D02*
X26654428Y-48587819D01*
X27130619Y-47921152D02*
X27130619Y-48587819D01*
X27130619Y-48016390D02*
X27178238Y-47968771D01*
X27178238Y-47968771D02*
X27273476Y-47921152D01*
X27273476Y-47921152D02*
X27416333Y-47921152D01*
X27416333Y-47921152D02*
X27511571Y-47968771D01*
X27511571Y-47968771D02*
X27559190Y-48064009D01*
X27559190Y-48064009D02*
X27559190Y-48587819D01*
X27797286Y-48683057D02*
X28559190Y-48683057D01*
X29368714Y-48492580D02*
X29321095Y-48540200D01*
X29321095Y-48540200D02*
X29178238Y-48587819D01*
X29178238Y-48587819D02*
X29083000Y-48587819D01*
X29083000Y-48587819D02*
X28940143Y-48540200D01*
X28940143Y-48540200D02*
X28844905Y-48444961D01*
X28844905Y-48444961D02*
X28797286Y-48349723D01*
X28797286Y-48349723D02*
X28749667Y-48159247D01*
X28749667Y-48159247D02*
X28749667Y-48016390D01*
X28749667Y-48016390D02*
X28797286Y-47825914D01*
X28797286Y-47825914D02*
X28844905Y-47730676D01*
X28844905Y-47730676D02*
X28940143Y-47635438D01*
X28940143Y-47635438D02*
X29083000Y-47587819D01*
X29083000Y-47587819D02*
X29178238Y-47587819D01*
X29178238Y-47587819D02*
X29321095Y-47635438D01*
X29321095Y-47635438D02*
X29368714Y-47683057D01*
X29940143Y-48587819D02*
X29844905Y-48540200D01*
X29844905Y-48540200D02*
X29797286Y-48492580D01*
X29797286Y-48492580D02*
X29749667Y-48397342D01*
X29749667Y-48397342D02*
X29749667Y-48111628D01*
X29749667Y-48111628D02*
X29797286Y-48016390D01*
X29797286Y-48016390D02*
X29844905Y-47968771D01*
X29844905Y-47968771D02*
X29940143Y-47921152D01*
X29940143Y-47921152D02*
X30083000Y-47921152D01*
X30083000Y-47921152D02*
X30178238Y-47968771D01*
X30178238Y-47968771D02*
X30225857Y-48016390D01*
X30225857Y-48016390D02*
X30273476Y-48111628D01*
X30273476Y-48111628D02*
X30273476Y-48397342D01*
X30273476Y-48397342D02*
X30225857Y-48492580D01*
X30225857Y-48492580D02*
X30178238Y-48540200D01*
X30178238Y-48540200D02*
X30083000Y-48587819D01*
X30083000Y-48587819D02*
X29940143Y-48587819D01*
X31130619Y-48587819D02*
X31130619Y-48064009D01*
X31130619Y-48064009D02*
X31083000Y-47968771D01*
X31083000Y-47968771D02*
X30987762Y-47921152D01*
X30987762Y-47921152D02*
X30797286Y-47921152D01*
X30797286Y-47921152D02*
X30702048Y-47968771D01*
X31130619Y-48540200D02*
X31035381Y-48587819D01*
X31035381Y-48587819D02*
X30797286Y-48587819D01*
X30797286Y-48587819D02*
X30702048Y-48540200D01*
X30702048Y-48540200D02*
X30654429Y-48444961D01*
X30654429Y-48444961D02*
X30654429Y-48349723D01*
X30654429Y-48349723D02*
X30702048Y-48254485D01*
X30702048Y-48254485D02*
X30797286Y-48206866D01*
X30797286Y-48206866D02*
X31035381Y-48206866D01*
X31035381Y-48206866D02*
X31130619Y-48159247D01*
X31511572Y-48587819D02*
X32035381Y-47921152D01*
X31511572Y-47921152D02*
X32035381Y-48587819D01*
X32416334Y-48587819D02*
X32416334Y-47921152D01*
X32416334Y-47587819D02*
X32368715Y-47635438D01*
X32368715Y-47635438D02*
X32416334Y-47683057D01*
X32416334Y-47683057D02*
X32463953Y-47635438D01*
X32463953Y-47635438D02*
X32416334Y-47587819D01*
X32416334Y-47587819D02*
X32416334Y-47683057D01*
X33321095Y-48587819D02*
X33321095Y-48064009D01*
X33321095Y-48064009D02*
X33273476Y-47968771D01*
X33273476Y-47968771D02*
X33178238Y-47921152D01*
X33178238Y-47921152D02*
X32987762Y-47921152D01*
X32987762Y-47921152D02*
X32892524Y-47968771D01*
X33321095Y-48540200D02*
X33225857Y-48587819D01*
X33225857Y-48587819D02*
X32987762Y-48587819D01*
X32987762Y-48587819D02*
X32892524Y-48540200D01*
X32892524Y-48540200D02*
X32844905Y-48444961D01*
X32844905Y-48444961D02*
X32844905Y-48349723D01*
X32844905Y-48349723D02*
X32892524Y-48254485D01*
X32892524Y-48254485D02*
X32987762Y-48206866D01*
X32987762Y-48206866D02*
X33225857Y-48206866D01*
X33225857Y-48206866D02*
X33321095Y-48159247D01*
X33940143Y-48587819D02*
X33844905Y-48540200D01*
X33844905Y-48540200D02*
X33797286Y-48444961D01*
X33797286Y-48444961D02*
X33797286Y-47587819D01*
X27797286Y-54389819D02*
X28130619Y-55389819D01*
X28130619Y-55389819D02*
X28463952Y-54389819D01*
X28797286Y-55389819D02*
X28797286Y-54389819D01*
X28797286Y-54866009D02*
X29368714Y-54866009D01*
X29368714Y-55389819D02*
X29368714Y-54389819D01*
X30178238Y-54866009D02*
X29844905Y-54866009D01*
X29844905Y-55389819D02*
X29844905Y-54389819D01*
X29844905Y-54389819D02*
X30321095Y-54389819D01*
X24892523Y-71352580D02*
X24844904Y-71400200D01*
X24844904Y-71400200D02*
X24702047Y-71447819D01*
X24702047Y-71447819D02*
X24606809Y-71447819D01*
X24606809Y-71447819D02*
X24463952Y-71400200D01*
X24463952Y-71400200D02*
X24368714Y-71304961D01*
X24368714Y-71304961D02*
X24321095Y-71209723D01*
X24321095Y-71209723D02*
X24273476Y-71019247D01*
X24273476Y-71019247D02*
X24273476Y-70876390D01*
X24273476Y-70876390D02*
X24321095Y-70685914D01*
X24321095Y-70685914D02*
X24368714Y-70590676D01*
X24368714Y-70590676D02*
X24463952Y-70495438D01*
X24463952Y-70495438D02*
X24606809Y-70447819D01*
X24606809Y-70447819D02*
X24702047Y-70447819D01*
X24702047Y-70447819D02*
X24844904Y-70495438D01*
X24844904Y-70495438D02*
X24892523Y-70543057D01*
X25463952Y-71447819D02*
X25368714Y-71400200D01*
X25368714Y-71400200D02*
X25321095Y-71352580D01*
X25321095Y-71352580D02*
X25273476Y-71257342D01*
X25273476Y-71257342D02*
X25273476Y-70971628D01*
X25273476Y-70971628D02*
X25321095Y-70876390D01*
X25321095Y-70876390D02*
X25368714Y-70828771D01*
X25368714Y-70828771D02*
X25463952Y-70781152D01*
X25463952Y-70781152D02*
X25606809Y-70781152D01*
X25606809Y-70781152D02*
X25702047Y-70828771D01*
X25702047Y-70828771D02*
X25749666Y-70876390D01*
X25749666Y-70876390D02*
X25797285Y-70971628D01*
X25797285Y-70971628D02*
X25797285Y-71257342D01*
X25797285Y-71257342D02*
X25749666Y-71352580D01*
X25749666Y-71352580D02*
X25702047Y-71400200D01*
X25702047Y-71400200D02*
X25606809Y-71447819D01*
X25606809Y-71447819D02*
X25463952Y-71447819D01*
X26225857Y-70781152D02*
X26225857Y-71447819D01*
X26225857Y-70876390D02*
X26273476Y-70828771D01*
X26273476Y-70828771D02*
X26368714Y-70781152D01*
X26368714Y-70781152D02*
X26511571Y-70781152D01*
X26511571Y-70781152D02*
X26606809Y-70828771D01*
X26606809Y-70828771D02*
X26654428Y-70924009D01*
X26654428Y-70924009D02*
X26654428Y-71447819D01*
X27130619Y-70781152D02*
X27130619Y-71447819D01*
X27130619Y-70876390D02*
X27178238Y-70828771D01*
X27178238Y-70828771D02*
X27273476Y-70781152D01*
X27273476Y-70781152D02*
X27416333Y-70781152D01*
X27416333Y-70781152D02*
X27511571Y-70828771D01*
X27511571Y-70828771D02*
X27559190Y-70924009D01*
X27559190Y-70924009D02*
X27559190Y-71447819D01*
X27797286Y-71543057D02*
X28559190Y-71543057D01*
X29368714Y-71352580D02*
X29321095Y-71400200D01*
X29321095Y-71400200D02*
X29178238Y-71447819D01*
X29178238Y-71447819D02*
X29083000Y-71447819D01*
X29083000Y-71447819D02*
X28940143Y-71400200D01*
X28940143Y-71400200D02*
X28844905Y-71304961D01*
X28844905Y-71304961D02*
X28797286Y-71209723D01*
X28797286Y-71209723D02*
X28749667Y-71019247D01*
X28749667Y-71019247D02*
X28749667Y-70876390D01*
X28749667Y-70876390D02*
X28797286Y-70685914D01*
X28797286Y-70685914D02*
X28844905Y-70590676D01*
X28844905Y-70590676D02*
X28940143Y-70495438D01*
X28940143Y-70495438D02*
X29083000Y-70447819D01*
X29083000Y-70447819D02*
X29178238Y-70447819D01*
X29178238Y-70447819D02*
X29321095Y-70495438D01*
X29321095Y-70495438D02*
X29368714Y-70543057D01*
X29940143Y-71447819D02*
X29844905Y-71400200D01*
X29844905Y-71400200D02*
X29797286Y-71352580D01*
X29797286Y-71352580D02*
X29749667Y-71257342D01*
X29749667Y-71257342D02*
X29749667Y-70971628D01*
X29749667Y-70971628D02*
X29797286Y-70876390D01*
X29797286Y-70876390D02*
X29844905Y-70828771D01*
X29844905Y-70828771D02*
X29940143Y-70781152D01*
X29940143Y-70781152D02*
X30083000Y-70781152D01*
X30083000Y-70781152D02*
X30178238Y-70828771D01*
X30178238Y-70828771D02*
X30225857Y-70876390D01*
X30225857Y-70876390D02*
X30273476Y-70971628D01*
X30273476Y-70971628D02*
X30273476Y-71257342D01*
X30273476Y-71257342D02*
X30225857Y-71352580D01*
X30225857Y-71352580D02*
X30178238Y-71400200D01*
X30178238Y-71400200D02*
X30083000Y-71447819D01*
X30083000Y-71447819D02*
X29940143Y-71447819D01*
X31130619Y-71447819D02*
X31130619Y-70924009D01*
X31130619Y-70924009D02*
X31083000Y-70828771D01*
X31083000Y-70828771D02*
X30987762Y-70781152D01*
X30987762Y-70781152D02*
X30797286Y-70781152D01*
X30797286Y-70781152D02*
X30702048Y-70828771D01*
X31130619Y-71400200D02*
X31035381Y-71447819D01*
X31035381Y-71447819D02*
X30797286Y-71447819D01*
X30797286Y-71447819D02*
X30702048Y-71400200D01*
X30702048Y-71400200D02*
X30654429Y-71304961D01*
X30654429Y-71304961D02*
X30654429Y-71209723D01*
X30654429Y-71209723D02*
X30702048Y-71114485D01*
X30702048Y-71114485D02*
X30797286Y-71066866D01*
X30797286Y-71066866D02*
X31035381Y-71066866D01*
X31035381Y-71066866D02*
X31130619Y-71019247D01*
X31511572Y-71447819D02*
X32035381Y-70781152D01*
X31511572Y-70781152D02*
X32035381Y-71447819D01*
X32416334Y-71447819D02*
X32416334Y-70781152D01*
X32416334Y-70447819D02*
X32368715Y-70495438D01*
X32368715Y-70495438D02*
X32416334Y-70543057D01*
X32416334Y-70543057D02*
X32463953Y-70495438D01*
X32463953Y-70495438D02*
X32416334Y-70447819D01*
X32416334Y-70447819D02*
X32416334Y-70543057D01*
X33321095Y-71447819D02*
X33321095Y-70924009D01*
X33321095Y-70924009D02*
X33273476Y-70828771D01*
X33273476Y-70828771D02*
X33178238Y-70781152D01*
X33178238Y-70781152D02*
X32987762Y-70781152D01*
X32987762Y-70781152D02*
X32892524Y-70828771D01*
X33321095Y-71400200D02*
X33225857Y-71447819D01*
X33225857Y-71447819D02*
X32987762Y-71447819D01*
X32987762Y-71447819D02*
X32892524Y-71400200D01*
X32892524Y-71400200D02*
X32844905Y-71304961D01*
X32844905Y-71304961D02*
X32844905Y-71209723D01*
X32844905Y-71209723D02*
X32892524Y-71114485D01*
X32892524Y-71114485D02*
X32987762Y-71066866D01*
X32987762Y-71066866D02*
X33225857Y-71066866D01*
X33225857Y-71066866D02*
X33321095Y-71019247D01*
X33940143Y-71447819D02*
X33844905Y-71400200D01*
X33844905Y-71400200D02*
X33797286Y-71304961D01*
X33797286Y-71304961D02*
X33797286Y-70447819D01*
X27844905Y-77249819D02*
X27844905Y-78059342D01*
X27844905Y-78059342D02*
X27892524Y-78154580D01*
X27892524Y-78154580D02*
X27940143Y-78202200D01*
X27940143Y-78202200D02*
X28035381Y-78249819D01*
X28035381Y-78249819D02*
X28225857Y-78249819D01*
X28225857Y-78249819D02*
X28321095Y-78202200D01*
X28321095Y-78202200D02*
X28368714Y-78154580D01*
X28368714Y-78154580D02*
X28416333Y-78059342D01*
X28416333Y-78059342D02*
X28416333Y-77249819D01*
X28892524Y-78249819D02*
X28892524Y-77249819D01*
X28892524Y-77726009D02*
X29463952Y-77726009D01*
X29463952Y-78249819D02*
X29463952Y-77249819D01*
X30273476Y-77726009D02*
X29940143Y-77726009D01*
X29940143Y-78249819D02*
X29940143Y-77249819D01*
X29940143Y-77249819D02*
X30416333Y-77249819D01*
X52164819Y-36591095D02*
X52879104Y-36591095D01*
X52879104Y-36591095D02*
X53021961Y-36638714D01*
X53021961Y-36638714D02*
X53117200Y-36733952D01*
X53117200Y-36733952D02*
X53164819Y-36876809D01*
X53164819Y-36876809D02*
X53164819Y-36972047D01*
X52498152Y-35686333D02*
X53164819Y-35686333D01*
X52498152Y-36114904D02*
X53021961Y-36114904D01*
X53021961Y-36114904D02*
X53117200Y-36067285D01*
X53117200Y-36067285D02*
X53164819Y-35972047D01*
X53164819Y-35972047D02*
X53164819Y-35829190D01*
X53164819Y-35829190D02*
X53117200Y-35733952D01*
X53117200Y-35733952D02*
X53069580Y-35686333D01*
X53164819Y-35210142D02*
X52498152Y-35210142D01*
X52593390Y-35210142D02*
X52545771Y-35162523D01*
X52545771Y-35162523D02*
X52498152Y-35067285D01*
X52498152Y-35067285D02*
X52498152Y-34924428D01*
X52498152Y-34924428D02*
X52545771Y-34829190D01*
X52545771Y-34829190D02*
X52641009Y-34781571D01*
X52641009Y-34781571D02*
X53164819Y-34781571D01*
X52641009Y-34781571D02*
X52545771Y-34733952D01*
X52545771Y-34733952D02*
X52498152Y-34638714D01*
X52498152Y-34638714D02*
X52498152Y-34495857D01*
X52498152Y-34495857D02*
X52545771Y-34400618D01*
X52545771Y-34400618D02*
X52641009Y-34352999D01*
X52641009Y-34352999D02*
X53164819Y-34352999D01*
X52498152Y-33876809D02*
X53498152Y-33876809D01*
X52545771Y-33876809D02*
X52498152Y-33781571D01*
X52498152Y-33781571D02*
X52498152Y-33591095D01*
X52498152Y-33591095D02*
X52545771Y-33495857D01*
X52545771Y-33495857D02*
X52593390Y-33448238D01*
X52593390Y-33448238D02*
X52688628Y-33400619D01*
X52688628Y-33400619D02*
X52974342Y-33400619D01*
X52974342Y-33400619D02*
X53069580Y-33448238D01*
X53069580Y-33448238D02*
X53117200Y-33495857D01*
X53117200Y-33495857D02*
X53164819Y-33591095D01*
X53164819Y-33591095D02*
X53164819Y-33781571D01*
X53164819Y-33781571D02*
X53117200Y-33876809D01*
X53117200Y-32591095D02*
X53164819Y-32686333D01*
X53164819Y-32686333D02*
X53164819Y-32876809D01*
X53164819Y-32876809D02*
X53117200Y-32972047D01*
X53117200Y-32972047D02*
X53021961Y-33019666D01*
X53021961Y-33019666D02*
X52641009Y-33019666D01*
X52641009Y-33019666D02*
X52545771Y-32972047D01*
X52545771Y-32972047D02*
X52498152Y-32876809D01*
X52498152Y-32876809D02*
X52498152Y-32686333D01*
X52498152Y-32686333D02*
X52545771Y-32591095D01*
X52545771Y-32591095D02*
X52641009Y-32543476D01*
X52641009Y-32543476D02*
X52736247Y-32543476D01*
X52736247Y-32543476D02*
X52831485Y-33019666D01*
X53164819Y-32114904D02*
X52498152Y-32114904D01*
X52688628Y-32114904D02*
X52593390Y-32067285D01*
X52593390Y-32067285D02*
X52545771Y-32019666D01*
X52545771Y-32019666D02*
X52498152Y-31924428D01*
X52498152Y-31924428D02*
X52498152Y-31829190D01*
X53260057Y-31733952D02*
X53260057Y-30972047D01*
X52260057Y-30781570D02*
X52212438Y-30733951D01*
X52212438Y-30733951D02*
X52164819Y-30638713D01*
X52164819Y-30638713D02*
X52164819Y-30400618D01*
X52164819Y-30400618D02*
X52212438Y-30305380D01*
X52212438Y-30305380D02*
X52260057Y-30257761D01*
X52260057Y-30257761D02*
X52355295Y-30210142D01*
X52355295Y-30210142D02*
X52450533Y-30210142D01*
X52450533Y-30210142D02*
X52593390Y-30257761D01*
X52593390Y-30257761D02*
X53164819Y-30829189D01*
X53164819Y-30829189D02*
X53164819Y-30210142D01*
X53260057Y-30019666D02*
X53260057Y-29257761D01*
X52641009Y-28686332D02*
X52688628Y-28543475D01*
X52688628Y-28543475D02*
X52736247Y-28495856D01*
X52736247Y-28495856D02*
X52831485Y-28448237D01*
X52831485Y-28448237D02*
X52974342Y-28448237D01*
X52974342Y-28448237D02*
X53069580Y-28495856D01*
X53069580Y-28495856D02*
X53117200Y-28543475D01*
X53117200Y-28543475D02*
X53164819Y-28638713D01*
X53164819Y-28638713D02*
X53164819Y-29019665D01*
X53164819Y-29019665D02*
X52164819Y-29019665D01*
X52164819Y-29019665D02*
X52164819Y-28686332D01*
X52164819Y-28686332D02*
X52212438Y-28591094D01*
X52212438Y-28591094D02*
X52260057Y-28543475D01*
X52260057Y-28543475D02*
X52355295Y-28495856D01*
X52355295Y-28495856D02*
X52450533Y-28495856D01*
X52450533Y-28495856D02*
X52545771Y-28543475D01*
X52545771Y-28543475D02*
X52593390Y-28591094D01*
X52593390Y-28591094D02*
X52641009Y-28686332D01*
X52641009Y-28686332D02*
X52641009Y-29019665D01*
X53164819Y-28019665D02*
X52498152Y-28019665D01*
X52688628Y-28019665D02*
X52593390Y-27972046D01*
X52593390Y-27972046D02*
X52545771Y-27924427D01*
X52545771Y-27924427D02*
X52498152Y-27829189D01*
X52498152Y-27829189D02*
X52498152Y-27733951D01*
X53164819Y-27400617D02*
X52498152Y-27400617D01*
X52164819Y-27400617D02*
X52212438Y-27448236D01*
X52212438Y-27448236D02*
X52260057Y-27400617D01*
X52260057Y-27400617D02*
X52212438Y-27352998D01*
X52212438Y-27352998D02*
X52164819Y-27400617D01*
X52164819Y-27400617D02*
X52260057Y-27400617D01*
X53164819Y-26495856D02*
X52164819Y-26495856D01*
X53117200Y-26495856D02*
X53164819Y-26591094D01*
X53164819Y-26591094D02*
X53164819Y-26781570D01*
X53164819Y-26781570D02*
X53117200Y-26876808D01*
X53117200Y-26876808D02*
X53069580Y-26924427D01*
X53069580Y-26924427D02*
X52974342Y-26972046D01*
X52974342Y-26972046D02*
X52688628Y-26972046D01*
X52688628Y-26972046D02*
X52593390Y-26924427D01*
X52593390Y-26924427D02*
X52545771Y-26876808D01*
X52545771Y-26876808D02*
X52498152Y-26781570D01*
X52498152Y-26781570D02*
X52498152Y-26591094D01*
X52498152Y-26591094D02*
X52545771Y-26495856D01*
X52498152Y-25591094D02*
X53307676Y-25591094D01*
X53307676Y-25591094D02*
X53402914Y-25638713D01*
X53402914Y-25638713D02*
X53450533Y-25686332D01*
X53450533Y-25686332D02*
X53498152Y-25781570D01*
X53498152Y-25781570D02*
X53498152Y-25924427D01*
X53498152Y-25924427D02*
X53450533Y-26019665D01*
X53117200Y-25591094D02*
X53164819Y-25686332D01*
X53164819Y-25686332D02*
X53164819Y-25876808D01*
X53164819Y-25876808D02*
X53117200Y-25972046D01*
X53117200Y-25972046D02*
X53069580Y-26019665D01*
X53069580Y-26019665D02*
X52974342Y-26067284D01*
X52974342Y-26067284D02*
X52688628Y-26067284D01*
X52688628Y-26067284D02*
X52593390Y-26019665D01*
X52593390Y-26019665D02*
X52545771Y-25972046D01*
X52545771Y-25972046D02*
X52498152Y-25876808D01*
X52498152Y-25876808D02*
X52498152Y-25686332D01*
X52498152Y-25686332D02*
X52545771Y-25591094D01*
X53117200Y-24733951D02*
X53164819Y-24829189D01*
X53164819Y-24829189D02*
X53164819Y-25019665D01*
X53164819Y-25019665D02*
X53117200Y-25114903D01*
X53117200Y-25114903D02*
X53021961Y-25162522D01*
X53021961Y-25162522D02*
X52641009Y-25162522D01*
X52641009Y-25162522D02*
X52545771Y-25114903D01*
X52545771Y-25114903D02*
X52498152Y-25019665D01*
X52498152Y-25019665D02*
X52498152Y-24829189D01*
X52498152Y-24829189D02*
X52545771Y-24733951D01*
X52545771Y-24733951D02*
X52641009Y-24686332D01*
X52641009Y-24686332D02*
X52736247Y-24686332D01*
X52736247Y-24686332D02*
X52831485Y-25162522D01*
X53164819Y-23829189D02*
X52164819Y-23829189D01*
X53117200Y-23829189D02*
X53164819Y-23924427D01*
X53164819Y-23924427D02*
X53164819Y-24114903D01*
X53164819Y-24114903D02*
X53117200Y-24210141D01*
X53117200Y-24210141D02*
X53069580Y-24257760D01*
X53069580Y-24257760D02*
X52974342Y-24305379D01*
X52974342Y-24305379D02*
X52688628Y-24305379D01*
X52688628Y-24305379D02*
X52593390Y-24257760D01*
X52593390Y-24257760D02*
X52545771Y-24210141D01*
X52545771Y-24210141D02*
X52498152Y-24114903D01*
X52498152Y-24114903D02*
X52498152Y-23924427D01*
X52498152Y-23924427D02*
X52545771Y-23829189D01*
X54704819Y-36591095D02*
X55419104Y-36591095D01*
X55419104Y-36591095D02*
X55561961Y-36638714D01*
X55561961Y-36638714D02*
X55657200Y-36733952D01*
X55657200Y-36733952D02*
X55704819Y-36876809D01*
X55704819Y-36876809D02*
X55704819Y-36972047D01*
X55038152Y-35686333D02*
X55704819Y-35686333D01*
X55038152Y-36114904D02*
X55561961Y-36114904D01*
X55561961Y-36114904D02*
X55657200Y-36067285D01*
X55657200Y-36067285D02*
X55704819Y-35972047D01*
X55704819Y-35972047D02*
X55704819Y-35829190D01*
X55704819Y-35829190D02*
X55657200Y-35733952D01*
X55657200Y-35733952D02*
X55609580Y-35686333D01*
X55704819Y-35210142D02*
X55038152Y-35210142D01*
X55133390Y-35210142D02*
X55085771Y-35162523D01*
X55085771Y-35162523D02*
X55038152Y-35067285D01*
X55038152Y-35067285D02*
X55038152Y-34924428D01*
X55038152Y-34924428D02*
X55085771Y-34829190D01*
X55085771Y-34829190D02*
X55181009Y-34781571D01*
X55181009Y-34781571D02*
X55704819Y-34781571D01*
X55181009Y-34781571D02*
X55085771Y-34733952D01*
X55085771Y-34733952D02*
X55038152Y-34638714D01*
X55038152Y-34638714D02*
X55038152Y-34495857D01*
X55038152Y-34495857D02*
X55085771Y-34400618D01*
X55085771Y-34400618D02*
X55181009Y-34352999D01*
X55181009Y-34352999D02*
X55704819Y-34352999D01*
X55038152Y-33876809D02*
X56038152Y-33876809D01*
X55085771Y-33876809D02*
X55038152Y-33781571D01*
X55038152Y-33781571D02*
X55038152Y-33591095D01*
X55038152Y-33591095D02*
X55085771Y-33495857D01*
X55085771Y-33495857D02*
X55133390Y-33448238D01*
X55133390Y-33448238D02*
X55228628Y-33400619D01*
X55228628Y-33400619D02*
X55514342Y-33400619D01*
X55514342Y-33400619D02*
X55609580Y-33448238D01*
X55609580Y-33448238D02*
X55657200Y-33495857D01*
X55657200Y-33495857D02*
X55704819Y-33591095D01*
X55704819Y-33591095D02*
X55704819Y-33781571D01*
X55704819Y-33781571D02*
X55657200Y-33876809D01*
X55657200Y-32591095D02*
X55704819Y-32686333D01*
X55704819Y-32686333D02*
X55704819Y-32876809D01*
X55704819Y-32876809D02*
X55657200Y-32972047D01*
X55657200Y-32972047D02*
X55561961Y-33019666D01*
X55561961Y-33019666D02*
X55181009Y-33019666D01*
X55181009Y-33019666D02*
X55085771Y-32972047D01*
X55085771Y-32972047D02*
X55038152Y-32876809D01*
X55038152Y-32876809D02*
X55038152Y-32686333D01*
X55038152Y-32686333D02*
X55085771Y-32591095D01*
X55085771Y-32591095D02*
X55181009Y-32543476D01*
X55181009Y-32543476D02*
X55276247Y-32543476D01*
X55276247Y-32543476D02*
X55371485Y-33019666D01*
X55704819Y-32114904D02*
X55038152Y-32114904D01*
X55228628Y-32114904D02*
X55133390Y-32067285D01*
X55133390Y-32067285D02*
X55085771Y-32019666D01*
X55085771Y-32019666D02*
X55038152Y-31924428D01*
X55038152Y-31924428D02*
X55038152Y-31829190D01*
X55800057Y-31733952D02*
X55800057Y-30972047D01*
X54800057Y-30781570D02*
X54752438Y-30733951D01*
X54752438Y-30733951D02*
X54704819Y-30638713D01*
X54704819Y-30638713D02*
X54704819Y-30400618D01*
X54704819Y-30400618D02*
X54752438Y-30305380D01*
X54752438Y-30305380D02*
X54800057Y-30257761D01*
X54800057Y-30257761D02*
X54895295Y-30210142D01*
X54895295Y-30210142D02*
X54990533Y-30210142D01*
X54990533Y-30210142D02*
X55133390Y-30257761D01*
X55133390Y-30257761D02*
X55704819Y-30829189D01*
X55704819Y-30829189D02*
X55704819Y-30210142D01*
X55800057Y-30019666D02*
X55800057Y-29257761D01*
X55181009Y-28686332D02*
X55228628Y-28543475D01*
X55228628Y-28543475D02*
X55276247Y-28495856D01*
X55276247Y-28495856D02*
X55371485Y-28448237D01*
X55371485Y-28448237D02*
X55514342Y-28448237D01*
X55514342Y-28448237D02*
X55609580Y-28495856D01*
X55609580Y-28495856D02*
X55657200Y-28543475D01*
X55657200Y-28543475D02*
X55704819Y-28638713D01*
X55704819Y-28638713D02*
X55704819Y-29019665D01*
X55704819Y-29019665D02*
X54704819Y-29019665D01*
X54704819Y-29019665D02*
X54704819Y-28686332D01*
X54704819Y-28686332D02*
X54752438Y-28591094D01*
X54752438Y-28591094D02*
X54800057Y-28543475D01*
X54800057Y-28543475D02*
X54895295Y-28495856D01*
X54895295Y-28495856D02*
X54990533Y-28495856D01*
X54990533Y-28495856D02*
X55085771Y-28543475D01*
X55085771Y-28543475D02*
X55133390Y-28591094D01*
X55133390Y-28591094D02*
X55181009Y-28686332D01*
X55181009Y-28686332D02*
X55181009Y-29019665D01*
X55704819Y-28019665D02*
X55038152Y-28019665D01*
X55228628Y-28019665D02*
X55133390Y-27972046D01*
X55133390Y-27972046D02*
X55085771Y-27924427D01*
X55085771Y-27924427D02*
X55038152Y-27829189D01*
X55038152Y-27829189D02*
X55038152Y-27733951D01*
X55704819Y-27400617D02*
X55038152Y-27400617D01*
X54704819Y-27400617D02*
X54752438Y-27448236D01*
X54752438Y-27448236D02*
X54800057Y-27400617D01*
X54800057Y-27400617D02*
X54752438Y-27352998D01*
X54752438Y-27352998D02*
X54704819Y-27400617D01*
X54704819Y-27400617D02*
X54800057Y-27400617D01*
X55704819Y-26495856D02*
X54704819Y-26495856D01*
X55657200Y-26495856D02*
X55704819Y-26591094D01*
X55704819Y-26591094D02*
X55704819Y-26781570D01*
X55704819Y-26781570D02*
X55657200Y-26876808D01*
X55657200Y-26876808D02*
X55609580Y-26924427D01*
X55609580Y-26924427D02*
X55514342Y-26972046D01*
X55514342Y-26972046D02*
X55228628Y-26972046D01*
X55228628Y-26972046D02*
X55133390Y-26924427D01*
X55133390Y-26924427D02*
X55085771Y-26876808D01*
X55085771Y-26876808D02*
X55038152Y-26781570D01*
X55038152Y-26781570D02*
X55038152Y-26591094D01*
X55038152Y-26591094D02*
X55085771Y-26495856D01*
X55038152Y-25591094D02*
X55847676Y-25591094D01*
X55847676Y-25591094D02*
X55942914Y-25638713D01*
X55942914Y-25638713D02*
X55990533Y-25686332D01*
X55990533Y-25686332D02*
X56038152Y-25781570D01*
X56038152Y-25781570D02*
X56038152Y-25924427D01*
X56038152Y-25924427D02*
X55990533Y-26019665D01*
X55657200Y-25591094D02*
X55704819Y-25686332D01*
X55704819Y-25686332D02*
X55704819Y-25876808D01*
X55704819Y-25876808D02*
X55657200Y-25972046D01*
X55657200Y-25972046D02*
X55609580Y-26019665D01*
X55609580Y-26019665D02*
X55514342Y-26067284D01*
X55514342Y-26067284D02*
X55228628Y-26067284D01*
X55228628Y-26067284D02*
X55133390Y-26019665D01*
X55133390Y-26019665D02*
X55085771Y-25972046D01*
X55085771Y-25972046D02*
X55038152Y-25876808D01*
X55038152Y-25876808D02*
X55038152Y-25686332D01*
X55038152Y-25686332D02*
X55085771Y-25591094D01*
X55657200Y-24733951D02*
X55704819Y-24829189D01*
X55704819Y-24829189D02*
X55704819Y-25019665D01*
X55704819Y-25019665D02*
X55657200Y-25114903D01*
X55657200Y-25114903D02*
X55561961Y-25162522D01*
X55561961Y-25162522D02*
X55181009Y-25162522D01*
X55181009Y-25162522D02*
X55085771Y-25114903D01*
X55085771Y-25114903D02*
X55038152Y-25019665D01*
X55038152Y-25019665D02*
X55038152Y-24829189D01*
X55038152Y-24829189D02*
X55085771Y-24733951D01*
X55085771Y-24733951D02*
X55181009Y-24686332D01*
X55181009Y-24686332D02*
X55276247Y-24686332D01*
X55276247Y-24686332D02*
X55371485Y-25162522D01*
X55704819Y-23829189D02*
X54704819Y-23829189D01*
X55657200Y-23829189D02*
X55704819Y-23924427D01*
X55704819Y-23924427D02*
X55704819Y-24114903D01*
X55704819Y-24114903D02*
X55657200Y-24210141D01*
X55657200Y-24210141D02*
X55609580Y-24257760D01*
X55609580Y-24257760D02*
X55514342Y-24305379D01*
X55514342Y-24305379D02*
X55228628Y-24305379D01*
X55228628Y-24305379D02*
X55133390Y-24257760D01*
X55133390Y-24257760D02*
X55085771Y-24210141D01*
X55085771Y-24210141D02*
X55038152Y-24114903D01*
X55038152Y-24114903D02*
X55038152Y-23924427D01*
X55038152Y-23924427D02*
X55085771Y-23829189D01*
X52164819Y-49545095D02*
X52879104Y-49545095D01*
X52879104Y-49545095D02*
X53021961Y-49592714D01*
X53021961Y-49592714D02*
X53117200Y-49687952D01*
X53117200Y-49687952D02*
X53164819Y-49830809D01*
X53164819Y-49830809D02*
X53164819Y-49926047D01*
X52498152Y-48640333D02*
X53164819Y-48640333D01*
X52498152Y-49068904D02*
X53021961Y-49068904D01*
X53021961Y-49068904D02*
X53117200Y-49021285D01*
X53117200Y-49021285D02*
X53164819Y-48926047D01*
X53164819Y-48926047D02*
X53164819Y-48783190D01*
X53164819Y-48783190D02*
X53117200Y-48687952D01*
X53117200Y-48687952D02*
X53069580Y-48640333D01*
X53164819Y-48164142D02*
X52498152Y-48164142D01*
X52593390Y-48164142D02*
X52545771Y-48116523D01*
X52545771Y-48116523D02*
X52498152Y-48021285D01*
X52498152Y-48021285D02*
X52498152Y-47878428D01*
X52498152Y-47878428D02*
X52545771Y-47783190D01*
X52545771Y-47783190D02*
X52641009Y-47735571D01*
X52641009Y-47735571D02*
X53164819Y-47735571D01*
X52641009Y-47735571D02*
X52545771Y-47687952D01*
X52545771Y-47687952D02*
X52498152Y-47592714D01*
X52498152Y-47592714D02*
X52498152Y-47449857D01*
X52498152Y-47449857D02*
X52545771Y-47354618D01*
X52545771Y-47354618D02*
X52641009Y-47306999D01*
X52641009Y-47306999D02*
X53164819Y-47306999D01*
X52498152Y-46830809D02*
X53498152Y-46830809D01*
X52545771Y-46830809D02*
X52498152Y-46735571D01*
X52498152Y-46735571D02*
X52498152Y-46545095D01*
X52498152Y-46545095D02*
X52545771Y-46449857D01*
X52545771Y-46449857D02*
X52593390Y-46402238D01*
X52593390Y-46402238D02*
X52688628Y-46354619D01*
X52688628Y-46354619D02*
X52974342Y-46354619D01*
X52974342Y-46354619D02*
X53069580Y-46402238D01*
X53069580Y-46402238D02*
X53117200Y-46449857D01*
X53117200Y-46449857D02*
X53164819Y-46545095D01*
X53164819Y-46545095D02*
X53164819Y-46735571D01*
X53164819Y-46735571D02*
X53117200Y-46830809D01*
X53117200Y-45545095D02*
X53164819Y-45640333D01*
X53164819Y-45640333D02*
X53164819Y-45830809D01*
X53164819Y-45830809D02*
X53117200Y-45926047D01*
X53117200Y-45926047D02*
X53021961Y-45973666D01*
X53021961Y-45973666D02*
X52641009Y-45973666D01*
X52641009Y-45973666D02*
X52545771Y-45926047D01*
X52545771Y-45926047D02*
X52498152Y-45830809D01*
X52498152Y-45830809D02*
X52498152Y-45640333D01*
X52498152Y-45640333D02*
X52545771Y-45545095D01*
X52545771Y-45545095D02*
X52641009Y-45497476D01*
X52641009Y-45497476D02*
X52736247Y-45497476D01*
X52736247Y-45497476D02*
X52831485Y-45973666D01*
X53164819Y-45068904D02*
X52498152Y-45068904D01*
X52688628Y-45068904D02*
X52593390Y-45021285D01*
X52593390Y-45021285D02*
X52545771Y-44973666D01*
X52545771Y-44973666D02*
X52498152Y-44878428D01*
X52498152Y-44878428D02*
X52498152Y-44783190D01*
X53260057Y-44687952D02*
X53260057Y-43926047D01*
X52260057Y-43735570D02*
X52212438Y-43687951D01*
X52212438Y-43687951D02*
X52164819Y-43592713D01*
X52164819Y-43592713D02*
X52164819Y-43354618D01*
X52164819Y-43354618D02*
X52212438Y-43259380D01*
X52212438Y-43259380D02*
X52260057Y-43211761D01*
X52260057Y-43211761D02*
X52355295Y-43164142D01*
X52355295Y-43164142D02*
X52450533Y-43164142D01*
X52450533Y-43164142D02*
X52593390Y-43211761D01*
X52593390Y-43211761D02*
X53164819Y-43783189D01*
X53164819Y-43783189D02*
X53164819Y-43164142D01*
X53260057Y-42973666D02*
X53260057Y-42211761D01*
X52641009Y-41640332D02*
X52688628Y-41497475D01*
X52688628Y-41497475D02*
X52736247Y-41449856D01*
X52736247Y-41449856D02*
X52831485Y-41402237D01*
X52831485Y-41402237D02*
X52974342Y-41402237D01*
X52974342Y-41402237D02*
X53069580Y-41449856D01*
X53069580Y-41449856D02*
X53117200Y-41497475D01*
X53117200Y-41497475D02*
X53164819Y-41592713D01*
X53164819Y-41592713D02*
X53164819Y-41973665D01*
X53164819Y-41973665D02*
X52164819Y-41973665D01*
X52164819Y-41973665D02*
X52164819Y-41640332D01*
X52164819Y-41640332D02*
X52212438Y-41545094D01*
X52212438Y-41545094D02*
X52260057Y-41497475D01*
X52260057Y-41497475D02*
X52355295Y-41449856D01*
X52355295Y-41449856D02*
X52450533Y-41449856D01*
X52450533Y-41449856D02*
X52545771Y-41497475D01*
X52545771Y-41497475D02*
X52593390Y-41545094D01*
X52593390Y-41545094D02*
X52641009Y-41640332D01*
X52641009Y-41640332D02*
X52641009Y-41973665D01*
X53164819Y-40973665D02*
X52498152Y-40973665D01*
X52688628Y-40973665D02*
X52593390Y-40926046D01*
X52593390Y-40926046D02*
X52545771Y-40878427D01*
X52545771Y-40878427D02*
X52498152Y-40783189D01*
X52498152Y-40783189D02*
X52498152Y-40687951D01*
X53164819Y-40354617D02*
X52498152Y-40354617D01*
X52164819Y-40354617D02*
X52212438Y-40402236D01*
X52212438Y-40402236D02*
X52260057Y-40354617D01*
X52260057Y-40354617D02*
X52212438Y-40306998D01*
X52212438Y-40306998D02*
X52164819Y-40354617D01*
X52164819Y-40354617D02*
X52260057Y-40354617D01*
X53164819Y-39449856D02*
X52164819Y-39449856D01*
X53117200Y-39449856D02*
X53164819Y-39545094D01*
X53164819Y-39545094D02*
X53164819Y-39735570D01*
X53164819Y-39735570D02*
X53117200Y-39830808D01*
X53117200Y-39830808D02*
X53069580Y-39878427D01*
X53069580Y-39878427D02*
X52974342Y-39926046D01*
X52974342Y-39926046D02*
X52688628Y-39926046D01*
X52688628Y-39926046D02*
X52593390Y-39878427D01*
X52593390Y-39878427D02*
X52545771Y-39830808D01*
X52545771Y-39830808D02*
X52498152Y-39735570D01*
X52498152Y-39735570D02*
X52498152Y-39545094D01*
X52498152Y-39545094D02*
X52545771Y-39449856D01*
X52498152Y-38545094D02*
X53307676Y-38545094D01*
X53307676Y-38545094D02*
X53402914Y-38592713D01*
X53402914Y-38592713D02*
X53450533Y-38640332D01*
X53450533Y-38640332D02*
X53498152Y-38735570D01*
X53498152Y-38735570D02*
X53498152Y-38878427D01*
X53498152Y-38878427D02*
X53450533Y-38973665D01*
X53117200Y-38545094D02*
X53164819Y-38640332D01*
X53164819Y-38640332D02*
X53164819Y-38830808D01*
X53164819Y-38830808D02*
X53117200Y-38926046D01*
X53117200Y-38926046D02*
X53069580Y-38973665D01*
X53069580Y-38973665D02*
X52974342Y-39021284D01*
X52974342Y-39021284D02*
X52688628Y-39021284D01*
X52688628Y-39021284D02*
X52593390Y-38973665D01*
X52593390Y-38973665D02*
X52545771Y-38926046D01*
X52545771Y-38926046D02*
X52498152Y-38830808D01*
X52498152Y-38830808D02*
X52498152Y-38640332D01*
X52498152Y-38640332D02*
X52545771Y-38545094D01*
X53117200Y-37687951D02*
X53164819Y-37783189D01*
X53164819Y-37783189D02*
X53164819Y-37973665D01*
X53164819Y-37973665D02*
X53117200Y-38068903D01*
X53117200Y-38068903D02*
X53021961Y-38116522D01*
X53021961Y-38116522D02*
X52641009Y-38116522D01*
X52641009Y-38116522D02*
X52545771Y-38068903D01*
X52545771Y-38068903D02*
X52498152Y-37973665D01*
X52498152Y-37973665D02*
X52498152Y-37783189D01*
X52498152Y-37783189D02*
X52545771Y-37687951D01*
X52545771Y-37687951D02*
X52641009Y-37640332D01*
X52641009Y-37640332D02*
X52736247Y-37640332D01*
X52736247Y-37640332D02*
X52831485Y-38116522D01*
X53164819Y-36783189D02*
X52164819Y-36783189D01*
X53117200Y-36783189D02*
X53164819Y-36878427D01*
X53164819Y-36878427D02*
X53164819Y-37068903D01*
X53164819Y-37068903D02*
X53117200Y-37164141D01*
X53117200Y-37164141D02*
X53069580Y-37211760D01*
X53069580Y-37211760D02*
X52974342Y-37259379D01*
X52974342Y-37259379D02*
X52688628Y-37259379D01*
X52688628Y-37259379D02*
X52593390Y-37211760D01*
X52593390Y-37211760D02*
X52545771Y-37164141D01*
X52545771Y-37164141D02*
X52498152Y-37068903D01*
X52498152Y-37068903D02*
X52498152Y-36878427D01*
X52498152Y-36878427D02*
X52545771Y-36783189D01*
X33393333Y-30944819D02*
X32917143Y-30944819D01*
X32917143Y-30944819D02*
X32917143Y-29944819D01*
X33726667Y-30944819D02*
X33726667Y-29944819D01*
X33726667Y-29944819D02*
X34060000Y-30659104D01*
X34060000Y-30659104D02*
X34393333Y-29944819D01*
X34393333Y-29944819D02*
X34393333Y-30944819D01*
X35298095Y-30278152D02*
X35298095Y-30944819D01*
X35060000Y-29897200D02*
X34821905Y-30611485D01*
X34821905Y-30611485D02*
X35440952Y-30611485D01*
X35964762Y-30373390D02*
X35869524Y-30325771D01*
X35869524Y-30325771D02*
X35821905Y-30278152D01*
X35821905Y-30278152D02*
X35774286Y-30182914D01*
X35774286Y-30182914D02*
X35774286Y-30135295D01*
X35774286Y-30135295D02*
X35821905Y-30040057D01*
X35821905Y-30040057D02*
X35869524Y-29992438D01*
X35869524Y-29992438D02*
X35964762Y-29944819D01*
X35964762Y-29944819D02*
X36155238Y-29944819D01*
X36155238Y-29944819D02*
X36250476Y-29992438D01*
X36250476Y-29992438D02*
X36298095Y-30040057D01*
X36298095Y-30040057D02*
X36345714Y-30135295D01*
X36345714Y-30135295D02*
X36345714Y-30182914D01*
X36345714Y-30182914D02*
X36298095Y-30278152D01*
X36298095Y-30278152D02*
X36250476Y-30325771D01*
X36250476Y-30325771D02*
X36155238Y-30373390D01*
X36155238Y-30373390D02*
X35964762Y-30373390D01*
X35964762Y-30373390D02*
X35869524Y-30421009D01*
X35869524Y-30421009D02*
X35821905Y-30468628D01*
X35821905Y-30468628D02*
X35774286Y-30563866D01*
X35774286Y-30563866D02*
X35774286Y-30754342D01*
X35774286Y-30754342D02*
X35821905Y-30849580D01*
X35821905Y-30849580D02*
X35869524Y-30897200D01*
X35869524Y-30897200D02*
X35964762Y-30944819D01*
X35964762Y-30944819D02*
X36155238Y-30944819D01*
X36155238Y-30944819D02*
X36250476Y-30897200D01*
X36250476Y-30897200D02*
X36298095Y-30849580D01*
X36298095Y-30849580D02*
X36345714Y-30754342D01*
X36345714Y-30754342D02*
X36345714Y-30563866D01*
X36345714Y-30563866D02*
X36298095Y-30468628D01*
X36298095Y-30468628D02*
X36250476Y-30421009D01*
X36250476Y-30421009D02*
X36155238Y-30373390D01*
X37298095Y-30944819D02*
X36726667Y-30944819D01*
X37012381Y-30944819D02*
X37012381Y-29944819D01*
X37012381Y-29944819D02*
X36917143Y-30087676D01*
X36917143Y-30087676D02*
X36821905Y-30182914D01*
X36821905Y-30182914D02*
X36726667Y-30230533D01*
X37917143Y-29944819D02*
X38012381Y-29944819D01*
X38012381Y-29944819D02*
X38107619Y-29992438D01*
X38107619Y-29992438D02*
X38155238Y-30040057D01*
X38155238Y-30040057D02*
X38202857Y-30135295D01*
X38202857Y-30135295D02*
X38250476Y-30325771D01*
X38250476Y-30325771D02*
X38250476Y-30563866D01*
X38250476Y-30563866D02*
X38202857Y-30754342D01*
X38202857Y-30754342D02*
X38155238Y-30849580D01*
X38155238Y-30849580D02*
X38107619Y-30897200D01*
X38107619Y-30897200D02*
X38012381Y-30944819D01*
X38012381Y-30944819D02*
X37917143Y-30944819D01*
X37917143Y-30944819D02*
X37821905Y-30897200D01*
X37821905Y-30897200D02*
X37774286Y-30849580D01*
X37774286Y-30849580D02*
X37726667Y-30754342D01*
X37726667Y-30754342D02*
X37679048Y-30563866D01*
X37679048Y-30563866D02*
X37679048Y-30325771D01*
X37679048Y-30325771D02*
X37726667Y-30135295D01*
X37726667Y-30135295D02*
X37774286Y-30040057D01*
X37774286Y-30040057D02*
X37821905Y-29992438D01*
X37821905Y-29992438D02*
X37917143Y-29944819D01*
X35102857Y-27609771D02*
X35102857Y-28095485D01*
X35102857Y-28095485D02*
X35131428Y-28152628D01*
X35131428Y-28152628D02*
X35160000Y-28181200D01*
X35160000Y-28181200D02*
X35217142Y-28209771D01*
X35217142Y-28209771D02*
X35331428Y-28209771D01*
X35331428Y-28209771D02*
X35388571Y-28181200D01*
X35388571Y-28181200D02*
X35417142Y-28152628D01*
X35417142Y-28152628D02*
X35445714Y-28095485D01*
X35445714Y-28095485D02*
X35445714Y-27609771D01*
X35674285Y-27609771D02*
X36045713Y-27609771D01*
X36045713Y-27609771D02*
X35845713Y-27838342D01*
X35845713Y-27838342D02*
X35931428Y-27838342D01*
X35931428Y-27838342D02*
X35988571Y-27866914D01*
X35988571Y-27866914D02*
X36017142Y-27895485D01*
X36017142Y-27895485D02*
X36045713Y-27952628D01*
X36045713Y-27952628D02*
X36045713Y-28095485D01*
X36045713Y-28095485D02*
X36017142Y-28152628D01*
X36017142Y-28152628D02*
X35988571Y-28181200D01*
X35988571Y-28181200D02*
X35931428Y-28209771D01*
X35931428Y-28209771D02*
X35759999Y-28209771D01*
X35759999Y-28209771D02*
X35702856Y-28181200D01*
X35702856Y-28181200D02*
X35674285Y-28152628D01*
X26678143Y-55905057D02*
X26725762Y-55857438D01*
X26725762Y-55857438D02*
X26821000Y-55809819D01*
X26821000Y-55809819D02*
X27059095Y-55809819D01*
X27059095Y-55809819D02*
X27154333Y-55857438D01*
X27154333Y-55857438D02*
X27201952Y-55905057D01*
X27201952Y-55905057D02*
X27249571Y-56000295D01*
X27249571Y-56000295D02*
X27249571Y-56095533D01*
X27249571Y-56095533D02*
X27201952Y-56238390D01*
X27201952Y-56238390D02*
X26630524Y-56809819D01*
X26630524Y-56809819D02*
X27249571Y-56809819D01*
X27582905Y-55809819D02*
X28249571Y-55809819D01*
X28249571Y-55809819D02*
X27821000Y-56809819D01*
X28630524Y-56143152D02*
X28630524Y-57143152D01*
X28630524Y-56190771D02*
X28725762Y-56143152D01*
X28725762Y-56143152D02*
X28916238Y-56143152D01*
X28916238Y-56143152D02*
X29011476Y-56190771D01*
X29011476Y-56190771D02*
X29059095Y-56238390D01*
X29059095Y-56238390D02*
X29106714Y-56333628D01*
X29106714Y-56333628D02*
X29106714Y-56619342D01*
X29106714Y-56619342D02*
X29059095Y-56714580D01*
X29059095Y-56714580D02*
X29011476Y-56762200D01*
X29011476Y-56762200D02*
X28916238Y-56809819D01*
X28916238Y-56809819D02*
X28725762Y-56809819D01*
X28725762Y-56809819D02*
X28630524Y-56762200D01*
X29868619Y-56286009D02*
X29535286Y-56286009D01*
X29535286Y-56809819D02*
X29535286Y-55809819D01*
X29535286Y-55809819D02*
X30011476Y-55809819D01*
D11*
X28254333Y-57928832D02*
X28235285Y-57947880D01*
X28235285Y-57947880D02*
X28178143Y-57966927D01*
X28178143Y-57966927D02*
X28140047Y-57966927D01*
X28140047Y-57966927D02*
X28082904Y-57947880D01*
X28082904Y-57947880D02*
X28044809Y-57909784D01*
X28044809Y-57909784D02*
X28025762Y-57871689D01*
X28025762Y-57871689D02*
X28006714Y-57795499D01*
X28006714Y-57795499D02*
X28006714Y-57738356D01*
X28006714Y-57738356D02*
X28025762Y-57662165D01*
X28025762Y-57662165D02*
X28044809Y-57624070D01*
X28044809Y-57624070D02*
X28082904Y-57585975D01*
X28082904Y-57585975D02*
X28140047Y-57566927D01*
X28140047Y-57566927D02*
X28178143Y-57566927D01*
X28178143Y-57566927D02*
X28235285Y-57585975D01*
X28235285Y-57585975D02*
X28254333Y-57605022D01*
X28635285Y-57966927D02*
X28406714Y-57966927D01*
X28521000Y-57966927D02*
X28521000Y-57566927D01*
X28521000Y-57566927D02*
X28482904Y-57624070D01*
X28482904Y-57624070D02*
X28444809Y-57662165D01*
X28444809Y-57662165D02*
X28406714Y-57681213D01*
D10*
X26678143Y-60477057D02*
X26725762Y-60429438D01*
X26725762Y-60429438D02*
X26821000Y-60381819D01*
X26821000Y-60381819D02*
X27059095Y-60381819D01*
X27059095Y-60381819D02*
X27154333Y-60429438D01*
X27154333Y-60429438D02*
X27201952Y-60477057D01*
X27201952Y-60477057D02*
X27249571Y-60572295D01*
X27249571Y-60572295D02*
X27249571Y-60667533D01*
X27249571Y-60667533D02*
X27201952Y-60810390D01*
X27201952Y-60810390D02*
X26630524Y-61381819D01*
X26630524Y-61381819D02*
X27249571Y-61381819D01*
X27582905Y-60381819D02*
X28249571Y-60381819D01*
X28249571Y-60381819D02*
X27821000Y-61381819D01*
X28630524Y-60715152D02*
X28630524Y-61715152D01*
X28630524Y-60762771D02*
X28725762Y-60715152D01*
X28725762Y-60715152D02*
X28916238Y-60715152D01*
X28916238Y-60715152D02*
X29011476Y-60762771D01*
X29011476Y-60762771D02*
X29059095Y-60810390D01*
X29059095Y-60810390D02*
X29106714Y-60905628D01*
X29106714Y-60905628D02*
X29106714Y-61191342D01*
X29106714Y-61191342D02*
X29059095Y-61286580D01*
X29059095Y-61286580D02*
X29011476Y-61334200D01*
X29011476Y-61334200D02*
X28916238Y-61381819D01*
X28916238Y-61381819D02*
X28725762Y-61381819D01*
X28725762Y-61381819D02*
X28630524Y-61334200D01*
X29868619Y-60858009D02*
X29535286Y-60858009D01*
X29535286Y-61381819D02*
X29535286Y-60381819D01*
X29535286Y-60381819D02*
X30011476Y-60381819D01*
D11*
X28254333Y-62500832D02*
X28235285Y-62519880D01*
X28235285Y-62519880D02*
X28178143Y-62538927D01*
X28178143Y-62538927D02*
X28140047Y-62538927D01*
X28140047Y-62538927D02*
X28082904Y-62519880D01*
X28082904Y-62519880D02*
X28044809Y-62481784D01*
X28044809Y-62481784D02*
X28025762Y-62443689D01*
X28025762Y-62443689D02*
X28006714Y-62367499D01*
X28006714Y-62367499D02*
X28006714Y-62310356D01*
X28006714Y-62310356D02*
X28025762Y-62234165D01*
X28025762Y-62234165D02*
X28044809Y-62196070D01*
X28044809Y-62196070D02*
X28082904Y-62157975D01*
X28082904Y-62157975D02*
X28140047Y-62138927D01*
X28140047Y-62138927D02*
X28178143Y-62138927D01*
X28178143Y-62138927D02*
X28235285Y-62157975D01*
X28235285Y-62157975D02*
X28254333Y-62177022D01*
X28406714Y-62177022D02*
X28425762Y-62157975D01*
X28425762Y-62157975D02*
X28463857Y-62138927D01*
X28463857Y-62138927D02*
X28559095Y-62138927D01*
X28559095Y-62138927D02*
X28597190Y-62157975D01*
X28597190Y-62157975D02*
X28616238Y-62177022D01*
X28616238Y-62177022D02*
X28635285Y-62215118D01*
X28635285Y-62215118D02*
X28635285Y-62253213D01*
X28635285Y-62253213D02*
X28616238Y-62310356D01*
X28616238Y-62310356D02*
X28387666Y-62538927D01*
X28387666Y-62538927D02*
X28635285Y-62538927D01*
D10*
X26630524Y-79098390D02*
X26535286Y-79050771D01*
X26535286Y-79050771D02*
X26487667Y-79003152D01*
X26487667Y-79003152D02*
X26440048Y-78907914D01*
X26440048Y-78907914D02*
X26440048Y-78860295D01*
X26440048Y-78860295D02*
X26487667Y-78765057D01*
X26487667Y-78765057D02*
X26535286Y-78717438D01*
X26535286Y-78717438D02*
X26630524Y-78669819D01*
X26630524Y-78669819D02*
X26821000Y-78669819D01*
X26821000Y-78669819D02*
X26916238Y-78717438D01*
X26916238Y-78717438D02*
X26963857Y-78765057D01*
X26963857Y-78765057D02*
X27011476Y-78860295D01*
X27011476Y-78860295D02*
X27011476Y-78907914D01*
X27011476Y-78907914D02*
X26963857Y-79003152D01*
X26963857Y-79003152D02*
X26916238Y-79050771D01*
X26916238Y-79050771D02*
X26821000Y-79098390D01*
X26821000Y-79098390D02*
X26630524Y-79098390D01*
X26630524Y-79098390D02*
X26535286Y-79146009D01*
X26535286Y-79146009D02*
X26487667Y-79193628D01*
X26487667Y-79193628D02*
X26440048Y-79288866D01*
X26440048Y-79288866D02*
X26440048Y-79479342D01*
X26440048Y-79479342D02*
X26487667Y-79574580D01*
X26487667Y-79574580D02*
X26535286Y-79622200D01*
X26535286Y-79622200D02*
X26630524Y-79669819D01*
X26630524Y-79669819D02*
X26821000Y-79669819D01*
X26821000Y-79669819D02*
X26916238Y-79622200D01*
X26916238Y-79622200D02*
X26963857Y-79574580D01*
X26963857Y-79574580D02*
X27011476Y-79479342D01*
X27011476Y-79479342D02*
X27011476Y-79288866D01*
X27011476Y-79288866D02*
X26963857Y-79193628D01*
X26963857Y-79193628D02*
X26916238Y-79146009D01*
X26916238Y-79146009D02*
X26821000Y-79098390D01*
X27440048Y-79574580D02*
X27487667Y-79622200D01*
X27487667Y-79622200D02*
X27440048Y-79669819D01*
X27440048Y-79669819D02*
X27392429Y-79622200D01*
X27392429Y-79622200D02*
X27440048Y-79574580D01*
X27440048Y-79574580D02*
X27440048Y-79669819D01*
X27821000Y-78669819D02*
X28487666Y-78669819D01*
X28487666Y-78669819D02*
X28059095Y-79669819D01*
X28868619Y-79003152D02*
X28868619Y-80003152D01*
X28868619Y-79050771D02*
X28963857Y-79003152D01*
X28963857Y-79003152D02*
X29154333Y-79003152D01*
X29154333Y-79003152D02*
X29249571Y-79050771D01*
X29249571Y-79050771D02*
X29297190Y-79098390D01*
X29297190Y-79098390D02*
X29344809Y-79193628D01*
X29344809Y-79193628D02*
X29344809Y-79479342D01*
X29344809Y-79479342D02*
X29297190Y-79574580D01*
X29297190Y-79574580D02*
X29249571Y-79622200D01*
X29249571Y-79622200D02*
X29154333Y-79669819D01*
X29154333Y-79669819D02*
X28963857Y-79669819D01*
X28963857Y-79669819D02*
X28868619Y-79622200D01*
X30106714Y-79146009D02*
X29773381Y-79146009D01*
X29773381Y-79669819D02*
X29773381Y-78669819D01*
X29773381Y-78669819D02*
X30249571Y-78669819D01*
D11*
X28254333Y-80788832D02*
X28235285Y-80807880D01*
X28235285Y-80807880D02*
X28178143Y-80826927D01*
X28178143Y-80826927D02*
X28140047Y-80826927D01*
X28140047Y-80826927D02*
X28082904Y-80807880D01*
X28082904Y-80807880D02*
X28044809Y-80769784D01*
X28044809Y-80769784D02*
X28025762Y-80731689D01*
X28025762Y-80731689D02*
X28006714Y-80655499D01*
X28006714Y-80655499D02*
X28006714Y-80598356D01*
X28006714Y-80598356D02*
X28025762Y-80522165D01*
X28025762Y-80522165D02*
X28044809Y-80484070D01*
X28044809Y-80484070D02*
X28082904Y-80445975D01*
X28082904Y-80445975D02*
X28140047Y-80426927D01*
X28140047Y-80426927D02*
X28178143Y-80426927D01*
X28178143Y-80426927D02*
X28235285Y-80445975D01*
X28235285Y-80445975D02*
X28254333Y-80465022D01*
X28387666Y-80426927D02*
X28635285Y-80426927D01*
X28635285Y-80426927D02*
X28501952Y-80579308D01*
X28501952Y-80579308D02*
X28559095Y-80579308D01*
X28559095Y-80579308D02*
X28597190Y-80598356D01*
X28597190Y-80598356D02*
X28616238Y-80617403D01*
X28616238Y-80617403D02*
X28635285Y-80655499D01*
X28635285Y-80655499D02*
X28635285Y-80750737D01*
X28635285Y-80750737D02*
X28616238Y-80788832D01*
X28616238Y-80788832D02*
X28597190Y-80807880D01*
X28597190Y-80807880D02*
X28559095Y-80826927D01*
X28559095Y-80826927D02*
X28444809Y-80826927D01*
X28444809Y-80826927D02*
X28406714Y-80807880D01*
X28406714Y-80807880D02*
X28387666Y-80788832D01*
D10*
X26630524Y-83670390D02*
X26535286Y-83622771D01*
X26535286Y-83622771D02*
X26487667Y-83575152D01*
X26487667Y-83575152D02*
X26440048Y-83479914D01*
X26440048Y-83479914D02*
X26440048Y-83432295D01*
X26440048Y-83432295D02*
X26487667Y-83337057D01*
X26487667Y-83337057D02*
X26535286Y-83289438D01*
X26535286Y-83289438D02*
X26630524Y-83241819D01*
X26630524Y-83241819D02*
X26821000Y-83241819D01*
X26821000Y-83241819D02*
X26916238Y-83289438D01*
X26916238Y-83289438D02*
X26963857Y-83337057D01*
X26963857Y-83337057D02*
X27011476Y-83432295D01*
X27011476Y-83432295D02*
X27011476Y-83479914D01*
X27011476Y-83479914D02*
X26963857Y-83575152D01*
X26963857Y-83575152D02*
X26916238Y-83622771D01*
X26916238Y-83622771D02*
X26821000Y-83670390D01*
X26821000Y-83670390D02*
X26630524Y-83670390D01*
X26630524Y-83670390D02*
X26535286Y-83718009D01*
X26535286Y-83718009D02*
X26487667Y-83765628D01*
X26487667Y-83765628D02*
X26440048Y-83860866D01*
X26440048Y-83860866D02*
X26440048Y-84051342D01*
X26440048Y-84051342D02*
X26487667Y-84146580D01*
X26487667Y-84146580D02*
X26535286Y-84194200D01*
X26535286Y-84194200D02*
X26630524Y-84241819D01*
X26630524Y-84241819D02*
X26821000Y-84241819D01*
X26821000Y-84241819D02*
X26916238Y-84194200D01*
X26916238Y-84194200D02*
X26963857Y-84146580D01*
X26963857Y-84146580D02*
X27011476Y-84051342D01*
X27011476Y-84051342D02*
X27011476Y-83860866D01*
X27011476Y-83860866D02*
X26963857Y-83765628D01*
X26963857Y-83765628D02*
X26916238Y-83718009D01*
X26916238Y-83718009D02*
X26821000Y-83670390D01*
X27440048Y-84146580D02*
X27487667Y-84194200D01*
X27487667Y-84194200D02*
X27440048Y-84241819D01*
X27440048Y-84241819D02*
X27392429Y-84194200D01*
X27392429Y-84194200D02*
X27440048Y-84146580D01*
X27440048Y-84146580D02*
X27440048Y-84241819D01*
X27821000Y-83241819D02*
X28487666Y-83241819D01*
X28487666Y-83241819D02*
X28059095Y-84241819D01*
X28868619Y-83575152D02*
X28868619Y-84575152D01*
X28868619Y-83622771D02*
X28963857Y-83575152D01*
X28963857Y-83575152D02*
X29154333Y-83575152D01*
X29154333Y-83575152D02*
X29249571Y-83622771D01*
X29249571Y-83622771D02*
X29297190Y-83670390D01*
X29297190Y-83670390D02*
X29344809Y-83765628D01*
X29344809Y-83765628D02*
X29344809Y-84051342D01*
X29344809Y-84051342D02*
X29297190Y-84146580D01*
X29297190Y-84146580D02*
X29249571Y-84194200D01*
X29249571Y-84194200D02*
X29154333Y-84241819D01*
X29154333Y-84241819D02*
X28963857Y-84241819D01*
X28963857Y-84241819D02*
X28868619Y-84194200D01*
X30106714Y-83718009D02*
X29773381Y-83718009D01*
X29773381Y-84241819D02*
X29773381Y-83241819D01*
X29773381Y-83241819D02*
X30249571Y-83241819D01*
D11*
X28254333Y-85360832D02*
X28235285Y-85379880D01*
X28235285Y-85379880D02*
X28178143Y-85398927D01*
X28178143Y-85398927D02*
X28140047Y-85398927D01*
X28140047Y-85398927D02*
X28082904Y-85379880D01*
X28082904Y-85379880D02*
X28044809Y-85341784D01*
X28044809Y-85341784D02*
X28025762Y-85303689D01*
X28025762Y-85303689D02*
X28006714Y-85227499D01*
X28006714Y-85227499D02*
X28006714Y-85170356D01*
X28006714Y-85170356D02*
X28025762Y-85094165D01*
X28025762Y-85094165D02*
X28044809Y-85056070D01*
X28044809Y-85056070D02*
X28082904Y-85017975D01*
X28082904Y-85017975D02*
X28140047Y-84998927D01*
X28140047Y-84998927D02*
X28178143Y-84998927D01*
X28178143Y-84998927D02*
X28235285Y-85017975D01*
X28235285Y-85017975D02*
X28254333Y-85037022D01*
X28597190Y-85132260D02*
X28597190Y-85398927D01*
X28501952Y-84979880D02*
X28406714Y-85265594D01*
X28406714Y-85265594D02*
X28654333Y-85265594D01*
D10*
X28107819Y-61713857D02*
X28107819Y-62285285D01*
X28107819Y-61999571D02*
X27107819Y-61999571D01*
X27107819Y-61999571D02*
X27250676Y-62094809D01*
X27250676Y-62094809D02*
X27345914Y-62190047D01*
X27345914Y-62190047D02*
X27393533Y-62285285D01*
X27107819Y-61094809D02*
X27107819Y-60999571D01*
X27107819Y-60999571D02*
X27155438Y-60904333D01*
X27155438Y-60904333D02*
X27203057Y-60856714D01*
X27203057Y-60856714D02*
X27298295Y-60809095D01*
X27298295Y-60809095D02*
X27488771Y-60761476D01*
X27488771Y-60761476D02*
X27726866Y-60761476D01*
X27726866Y-60761476D02*
X27917342Y-60809095D01*
X27917342Y-60809095D02*
X28012580Y-60856714D01*
X28012580Y-60856714D02*
X28060200Y-60904333D01*
X28060200Y-60904333D02*
X28107819Y-60999571D01*
X28107819Y-60999571D02*
X28107819Y-61094809D01*
X28107819Y-61094809D02*
X28060200Y-61190047D01*
X28060200Y-61190047D02*
X28012580Y-61237666D01*
X28012580Y-61237666D02*
X27917342Y-61285285D01*
X27917342Y-61285285D02*
X27726866Y-61332904D01*
X27726866Y-61332904D02*
X27488771Y-61332904D01*
X27488771Y-61332904D02*
X27298295Y-61285285D01*
X27298295Y-61285285D02*
X27203057Y-61237666D01*
X27203057Y-61237666D02*
X27155438Y-61190047D01*
X27155438Y-61190047D02*
X27107819Y-61094809D01*
X27107819Y-60142428D02*
X27107819Y-60047190D01*
X27107819Y-60047190D02*
X27155438Y-59951952D01*
X27155438Y-59951952D02*
X27203057Y-59904333D01*
X27203057Y-59904333D02*
X27298295Y-59856714D01*
X27298295Y-59856714D02*
X27488771Y-59809095D01*
X27488771Y-59809095D02*
X27726866Y-59809095D01*
X27726866Y-59809095D02*
X27917342Y-59856714D01*
X27917342Y-59856714D02*
X28012580Y-59904333D01*
X28012580Y-59904333D02*
X28060200Y-59951952D01*
X28060200Y-59951952D02*
X28107819Y-60047190D01*
X28107819Y-60047190D02*
X28107819Y-60142428D01*
X28107819Y-60142428D02*
X28060200Y-60237666D01*
X28060200Y-60237666D02*
X28012580Y-60285285D01*
X28012580Y-60285285D02*
X27917342Y-60332904D01*
X27917342Y-60332904D02*
X27726866Y-60380523D01*
X27726866Y-60380523D02*
X27488771Y-60380523D01*
X27488771Y-60380523D02*
X27298295Y-60332904D01*
X27298295Y-60332904D02*
X27203057Y-60285285D01*
X27203057Y-60285285D02*
X27155438Y-60237666D01*
X27155438Y-60237666D02*
X27107819Y-60142428D01*
X27441152Y-59380523D02*
X28107819Y-59380523D01*
X27536390Y-59380523D02*
X27488771Y-59332904D01*
X27488771Y-59332904D02*
X27441152Y-59237666D01*
X27441152Y-59237666D02*
X27441152Y-59094809D01*
X27441152Y-59094809D02*
X27488771Y-58999571D01*
X27488771Y-58999571D02*
X27584009Y-58951952D01*
X27584009Y-58951952D02*
X28107819Y-58951952D01*
X28107819Y-58475761D02*
X27107819Y-58475761D01*
X27584009Y-58475761D02*
X27584009Y-57904333D01*
X28107819Y-57904333D02*
X27107819Y-57904333D01*
D11*
X29264927Y-60137666D02*
X29264927Y-60328142D01*
X29264927Y-60328142D02*
X28864927Y-60328142D01*
X28903022Y-60023380D02*
X28883975Y-60004332D01*
X28883975Y-60004332D02*
X28864927Y-59966237D01*
X28864927Y-59966237D02*
X28864927Y-59870999D01*
X28864927Y-59870999D02*
X28883975Y-59832904D01*
X28883975Y-59832904D02*
X28903022Y-59813856D01*
X28903022Y-59813856D02*
X28941118Y-59794809D01*
X28941118Y-59794809D02*
X28979213Y-59794809D01*
X28979213Y-59794809D02*
X29036356Y-59813856D01*
X29036356Y-59813856D02*
X29264927Y-60042428D01*
X29264927Y-60042428D02*
X29264927Y-59794809D01*
D10*
X27107819Y-65857285D02*
X27107819Y-66333475D01*
X27107819Y-66333475D02*
X27584009Y-66381094D01*
X27584009Y-66381094D02*
X27536390Y-66333475D01*
X27536390Y-66333475D02*
X27488771Y-66238237D01*
X27488771Y-66238237D02*
X27488771Y-66000142D01*
X27488771Y-66000142D02*
X27536390Y-65904904D01*
X27536390Y-65904904D02*
X27584009Y-65857285D01*
X27584009Y-65857285D02*
X27679247Y-65809666D01*
X27679247Y-65809666D02*
X27917342Y-65809666D01*
X27917342Y-65809666D02*
X28012580Y-65857285D01*
X28012580Y-65857285D02*
X28060200Y-65904904D01*
X28060200Y-65904904D02*
X28107819Y-66000142D01*
X28107819Y-66000142D02*
X28107819Y-66238237D01*
X28107819Y-66238237D02*
X28060200Y-66333475D01*
X28060200Y-66333475D02*
X28012580Y-66381094D01*
X27107819Y-64952523D02*
X27107819Y-65142999D01*
X27107819Y-65142999D02*
X27155438Y-65238237D01*
X27155438Y-65238237D02*
X27203057Y-65285856D01*
X27203057Y-65285856D02*
X27345914Y-65381094D01*
X27345914Y-65381094D02*
X27536390Y-65428713D01*
X27536390Y-65428713D02*
X27917342Y-65428713D01*
X27917342Y-65428713D02*
X28012580Y-65381094D01*
X28012580Y-65381094D02*
X28060200Y-65333475D01*
X28060200Y-65333475D02*
X28107819Y-65238237D01*
X28107819Y-65238237D02*
X28107819Y-65047761D01*
X28107819Y-65047761D02*
X28060200Y-64952523D01*
X28060200Y-64952523D02*
X28012580Y-64904904D01*
X28012580Y-64904904D02*
X27917342Y-64857285D01*
X27917342Y-64857285D02*
X27679247Y-64857285D01*
X27679247Y-64857285D02*
X27584009Y-64904904D01*
X27584009Y-64904904D02*
X27536390Y-64952523D01*
X27536390Y-64952523D02*
X27488771Y-65047761D01*
X27488771Y-65047761D02*
X27488771Y-65238237D01*
X27488771Y-65238237D02*
X27536390Y-65333475D01*
X27536390Y-65333475D02*
X27584009Y-65381094D01*
X27584009Y-65381094D02*
X27679247Y-65428713D01*
X27441152Y-64428713D02*
X28107819Y-64428713D01*
X27536390Y-64428713D02*
X27488771Y-64381094D01*
X27488771Y-64381094D02*
X27441152Y-64285856D01*
X27441152Y-64285856D02*
X27441152Y-64142999D01*
X27441152Y-64142999D02*
X27488771Y-64047761D01*
X27488771Y-64047761D02*
X27584009Y-64000142D01*
X27584009Y-64000142D02*
X28107819Y-64000142D01*
X28107819Y-63523951D02*
X27107819Y-63523951D01*
X27584009Y-63523951D02*
X27584009Y-62952523D01*
X28107819Y-62952523D02*
X27107819Y-62952523D01*
D11*
X29264927Y-64709666D02*
X29264927Y-64900142D01*
X29264927Y-64900142D02*
X28864927Y-64900142D01*
X28864927Y-64614428D02*
X28864927Y-64366809D01*
X28864927Y-64366809D02*
X29017308Y-64500142D01*
X29017308Y-64500142D02*
X29017308Y-64442999D01*
X29017308Y-64442999D02*
X29036356Y-64404904D01*
X29036356Y-64404904D02*
X29055403Y-64385856D01*
X29055403Y-64385856D02*
X29093499Y-64366809D01*
X29093499Y-64366809D02*
X29188737Y-64366809D01*
X29188737Y-64366809D02*
X29226832Y-64385856D01*
X29226832Y-64385856D02*
X29245880Y-64404904D01*
X29245880Y-64404904D02*
X29264927Y-64442999D01*
X29264927Y-64442999D02*
X29264927Y-64557285D01*
X29264927Y-64557285D02*
X29245880Y-64595380D01*
X29245880Y-64595380D02*
X29226832Y-64614428D01*
D10*
X28107819Y-79525666D02*
X28107819Y-80097094D01*
X28107819Y-79811380D02*
X27107819Y-79811380D01*
X27107819Y-79811380D02*
X27250676Y-79906618D01*
X27250676Y-79906618D02*
X27345914Y-80001856D01*
X27345914Y-80001856D02*
X27393533Y-80097094D01*
X27536390Y-78954237D02*
X27488771Y-79049475D01*
X27488771Y-79049475D02*
X27441152Y-79097094D01*
X27441152Y-79097094D02*
X27345914Y-79144713D01*
X27345914Y-79144713D02*
X27298295Y-79144713D01*
X27298295Y-79144713D02*
X27203057Y-79097094D01*
X27203057Y-79097094D02*
X27155438Y-79049475D01*
X27155438Y-79049475D02*
X27107819Y-78954237D01*
X27107819Y-78954237D02*
X27107819Y-78763761D01*
X27107819Y-78763761D02*
X27155438Y-78668523D01*
X27155438Y-78668523D02*
X27203057Y-78620904D01*
X27203057Y-78620904D02*
X27298295Y-78573285D01*
X27298295Y-78573285D02*
X27345914Y-78573285D01*
X27345914Y-78573285D02*
X27441152Y-78620904D01*
X27441152Y-78620904D02*
X27488771Y-78668523D01*
X27488771Y-78668523D02*
X27536390Y-78763761D01*
X27536390Y-78763761D02*
X27536390Y-78954237D01*
X27536390Y-78954237D02*
X27584009Y-79049475D01*
X27584009Y-79049475D02*
X27631628Y-79097094D01*
X27631628Y-79097094D02*
X27726866Y-79144713D01*
X27726866Y-79144713D02*
X27917342Y-79144713D01*
X27917342Y-79144713D02*
X28012580Y-79097094D01*
X28012580Y-79097094D02*
X28060200Y-79049475D01*
X28060200Y-79049475D02*
X28107819Y-78954237D01*
X28107819Y-78954237D02*
X28107819Y-78763761D01*
X28107819Y-78763761D02*
X28060200Y-78668523D01*
X28060200Y-78668523D02*
X28012580Y-78620904D01*
X28012580Y-78620904D02*
X27917342Y-78573285D01*
X27917342Y-78573285D02*
X27726866Y-78573285D01*
X27726866Y-78573285D02*
X27631628Y-78620904D01*
X27631628Y-78620904D02*
X27584009Y-78668523D01*
X27584009Y-78668523D02*
X27536390Y-78763761D01*
X27441152Y-78144713D02*
X28107819Y-78144713D01*
X27536390Y-78144713D02*
X27488771Y-78097094D01*
X27488771Y-78097094D02*
X27441152Y-78001856D01*
X27441152Y-78001856D02*
X27441152Y-77858999D01*
X27441152Y-77858999D02*
X27488771Y-77763761D01*
X27488771Y-77763761D02*
X27584009Y-77716142D01*
X27584009Y-77716142D02*
X28107819Y-77716142D01*
X28107819Y-77239951D02*
X27107819Y-77239951D01*
X27584009Y-77239951D02*
X27584009Y-76668523D01*
X28107819Y-76668523D02*
X27107819Y-76668523D01*
D11*
X29264927Y-78425666D02*
X29264927Y-78616142D01*
X29264927Y-78616142D02*
X28864927Y-78616142D01*
X28998260Y-78120904D02*
X29264927Y-78120904D01*
X28845880Y-78216142D02*
X29131594Y-78311380D01*
X29131594Y-78311380D02*
X29131594Y-78063761D01*
D10*
X27107819Y-84716713D02*
X27107819Y-84097666D01*
X27107819Y-84097666D02*
X27488771Y-84430999D01*
X27488771Y-84430999D02*
X27488771Y-84288142D01*
X27488771Y-84288142D02*
X27536390Y-84192904D01*
X27536390Y-84192904D02*
X27584009Y-84145285D01*
X27584009Y-84145285D02*
X27679247Y-84097666D01*
X27679247Y-84097666D02*
X27917342Y-84097666D01*
X27917342Y-84097666D02*
X28012580Y-84145285D01*
X28012580Y-84145285D02*
X28060200Y-84192904D01*
X28060200Y-84192904D02*
X28107819Y-84288142D01*
X28107819Y-84288142D02*
X28107819Y-84573856D01*
X28107819Y-84573856D02*
X28060200Y-84669094D01*
X28060200Y-84669094D02*
X28012580Y-84716713D01*
X27107819Y-83478618D02*
X27107819Y-83383380D01*
X27107819Y-83383380D02*
X27155438Y-83288142D01*
X27155438Y-83288142D02*
X27203057Y-83240523D01*
X27203057Y-83240523D02*
X27298295Y-83192904D01*
X27298295Y-83192904D02*
X27488771Y-83145285D01*
X27488771Y-83145285D02*
X27726866Y-83145285D01*
X27726866Y-83145285D02*
X27917342Y-83192904D01*
X27917342Y-83192904D02*
X28012580Y-83240523D01*
X28012580Y-83240523D02*
X28060200Y-83288142D01*
X28060200Y-83288142D02*
X28107819Y-83383380D01*
X28107819Y-83383380D02*
X28107819Y-83478618D01*
X28107819Y-83478618D02*
X28060200Y-83573856D01*
X28060200Y-83573856D02*
X28012580Y-83621475D01*
X28012580Y-83621475D02*
X27917342Y-83669094D01*
X27917342Y-83669094D02*
X27726866Y-83716713D01*
X27726866Y-83716713D02*
X27488771Y-83716713D01*
X27488771Y-83716713D02*
X27298295Y-83669094D01*
X27298295Y-83669094D02*
X27203057Y-83621475D01*
X27203057Y-83621475D02*
X27155438Y-83573856D01*
X27155438Y-83573856D02*
X27107819Y-83478618D01*
X27441152Y-82716713D02*
X28107819Y-82716713D01*
X27536390Y-82716713D02*
X27488771Y-82669094D01*
X27488771Y-82669094D02*
X27441152Y-82573856D01*
X27441152Y-82573856D02*
X27441152Y-82430999D01*
X27441152Y-82430999D02*
X27488771Y-82335761D01*
X27488771Y-82335761D02*
X27584009Y-82288142D01*
X27584009Y-82288142D02*
X28107819Y-82288142D01*
X28107819Y-81811951D02*
X27107819Y-81811951D01*
X27584009Y-81811951D02*
X27584009Y-81240523D01*
X28107819Y-81240523D02*
X27107819Y-81240523D01*
D11*
X29264927Y-82997666D02*
X29264927Y-83188142D01*
X29264927Y-83188142D02*
X28864927Y-83188142D01*
X28864927Y-82673856D02*
X28864927Y-82864332D01*
X28864927Y-82864332D02*
X29055403Y-82883380D01*
X29055403Y-82883380D02*
X29036356Y-82864332D01*
X29036356Y-82864332D02*
X29017308Y-82826237D01*
X29017308Y-82826237D02*
X29017308Y-82730999D01*
X29017308Y-82730999D02*
X29036356Y-82692904D01*
X29036356Y-82692904D02*
X29055403Y-82673856D01*
X29055403Y-82673856D02*
X29093499Y-82654809D01*
X29093499Y-82654809D02*
X29188737Y-82654809D01*
X29188737Y-82654809D02*
X29226832Y-82673856D01*
X29226832Y-82673856D02*
X29245880Y-82692904D01*
X29245880Y-82692904D02*
X29264927Y-82730999D01*
X29264927Y-82730999D02*
X29264927Y-82826237D01*
X29264927Y-82826237D02*
X29245880Y-82864332D01*
X29245880Y-82864332D02*
X29226832Y-82883380D01*
D10*
X28107819Y-88669666D02*
X28107819Y-89241094D01*
X28107819Y-88955380D02*
X27107819Y-88955380D01*
X27107819Y-88955380D02*
X27250676Y-89050618D01*
X27250676Y-89050618D02*
X27345914Y-89145856D01*
X27345914Y-89145856D02*
X27393533Y-89241094D01*
X27536390Y-88098237D02*
X27488771Y-88193475D01*
X27488771Y-88193475D02*
X27441152Y-88241094D01*
X27441152Y-88241094D02*
X27345914Y-88288713D01*
X27345914Y-88288713D02*
X27298295Y-88288713D01*
X27298295Y-88288713D02*
X27203057Y-88241094D01*
X27203057Y-88241094D02*
X27155438Y-88193475D01*
X27155438Y-88193475D02*
X27107819Y-88098237D01*
X27107819Y-88098237D02*
X27107819Y-87907761D01*
X27107819Y-87907761D02*
X27155438Y-87812523D01*
X27155438Y-87812523D02*
X27203057Y-87764904D01*
X27203057Y-87764904D02*
X27298295Y-87717285D01*
X27298295Y-87717285D02*
X27345914Y-87717285D01*
X27345914Y-87717285D02*
X27441152Y-87764904D01*
X27441152Y-87764904D02*
X27488771Y-87812523D01*
X27488771Y-87812523D02*
X27536390Y-87907761D01*
X27536390Y-87907761D02*
X27536390Y-88098237D01*
X27536390Y-88098237D02*
X27584009Y-88193475D01*
X27584009Y-88193475D02*
X27631628Y-88241094D01*
X27631628Y-88241094D02*
X27726866Y-88288713D01*
X27726866Y-88288713D02*
X27917342Y-88288713D01*
X27917342Y-88288713D02*
X28012580Y-88241094D01*
X28012580Y-88241094D02*
X28060200Y-88193475D01*
X28060200Y-88193475D02*
X28107819Y-88098237D01*
X28107819Y-88098237D02*
X28107819Y-87907761D01*
X28107819Y-87907761D02*
X28060200Y-87812523D01*
X28060200Y-87812523D02*
X28012580Y-87764904D01*
X28012580Y-87764904D02*
X27917342Y-87717285D01*
X27917342Y-87717285D02*
X27726866Y-87717285D01*
X27726866Y-87717285D02*
X27631628Y-87764904D01*
X27631628Y-87764904D02*
X27584009Y-87812523D01*
X27584009Y-87812523D02*
X27536390Y-87907761D01*
X27441152Y-87288713D02*
X28107819Y-87288713D01*
X27536390Y-87288713D02*
X27488771Y-87241094D01*
X27488771Y-87241094D02*
X27441152Y-87145856D01*
X27441152Y-87145856D02*
X27441152Y-87002999D01*
X27441152Y-87002999D02*
X27488771Y-86907761D01*
X27488771Y-86907761D02*
X27584009Y-86860142D01*
X27584009Y-86860142D02*
X28107819Y-86860142D01*
X28107819Y-86383951D02*
X27107819Y-86383951D01*
X27584009Y-86383951D02*
X27584009Y-85812523D01*
X28107819Y-85812523D02*
X27107819Y-85812523D01*
D11*
X29264927Y-87569666D02*
X29264927Y-87760142D01*
X29264927Y-87760142D02*
X28864927Y-87760142D01*
X28864927Y-87264904D02*
X28864927Y-87341094D01*
X28864927Y-87341094D02*
X28883975Y-87379190D01*
X28883975Y-87379190D02*
X28903022Y-87398237D01*
X28903022Y-87398237D02*
X28960165Y-87436332D01*
X28960165Y-87436332D02*
X29036356Y-87455380D01*
X29036356Y-87455380D02*
X29188737Y-87455380D01*
X29188737Y-87455380D02*
X29226832Y-87436332D01*
X29226832Y-87436332D02*
X29245880Y-87417285D01*
X29245880Y-87417285D02*
X29264927Y-87379190D01*
X29264927Y-87379190D02*
X29264927Y-87302999D01*
X29264927Y-87302999D02*
X29245880Y-87264904D01*
X29245880Y-87264904D02*
X29226832Y-87245856D01*
X29226832Y-87245856D02*
X29188737Y-87226809D01*
X29188737Y-87226809D02*
X29093499Y-87226809D01*
X29093499Y-87226809D02*
X29055403Y-87245856D01*
X29055403Y-87245856D02*
X29036356Y-87264904D01*
X29036356Y-87264904D02*
X29017308Y-87302999D01*
X29017308Y-87302999D02*
X29017308Y-87379190D01*
X29017308Y-87379190D02*
X29036356Y-87417285D01*
X29036356Y-87417285D02*
X29055403Y-87436332D01*
X29055403Y-87436332D02*
X29093499Y-87455380D01*
D10*
X27107819Y-56713285D02*
X27107819Y-57189475D01*
X27107819Y-57189475D02*
X27584009Y-57237094D01*
X27584009Y-57237094D02*
X27536390Y-57189475D01*
X27536390Y-57189475D02*
X27488771Y-57094237D01*
X27488771Y-57094237D02*
X27488771Y-56856142D01*
X27488771Y-56856142D02*
X27536390Y-56760904D01*
X27536390Y-56760904D02*
X27584009Y-56713285D01*
X27584009Y-56713285D02*
X27679247Y-56665666D01*
X27679247Y-56665666D02*
X27917342Y-56665666D01*
X27917342Y-56665666D02*
X28012580Y-56713285D01*
X28012580Y-56713285D02*
X28060200Y-56760904D01*
X28060200Y-56760904D02*
X28107819Y-56856142D01*
X28107819Y-56856142D02*
X28107819Y-57094237D01*
X28107819Y-57094237D02*
X28060200Y-57189475D01*
X28060200Y-57189475D02*
X28012580Y-57237094D01*
X27107819Y-55808523D02*
X27107819Y-55998999D01*
X27107819Y-55998999D02*
X27155438Y-56094237D01*
X27155438Y-56094237D02*
X27203057Y-56141856D01*
X27203057Y-56141856D02*
X27345914Y-56237094D01*
X27345914Y-56237094D02*
X27536390Y-56284713D01*
X27536390Y-56284713D02*
X27917342Y-56284713D01*
X27917342Y-56284713D02*
X28012580Y-56237094D01*
X28012580Y-56237094D02*
X28060200Y-56189475D01*
X28060200Y-56189475D02*
X28107819Y-56094237D01*
X28107819Y-56094237D02*
X28107819Y-55903761D01*
X28107819Y-55903761D02*
X28060200Y-55808523D01*
X28060200Y-55808523D02*
X28012580Y-55760904D01*
X28012580Y-55760904D02*
X27917342Y-55713285D01*
X27917342Y-55713285D02*
X27679247Y-55713285D01*
X27679247Y-55713285D02*
X27584009Y-55760904D01*
X27584009Y-55760904D02*
X27536390Y-55808523D01*
X27536390Y-55808523D02*
X27488771Y-55903761D01*
X27488771Y-55903761D02*
X27488771Y-56094237D01*
X27488771Y-56094237D02*
X27536390Y-56189475D01*
X27536390Y-56189475D02*
X27584009Y-56237094D01*
X27584009Y-56237094D02*
X27679247Y-56284713D01*
X27441152Y-55284713D02*
X28107819Y-55284713D01*
X27536390Y-55284713D02*
X27488771Y-55237094D01*
X27488771Y-55237094D02*
X27441152Y-55141856D01*
X27441152Y-55141856D02*
X27441152Y-54998999D01*
X27441152Y-54998999D02*
X27488771Y-54903761D01*
X27488771Y-54903761D02*
X27584009Y-54856142D01*
X27584009Y-54856142D02*
X28107819Y-54856142D01*
X28107819Y-54379951D02*
X27107819Y-54379951D01*
X27584009Y-54379951D02*
X27584009Y-53808523D01*
X28107819Y-53808523D02*
X27107819Y-53808523D01*
D11*
X29264927Y-55565666D02*
X29264927Y-55756142D01*
X29264927Y-55756142D02*
X28864927Y-55756142D01*
X29264927Y-55222809D02*
X29264927Y-55451380D01*
X29264927Y-55337094D02*
X28864927Y-55337094D01*
X28864927Y-55337094D02*
X28922070Y-55375190D01*
X28922070Y-55375190D02*
X28960165Y-55413285D01*
X28960165Y-55413285D02*
X28979213Y-55451380D01*
D10*
X29780809Y-43730104D02*
X30256999Y-43730104D01*
X29685571Y-44015819D02*
X30018904Y-43015819D01*
X30018904Y-43015819D02*
X30352237Y-44015819D01*
X31114142Y-43349152D02*
X31114142Y-44015819D01*
X30685571Y-43349152D02*
X30685571Y-43872961D01*
X30685571Y-43872961D02*
X30733190Y-43968200D01*
X30733190Y-43968200D02*
X30828428Y-44015819D01*
X30828428Y-44015819D02*
X30971285Y-44015819D01*
X30971285Y-44015819D02*
X31066523Y-43968200D01*
X31066523Y-43968200D02*
X31114142Y-43920580D01*
X32018904Y-44015819D02*
X32018904Y-43015819D01*
X32018904Y-43968200D02*
X31923666Y-44015819D01*
X31923666Y-44015819D02*
X31733190Y-44015819D01*
X31733190Y-44015819D02*
X31637952Y-43968200D01*
X31637952Y-43968200D02*
X31590333Y-43920580D01*
X31590333Y-43920580D02*
X31542714Y-43825342D01*
X31542714Y-43825342D02*
X31542714Y-43539628D01*
X31542714Y-43539628D02*
X31590333Y-43444390D01*
X31590333Y-43444390D02*
X31637952Y-43396771D01*
X31637952Y-43396771D02*
X31733190Y-43349152D01*
X31733190Y-43349152D02*
X31923666Y-43349152D01*
X31923666Y-43349152D02*
X32018904Y-43396771D01*
X32495095Y-44015819D02*
X32495095Y-43349152D01*
X32495095Y-43015819D02*
X32447476Y-43063438D01*
X32447476Y-43063438D02*
X32495095Y-43111057D01*
X32495095Y-43111057D02*
X32542714Y-43063438D01*
X32542714Y-43063438D02*
X32495095Y-43015819D01*
X32495095Y-43015819D02*
X32495095Y-43111057D01*
X33114142Y-44015819D02*
X33018904Y-43968200D01*
X33018904Y-43968200D02*
X32971285Y-43920580D01*
X32971285Y-43920580D02*
X32923666Y-43825342D01*
X32923666Y-43825342D02*
X32923666Y-43539628D01*
X32923666Y-43539628D02*
X32971285Y-43444390D01*
X32971285Y-43444390D02*
X33018904Y-43396771D01*
X33018904Y-43396771D02*
X33114142Y-43349152D01*
X33114142Y-43349152D02*
X33256999Y-43349152D01*
X33256999Y-43349152D02*
X33352237Y-43396771D01*
X33352237Y-43396771D02*
X33399856Y-43444390D01*
X33399856Y-43444390D02*
X33447475Y-43539628D01*
X33447475Y-43539628D02*
X33447475Y-43825342D01*
X33447475Y-43825342D02*
X33399856Y-43920580D01*
X33399856Y-43920580D02*
X33352237Y-43968200D01*
X33352237Y-43968200D02*
X33256999Y-44015819D01*
X33256999Y-44015819D02*
X33114142Y-44015819D01*
X34161761Y-43015819D02*
X34161761Y-43730104D01*
X34161761Y-43730104D02*
X34114142Y-43872961D01*
X34114142Y-43872961D02*
X34018904Y-43968200D01*
X34018904Y-43968200D02*
X33876047Y-44015819D01*
X33876047Y-44015819D02*
X33780809Y-44015819D01*
X35066523Y-44015819D02*
X35066523Y-43492009D01*
X35066523Y-43492009D02*
X35018904Y-43396771D01*
X35018904Y-43396771D02*
X34923666Y-43349152D01*
X34923666Y-43349152D02*
X34733190Y-43349152D01*
X34733190Y-43349152D02*
X34637952Y-43396771D01*
X35066523Y-43968200D02*
X34971285Y-44015819D01*
X34971285Y-44015819D02*
X34733190Y-44015819D01*
X34733190Y-44015819D02*
X34637952Y-43968200D01*
X34637952Y-43968200D02*
X34590333Y-43872961D01*
X34590333Y-43872961D02*
X34590333Y-43777723D01*
X34590333Y-43777723D02*
X34637952Y-43682485D01*
X34637952Y-43682485D02*
X34733190Y-43634866D01*
X34733190Y-43634866D02*
X34971285Y-43634866D01*
X34971285Y-43634866D02*
X35066523Y-43587247D01*
X35971285Y-43968200D02*
X35876047Y-44015819D01*
X35876047Y-44015819D02*
X35685571Y-44015819D01*
X35685571Y-44015819D02*
X35590333Y-43968200D01*
X35590333Y-43968200D02*
X35542714Y-43920580D01*
X35542714Y-43920580D02*
X35495095Y-43825342D01*
X35495095Y-43825342D02*
X35495095Y-43539628D01*
X35495095Y-43539628D02*
X35542714Y-43444390D01*
X35542714Y-43444390D02*
X35590333Y-43396771D01*
X35590333Y-43396771D02*
X35685571Y-43349152D01*
X35685571Y-43349152D02*
X35876047Y-43349152D01*
X35876047Y-43349152D02*
X35971285Y-43396771D01*
X36399857Y-44015819D02*
X36399857Y-43015819D01*
X36495095Y-43634866D02*
X36780809Y-44015819D01*
X36780809Y-43349152D02*
X36399857Y-43730104D01*
X37637952Y-43349152D02*
X37637952Y-44015819D01*
X37399857Y-42968200D02*
X37161762Y-43682485D01*
X37161762Y-43682485D02*
X37780809Y-43682485D01*
X32253666Y-36665819D02*
X32253666Y-37380104D01*
X32253666Y-37380104D02*
X32206047Y-37522961D01*
X32206047Y-37522961D02*
X32110809Y-37618200D01*
X32110809Y-37618200D02*
X31967952Y-37665819D01*
X31967952Y-37665819D02*
X31872714Y-37665819D01*
X33206047Y-36665819D02*
X32729857Y-36665819D01*
X32729857Y-36665819D02*
X32682238Y-37142009D01*
X32682238Y-37142009D02*
X32729857Y-37094390D01*
X32729857Y-37094390D02*
X32825095Y-37046771D01*
X32825095Y-37046771D02*
X33063190Y-37046771D01*
X33063190Y-37046771D02*
X33158428Y-37094390D01*
X33158428Y-37094390D02*
X33206047Y-37142009D01*
X33206047Y-37142009D02*
X33253666Y-37237247D01*
X33253666Y-37237247D02*
X33253666Y-37475342D01*
X33253666Y-37475342D02*
X33206047Y-37570580D01*
X33206047Y-37570580D02*
X33158428Y-37618200D01*
X33158428Y-37618200D02*
X33063190Y-37665819D01*
X33063190Y-37665819D02*
X32825095Y-37665819D01*
X32825095Y-37665819D02*
X32729857Y-37618200D01*
X32729857Y-37618200D02*
X32682238Y-37570580D01*
X30329333Y-31968057D02*
X30376952Y-31920438D01*
X30376952Y-31920438D02*
X30472190Y-31872819D01*
X30472190Y-31872819D02*
X30710285Y-31872819D01*
X30710285Y-31872819D02*
X30805523Y-31920438D01*
X30805523Y-31920438D02*
X30853142Y-31968057D01*
X30853142Y-31968057D02*
X30900761Y-32063295D01*
X30900761Y-32063295D02*
X30900761Y-32158533D01*
X30900761Y-32158533D02*
X30853142Y-32301390D01*
X30853142Y-32301390D02*
X30281714Y-32872819D01*
X30281714Y-32872819D02*
X30900761Y-32872819D01*
X31519809Y-31872819D02*
X31615047Y-31872819D01*
X31615047Y-31872819D02*
X31710285Y-31920438D01*
X31710285Y-31920438D02*
X31757904Y-31968057D01*
X31757904Y-31968057D02*
X31805523Y-32063295D01*
X31805523Y-32063295D02*
X31853142Y-32253771D01*
X31853142Y-32253771D02*
X31853142Y-32491866D01*
X31853142Y-32491866D02*
X31805523Y-32682342D01*
X31805523Y-32682342D02*
X31757904Y-32777580D01*
X31757904Y-32777580D02*
X31710285Y-32825200D01*
X31710285Y-32825200D02*
X31615047Y-32872819D01*
X31615047Y-32872819D02*
X31519809Y-32872819D01*
X31519809Y-32872819D02*
X31424571Y-32825200D01*
X31424571Y-32825200D02*
X31376952Y-32777580D01*
X31376952Y-32777580D02*
X31329333Y-32682342D01*
X31329333Y-32682342D02*
X31281714Y-32491866D01*
X31281714Y-32491866D02*
X31281714Y-32253771D01*
X31281714Y-32253771D02*
X31329333Y-32063295D01*
X31329333Y-32063295D02*
X31376952Y-31968057D01*
X31376952Y-31968057D02*
X31424571Y-31920438D01*
X31424571Y-31920438D02*
X31519809Y-31872819D01*
X32281714Y-32872819D02*
X32281714Y-31872819D01*
X32376952Y-32491866D02*
X32662666Y-32872819D01*
X32662666Y-32206152D02*
X32281714Y-32587104D01*
D11*
X31429333Y-31169927D02*
X31296000Y-30979451D01*
X31200762Y-31169927D02*
X31200762Y-30769927D01*
X31200762Y-30769927D02*
X31353143Y-30769927D01*
X31353143Y-30769927D02*
X31391238Y-30788975D01*
X31391238Y-30788975D02*
X31410285Y-30808022D01*
X31410285Y-30808022D02*
X31429333Y-30846118D01*
X31429333Y-30846118D02*
X31429333Y-30903260D01*
X31429333Y-30903260D02*
X31410285Y-30941356D01*
X31410285Y-30941356D02*
X31391238Y-30960403D01*
X31391238Y-30960403D02*
X31353143Y-30979451D01*
X31353143Y-30979451D02*
X31200762Y-30979451D01*
X31810285Y-31169927D02*
X31581714Y-31169927D01*
X31696000Y-31169927D02*
X31696000Y-30769927D01*
X31696000Y-30769927D02*
X31657904Y-30827070D01*
X31657904Y-30827070D02*
X31619809Y-30865165D01*
X31619809Y-30865165D02*
X31581714Y-30884213D01*
D10*
X43175819Y-38187047D02*
X43175819Y-38091809D01*
X43175819Y-38091809D02*
X43223438Y-37996571D01*
X43223438Y-37996571D02*
X43271057Y-37948952D01*
X43271057Y-37948952D02*
X43366295Y-37901333D01*
X43366295Y-37901333D02*
X43556771Y-37853714D01*
X43556771Y-37853714D02*
X43794866Y-37853714D01*
X43794866Y-37853714D02*
X43985342Y-37901333D01*
X43985342Y-37901333D02*
X44080580Y-37948952D01*
X44080580Y-37948952D02*
X44128200Y-37996571D01*
X44128200Y-37996571D02*
X44175819Y-38091809D01*
X44175819Y-38091809D02*
X44175819Y-38187047D01*
X44175819Y-38187047D02*
X44128200Y-38282285D01*
X44128200Y-38282285D02*
X44080580Y-38329904D01*
X44080580Y-38329904D02*
X43985342Y-38377523D01*
X43985342Y-38377523D02*
X43794866Y-38425142D01*
X43794866Y-38425142D02*
X43556771Y-38425142D01*
X43556771Y-38425142D02*
X43366295Y-38377523D01*
X43366295Y-38377523D02*
X43271057Y-38329904D01*
X43271057Y-38329904D02*
X43223438Y-38282285D01*
X43223438Y-38282285D02*
X43175819Y-38187047D01*
X44080580Y-37425142D02*
X44128200Y-37377523D01*
X44128200Y-37377523D02*
X44175819Y-37425142D01*
X44175819Y-37425142D02*
X44128200Y-37472761D01*
X44128200Y-37472761D02*
X44080580Y-37425142D01*
X44080580Y-37425142D02*
X44175819Y-37425142D01*
X43509152Y-36520381D02*
X44175819Y-36520381D01*
X43128200Y-36758476D02*
X43842485Y-36996571D01*
X43842485Y-36996571D02*
X43842485Y-36377524D01*
X43175819Y-36091809D02*
X43175819Y-35425143D01*
X43175819Y-35425143D02*
X44175819Y-35853714D01*
X43509152Y-34615619D02*
X44175819Y-34615619D01*
X43509152Y-35044190D02*
X44032961Y-35044190D01*
X44032961Y-35044190D02*
X44128200Y-34996571D01*
X44128200Y-34996571D02*
X44175819Y-34901333D01*
X44175819Y-34901333D02*
X44175819Y-34758476D01*
X44175819Y-34758476D02*
X44128200Y-34663238D01*
X44128200Y-34663238D02*
X44080580Y-34615619D01*
X43652009Y-33806095D02*
X43652009Y-34139428D01*
X44175819Y-34139428D02*
X43175819Y-34139428D01*
X43175819Y-34139428D02*
X43175819Y-33663238D01*
D11*
X42434832Y-36134666D02*
X42453880Y-36153714D01*
X42453880Y-36153714D02*
X42472927Y-36210856D01*
X42472927Y-36210856D02*
X42472927Y-36248952D01*
X42472927Y-36248952D02*
X42453880Y-36306095D01*
X42453880Y-36306095D02*
X42415784Y-36344190D01*
X42415784Y-36344190D02*
X42377689Y-36363237D01*
X42377689Y-36363237D02*
X42301499Y-36382285D01*
X42301499Y-36382285D02*
X42244356Y-36382285D01*
X42244356Y-36382285D02*
X42168165Y-36363237D01*
X42168165Y-36363237D02*
X42130070Y-36344190D01*
X42130070Y-36344190D02*
X42091975Y-36306095D01*
X42091975Y-36306095D02*
X42072927Y-36248952D01*
X42072927Y-36248952D02*
X42072927Y-36210856D01*
X42072927Y-36210856D02*
X42091975Y-36153714D01*
X42091975Y-36153714D02*
X42111022Y-36134666D01*
X42072927Y-35772761D02*
X42072927Y-35963237D01*
X42072927Y-35963237D02*
X42263403Y-35982285D01*
X42263403Y-35982285D02*
X42244356Y-35963237D01*
X42244356Y-35963237D02*
X42225308Y-35925142D01*
X42225308Y-35925142D02*
X42225308Y-35829904D01*
X42225308Y-35829904D02*
X42244356Y-35791809D01*
X42244356Y-35791809D02*
X42263403Y-35772761D01*
X42263403Y-35772761D02*
X42301499Y-35753714D01*
X42301499Y-35753714D02*
X42396737Y-35753714D01*
X42396737Y-35753714D02*
X42434832Y-35772761D01*
X42434832Y-35772761D02*
X42453880Y-35791809D01*
X42453880Y-35791809D02*
X42472927Y-35829904D01*
X42472927Y-35829904D02*
X42472927Y-35925142D01*
X42472927Y-35925142D02*
X42453880Y-35963237D01*
X42453880Y-35963237D02*
X42434832Y-35982285D01*
D10*
X41651819Y-38187047D02*
X41651819Y-38091809D01*
X41651819Y-38091809D02*
X41699438Y-37996571D01*
X41699438Y-37996571D02*
X41747057Y-37948952D01*
X41747057Y-37948952D02*
X41842295Y-37901333D01*
X41842295Y-37901333D02*
X42032771Y-37853714D01*
X42032771Y-37853714D02*
X42270866Y-37853714D01*
X42270866Y-37853714D02*
X42461342Y-37901333D01*
X42461342Y-37901333D02*
X42556580Y-37948952D01*
X42556580Y-37948952D02*
X42604200Y-37996571D01*
X42604200Y-37996571D02*
X42651819Y-38091809D01*
X42651819Y-38091809D02*
X42651819Y-38187047D01*
X42651819Y-38187047D02*
X42604200Y-38282285D01*
X42604200Y-38282285D02*
X42556580Y-38329904D01*
X42556580Y-38329904D02*
X42461342Y-38377523D01*
X42461342Y-38377523D02*
X42270866Y-38425142D01*
X42270866Y-38425142D02*
X42032771Y-38425142D01*
X42032771Y-38425142D02*
X41842295Y-38377523D01*
X41842295Y-38377523D02*
X41747057Y-38329904D01*
X41747057Y-38329904D02*
X41699438Y-38282285D01*
X41699438Y-38282285D02*
X41651819Y-38187047D01*
X42556580Y-37425142D02*
X42604200Y-37377523D01*
X42604200Y-37377523D02*
X42651819Y-37425142D01*
X42651819Y-37425142D02*
X42604200Y-37472761D01*
X42604200Y-37472761D02*
X42556580Y-37425142D01*
X42556580Y-37425142D02*
X42651819Y-37425142D01*
X41985152Y-36520381D02*
X42651819Y-36520381D01*
X41604200Y-36758476D02*
X42318485Y-36996571D01*
X42318485Y-36996571D02*
X42318485Y-36377524D01*
X41651819Y-36091809D02*
X41651819Y-35425143D01*
X41651819Y-35425143D02*
X42651819Y-35853714D01*
X41985152Y-34615619D02*
X42651819Y-34615619D01*
X41985152Y-35044190D02*
X42508961Y-35044190D01*
X42508961Y-35044190D02*
X42604200Y-34996571D01*
X42604200Y-34996571D02*
X42651819Y-34901333D01*
X42651819Y-34901333D02*
X42651819Y-34758476D01*
X42651819Y-34758476D02*
X42604200Y-34663238D01*
X42604200Y-34663238D02*
X42556580Y-34615619D01*
X42128009Y-33806095D02*
X42128009Y-34139428D01*
X42651819Y-34139428D02*
X41651819Y-34139428D01*
X41651819Y-34139428D02*
X41651819Y-33663238D01*
D11*
X40910832Y-36134666D02*
X40929880Y-36153714D01*
X40929880Y-36153714D02*
X40948927Y-36210856D01*
X40948927Y-36210856D02*
X40948927Y-36248952D01*
X40948927Y-36248952D02*
X40929880Y-36306095D01*
X40929880Y-36306095D02*
X40891784Y-36344190D01*
X40891784Y-36344190D02*
X40853689Y-36363237D01*
X40853689Y-36363237D02*
X40777499Y-36382285D01*
X40777499Y-36382285D02*
X40720356Y-36382285D01*
X40720356Y-36382285D02*
X40644165Y-36363237D01*
X40644165Y-36363237D02*
X40606070Y-36344190D01*
X40606070Y-36344190D02*
X40567975Y-36306095D01*
X40567975Y-36306095D02*
X40548927Y-36248952D01*
X40548927Y-36248952D02*
X40548927Y-36210856D01*
X40548927Y-36210856D02*
X40567975Y-36153714D01*
X40567975Y-36153714D02*
X40587022Y-36134666D01*
X40548927Y-35791809D02*
X40548927Y-35867999D01*
X40548927Y-35867999D02*
X40567975Y-35906095D01*
X40567975Y-35906095D02*
X40587022Y-35925142D01*
X40587022Y-35925142D02*
X40644165Y-35963237D01*
X40644165Y-35963237D02*
X40720356Y-35982285D01*
X40720356Y-35982285D02*
X40872737Y-35982285D01*
X40872737Y-35982285D02*
X40910832Y-35963237D01*
X40910832Y-35963237D02*
X40929880Y-35944190D01*
X40929880Y-35944190D02*
X40948927Y-35906095D01*
X40948927Y-35906095D02*
X40948927Y-35829904D01*
X40948927Y-35829904D02*
X40929880Y-35791809D01*
X40929880Y-35791809D02*
X40910832Y-35772761D01*
X40910832Y-35772761D02*
X40872737Y-35753714D01*
X40872737Y-35753714D02*
X40777499Y-35753714D01*
X40777499Y-35753714D02*
X40739403Y-35772761D01*
X40739403Y-35772761D02*
X40720356Y-35791809D01*
X40720356Y-35791809D02*
X40701308Y-35829904D01*
X40701308Y-35829904D02*
X40701308Y-35906095D01*
X40701308Y-35906095D02*
X40720356Y-35944190D01*
X40720356Y-35944190D02*
X40739403Y-35963237D01*
X40739403Y-35963237D02*
X40777499Y-35982285D01*
D10*
X43271057Y-34186666D02*
X43223438Y-34139047D01*
X43223438Y-34139047D02*
X43175819Y-34043809D01*
X43175819Y-34043809D02*
X43175819Y-33805714D01*
X43175819Y-33805714D02*
X43223438Y-33710476D01*
X43223438Y-33710476D02*
X43271057Y-33662857D01*
X43271057Y-33662857D02*
X43366295Y-33615238D01*
X43366295Y-33615238D02*
X43461533Y-33615238D01*
X43461533Y-33615238D02*
X43604390Y-33662857D01*
X43604390Y-33662857D02*
X44175819Y-34234285D01*
X44175819Y-34234285D02*
X44175819Y-33615238D01*
X43175819Y-32996190D02*
X43175819Y-32900952D01*
X43175819Y-32900952D02*
X43223438Y-32805714D01*
X43223438Y-32805714D02*
X43271057Y-32758095D01*
X43271057Y-32758095D02*
X43366295Y-32710476D01*
X43366295Y-32710476D02*
X43556771Y-32662857D01*
X43556771Y-32662857D02*
X43794866Y-32662857D01*
X43794866Y-32662857D02*
X43985342Y-32710476D01*
X43985342Y-32710476D02*
X44080580Y-32758095D01*
X44080580Y-32758095D02*
X44128200Y-32805714D01*
X44128200Y-32805714D02*
X44175819Y-32900952D01*
X44175819Y-32900952D02*
X44175819Y-32996190D01*
X44175819Y-32996190D02*
X44128200Y-33091428D01*
X44128200Y-33091428D02*
X44080580Y-33139047D01*
X44080580Y-33139047D02*
X43985342Y-33186666D01*
X43985342Y-33186666D02*
X43794866Y-33234285D01*
X43794866Y-33234285D02*
X43556771Y-33234285D01*
X43556771Y-33234285D02*
X43366295Y-33186666D01*
X43366295Y-33186666D02*
X43271057Y-33139047D01*
X43271057Y-33139047D02*
X43223438Y-33091428D01*
X43223438Y-33091428D02*
X43175819Y-32996190D01*
X44175819Y-32234285D02*
X43175819Y-32234285D01*
X43794866Y-32139047D02*
X44175819Y-31853333D01*
X43509152Y-31853333D02*
X43890104Y-32234285D01*
D11*
X42472927Y-33086666D02*
X42282451Y-33219999D01*
X42472927Y-33315237D02*
X42072927Y-33315237D01*
X42072927Y-33315237D02*
X42072927Y-33162856D01*
X42072927Y-33162856D02*
X42091975Y-33124761D01*
X42091975Y-33124761D02*
X42111022Y-33105714D01*
X42111022Y-33105714D02*
X42149118Y-33086666D01*
X42149118Y-33086666D02*
X42206260Y-33086666D01*
X42206260Y-33086666D02*
X42244356Y-33105714D01*
X42244356Y-33105714D02*
X42263403Y-33124761D01*
X42263403Y-33124761D02*
X42282451Y-33162856D01*
X42282451Y-33162856D02*
X42282451Y-33315237D01*
X42111022Y-32934285D02*
X42091975Y-32915237D01*
X42091975Y-32915237D02*
X42072927Y-32877142D01*
X42072927Y-32877142D02*
X42072927Y-32781904D01*
X42072927Y-32781904D02*
X42091975Y-32743809D01*
X42091975Y-32743809D02*
X42111022Y-32724761D01*
X42111022Y-32724761D02*
X42149118Y-32705714D01*
X42149118Y-32705714D02*
X42187213Y-32705714D01*
X42187213Y-32705714D02*
X42244356Y-32724761D01*
X42244356Y-32724761D02*
X42472927Y-32953333D01*
X42472927Y-32953333D02*
X42472927Y-32705714D01*
D10*
X38887057Y-34186666D02*
X38839438Y-34139047D01*
X38839438Y-34139047D02*
X38791819Y-34043809D01*
X38791819Y-34043809D02*
X38791819Y-33805714D01*
X38791819Y-33805714D02*
X38839438Y-33710476D01*
X38839438Y-33710476D02*
X38887057Y-33662857D01*
X38887057Y-33662857D02*
X38982295Y-33615238D01*
X38982295Y-33615238D02*
X39077533Y-33615238D01*
X39077533Y-33615238D02*
X39220390Y-33662857D01*
X39220390Y-33662857D02*
X39791819Y-34234285D01*
X39791819Y-34234285D02*
X39791819Y-33615238D01*
X38791819Y-32996190D02*
X38791819Y-32900952D01*
X38791819Y-32900952D02*
X38839438Y-32805714D01*
X38839438Y-32805714D02*
X38887057Y-32758095D01*
X38887057Y-32758095D02*
X38982295Y-32710476D01*
X38982295Y-32710476D02*
X39172771Y-32662857D01*
X39172771Y-32662857D02*
X39410866Y-32662857D01*
X39410866Y-32662857D02*
X39601342Y-32710476D01*
X39601342Y-32710476D02*
X39696580Y-32758095D01*
X39696580Y-32758095D02*
X39744200Y-32805714D01*
X39744200Y-32805714D02*
X39791819Y-32900952D01*
X39791819Y-32900952D02*
X39791819Y-32996190D01*
X39791819Y-32996190D02*
X39744200Y-33091428D01*
X39744200Y-33091428D02*
X39696580Y-33139047D01*
X39696580Y-33139047D02*
X39601342Y-33186666D01*
X39601342Y-33186666D02*
X39410866Y-33234285D01*
X39410866Y-33234285D02*
X39172771Y-33234285D01*
X39172771Y-33234285D02*
X38982295Y-33186666D01*
X38982295Y-33186666D02*
X38887057Y-33139047D01*
X38887057Y-33139047D02*
X38839438Y-33091428D01*
X38839438Y-33091428D02*
X38791819Y-32996190D01*
X39791819Y-32234285D02*
X38791819Y-32234285D01*
X39410866Y-32139047D02*
X39791819Y-31853333D01*
X39125152Y-31853333D02*
X39506104Y-32234285D01*
D11*
X40948927Y-33086666D02*
X40758451Y-33219999D01*
X40948927Y-33315237D02*
X40548927Y-33315237D01*
X40548927Y-33315237D02*
X40548927Y-33162856D01*
X40548927Y-33162856D02*
X40567975Y-33124761D01*
X40567975Y-33124761D02*
X40587022Y-33105714D01*
X40587022Y-33105714D02*
X40625118Y-33086666D01*
X40625118Y-33086666D02*
X40682260Y-33086666D01*
X40682260Y-33086666D02*
X40720356Y-33105714D01*
X40720356Y-33105714D02*
X40739403Y-33124761D01*
X40739403Y-33124761D02*
X40758451Y-33162856D01*
X40758451Y-33162856D02*
X40758451Y-33315237D01*
X40548927Y-32953333D02*
X40548927Y-32705714D01*
X40548927Y-32705714D02*
X40701308Y-32839047D01*
X40701308Y-32839047D02*
X40701308Y-32781904D01*
X40701308Y-32781904D02*
X40720356Y-32743809D01*
X40720356Y-32743809D02*
X40739403Y-32724761D01*
X40739403Y-32724761D02*
X40777499Y-32705714D01*
X40777499Y-32705714D02*
X40872737Y-32705714D01*
X40872737Y-32705714D02*
X40910832Y-32724761D01*
X40910832Y-32724761D02*
X40929880Y-32743809D01*
X40929880Y-32743809D02*
X40948927Y-32781904D01*
X40948927Y-32781904D02*
X40948927Y-32896190D01*
X40948927Y-32896190D02*
X40929880Y-32934285D01*
X40929880Y-32934285D02*
X40910832Y-32953333D01*
D10*
X41254819Y-29678238D02*
X41254819Y-30249666D01*
X41254819Y-29963952D02*
X40254819Y-29963952D01*
X40254819Y-29963952D02*
X40397676Y-30059190D01*
X40397676Y-30059190D02*
X40492914Y-30154428D01*
X40492914Y-30154428D02*
X40540533Y-30249666D01*
X40588152Y-28821095D02*
X41254819Y-28821095D01*
X40588152Y-29249666D02*
X41111961Y-29249666D01*
X41111961Y-29249666D02*
X41207200Y-29202047D01*
X41207200Y-29202047D02*
X41254819Y-29106809D01*
X41254819Y-29106809D02*
X41254819Y-28963952D01*
X41254819Y-28963952D02*
X41207200Y-28868714D01*
X41207200Y-28868714D02*
X41159580Y-28821095D01*
X40731009Y-28011571D02*
X40731009Y-28344904D01*
X41254819Y-28344904D02*
X40254819Y-28344904D01*
X40254819Y-28344904D02*
X40254819Y-27868714D01*
D11*
X39513832Y-29149666D02*
X39532880Y-29168714D01*
X39532880Y-29168714D02*
X39551927Y-29225856D01*
X39551927Y-29225856D02*
X39551927Y-29263952D01*
X39551927Y-29263952D02*
X39532880Y-29321095D01*
X39532880Y-29321095D02*
X39494784Y-29359190D01*
X39494784Y-29359190D02*
X39456689Y-29378237D01*
X39456689Y-29378237D02*
X39380499Y-29397285D01*
X39380499Y-29397285D02*
X39323356Y-29397285D01*
X39323356Y-29397285D02*
X39247165Y-29378237D01*
X39247165Y-29378237D02*
X39209070Y-29359190D01*
X39209070Y-29359190D02*
X39170975Y-29321095D01*
X39170975Y-29321095D02*
X39151927Y-29263952D01*
X39151927Y-29263952D02*
X39151927Y-29225856D01*
X39151927Y-29225856D02*
X39170975Y-29168714D01*
X39170975Y-29168714D02*
X39190022Y-29149666D01*
X39151927Y-29016333D02*
X39151927Y-28749666D01*
X39151927Y-28749666D02*
X39551927Y-28921095D01*
D10*
X26773380Y-46969819D02*
X26201952Y-46969819D01*
X26487666Y-46969819D02*
X26487666Y-45969819D01*
X26487666Y-45969819D02*
X26392428Y-46112676D01*
X26392428Y-46112676D02*
X26297190Y-46207914D01*
X26297190Y-46207914D02*
X26201952Y-46255533D01*
X27392428Y-45969819D02*
X27487666Y-45969819D01*
X27487666Y-45969819D02*
X27582904Y-46017438D01*
X27582904Y-46017438D02*
X27630523Y-46065057D01*
X27630523Y-46065057D02*
X27678142Y-46160295D01*
X27678142Y-46160295D02*
X27725761Y-46350771D01*
X27725761Y-46350771D02*
X27725761Y-46588866D01*
X27725761Y-46588866D02*
X27678142Y-46779342D01*
X27678142Y-46779342D02*
X27630523Y-46874580D01*
X27630523Y-46874580D02*
X27582904Y-46922200D01*
X27582904Y-46922200D02*
X27487666Y-46969819D01*
X27487666Y-46969819D02*
X27392428Y-46969819D01*
X27392428Y-46969819D02*
X27297190Y-46922200D01*
X27297190Y-46922200D02*
X27249571Y-46874580D01*
X27249571Y-46874580D02*
X27201952Y-46779342D01*
X27201952Y-46779342D02*
X27154333Y-46588866D01*
X27154333Y-46588866D02*
X27154333Y-46350771D01*
X27154333Y-46350771D02*
X27201952Y-46160295D01*
X27201952Y-46160295D02*
X27249571Y-46065057D01*
X27249571Y-46065057D02*
X27297190Y-46017438D01*
X27297190Y-46017438D02*
X27392428Y-45969819D01*
X28344809Y-45969819D02*
X28440047Y-45969819D01*
X28440047Y-45969819D02*
X28535285Y-46017438D01*
X28535285Y-46017438D02*
X28582904Y-46065057D01*
X28582904Y-46065057D02*
X28630523Y-46160295D01*
X28630523Y-46160295D02*
X28678142Y-46350771D01*
X28678142Y-46350771D02*
X28678142Y-46588866D01*
X28678142Y-46588866D02*
X28630523Y-46779342D01*
X28630523Y-46779342D02*
X28582904Y-46874580D01*
X28582904Y-46874580D02*
X28535285Y-46922200D01*
X28535285Y-46922200D02*
X28440047Y-46969819D01*
X28440047Y-46969819D02*
X28344809Y-46969819D01*
X28344809Y-46969819D02*
X28249571Y-46922200D01*
X28249571Y-46922200D02*
X28201952Y-46874580D01*
X28201952Y-46874580D02*
X28154333Y-46779342D01*
X28154333Y-46779342D02*
X28106714Y-46588866D01*
X28106714Y-46588866D02*
X28106714Y-46350771D01*
X28106714Y-46350771D02*
X28154333Y-46160295D01*
X28154333Y-46160295D02*
X28201952Y-46065057D01*
X28201952Y-46065057D02*
X28249571Y-46017438D01*
X28249571Y-46017438D02*
X28344809Y-45969819D01*
X29106714Y-46303152D02*
X29106714Y-46969819D01*
X29106714Y-46398390D02*
X29154333Y-46350771D01*
X29154333Y-46350771D02*
X29249571Y-46303152D01*
X29249571Y-46303152D02*
X29392428Y-46303152D01*
X29392428Y-46303152D02*
X29487666Y-46350771D01*
X29487666Y-46350771D02*
X29535285Y-46446009D01*
X29535285Y-46446009D02*
X29535285Y-46969819D01*
X30344809Y-46446009D02*
X30011476Y-46446009D01*
X30011476Y-46969819D02*
X30011476Y-45969819D01*
X30011476Y-45969819D02*
X30487666Y-45969819D01*
D11*
X28254333Y-45228832D02*
X28235285Y-45247880D01*
X28235285Y-45247880D02*
X28178143Y-45266927D01*
X28178143Y-45266927D02*
X28140047Y-45266927D01*
X28140047Y-45266927D02*
X28082904Y-45247880D01*
X28082904Y-45247880D02*
X28044809Y-45209784D01*
X28044809Y-45209784D02*
X28025762Y-45171689D01*
X28025762Y-45171689D02*
X28006714Y-45095499D01*
X28006714Y-45095499D02*
X28006714Y-45038356D01*
X28006714Y-45038356D02*
X28025762Y-44962165D01*
X28025762Y-44962165D02*
X28044809Y-44924070D01*
X28044809Y-44924070D02*
X28082904Y-44885975D01*
X28082904Y-44885975D02*
X28140047Y-44866927D01*
X28140047Y-44866927D02*
X28178143Y-44866927D01*
X28178143Y-44866927D02*
X28235285Y-44885975D01*
X28235285Y-44885975D02*
X28254333Y-44905022D01*
X28444809Y-45266927D02*
X28521000Y-45266927D01*
X28521000Y-45266927D02*
X28559095Y-45247880D01*
X28559095Y-45247880D02*
X28578143Y-45228832D01*
X28578143Y-45228832D02*
X28616238Y-45171689D01*
X28616238Y-45171689D02*
X28635285Y-45095499D01*
X28635285Y-45095499D02*
X28635285Y-44943118D01*
X28635285Y-44943118D02*
X28616238Y-44905022D01*
X28616238Y-44905022D02*
X28597190Y-44885975D01*
X28597190Y-44885975D02*
X28559095Y-44866927D01*
X28559095Y-44866927D02*
X28482904Y-44866927D01*
X28482904Y-44866927D02*
X28444809Y-44885975D01*
X28444809Y-44885975D02*
X28425762Y-44905022D01*
X28425762Y-44905022D02*
X28406714Y-44943118D01*
X28406714Y-44943118D02*
X28406714Y-45038356D01*
X28406714Y-45038356D02*
X28425762Y-45076451D01*
X28425762Y-45076451D02*
X28444809Y-45095499D01*
X28444809Y-45095499D02*
X28482904Y-45114546D01*
X28482904Y-45114546D02*
X28559095Y-45114546D01*
X28559095Y-45114546D02*
X28597190Y-45095499D01*
X28597190Y-45095499D02*
X28616238Y-45076451D01*
X28616238Y-45076451D02*
X28635285Y-45038356D01*
D10*
X27725761Y-45191819D02*
X27154333Y-45191819D01*
X27440047Y-45191819D02*
X27440047Y-44191819D01*
X27440047Y-44191819D02*
X27344809Y-44334676D01*
X27344809Y-44334676D02*
X27249571Y-44429914D01*
X27249571Y-44429914D02*
X27154333Y-44477533D01*
X28344809Y-44191819D02*
X28440047Y-44191819D01*
X28440047Y-44191819D02*
X28535285Y-44239438D01*
X28535285Y-44239438D02*
X28582904Y-44287057D01*
X28582904Y-44287057D02*
X28630523Y-44382295D01*
X28630523Y-44382295D02*
X28678142Y-44572771D01*
X28678142Y-44572771D02*
X28678142Y-44810866D01*
X28678142Y-44810866D02*
X28630523Y-45001342D01*
X28630523Y-45001342D02*
X28582904Y-45096580D01*
X28582904Y-45096580D02*
X28535285Y-45144200D01*
X28535285Y-45144200D02*
X28440047Y-45191819D01*
X28440047Y-45191819D02*
X28344809Y-45191819D01*
X28344809Y-45191819D02*
X28249571Y-45144200D01*
X28249571Y-45144200D02*
X28201952Y-45096580D01*
X28201952Y-45096580D02*
X28154333Y-45001342D01*
X28154333Y-45001342D02*
X28106714Y-44810866D01*
X28106714Y-44810866D02*
X28106714Y-44572771D01*
X28106714Y-44572771D02*
X28154333Y-44382295D01*
X28154333Y-44382295D02*
X28201952Y-44287057D01*
X28201952Y-44287057D02*
X28249571Y-44239438D01*
X28249571Y-44239438D02*
X28344809Y-44191819D01*
X29106714Y-45191819D02*
X29106714Y-44191819D01*
X29201952Y-44810866D02*
X29487666Y-45191819D01*
X29487666Y-44525152D02*
X29106714Y-44906104D01*
D11*
X28254333Y-43488927D02*
X28121000Y-43298451D01*
X28025762Y-43488927D02*
X28025762Y-43088927D01*
X28025762Y-43088927D02*
X28178143Y-43088927D01*
X28178143Y-43088927D02*
X28216238Y-43107975D01*
X28216238Y-43107975D02*
X28235285Y-43127022D01*
X28235285Y-43127022D02*
X28254333Y-43165118D01*
X28254333Y-43165118D02*
X28254333Y-43222260D01*
X28254333Y-43222260D02*
X28235285Y-43260356D01*
X28235285Y-43260356D02*
X28216238Y-43279403D01*
X28216238Y-43279403D02*
X28178143Y-43298451D01*
X28178143Y-43298451D02*
X28025762Y-43298451D01*
X28597190Y-43222260D02*
X28597190Y-43488927D01*
X28501952Y-43069880D02*
X28406714Y-43355594D01*
X28406714Y-43355594D02*
X28654333Y-43355594D01*
D10*
X42304152Y-34551761D02*
X42970819Y-34551761D01*
X41923200Y-34789856D02*
X42637485Y-35027951D01*
X42637485Y-35027951D02*
X42637485Y-34408904D01*
X42875580Y-34027951D02*
X42923200Y-33980332D01*
X42923200Y-33980332D02*
X42970819Y-34027951D01*
X42970819Y-34027951D02*
X42923200Y-34075570D01*
X42923200Y-34075570D02*
X42875580Y-34027951D01*
X42875580Y-34027951D02*
X42970819Y-34027951D01*
X41970819Y-33646999D02*
X41970819Y-32980333D01*
X41970819Y-32980333D02*
X42970819Y-33408904D01*
X42304152Y-32170809D02*
X42970819Y-32170809D01*
X42304152Y-32599380D02*
X42827961Y-32599380D01*
X42827961Y-32599380D02*
X42923200Y-32551761D01*
X42923200Y-32551761D02*
X42970819Y-32456523D01*
X42970819Y-32456523D02*
X42970819Y-32313666D01*
X42970819Y-32313666D02*
X42923200Y-32218428D01*
X42923200Y-32218428D02*
X42875580Y-32170809D01*
X42447009Y-31361285D02*
X42447009Y-31694618D01*
X42970819Y-31694618D02*
X41970819Y-31694618D01*
X41970819Y-31694618D02*
X41970819Y-31218428D01*
D12*
X44375530Y-33230333D02*
X44399340Y-33254142D01*
X44399340Y-33254142D02*
X44423149Y-33325571D01*
X44423149Y-33325571D02*
X44423149Y-33373190D01*
X44423149Y-33373190D02*
X44399340Y-33444618D01*
X44399340Y-33444618D02*
X44351720Y-33492237D01*
X44351720Y-33492237D02*
X44304101Y-33516047D01*
X44304101Y-33516047D02*
X44208863Y-33539856D01*
X44208863Y-33539856D02*
X44137435Y-33539856D01*
X44137435Y-33539856D02*
X44042197Y-33516047D01*
X44042197Y-33516047D02*
X43994578Y-33492237D01*
X43994578Y-33492237D02*
X43946959Y-33444618D01*
X43946959Y-33444618D02*
X43923149Y-33373190D01*
X43923149Y-33373190D02*
X43923149Y-33325571D01*
X43923149Y-33325571D02*
X43946959Y-33254142D01*
X43946959Y-33254142D02*
X43970768Y-33230333D01*
X44137435Y-32944618D02*
X44113625Y-32992237D01*
X44113625Y-32992237D02*
X44089816Y-33016047D01*
X44089816Y-33016047D02*
X44042197Y-33039856D01*
X44042197Y-33039856D02*
X44018387Y-33039856D01*
X44018387Y-33039856D02*
X43970768Y-33016047D01*
X43970768Y-33016047D02*
X43946959Y-32992237D01*
X43946959Y-32992237D02*
X43923149Y-32944618D01*
X43923149Y-32944618D02*
X43923149Y-32849380D01*
X43923149Y-32849380D02*
X43946959Y-32801761D01*
X43946959Y-32801761D02*
X43970768Y-32777952D01*
X43970768Y-32777952D02*
X44018387Y-32754142D01*
X44018387Y-32754142D02*
X44042197Y-32754142D01*
X44042197Y-32754142D02*
X44089816Y-32777952D01*
X44089816Y-32777952D02*
X44113625Y-32801761D01*
X44113625Y-32801761D02*
X44137435Y-32849380D01*
X44137435Y-32849380D02*
X44137435Y-32944618D01*
X44137435Y-32944618D02*
X44161244Y-32992237D01*
X44161244Y-32992237D02*
X44185054Y-33016047D01*
X44185054Y-33016047D02*
X44232673Y-33039856D01*
X44232673Y-33039856D02*
X44327911Y-33039856D01*
X44327911Y-33039856D02*
X44375530Y-33016047D01*
X44375530Y-33016047D02*
X44399340Y-32992237D01*
X44399340Y-32992237D02*
X44423149Y-32944618D01*
X44423149Y-32944618D02*
X44423149Y-32849380D01*
X44423149Y-32849380D02*
X44399340Y-32801761D01*
X44399340Y-32801761D02*
X44375530Y-32777952D01*
X44375530Y-32777952D02*
X44327911Y-32754142D01*
X44327911Y-32754142D02*
X44232673Y-32754142D01*
X44232673Y-32754142D02*
X44185054Y-32777952D01*
X44185054Y-32777952D02*
X44161244Y-32801761D01*
X44161244Y-32801761D02*
X44137435Y-32849380D01*
D10*
X31599380Y-40387819D02*
X31027952Y-40387819D01*
X31313666Y-40387819D02*
X31313666Y-39387819D01*
X31313666Y-39387819D02*
X31218428Y-39530676D01*
X31218428Y-39530676D02*
X31123190Y-39625914D01*
X31123190Y-39625914D02*
X31027952Y-39673533D01*
X32218428Y-39387819D02*
X32313666Y-39387819D01*
X32313666Y-39387819D02*
X32408904Y-39435438D01*
X32408904Y-39435438D02*
X32456523Y-39483057D01*
X32456523Y-39483057D02*
X32504142Y-39578295D01*
X32504142Y-39578295D02*
X32551761Y-39768771D01*
X32551761Y-39768771D02*
X32551761Y-40006866D01*
X32551761Y-40006866D02*
X32504142Y-40197342D01*
X32504142Y-40197342D02*
X32456523Y-40292580D01*
X32456523Y-40292580D02*
X32408904Y-40340200D01*
X32408904Y-40340200D02*
X32313666Y-40387819D01*
X32313666Y-40387819D02*
X32218428Y-40387819D01*
X32218428Y-40387819D02*
X32123190Y-40340200D01*
X32123190Y-40340200D02*
X32075571Y-40292580D01*
X32075571Y-40292580D02*
X32027952Y-40197342D01*
X32027952Y-40197342D02*
X31980333Y-40006866D01*
X31980333Y-40006866D02*
X31980333Y-39768771D01*
X31980333Y-39768771D02*
X32027952Y-39578295D01*
X32027952Y-39578295D02*
X32075571Y-39483057D01*
X32075571Y-39483057D02*
X32123190Y-39435438D01*
X32123190Y-39435438D02*
X32218428Y-39387819D01*
X33170809Y-39387819D02*
X33266047Y-39387819D01*
X33266047Y-39387819D02*
X33361285Y-39435438D01*
X33361285Y-39435438D02*
X33408904Y-39483057D01*
X33408904Y-39483057D02*
X33456523Y-39578295D01*
X33456523Y-39578295D02*
X33504142Y-39768771D01*
X33504142Y-39768771D02*
X33504142Y-40006866D01*
X33504142Y-40006866D02*
X33456523Y-40197342D01*
X33456523Y-40197342D02*
X33408904Y-40292580D01*
X33408904Y-40292580D02*
X33361285Y-40340200D01*
X33361285Y-40340200D02*
X33266047Y-40387819D01*
X33266047Y-40387819D02*
X33170809Y-40387819D01*
X33170809Y-40387819D02*
X33075571Y-40340200D01*
X33075571Y-40340200D02*
X33027952Y-40292580D01*
X33027952Y-40292580D02*
X32980333Y-40197342D01*
X32980333Y-40197342D02*
X32932714Y-40006866D01*
X32932714Y-40006866D02*
X32932714Y-39768771D01*
X32932714Y-39768771D02*
X32980333Y-39578295D01*
X32980333Y-39578295D02*
X33027952Y-39483057D01*
X33027952Y-39483057D02*
X33075571Y-39435438D01*
X33075571Y-39435438D02*
X33170809Y-39387819D01*
X34361285Y-39721152D02*
X34361285Y-40387819D01*
X33932714Y-39721152D02*
X33932714Y-40244961D01*
X33932714Y-40244961D02*
X33980333Y-40340200D01*
X33980333Y-40340200D02*
X34075571Y-40387819D01*
X34075571Y-40387819D02*
X34218428Y-40387819D01*
X34218428Y-40387819D02*
X34313666Y-40340200D01*
X34313666Y-40340200D02*
X34361285Y-40292580D01*
X35170809Y-39864009D02*
X34837476Y-39864009D01*
X34837476Y-40387819D02*
X34837476Y-39387819D01*
X34837476Y-39387819D02*
X35313666Y-39387819D01*
D13*
X32632714Y-42070664D02*
X32594618Y-42108760D01*
X32594618Y-42108760D02*
X32480333Y-42146855D01*
X32480333Y-42146855D02*
X32404142Y-42146855D01*
X32404142Y-42146855D02*
X32289856Y-42108760D01*
X32289856Y-42108760D02*
X32213666Y-42032569D01*
X32213666Y-42032569D02*
X32175571Y-41956379D01*
X32175571Y-41956379D02*
X32137475Y-41803998D01*
X32137475Y-41803998D02*
X32137475Y-41689712D01*
X32137475Y-41689712D02*
X32175571Y-41537331D01*
X32175571Y-41537331D02*
X32213666Y-41461140D01*
X32213666Y-41461140D02*
X32289856Y-41384950D01*
X32289856Y-41384950D02*
X32404142Y-41346855D01*
X32404142Y-41346855D02*
X32480333Y-41346855D01*
X32480333Y-41346855D02*
X32594618Y-41384950D01*
X32594618Y-41384950D02*
X32632714Y-41423045D01*
X33394618Y-42146855D02*
X32937475Y-42146855D01*
X33166047Y-42146855D02*
X33166047Y-41346855D01*
X33166047Y-41346855D02*
X33089856Y-41461140D01*
X33089856Y-41461140D02*
X33013666Y-41537331D01*
X33013666Y-41537331D02*
X32937475Y-41575426D01*
X33889857Y-41346855D02*
X33966047Y-41346855D01*
X33966047Y-41346855D02*
X34042238Y-41384950D01*
X34042238Y-41384950D02*
X34080333Y-41423045D01*
X34080333Y-41423045D02*
X34118428Y-41499236D01*
X34118428Y-41499236D02*
X34156523Y-41651617D01*
X34156523Y-41651617D02*
X34156523Y-41842093D01*
X34156523Y-41842093D02*
X34118428Y-41994474D01*
X34118428Y-41994474D02*
X34080333Y-42070664D01*
X34080333Y-42070664D02*
X34042238Y-42108760D01*
X34042238Y-42108760D02*
X33966047Y-42146855D01*
X33966047Y-42146855D02*
X33889857Y-42146855D01*
X33889857Y-42146855D02*
X33813666Y-42108760D01*
X33813666Y-42108760D02*
X33775571Y-42070664D01*
X33775571Y-42070664D02*
X33737476Y-41994474D01*
X33737476Y-41994474D02*
X33699380Y-41842093D01*
X33699380Y-41842093D02*
X33699380Y-41651617D01*
X33699380Y-41651617D02*
X33737476Y-41499236D01*
X33737476Y-41499236D02*
X33775571Y-41423045D01*
X33775571Y-41423045D02*
X33813666Y-41384950D01*
X33813666Y-41384950D02*
X33889857Y-41346855D01*
D10*
X53424819Y-36591095D02*
X54139104Y-36591095D01*
X54139104Y-36591095D02*
X54281961Y-36638714D01*
X54281961Y-36638714D02*
X54377200Y-36733952D01*
X54377200Y-36733952D02*
X54424819Y-36876809D01*
X54424819Y-36876809D02*
X54424819Y-36972047D01*
X53758152Y-35686333D02*
X54424819Y-35686333D01*
X53758152Y-36114904D02*
X54281961Y-36114904D01*
X54281961Y-36114904D02*
X54377200Y-36067285D01*
X54377200Y-36067285D02*
X54424819Y-35972047D01*
X54424819Y-35972047D02*
X54424819Y-35829190D01*
X54424819Y-35829190D02*
X54377200Y-35733952D01*
X54377200Y-35733952D02*
X54329580Y-35686333D01*
X54424819Y-35210142D02*
X53758152Y-35210142D01*
X53853390Y-35210142D02*
X53805771Y-35162523D01*
X53805771Y-35162523D02*
X53758152Y-35067285D01*
X53758152Y-35067285D02*
X53758152Y-34924428D01*
X53758152Y-34924428D02*
X53805771Y-34829190D01*
X53805771Y-34829190D02*
X53901009Y-34781571D01*
X53901009Y-34781571D02*
X54424819Y-34781571D01*
X53901009Y-34781571D02*
X53805771Y-34733952D01*
X53805771Y-34733952D02*
X53758152Y-34638714D01*
X53758152Y-34638714D02*
X53758152Y-34495857D01*
X53758152Y-34495857D02*
X53805771Y-34400618D01*
X53805771Y-34400618D02*
X53901009Y-34352999D01*
X53901009Y-34352999D02*
X54424819Y-34352999D01*
X53758152Y-33876809D02*
X54758152Y-33876809D01*
X53805771Y-33876809D02*
X53758152Y-33781571D01*
X53758152Y-33781571D02*
X53758152Y-33591095D01*
X53758152Y-33591095D02*
X53805771Y-33495857D01*
X53805771Y-33495857D02*
X53853390Y-33448238D01*
X53853390Y-33448238D02*
X53948628Y-33400619D01*
X53948628Y-33400619D02*
X54234342Y-33400619D01*
X54234342Y-33400619D02*
X54329580Y-33448238D01*
X54329580Y-33448238D02*
X54377200Y-33495857D01*
X54377200Y-33495857D02*
X54424819Y-33591095D01*
X54424819Y-33591095D02*
X54424819Y-33781571D01*
X54424819Y-33781571D02*
X54377200Y-33876809D01*
X54377200Y-32591095D02*
X54424819Y-32686333D01*
X54424819Y-32686333D02*
X54424819Y-32876809D01*
X54424819Y-32876809D02*
X54377200Y-32972047D01*
X54377200Y-32972047D02*
X54281961Y-33019666D01*
X54281961Y-33019666D02*
X53901009Y-33019666D01*
X53901009Y-33019666D02*
X53805771Y-32972047D01*
X53805771Y-32972047D02*
X53758152Y-32876809D01*
X53758152Y-32876809D02*
X53758152Y-32686333D01*
X53758152Y-32686333D02*
X53805771Y-32591095D01*
X53805771Y-32591095D02*
X53901009Y-32543476D01*
X53901009Y-32543476D02*
X53996247Y-32543476D01*
X53996247Y-32543476D02*
X54091485Y-33019666D01*
X54424819Y-32114904D02*
X53758152Y-32114904D01*
X53948628Y-32114904D02*
X53853390Y-32067285D01*
X53853390Y-32067285D02*
X53805771Y-32019666D01*
X53805771Y-32019666D02*
X53758152Y-31924428D01*
X53758152Y-31924428D02*
X53758152Y-31829190D01*
X54520057Y-31733952D02*
X54520057Y-30972047D01*
X53520057Y-30781570D02*
X53472438Y-30733951D01*
X53472438Y-30733951D02*
X53424819Y-30638713D01*
X53424819Y-30638713D02*
X53424819Y-30400618D01*
X53424819Y-30400618D02*
X53472438Y-30305380D01*
X53472438Y-30305380D02*
X53520057Y-30257761D01*
X53520057Y-30257761D02*
X53615295Y-30210142D01*
X53615295Y-30210142D02*
X53710533Y-30210142D01*
X53710533Y-30210142D02*
X53853390Y-30257761D01*
X53853390Y-30257761D02*
X54424819Y-30829189D01*
X54424819Y-30829189D02*
X54424819Y-30210142D01*
X54520057Y-30019666D02*
X54520057Y-29257761D01*
X53901009Y-28686332D02*
X53948628Y-28543475D01*
X53948628Y-28543475D02*
X53996247Y-28495856D01*
X53996247Y-28495856D02*
X54091485Y-28448237D01*
X54091485Y-28448237D02*
X54234342Y-28448237D01*
X54234342Y-28448237D02*
X54329580Y-28495856D01*
X54329580Y-28495856D02*
X54377200Y-28543475D01*
X54377200Y-28543475D02*
X54424819Y-28638713D01*
X54424819Y-28638713D02*
X54424819Y-29019665D01*
X54424819Y-29019665D02*
X53424819Y-29019665D01*
X53424819Y-29019665D02*
X53424819Y-28686332D01*
X53424819Y-28686332D02*
X53472438Y-28591094D01*
X53472438Y-28591094D02*
X53520057Y-28543475D01*
X53520057Y-28543475D02*
X53615295Y-28495856D01*
X53615295Y-28495856D02*
X53710533Y-28495856D01*
X53710533Y-28495856D02*
X53805771Y-28543475D01*
X53805771Y-28543475D02*
X53853390Y-28591094D01*
X53853390Y-28591094D02*
X53901009Y-28686332D01*
X53901009Y-28686332D02*
X53901009Y-29019665D01*
X54424819Y-28019665D02*
X53758152Y-28019665D01*
X53948628Y-28019665D02*
X53853390Y-27972046D01*
X53853390Y-27972046D02*
X53805771Y-27924427D01*
X53805771Y-27924427D02*
X53758152Y-27829189D01*
X53758152Y-27829189D02*
X53758152Y-27733951D01*
X54424819Y-27400617D02*
X53758152Y-27400617D01*
X53424819Y-27400617D02*
X53472438Y-27448236D01*
X53472438Y-27448236D02*
X53520057Y-27400617D01*
X53520057Y-27400617D02*
X53472438Y-27352998D01*
X53472438Y-27352998D02*
X53424819Y-27400617D01*
X53424819Y-27400617D02*
X53520057Y-27400617D01*
X54424819Y-26495856D02*
X53424819Y-26495856D01*
X54377200Y-26495856D02*
X54424819Y-26591094D01*
X54424819Y-26591094D02*
X54424819Y-26781570D01*
X54424819Y-26781570D02*
X54377200Y-26876808D01*
X54377200Y-26876808D02*
X54329580Y-26924427D01*
X54329580Y-26924427D02*
X54234342Y-26972046D01*
X54234342Y-26972046D02*
X53948628Y-26972046D01*
X53948628Y-26972046D02*
X53853390Y-26924427D01*
X53853390Y-26924427D02*
X53805771Y-26876808D01*
X53805771Y-26876808D02*
X53758152Y-26781570D01*
X53758152Y-26781570D02*
X53758152Y-26591094D01*
X53758152Y-26591094D02*
X53805771Y-26495856D01*
X53758152Y-25591094D02*
X54567676Y-25591094D01*
X54567676Y-25591094D02*
X54662914Y-25638713D01*
X54662914Y-25638713D02*
X54710533Y-25686332D01*
X54710533Y-25686332D02*
X54758152Y-25781570D01*
X54758152Y-25781570D02*
X54758152Y-25924427D01*
X54758152Y-25924427D02*
X54710533Y-26019665D01*
X54377200Y-25591094D02*
X54424819Y-25686332D01*
X54424819Y-25686332D02*
X54424819Y-25876808D01*
X54424819Y-25876808D02*
X54377200Y-25972046D01*
X54377200Y-25972046D02*
X54329580Y-26019665D01*
X54329580Y-26019665D02*
X54234342Y-26067284D01*
X54234342Y-26067284D02*
X53948628Y-26067284D01*
X53948628Y-26067284D02*
X53853390Y-26019665D01*
X53853390Y-26019665D02*
X53805771Y-25972046D01*
X53805771Y-25972046D02*
X53758152Y-25876808D01*
X53758152Y-25876808D02*
X53758152Y-25686332D01*
X53758152Y-25686332D02*
X53805771Y-25591094D01*
X54377200Y-24733951D02*
X54424819Y-24829189D01*
X54424819Y-24829189D02*
X54424819Y-25019665D01*
X54424819Y-25019665D02*
X54377200Y-25114903D01*
X54377200Y-25114903D02*
X54281961Y-25162522D01*
X54281961Y-25162522D02*
X53901009Y-25162522D01*
X53901009Y-25162522D02*
X53805771Y-25114903D01*
X53805771Y-25114903D02*
X53758152Y-25019665D01*
X53758152Y-25019665D02*
X53758152Y-24829189D01*
X53758152Y-24829189D02*
X53805771Y-24733951D01*
X53805771Y-24733951D02*
X53901009Y-24686332D01*
X53901009Y-24686332D02*
X53996247Y-24686332D01*
X53996247Y-24686332D02*
X54091485Y-25162522D01*
X54424819Y-23829189D02*
X53424819Y-23829189D01*
X54377200Y-23829189D02*
X54424819Y-23924427D01*
X54424819Y-23924427D02*
X54424819Y-24114903D01*
X54424819Y-24114903D02*
X54377200Y-24210141D01*
X54377200Y-24210141D02*
X54329580Y-24257760D01*
X54329580Y-24257760D02*
X54234342Y-24305379D01*
X54234342Y-24305379D02*
X53948628Y-24305379D01*
X53948628Y-24305379D02*
X53853390Y-24257760D01*
X53853390Y-24257760D02*
X53805771Y-24210141D01*
X53805771Y-24210141D02*
X53758152Y-24114903D01*
X53758152Y-24114903D02*
X53758152Y-23924427D01*
X53758152Y-23924427D02*
X53805771Y-23829189D01*
X48426761Y-32872819D02*
X47855333Y-32872819D01*
X48141047Y-32872819D02*
X48141047Y-31872819D01*
X48141047Y-31872819D02*
X48045809Y-32015676D01*
X48045809Y-32015676D02*
X47950571Y-32110914D01*
X47950571Y-32110914D02*
X47855333Y-32158533D01*
X49045809Y-31872819D02*
X49141047Y-31872819D01*
X49141047Y-31872819D02*
X49236285Y-31920438D01*
X49236285Y-31920438D02*
X49283904Y-31968057D01*
X49283904Y-31968057D02*
X49331523Y-32063295D01*
X49331523Y-32063295D02*
X49379142Y-32253771D01*
X49379142Y-32253771D02*
X49379142Y-32491866D01*
X49379142Y-32491866D02*
X49331523Y-32682342D01*
X49331523Y-32682342D02*
X49283904Y-32777580D01*
X49283904Y-32777580D02*
X49236285Y-32825200D01*
X49236285Y-32825200D02*
X49141047Y-32872819D01*
X49141047Y-32872819D02*
X49045809Y-32872819D01*
X49045809Y-32872819D02*
X48950571Y-32825200D01*
X48950571Y-32825200D02*
X48902952Y-32777580D01*
X48902952Y-32777580D02*
X48855333Y-32682342D01*
X48855333Y-32682342D02*
X48807714Y-32491866D01*
X48807714Y-32491866D02*
X48807714Y-32253771D01*
X48807714Y-32253771D02*
X48855333Y-32063295D01*
X48855333Y-32063295D02*
X48902952Y-31968057D01*
X48902952Y-31968057D02*
X48950571Y-31920438D01*
X48950571Y-31920438D02*
X49045809Y-31872819D01*
X49807714Y-32872819D02*
X49807714Y-31872819D01*
X49902952Y-32491866D02*
X50188666Y-32872819D01*
X50188666Y-32206152D02*
X49807714Y-32587104D01*
D11*
X48955333Y-31169927D02*
X48822000Y-30979451D01*
X48726762Y-31169927D02*
X48726762Y-30769927D01*
X48726762Y-30769927D02*
X48879143Y-30769927D01*
X48879143Y-30769927D02*
X48917238Y-30788975D01*
X48917238Y-30788975D02*
X48936285Y-30808022D01*
X48936285Y-30808022D02*
X48955333Y-30846118D01*
X48955333Y-30846118D02*
X48955333Y-30903260D01*
X48955333Y-30903260D02*
X48936285Y-30941356D01*
X48936285Y-30941356D02*
X48917238Y-30960403D01*
X48917238Y-30960403D02*
X48879143Y-30979451D01*
X48879143Y-30979451D02*
X48726762Y-30979451D01*
X49317238Y-30769927D02*
X49126762Y-30769927D01*
X49126762Y-30769927D02*
X49107714Y-30960403D01*
X49107714Y-30960403D02*
X49126762Y-30941356D01*
X49126762Y-30941356D02*
X49164857Y-30922308D01*
X49164857Y-30922308D02*
X49260095Y-30922308D01*
X49260095Y-30922308D02*
X49298190Y-30941356D01*
X49298190Y-30941356D02*
X49317238Y-30960403D01*
X49317238Y-30960403D02*
X49336285Y-30998499D01*
X49336285Y-30998499D02*
X49336285Y-31093737D01*
X49336285Y-31093737D02*
X49317238Y-31131832D01*
X49317238Y-31131832D02*
X49298190Y-31150880D01*
X49298190Y-31150880D02*
X49260095Y-31169927D01*
X49260095Y-31169927D02*
X49164857Y-31169927D01*
X49164857Y-31169927D02*
X49126762Y-31150880D01*
X49126762Y-31150880D02*
X49107714Y-31131832D01*
D14*
X30480000Y-45720000D02*
X71120000Y-45720000D01*
X30480000Y-48260000D02*
X30480000Y-45720000D01*
X70485000Y-48260000D02*
X30480000Y-48260000D01*
X71120000Y-45720000D02*
X71120000Y-47625000D01*
X71120000Y-47625000D02*
X70485000Y-48260000D01*
X40640000Y-25400000D02*
X71120000Y-25400000D01*
X40640000Y-27940000D02*
X40640000Y-25400000D01*
X70485000Y-27940000D02*
X40640000Y-27940000D01*
X71120000Y-25400000D02*
X71120000Y-27305000D01*
X71120000Y-27305000D02*
X70485000Y-27940000D01*
D10*
X35413000Y-50698000D02*
X71013000Y-50698000D01*
X35413000Y-69698000D02*
X35413000Y-50698000D01*
X71013000Y-50698000D02*
X71013000Y-69698000D01*
X71013000Y-69698000D02*
X35413000Y-69698000D01*
X35413000Y-73431000D02*
X71013000Y-73431000D01*
X35413000Y-92431000D02*
X35413000Y-73431000D01*
X71013000Y-73431000D02*
X71013000Y-92431000D01*
X71013000Y-92431000D02*
X35413000Y-92431000D01*
D14*
X27783000Y-50135000D02*
X27783000Y-52435000D01*
X27783000Y-50135000D02*
X30383000Y-50135000D01*
X27783000Y-52435000D02*
X28083000Y-52735000D01*
X28083000Y-52735000D02*
X30383000Y-52735000D01*
X28783000Y-52735000D02*
X29083000Y-52435000D01*
X29083000Y-52435000D02*
X29383000Y-52735000D01*
X30383000Y-50135000D02*
X30383000Y-52735000D01*
X29133000Y-51435000D02*
G75*
G02*
X29033000Y-51435000I-50000J0D01*
G01*
X29033000Y-51435000D02*
G75*
G02*
X29133000Y-51435000I50000J0D01*
G01*
X29208000Y-51435000D02*
G75*
G02*
X28958000Y-51435000I-125000J0D01*
G01*
X28958000Y-51435000D02*
G75*
G02*
X29208000Y-51435000I125000J0D01*
G01*
X29283000Y-51435000D02*
G75*
G02*
X28883000Y-51435000I-200000J0D01*
G01*
X28883000Y-51435000D02*
G75*
G02*
X29283000Y-51435000I200000J0D01*
G01*
X29983000Y-51435000D02*
G75*
G02*
X28183000Y-51435000I-900000J0D01*
G01*
X28183000Y-51435000D02*
G75*
G02*
X29983000Y-51435000I900000J0D01*
G01*
X27783000Y-72995000D02*
X27783000Y-75295000D01*
X27783000Y-72995000D02*
X30383000Y-72995000D01*
X27783000Y-75295000D02*
X28083000Y-75595000D01*
X28083000Y-75595000D02*
X30383000Y-75595000D01*
X28783000Y-75595000D02*
X29083000Y-75295000D01*
X29083000Y-75295000D02*
X29383000Y-75595000D01*
X30383000Y-72995000D02*
X30383000Y-75595000D01*
X29133000Y-74295000D02*
G75*
G02*
X29033000Y-74295000I-50000J0D01*
G01*
X29033000Y-74295000D02*
G75*
G02*
X29133000Y-74295000I50000J0D01*
G01*
X29208000Y-74295000D02*
G75*
G02*
X28958000Y-74295000I-125000J0D01*
G01*
X28958000Y-74295000D02*
G75*
G02*
X29208000Y-74295000I125000J0D01*
G01*
X29283000Y-74295000D02*
G75*
G02*
X28883000Y-74295000I-200000J0D01*
G01*
X28883000Y-74295000D02*
G75*
G02*
X29283000Y-74295000I200000J0D01*
G01*
X29983000Y-74295000D02*
G75*
G02*
X28183000Y-74295000I-900000J0D01*
G01*
X28183000Y-74295000D02*
G75*
G02*
X29983000Y-74295000I900000J0D01*
G01*
D10*
X34060000Y-27440000D02*
X35060000Y-26440000D01*
X34060000Y-29440000D02*
X34060000Y-27440000D01*
X35060000Y-26440000D02*
X37060000Y-26440000D01*
X37060000Y-26440000D02*
X37060000Y-29440000D01*
X37060000Y-29440000D02*
X34060000Y-29440000D01*
D14*
X27521000Y-57385000D02*
X29121000Y-57385000D01*
X27521000Y-58185000D02*
X27521000Y-57385000D01*
X29121000Y-57385000D02*
X29121000Y-58185000D01*
X29121000Y-58185000D02*
X27521000Y-58185000D01*
X27521000Y-61957000D02*
X29121000Y-61957000D01*
X27521000Y-62757000D02*
X27521000Y-61957000D01*
X29121000Y-61957000D02*
X29121000Y-62757000D01*
X29121000Y-62757000D02*
X27521000Y-62757000D01*
X27521000Y-80245000D02*
X29121000Y-80245000D01*
X27521000Y-81045000D02*
X27521000Y-80245000D01*
X29121000Y-80245000D02*
X29121000Y-81045000D01*
X29121000Y-81045000D02*
X27521000Y-81045000D01*
X27521000Y-84817000D02*
X29121000Y-84817000D01*
X27521000Y-85617000D02*
X27521000Y-84817000D01*
X29121000Y-84817000D02*
X29121000Y-85617000D01*
X29121000Y-85617000D02*
X27521000Y-85617000D01*
X28683000Y-59271000D02*
X29483000Y-59271000D01*
X28683000Y-60871000D02*
X28683000Y-59271000D01*
X29483000Y-59271000D02*
X29483000Y-60871000D01*
X29483000Y-60871000D02*
X28683000Y-60871000D01*
X28683000Y-63843000D02*
X29483000Y-63843000D01*
X28683000Y-65443000D02*
X28683000Y-63843000D01*
X29483000Y-63843000D02*
X29483000Y-65443000D01*
X29483000Y-65443000D02*
X28683000Y-65443000D01*
X28683000Y-77559000D02*
X29483000Y-77559000D01*
X28683000Y-79159000D02*
X28683000Y-77559000D01*
X29483000Y-77559000D02*
X29483000Y-79159000D01*
X29483000Y-79159000D02*
X28683000Y-79159000D01*
X28683000Y-82131000D02*
X29483000Y-82131000D01*
X28683000Y-83731000D02*
X28683000Y-82131000D01*
X29483000Y-82131000D02*
X29483000Y-83731000D01*
X29483000Y-83731000D02*
X28683000Y-83731000D01*
X28683000Y-86703000D02*
X29483000Y-86703000D01*
X28683000Y-88303000D02*
X28683000Y-86703000D01*
X29483000Y-86703000D02*
X29483000Y-88303000D01*
X29483000Y-88303000D02*
X28683000Y-88303000D01*
X28683000Y-54699000D02*
X29483000Y-54699000D01*
X28683000Y-56299000D02*
X28683000Y-54699000D01*
X29483000Y-54699000D02*
X29483000Y-56299000D01*
X29483000Y-56299000D02*
X28683000Y-56299000D01*
X25557000Y-34911000D02*
X27557000Y-34911000D01*
X25557000Y-39511000D02*
X25557000Y-34911000D01*
X27557000Y-34311000D02*
X39357000Y-34311000D01*
X27557000Y-34911000D02*
X27557000Y-34311000D01*
X27557000Y-39511000D02*
X25557000Y-39511000D01*
X27557000Y-40111000D02*
X27557000Y-39511000D01*
X39357000Y-34311000D02*
X39357000Y-40111000D01*
X39357000Y-40111000D02*
X27557000Y-40111000D01*
D13*
X37936951Y-34861000D02*
G75*
G02*
X37427049Y-34861000I-254951J0D01*
G01*
X37427049Y-34861000D02*
G75*
G02*
X37936951Y-34861000I254951J0D01*
G01*
D14*
X30696000Y-30575500D02*
X32296000Y-30575500D01*
X30696000Y-31400500D02*
X30696000Y-30575500D01*
X32296000Y-30575500D02*
X32296000Y-31400500D01*
X32296000Y-31400500D02*
X30696000Y-31400500D01*
X41891000Y-35268000D02*
X42691000Y-35268000D01*
X41891000Y-36868000D02*
X41891000Y-35268000D01*
X42691000Y-35268000D02*
X42691000Y-36868000D01*
X42691000Y-36868000D02*
X41891000Y-36868000D01*
X40367000Y-35268000D02*
X41167000Y-35268000D01*
X40367000Y-36868000D02*
X40367000Y-35268000D01*
X41167000Y-35268000D02*
X41167000Y-36868000D01*
X41167000Y-36868000D02*
X40367000Y-36868000D01*
X41878500Y-32220000D02*
X42703500Y-32220000D01*
X41878500Y-33820000D02*
X41878500Y-32220000D01*
X42703500Y-32220000D02*
X42703500Y-33820000D01*
X42703500Y-33820000D02*
X41878500Y-33820000D01*
X40354500Y-32220000D02*
X41179500Y-32220000D01*
X40354500Y-33820000D02*
X40354500Y-32220000D01*
X41179500Y-32220000D02*
X41179500Y-33820000D01*
X41179500Y-33820000D02*
X40354500Y-33820000D01*
X38970000Y-28283000D02*
X39770000Y-28283000D01*
X38970000Y-29883000D02*
X38970000Y-28283000D01*
X39770000Y-28283000D02*
X39770000Y-29883000D01*
X39770000Y-29883000D02*
X38970000Y-29883000D01*
X27521000Y-44685000D02*
X29121000Y-44685000D01*
X27521000Y-45485000D02*
X27521000Y-44685000D01*
X29121000Y-44685000D02*
X29121000Y-45485000D01*
X29121000Y-45485000D02*
X27521000Y-45485000D01*
X27521000Y-42894500D02*
X29121000Y-42894500D01*
X27521000Y-43719500D02*
X27521000Y-42894500D01*
X29121000Y-42894500D02*
X29121000Y-43719500D01*
X29121000Y-43719500D02*
X27521000Y-43719500D01*
X43571000Y-32147000D02*
X44821000Y-32147000D01*
X43571000Y-34147000D02*
X43571000Y-32147000D01*
X44821000Y-32147000D02*
X44821000Y-34147000D01*
X44821000Y-34147000D02*
X43571000Y-34147000D01*
X31547000Y-40983000D02*
X34747000Y-40983000D01*
X31547000Y-42583000D02*
X31547000Y-40983000D01*
X34747000Y-40983000D02*
X34747000Y-42583000D01*
X34747000Y-42583000D02*
X31547000Y-42583000D01*
X48222000Y-30575500D02*
X49822000Y-30575500D01*
X48222000Y-31400500D02*
X48222000Y-30575500D01*
X49822000Y-30575500D02*
X49822000Y-31400500D01*
X49822000Y-31400500D02*
X48222000Y-31400500D01*
M02*
