%TF.GenerationSoftware,KiCad,Pcbnew,8.0.1*%
%TF.CreationDate,2024-04-11T01:32:40-05:00*%
%TF.ProjectId,FeatherWing_KC5,46656174-6865-4725-9769-6e675f4b4335,rev?*%
%TF.SameCoordinates,Original*%
%TF.FileFunction,Copper,L2,Bot*%
%TF.FilePolarity,Positive*%
%FSLAX46Y46*%
G04 Gerber Fmt 4.6, Leading zero omitted, Abs format (unit mm)*
G04 Created by KiCad (PCBNEW 8.0.1) date 2024-04-11 01:32:40*
%MOMM*%
%LPD*%
G01*
G04 APERTURE LIST*
%TA.AperFunction,ComponentPad*%
%ADD10R,1.700000X1.700000*%
%TD*%
%TA.AperFunction,ComponentPad*%
%ADD11O,1.700000X1.700000*%
%TD*%
%TA.AperFunction,ViaPad*%
%ADD12C,0.800000*%
%TD*%
%TA.AperFunction,Conductor*%
%ADD13C,0.250000*%
%TD*%
%TA.AperFunction,Conductor*%
%ADD14C,0.500000*%
%TD*%
G04 APERTURE END LIST*
D10*
X69850000Y-46990000D03*
D11*
X67310000Y-46990000D03*
X64770000Y-46990000D03*
X62230000Y-46990000D03*
X59690000Y-46990000D03*
X57150000Y-46990000D03*
X54610000Y-46990000D03*
X52070000Y-46990000D03*
X49530000Y-46990000D03*
X46990000Y-46990000D03*
X44450000Y-46990000D03*
X41910000Y-46990000D03*
X39370000Y-46990000D03*
X36830000Y-46990000D03*
X34290000Y-46990000D03*
X31750000Y-46990000D03*
D10*
X69850000Y-26670000D03*
D11*
X67310000Y-26670000D03*
X64770000Y-26670000D03*
X62230000Y-26670000D03*
X59690000Y-26670000D03*
X57150000Y-26670000D03*
X54610000Y-26670000D03*
X52070000Y-26670000D03*
X49530000Y-26670000D03*
X46990000Y-26670000D03*
X44450000Y-26670000D03*
X41910000Y-26670000D03*
D12*
X48768000Y-66040000D03*
X44323000Y-66040000D03*
X66802000Y-72771000D03*
X66675000Y-52959000D03*
X57663000Y-51498000D03*
X38707000Y-40461000D03*
X57531000Y-61722000D03*
X70866000Y-71247000D03*
X39370000Y-44069000D03*
X49149000Y-58547000D03*
X44196000Y-35433000D03*
X73533000Y-53340000D03*
X43180000Y-54610000D03*
X54610000Y-30988000D03*
X57150000Y-30988000D03*
X45720000Y-54610000D03*
X66548000Y-70612000D03*
X29083000Y-66675000D03*
X29083000Y-89662000D03*
X66548000Y-93345000D03*
X48763000Y-55240000D03*
X42926000Y-38989000D03*
X44450000Y-59563000D03*
X48768000Y-72898000D03*
X41402000Y-39116000D03*
X34671000Y-28321000D03*
X44196000Y-30988000D03*
X30276000Y-45035000D03*
X39863000Y-68898000D03*
X34977000Y-33961000D03*
X27559000Y-42037000D03*
X37607000Y-36434000D03*
X36195000Y-41783000D03*
X59817000Y-50038000D03*
X58420000Y-44831000D03*
D13*
X48768000Y-66040000D02*
X67310000Y-47498000D01*
X67310000Y-47498000D02*
X67310000Y-46990000D01*
X44323000Y-66040000D02*
X45720000Y-66040000D01*
X45720000Y-66040000D02*
X64770000Y-46990000D01*
X66802000Y-72771000D02*
X68199000Y-71374000D01*
X66802000Y-53086000D02*
X66675000Y-52959000D01*
X68199000Y-71374000D02*
X68199000Y-54483000D01*
X68199000Y-54483000D02*
X66675000Y-52959000D01*
X51498000Y-51498000D02*
X46990000Y-46990000D01*
X57663000Y-51498000D02*
X51498000Y-51498000D01*
X43735000Y-35433000D02*
X44196000Y-35433000D01*
X38707000Y-40461000D02*
X43735000Y-35433000D01*
D14*
X43942000Y-28702000D02*
X69469000Y-28702000D01*
X41910000Y-26670000D02*
X43942000Y-28702000D01*
X75565000Y-34798000D02*
X75565000Y-51308000D01*
X69469000Y-28702000D02*
X75565000Y-34798000D01*
X75565000Y-51308000D02*
X73533000Y-53340000D01*
D13*
X43180000Y-42418000D02*
X43180000Y-46990000D01*
X43274999Y-42323001D02*
X54610000Y-30988000D01*
X43180000Y-46990000D02*
X43180000Y-54610000D01*
X43274999Y-42323001D02*
X43180000Y-42418000D01*
X45720000Y-42418000D02*
X57150000Y-30988000D01*
X45720000Y-42418000D02*
X45720000Y-46355000D01*
X45720000Y-46355000D02*
X45720000Y-54610000D01*
X66548000Y-70612000D02*
X33020000Y-70612000D01*
X33020000Y-70612000D02*
X29083000Y-66675000D01*
X32766000Y-93345000D02*
X29083000Y-89662000D01*
X66548000Y-93345000D02*
X32766000Y-93345000D01*
X40640000Y-41275000D02*
X42926000Y-38989000D01*
X48763000Y-55240000D02*
X48250000Y-55753000D01*
X42926000Y-55753000D02*
X40640000Y-53467000D01*
X48250000Y-55753000D02*
X42926000Y-55753000D01*
X40640000Y-53467000D02*
X40640000Y-41275000D01*
X38100000Y-53213000D02*
X44450000Y-59563000D01*
X38100000Y-42418000D02*
X38100000Y-53213000D01*
X41402000Y-39116000D02*
X38100000Y-42418000D01*
X44196000Y-30988000D02*
X44196000Y-30988000D01*
X37338000Y-30988000D02*
X44196000Y-30988000D01*
X37338000Y-30988000D02*
X34671000Y-28321000D01*
X30276000Y-45035000D02*
X34074002Y-45035000D01*
X38037000Y-68898000D02*
X39863000Y-68898000D01*
X35560000Y-46520998D02*
X35560000Y-66421000D01*
X34074002Y-45035000D02*
X35560000Y-46520998D01*
X35560000Y-66421000D02*
X38037000Y-68898000D01*
X27559000Y-42037000D02*
X27559000Y-42037000D01*
X34977000Y-33961000D02*
X34977000Y-34619000D01*
X34977000Y-34619000D02*
X27559000Y-42037000D01*
X36195000Y-41783000D02*
X37607000Y-40371000D01*
X37607000Y-40371000D02*
X37607000Y-36434000D01*
X59817000Y-50038000D02*
X58420000Y-48641000D01*
X58420000Y-48641000D02*
X58420000Y-44831000D01*
%TA.AperFunction,Conductor*%
G36*
X39924532Y-41593538D02*
G01*
X39981368Y-41636085D01*
X40006179Y-41702605D01*
X40006500Y-41711594D01*
X40006500Y-45596241D01*
X39986498Y-45664362D01*
X39932842Y-45710855D01*
X39862568Y-45720959D01*
X39839588Y-45715414D01*
X39704512Y-45669043D01*
X39704501Y-45669040D01*
X39624000Y-45655606D01*
X39624000Y-46559297D01*
X39562993Y-46524075D01*
X39435826Y-46490000D01*
X39304174Y-46490000D01*
X39177007Y-46524075D01*
X39116000Y-46559297D01*
X39116000Y-45655607D01*
X39115999Y-45655606D01*
X39035498Y-45669040D01*
X39035487Y-45669043D01*
X38900412Y-45715414D01*
X38829487Y-45718614D01*
X38768092Y-45682962D01*
X38735718Y-45619776D01*
X38733500Y-45596241D01*
X38733500Y-42732594D01*
X38753502Y-42664473D01*
X38770405Y-42643499D01*
X39791405Y-41622499D01*
X39853717Y-41588473D01*
X39924532Y-41593538D01*
G37*
%TD.AperFunction*%
%TA.AperFunction,Conductor*%
G36*
X40920990Y-25520502D02*
G01*
X40967483Y-25574158D01*
X40977587Y-25644432D01*
X40948093Y-25709012D01*
X40945570Y-25711838D01*
X40834279Y-25832729D01*
X40834275Y-25832734D01*
X40711141Y-26021206D01*
X40620703Y-26227386D01*
X40620702Y-26227387D01*
X40565437Y-26445624D01*
X40565436Y-26445630D01*
X40565436Y-26445632D01*
X40546844Y-26670000D01*
X40550921Y-26719207D01*
X40565437Y-26894375D01*
X40620702Y-27112612D01*
X40620703Y-27112613D01*
X40620704Y-27112616D01*
X40709781Y-27315692D01*
X40711141Y-27318793D01*
X40834275Y-27507265D01*
X40834279Y-27507270D01*
X40986762Y-27672908D01*
X41041331Y-27715381D01*
X41164424Y-27811189D01*
X41362426Y-27918342D01*
X41362427Y-27918342D01*
X41362428Y-27918343D01*
X41453023Y-27949444D01*
X41575365Y-27991444D01*
X41797431Y-28028500D01*
X41797435Y-28028500D01*
X42022570Y-28028500D01*
X42061593Y-28021988D01*
X42107070Y-28014399D01*
X42177553Y-28022915D01*
X42216904Y-28049585D01*
X43458485Y-29291166D01*
X43582716Y-29374174D01*
X43720753Y-29431351D01*
X43794022Y-29445924D01*
X43794023Y-29445925D01*
X43808598Y-29448824D01*
X43867294Y-29460500D01*
X43867295Y-29460500D01*
X44016705Y-29460500D01*
X69102629Y-29460500D01*
X69170750Y-29480502D01*
X69191724Y-29497405D01*
X74769595Y-35075276D01*
X74803621Y-35137588D01*
X74806500Y-35164371D01*
X74806500Y-50941628D01*
X74786498Y-51009749D01*
X74769595Y-51030723D01*
X73376667Y-52423650D01*
X73314355Y-52457676D01*
X73313772Y-52457801D01*
X73250712Y-52471206D01*
X73076249Y-52548881D01*
X73076248Y-52548882D01*
X72921744Y-52661135D01*
X72793965Y-52803048D01*
X72793958Y-52803058D01*
X72698476Y-52968438D01*
X72698473Y-52968445D01*
X72639457Y-53150072D01*
X72619496Y-53340000D01*
X72639457Y-53529927D01*
X72667694Y-53616828D01*
X72698473Y-53711556D01*
X72698476Y-53711561D01*
X72793958Y-53876941D01*
X72793965Y-53876951D01*
X72921744Y-54018864D01*
X72921747Y-54018866D01*
X73076248Y-54131118D01*
X73250712Y-54208794D01*
X73437513Y-54248500D01*
X73628487Y-54248500D01*
X73815288Y-54208794D01*
X73989752Y-54131118D01*
X74144253Y-54018866D01*
X74169408Y-53990929D01*
X74272034Y-53876951D01*
X74272035Y-53876949D01*
X74272040Y-53876944D01*
X74367527Y-53711556D01*
X74422388Y-53542711D01*
X74453124Y-53492555D01*
X75884406Y-52061273D01*
X75946717Y-52027249D01*
X76017533Y-52032314D01*
X76074368Y-52074861D01*
X76099179Y-52141381D01*
X76099500Y-52150370D01*
X76099500Y-93976194D01*
X76099270Y-93983802D01*
X76082173Y-94266441D01*
X76080339Y-94281545D01*
X76029987Y-94556310D01*
X76026346Y-94571084D01*
X75943237Y-94837788D01*
X75937841Y-94852014D01*
X75823198Y-95106740D01*
X75816128Y-95120212D01*
X75671611Y-95359273D01*
X75662967Y-95371796D01*
X75490691Y-95591690D01*
X75480601Y-95603078D01*
X75283078Y-95800601D01*
X75271690Y-95810691D01*
X75051796Y-95982967D01*
X75039273Y-95991611D01*
X74800212Y-96136128D01*
X74786740Y-96143198D01*
X74532014Y-96257841D01*
X74517788Y-96263237D01*
X74251084Y-96346346D01*
X74236310Y-96349987D01*
X73961545Y-96400339D01*
X73946441Y-96402173D01*
X73663802Y-96419270D01*
X73656194Y-96419500D01*
X27943806Y-96419500D01*
X27936198Y-96419270D01*
X27653558Y-96402173D01*
X27638454Y-96400339D01*
X27363689Y-96349987D01*
X27348915Y-96346346D01*
X27082211Y-96263237D01*
X27067985Y-96257841D01*
X26813259Y-96143198D01*
X26799787Y-96136128D01*
X26560719Y-95991606D01*
X26548214Y-95982974D01*
X26328302Y-95810685D01*
X26316921Y-95800601D01*
X26119398Y-95603078D01*
X26109315Y-95591698D01*
X25937022Y-95371782D01*
X25928395Y-95359283D01*
X25783867Y-95120206D01*
X25776801Y-95106740D01*
X25662158Y-94852014D01*
X25656762Y-94837788D01*
X25617607Y-94712136D01*
X25573651Y-94571078D01*
X25570012Y-94556310D01*
X25545582Y-94422997D01*
X25519658Y-94281534D01*
X25517827Y-94266452D01*
X25508119Y-94105962D01*
X26339500Y-94105962D01*
X26364918Y-94266441D01*
X26378911Y-94354790D01*
X26449190Y-94571084D01*
X26456759Y-94594379D01*
X26571130Y-94818845D01*
X26571132Y-94818848D01*
X26595229Y-94852014D01*
X26719207Y-95022656D01*
X26719209Y-95022658D01*
X26719211Y-95022661D01*
X26897338Y-95200788D01*
X26897341Y-95200790D01*
X26897344Y-95200793D01*
X27101155Y-95348870D01*
X27325621Y-95463241D01*
X27565215Y-95541090D01*
X27814038Y-95580500D01*
X27814041Y-95580500D01*
X28065959Y-95580500D01*
X28065962Y-95580500D01*
X28314785Y-95541090D01*
X28554379Y-95463241D01*
X28778845Y-95348870D01*
X28982656Y-95200793D01*
X29160793Y-95022656D01*
X29308870Y-94818845D01*
X29423241Y-94594379D01*
X29501090Y-94354785D01*
X29540500Y-94105962D01*
X29540500Y-93854038D01*
X29501090Y-93605215D01*
X29423241Y-93365621D01*
X29308870Y-93141155D01*
X29160793Y-92937344D01*
X29160790Y-92937341D01*
X29160788Y-92937338D01*
X28982661Y-92759211D01*
X28982658Y-92759209D01*
X28982656Y-92759207D01*
X28778845Y-92611130D01*
X28554379Y-92496759D01*
X28554376Y-92496758D01*
X28554374Y-92496757D01*
X28314790Y-92418911D01*
X28314786Y-92418910D01*
X28314785Y-92418910D01*
X28065962Y-92379500D01*
X27814038Y-92379500D01*
X27565215Y-92418910D01*
X27565209Y-92418911D01*
X27325625Y-92496757D01*
X27325619Y-92496760D01*
X27101151Y-92611132D01*
X26897341Y-92759209D01*
X26897338Y-92759211D01*
X26719211Y-92937338D01*
X26719209Y-92937341D01*
X26571132Y-93141151D01*
X26456760Y-93365619D01*
X26456757Y-93365625D01*
X26378911Y-93605209D01*
X26378910Y-93605214D01*
X26378910Y-93605215D01*
X26339500Y-93854038D01*
X26339500Y-94105962D01*
X25508119Y-94105962D01*
X25500730Y-93983801D01*
X25500500Y-93976194D01*
X25500500Y-89662000D01*
X28169496Y-89662000D01*
X28189457Y-89851927D01*
X28219526Y-89944470D01*
X28248473Y-90033556D01*
X28248476Y-90033561D01*
X28343958Y-90198941D01*
X28343965Y-90198951D01*
X28471744Y-90340864D01*
X28471747Y-90340866D01*
X28626248Y-90453118D01*
X28800712Y-90530794D01*
X28987513Y-90570500D01*
X29043406Y-90570500D01*
X29111527Y-90590502D01*
X29132501Y-90607405D01*
X32362161Y-93837067D01*
X32362167Y-93837072D01*
X32465925Y-93906401D01*
X32528614Y-93932367D01*
X32581215Y-93954155D01*
X32703606Y-93978500D01*
X32703607Y-93978500D01*
X32828394Y-93978500D01*
X65839800Y-93978500D01*
X65907921Y-93998502D01*
X65933437Y-94020190D01*
X65936747Y-94023866D01*
X66091248Y-94136118D01*
X66265712Y-94213794D01*
X66452513Y-94253500D01*
X66643487Y-94253500D01*
X66830288Y-94213794D01*
X67004752Y-94136118D01*
X67046258Y-94105962D01*
X72059500Y-94105962D01*
X72084918Y-94266441D01*
X72098911Y-94354790D01*
X72169190Y-94571084D01*
X72176759Y-94594379D01*
X72291130Y-94818845D01*
X72291132Y-94818848D01*
X72315229Y-94852014D01*
X72439207Y-95022656D01*
X72439209Y-95022658D01*
X72439211Y-95022661D01*
X72617338Y-95200788D01*
X72617341Y-95200790D01*
X72617344Y-95200793D01*
X72821155Y-95348870D01*
X73045621Y-95463241D01*
X73285215Y-95541090D01*
X73534038Y-95580500D01*
X73534041Y-95580500D01*
X73785959Y-95580500D01*
X73785962Y-95580500D01*
X74034785Y-95541090D01*
X74274379Y-95463241D01*
X74498845Y-95348870D01*
X74702656Y-95200793D01*
X74880793Y-95022656D01*
X75028870Y-94818845D01*
X75143241Y-94594379D01*
X75221090Y-94354785D01*
X75260500Y-94105962D01*
X75260500Y-93854038D01*
X75221090Y-93605215D01*
X75143241Y-93365621D01*
X75028870Y-93141155D01*
X74880793Y-92937344D01*
X74880790Y-92937341D01*
X74880788Y-92937338D01*
X74702661Y-92759211D01*
X74702658Y-92759209D01*
X74702656Y-92759207D01*
X74498845Y-92611130D01*
X74274379Y-92496759D01*
X74274376Y-92496758D01*
X74274374Y-92496757D01*
X74034790Y-92418911D01*
X74034786Y-92418910D01*
X74034785Y-92418910D01*
X73785962Y-92379500D01*
X73534038Y-92379500D01*
X73285215Y-92418910D01*
X73285209Y-92418911D01*
X73045625Y-92496757D01*
X73045619Y-92496760D01*
X72821151Y-92611132D01*
X72617341Y-92759209D01*
X72617338Y-92759211D01*
X72439211Y-92937338D01*
X72439209Y-92937341D01*
X72291132Y-93141151D01*
X72176760Y-93365619D01*
X72176757Y-93365625D01*
X72098911Y-93605209D01*
X72098910Y-93605214D01*
X72098910Y-93605215D01*
X72059500Y-93854038D01*
X72059500Y-94105962D01*
X67046258Y-94105962D01*
X67159253Y-94023866D01*
X67287040Y-93881944D01*
X67382527Y-93716556D01*
X67441542Y-93534928D01*
X67461504Y-93345000D01*
X67441542Y-93155072D01*
X67382527Y-92973444D01*
X67287040Y-92808056D01*
X67287038Y-92808054D01*
X67287034Y-92808048D01*
X67159255Y-92666135D01*
X67004752Y-92553882D01*
X66830288Y-92476206D01*
X66643487Y-92436500D01*
X66452513Y-92436500D01*
X66265711Y-92476206D01*
X66091247Y-92553882D01*
X65936747Y-92666133D01*
X65933437Y-92669810D01*
X65872991Y-92707050D01*
X65839800Y-92711500D01*
X33080595Y-92711500D01*
X33012474Y-92691498D01*
X32991500Y-92674595D01*
X30030121Y-89713216D01*
X29996095Y-89650904D01*
X29993908Y-89637306D01*
X29976542Y-89472072D01*
X29917527Y-89290444D01*
X29822040Y-89125056D01*
X29822038Y-89125054D01*
X29822034Y-89125048D01*
X29694255Y-88983135D01*
X29539752Y-88870882D01*
X29365288Y-88793206D01*
X29178487Y-88753500D01*
X28987513Y-88753500D01*
X28800711Y-88793206D01*
X28626247Y-88870882D01*
X28471744Y-88983135D01*
X28343965Y-89125048D01*
X28343958Y-89125058D01*
X28248476Y-89290438D01*
X28248473Y-89290445D01*
X28189457Y-89472072D01*
X28169496Y-89662000D01*
X25500500Y-89662000D01*
X25500500Y-72898000D01*
X47854496Y-72898000D01*
X47874457Y-73087927D01*
X47892207Y-73142554D01*
X47933473Y-73269556D01*
X47933476Y-73269561D01*
X48028958Y-73434941D01*
X48028965Y-73434951D01*
X48156744Y-73576864D01*
X48156747Y-73576866D01*
X48311248Y-73689118D01*
X48485712Y-73766794D01*
X48672513Y-73806500D01*
X48863487Y-73806500D01*
X49050288Y-73766794D01*
X49224752Y-73689118D01*
X49379253Y-73576866D01*
X49507040Y-73434944D01*
X49602527Y-73269556D01*
X49661542Y-73087928D01*
X49681504Y-72898000D01*
X49661542Y-72708072D01*
X49602527Y-72526444D01*
X49507040Y-72361056D01*
X49507038Y-72361054D01*
X49507034Y-72361048D01*
X49379255Y-72219135D01*
X49224752Y-72106882D01*
X49050288Y-72029206D01*
X48863487Y-71989500D01*
X48672513Y-71989500D01*
X48485711Y-72029206D01*
X48311247Y-72106882D01*
X48156744Y-72219135D01*
X48028965Y-72361048D01*
X48028958Y-72361058D01*
X47933476Y-72526438D01*
X47933473Y-72526445D01*
X47874457Y-72708072D01*
X47854496Y-72898000D01*
X25500500Y-72898000D01*
X25500500Y-66675000D01*
X28169496Y-66675000D01*
X28189457Y-66864927D01*
X28203711Y-66908794D01*
X28248473Y-67046556D01*
X28248476Y-67046561D01*
X28343958Y-67211941D01*
X28343965Y-67211951D01*
X28471744Y-67353864D01*
X28471747Y-67353866D01*
X28626248Y-67466118D01*
X28800712Y-67543794D01*
X28987513Y-67583500D01*
X29043406Y-67583500D01*
X29111527Y-67603502D01*
X29132501Y-67620405D01*
X32616161Y-71104067D01*
X32616167Y-71104072D01*
X32719925Y-71173401D01*
X32835215Y-71221155D01*
X32957606Y-71245500D01*
X33082394Y-71245500D01*
X65839800Y-71245500D01*
X65907921Y-71265502D01*
X65933437Y-71287190D01*
X65936747Y-71290866D01*
X66091248Y-71403118D01*
X66265712Y-71480794D01*
X66452513Y-71520500D01*
X66643487Y-71520500D01*
X66830288Y-71480794D01*
X66868986Y-71463564D01*
X66939350Y-71454130D01*
X67003648Y-71484235D01*
X67041462Y-71544323D01*
X67040787Y-71615317D01*
X67009330Y-71667766D01*
X66851499Y-71825596D01*
X66789190Y-71859620D01*
X66762406Y-71862500D01*
X66706513Y-71862500D01*
X66519711Y-71902206D01*
X66345247Y-71979882D01*
X66190744Y-72092135D01*
X66062965Y-72234048D01*
X66062958Y-72234058D01*
X65967476Y-72399438D01*
X65967473Y-72399445D01*
X65908457Y-72581072D01*
X65888496Y-72771000D01*
X65908457Y-72960927D01*
X65938526Y-73053470D01*
X65967473Y-73142556D01*
X65967476Y-73142561D01*
X66062958Y-73307941D01*
X66062965Y-73307951D01*
X66190744Y-73449864D01*
X66190747Y-73449866D01*
X66345248Y-73562118D01*
X66519712Y-73639794D01*
X66706513Y-73679500D01*
X66897487Y-73679500D01*
X67084288Y-73639794D01*
X67258752Y-73562118D01*
X67413253Y-73449866D01*
X67541040Y-73307944D01*
X67636527Y-73142556D01*
X67695542Y-72960928D01*
X67712907Y-72795704D01*
X67739920Y-72730049D01*
X67749113Y-72719789D01*
X68691071Y-71777833D01*
X68760400Y-71674075D01*
X68808155Y-71558785D01*
X68832500Y-71436394D01*
X68832500Y-71311607D01*
X68832500Y-54420606D01*
X68808155Y-54298215D01*
X68760400Y-54182925D01*
X68691071Y-54079167D01*
X68602833Y-53990929D01*
X67622122Y-53010218D01*
X67588096Y-52947906D01*
X67585907Y-52934293D01*
X67568542Y-52769072D01*
X67509527Y-52587444D01*
X67414040Y-52422056D01*
X67414038Y-52422054D01*
X67414034Y-52422048D01*
X67286255Y-52280135D01*
X67131752Y-52167882D01*
X66957288Y-52090206D01*
X66770487Y-52050500D01*
X66579513Y-52050500D01*
X66392711Y-52090206D01*
X66218247Y-52167882D01*
X66063744Y-52280135D01*
X65935965Y-52422048D01*
X65935958Y-52422058D01*
X65840476Y-52587438D01*
X65840473Y-52587445D01*
X65781457Y-52769072D01*
X65761496Y-52959000D01*
X65781457Y-53148927D01*
X65791290Y-53179189D01*
X65840473Y-53330556D01*
X65840476Y-53330561D01*
X65935958Y-53495941D01*
X65935965Y-53495951D01*
X66063744Y-53637864D01*
X66124999Y-53682368D01*
X66218248Y-53750118D01*
X66392712Y-53827794D01*
X66579513Y-53867500D01*
X66635406Y-53867500D01*
X66703527Y-53887502D01*
X66724501Y-53904405D01*
X67528595Y-54708499D01*
X67562621Y-54770811D01*
X67565500Y-54797594D01*
X67565500Y-70087124D01*
X67545498Y-70155245D01*
X67491842Y-70201738D01*
X67421568Y-70211842D01*
X67356988Y-70182348D01*
X67330381Y-70150125D01*
X67287040Y-70075056D01*
X67287036Y-70075051D01*
X67287034Y-70075048D01*
X67159255Y-69933135D01*
X67004752Y-69820882D01*
X66830288Y-69743206D01*
X66643487Y-69703500D01*
X66452513Y-69703500D01*
X66265711Y-69743206D01*
X66091247Y-69820882D01*
X65936747Y-69933133D01*
X65933437Y-69936810D01*
X65872991Y-69974050D01*
X65839800Y-69978500D01*
X40262573Y-69978500D01*
X40194452Y-69958498D01*
X40147959Y-69904842D01*
X40137855Y-69834568D01*
X40167349Y-69769988D01*
X40211324Y-69737393D01*
X40319752Y-69689118D01*
X40474253Y-69576866D01*
X40602040Y-69434944D01*
X40697527Y-69269556D01*
X40756542Y-69087928D01*
X40776504Y-68898000D01*
X40756542Y-68708072D01*
X40697527Y-68526444D01*
X40602040Y-68361056D01*
X40602038Y-68361054D01*
X40602034Y-68361048D01*
X40474255Y-68219135D01*
X40319752Y-68106882D01*
X40145288Y-68029206D01*
X39958487Y-67989500D01*
X39767513Y-67989500D01*
X39580711Y-68029206D01*
X39406247Y-68106882D01*
X39251747Y-68219133D01*
X39248437Y-68222810D01*
X39187991Y-68260050D01*
X39154800Y-68264500D01*
X38351594Y-68264500D01*
X38283473Y-68244498D01*
X38262499Y-68227595D01*
X36230405Y-66195501D01*
X36196379Y-66133189D01*
X36193500Y-66106406D01*
X36193500Y-48384287D01*
X36213502Y-48316166D01*
X36267158Y-48269673D01*
X36337432Y-48259569D01*
X36360406Y-48265112D01*
X36495365Y-48311444D01*
X36717431Y-48348500D01*
X36717435Y-48348500D01*
X36942565Y-48348500D01*
X36942569Y-48348500D01*
X37164635Y-48311444D01*
X37299590Y-48265113D01*
X37370512Y-48261913D01*
X37431908Y-48297566D01*
X37464282Y-48360751D01*
X37466500Y-48384287D01*
X37466500Y-53150606D01*
X37466500Y-53275394D01*
X37490845Y-53397785D01*
X37538600Y-53513075D01*
X37607929Y-53616833D01*
X37607931Y-53616835D01*
X43502877Y-59511781D01*
X43536903Y-59574093D01*
X43539092Y-59587705D01*
X43556457Y-59752927D01*
X43586526Y-59845470D01*
X43615473Y-59934556D01*
X43615476Y-59934561D01*
X43710958Y-60099941D01*
X43710965Y-60099951D01*
X43838744Y-60241864D01*
X43838747Y-60241866D01*
X43993248Y-60354118D01*
X44167712Y-60431794D01*
X44354513Y-60471500D01*
X44545487Y-60471500D01*
X44732288Y-60431794D01*
X44906752Y-60354118D01*
X45061253Y-60241866D01*
X45189040Y-60099944D01*
X45284527Y-59934556D01*
X45343542Y-59752928D01*
X45363504Y-59563000D01*
X45343542Y-59373072D01*
X45284527Y-59191444D01*
X45189040Y-59026056D01*
X45189038Y-59026054D01*
X45189034Y-59026048D01*
X45061255Y-58884135D01*
X44906752Y-58771882D01*
X44732288Y-58694206D01*
X44545487Y-58654500D01*
X44489594Y-58654500D01*
X44421473Y-58634498D01*
X44400499Y-58617595D01*
X38770405Y-52987501D01*
X38736379Y-52925189D01*
X38733500Y-52898406D01*
X38733500Y-48383758D01*
X38753502Y-48315637D01*
X38807158Y-48269144D01*
X38877432Y-48259040D01*
X38900412Y-48264585D01*
X39035483Y-48310955D01*
X39035492Y-48310957D01*
X39116000Y-48324391D01*
X39116000Y-47420702D01*
X39177007Y-47455925D01*
X39304174Y-47490000D01*
X39435826Y-47490000D01*
X39562993Y-47455925D01*
X39624000Y-47420702D01*
X39624000Y-48324390D01*
X39704507Y-48310957D01*
X39704516Y-48310955D01*
X39839588Y-48264585D01*
X39910512Y-48261385D01*
X39971908Y-48297037D01*
X40004282Y-48360222D01*
X40006500Y-48383758D01*
X40006500Y-53404606D01*
X40006500Y-53529394D01*
X40030845Y-53651785D01*
X40078600Y-53767075D01*
X40147929Y-53870833D01*
X42433929Y-56156833D01*
X42522167Y-56245071D01*
X42625925Y-56314400D01*
X42741215Y-56362155D01*
X42863606Y-56386500D01*
X42863607Y-56386500D01*
X48312393Y-56386500D01*
X48312394Y-56386500D01*
X48434785Y-56362155D01*
X48550075Y-56314400D01*
X48653833Y-56245071D01*
X48713499Y-56185405D01*
X48775811Y-56151379D01*
X48802594Y-56148500D01*
X48858487Y-56148500D01*
X49045288Y-56108794D01*
X49219752Y-56031118D01*
X49374253Y-55918866D01*
X49502040Y-55776944D01*
X49597527Y-55611556D01*
X49656542Y-55429928D01*
X49676504Y-55240000D01*
X49656542Y-55050072D01*
X49597527Y-54868444D01*
X49502040Y-54703056D01*
X49502038Y-54703054D01*
X49502034Y-54703048D01*
X49374255Y-54561135D01*
X49219752Y-54448882D01*
X49045288Y-54371206D01*
X48858487Y-54331500D01*
X48667513Y-54331500D01*
X48480711Y-54371206D01*
X48306247Y-54448882D01*
X48151744Y-54561135D01*
X48023965Y-54703048D01*
X48023958Y-54703058D01*
X47928476Y-54868438D01*
X47928473Y-54868445D01*
X47875188Y-55032437D01*
X47835114Y-55091042D01*
X47769717Y-55118679D01*
X47755355Y-55119500D01*
X46683130Y-55119500D01*
X46615009Y-55099498D01*
X46568516Y-55045842D01*
X46558412Y-54975568D01*
X46563295Y-54954569D01*
X46613542Y-54799928D01*
X46633504Y-54610000D01*
X46613542Y-54420072D01*
X46554527Y-54238444D01*
X46462568Y-54079167D01*
X46459042Y-54073059D01*
X46459041Y-54073058D01*
X46459040Y-54073056D01*
X46385863Y-53991784D01*
X46355146Y-53927776D01*
X46353500Y-53907474D01*
X46353500Y-48384287D01*
X46373502Y-48316166D01*
X46427158Y-48269673D01*
X46497432Y-48259569D01*
X46520406Y-48265112D01*
X46655365Y-48311444D01*
X46877431Y-48348500D01*
X46877435Y-48348500D01*
X47102565Y-48348500D01*
X47102569Y-48348500D01*
X47324635Y-48311444D01*
X47324651Y-48311438D01*
X47327751Y-48310654D01*
X47329072Y-48310703D01*
X47329777Y-48310586D01*
X47329801Y-48310730D01*
X47398698Y-48313311D01*
X47447795Y-48343699D01*
X51094161Y-51990067D01*
X51094167Y-51990072D01*
X51197925Y-52059401D01*
X51260614Y-52085367D01*
X51313215Y-52107155D01*
X51435606Y-52131500D01*
X56954800Y-52131500D01*
X57022921Y-52151502D01*
X57048437Y-52173190D01*
X57051747Y-52176866D01*
X57206248Y-52289118D01*
X57380712Y-52366794D01*
X57567513Y-52406500D01*
X57758487Y-52406500D01*
X57945288Y-52366794D01*
X58119752Y-52289118D01*
X58274253Y-52176866D01*
X58366099Y-52074861D01*
X58402034Y-52034951D01*
X58402035Y-52034949D01*
X58402040Y-52034944D01*
X58497527Y-51869556D01*
X58556542Y-51687928D01*
X58576504Y-51498000D01*
X58556542Y-51308072D01*
X58497527Y-51126444D01*
X58402040Y-50961056D01*
X58402038Y-50961054D01*
X58402034Y-50961048D01*
X58274255Y-50819135D01*
X58119752Y-50706882D01*
X57945288Y-50629206D01*
X57758487Y-50589500D01*
X57567513Y-50589500D01*
X57380711Y-50629206D01*
X57206247Y-50706882D01*
X57051747Y-50819133D01*
X57048437Y-50822810D01*
X56987991Y-50860050D01*
X56954800Y-50864500D01*
X51812595Y-50864500D01*
X51744474Y-50844498D01*
X51723500Y-50827595D01*
X50743977Y-49848072D01*
X49459498Y-48563594D01*
X49425474Y-48501283D01*
X49430538Y-48430468D01*
X49473085Y-48373632D01*
X49539605Y-48348821D01*
X49548594Y-48348500D01*
X49642565Y-48348500D01*
X49642569Y-48348500D01*
X49864635Y-48311444D01*
X50077574Y-48238342D01*
X50275576Y-48131189D01*
X50453240Y-47992906D01*
X50605722Y-47827268D01*
X50694518Y-47691354D01*
X50748520Y-47645268D01*
X50818868Y-47635692D01*
X50883225Y-47665669D01*
X50905480Y-47691353D01*
X50935221Y-47736874D01*
X50994275Y-47827265D01*
X50994279Y-47827270D01*
X51146762Y-47992908D01*
X51201331Y-48035381D01*
X51324424Y-48131189D01*
X51522426Y-48238342D01*
X51522427Y-48238342D01*
X51522428Y-48238343D01*
X51527459Y-48240070D01*
X51735365Y-48311444D01*
X51957431Y-48348500D01*
X51957435Y-48348500D01*
X52182565Y-48348500D01*
X52182569Y-48348500D01*
X52404635Y-48311444D01*
X52617574Y-48238342D01*
X52815576Y-48131189D01*
X52993240Y-47992906D01*
X53145722Y-47827268D01*
X53234518Y-47691354D01*
X53288520Y-47645268D01*
X53358868Y-47635692D01*
X53423225Y-47665669D01*
X53445480Y-47691353D01*
X53475221Y-47736874D01*
X53534275Y-47827265D01*
X53534279Y-47827270D01*
X53686762Y-47992908D01*
X53741331Y-48035381D01*
X53864424Y-48131189D01*
X54062426Y-48238342D01*
X54062427Y-48238342D01*
X54062428Y-48238343D01*
X54067459Y-48240070D01*
X54275365Y-48311444D01*
X54497431Y-48348500D01*
X54497435Y-48348500D01*
X54722565Y-48348500D01*
X54722569Y-48348500D01*
X54944635Y-48311444D01*
X55157574Y-48238342D01*
X55355576Y-48131189D01*
X55533240Y-47992906D01*
X55685722Y-47827268D01*
X55774518Y-47691354D01*
X55828520Y-47645268D01*
X55898868Y-47635692D01*
X55963225Y-47665669D01*
X55985480Y-47691353D01*
X56015221Y-47736874D01*
X56074275Y-47827265D01*
X56074279Y-47827270D01*
X56226762Y-47992908D01*
X56281331Y-48035381D01*
X56404424Y-48131189D01*
X56602426Y-48238342D01*
X56602427Y-48238342D01*
X56602428Y-48238343D01*
X56607459Y-48240070D01*
X56815365Y-48311444D01*
X57037431Y-48348500D01*
X57037435Y-48348500D01*
X57262565Y-48348500D01*
X57262569Y-48348500D01*
X57484635Y-48311444D01*
X57619590Y-48265113D01*
X57690512Y-48261913D01*
X57751908Y-48297566D01*
X57784282Y-48360751D01*
X57786500Y-48384287D01*
X57786500Y-48578606D01*
X57786500Y-48703394D01*
X57810845Y-48825785D01*
X57858600Y-48941075D01*
X57927929Y-49044833D01*
X57927931Y-49044835D01*
X58869877Y-49986781D01*
X58903903Y-50049093D01*
X58906092Y-50062705D01*
X58923457Y-50227927D01*
X58953526Y-50320470D01*
X58982473Y-50409556D01*
X58982476Y-50409561D01*
X59077958Y-50574941D01*
X59077965Y-50574951D01*
X59205744Y-50716864D01*
X59205747Y-50716866D01*
X59360248Y-50829118D01*
X59534712Y-50906794D01*
X59656231Y-50932623D01*
X59718704Y-50966351D01*
X59753026Y-51028501D01*
X59748298Y-51099340D01*
X59719129Y-51144965D01*
X45494501Y-65369595D01*
X45432189Y-65403621D01*
X45405406Y-65406500D01*
X45031200Y-65406500D01*
X44963079Y-65386498D01*
X44937563Y-65364810D01*
X44934252Y-65361133D01*
X44779752Y-65248882D01*
X44605288Y-65171206D01*
X44418487Y-65131500D01*
X44227513Y-65131500D01*
X44040711Y-65171206D01*
X43866247Y-65248882D01*
X43711744Y-65361135D01*
X43583965Y-65503048D01*
X43583958Y-65503058D01*
X43488476Y-65668438D01*
X43488473Y-65668445D01*
X43429457Y-65850072D01*
X43409496Y-66040000D01*
X43429457Y-66229927D01*
X43453343Y-66303438D01*
X43488473Y-66411556D01*
X43488476Y-66411561D01*
X43583958Y-66576941D01*
X43583965Y-66576951D01*
X43711744Y-66718864D01*
X43711747Y-66718866D01*
X43866248Y-66831118D01*
X44040712Y-66908794D01*
X44227513Y-66948500D01*
X44418487Y-66948500D01*
X44605288Y-66908794D01*
X44779752Y-66831118D01*
X44934253Y-66718866D01*
X44937563Y-66715190D01*
X44998009Y-66677950D01*
X45031200Y-66673500D01*
X45782393Y-66673500D01*
X45782394Y-66673500D01*
X45904785Y-66649155D01*
X46020075Y-66601400D01*
X46123833Y-66532071D01*
X64312205Y-48343697D01*
X64374515Y-48309673D01*
X64430218Y-48310616D01*
X64430224Y-48310586D01*
X64430430Y-48310620D01*
X64432236Y-48310651D01*
X64435356Y-48311441D01*
X64435365Y-48311444D01*
X64657431Y-48348500D01*
X64657435Y-48348500D01*
X64882565Y-48348500D01*
X64882569Y-48348500D01*
X65104635Y-48311444D01*
X65317574Y-48238342D01*
X65333277Y-48229843D01*
X65402706Y-48215011D01*
X65469133Y-48240070D01*
X65511467Y-48297064D01*
X65516268Y-48367899D01*
X65482343Y-48429751D01*
X48817501Y-65094595D01*
X48755189Y-65128621D01*
X48728406Y-65131500D01*
X48672513Y-65131500D01*
X48485711Y-65171206D01*
X48311247Y-65248882D01*
X48156744Y-65361135D01*
X48028965Y-65503048D01*
X48028958Y-65503058D01*
X47933476Y-65668438D01*
X47933473Y-65668445D01*
X47874457Y-65850072D01*
X47854496Y-66040000D01*
X47874457Y-66229927D01*
X47898343Y-66303438D01*
X47933473Y-66411556D01*
X47933476Y-66411561D01*
X48028958Y-66576941D01*
X48028965Y-66576951D01*
X48156744Y-66718864D01*
X48156747Y-66718866D01*
X48311248Y-66831118D01*
X48485712Y-66908794D01*
X48672513Y-66948500D01*
X48863487Y-66948500D01*
X49050288Y-66908794D01*
X49224752Y-66831118D01*
X49379253Y-66718866D01*
X49428739Y-66663906D01*
X49507034Y-66576951D01*
X49507035Y-66576949D01*
X49507040Y-66576944D01*
X49602527Y-66411556D01*
X49661542Y-66229928D01*
X49678907Y-66064703D01*
X49705920Y-65999048D01*
X49715113Y-65988789D01*
X67318499Y-48385405D01*
X67380811Y-48351379D01*
X67407594Y-48348500D01*
X67422565Y-48348500D01*
X67422569Y-48348500D01*
X67644635Y-48311444D01*
X67857574Y-48238342D01*
X68055576Y-48131189D01*
X68233240Y-47992906D01*
X68294245Y-47926637D01*
X68355096Y-47890067D01*
X68426061Y-47892200D01*
X68484606Y-47932362D01*
X68505000Y-47967941D01*
X68549111Y-48086204D01*
X68549112Y-48086207D01*
X68636738Y-48203261D01*
X68753792Y-48290887D01*
X68753794Y-48290888D01*
X68753796Y-48290889D01*
X68807600Y-48310957D01*
X68890795Y-48341988D01*
X68890803Y-48341990D01*
X68951350Y-48348499D01*
X68951355Y-48348499D01*
X68951362Y-48348500D01*
X68951368Y-48348500D01*
X70748632Y-48348500D01*
X70748638Y-48348500D01*
X70748645Y-48348499D01*
X70748649Y-48348499D01*
X70809196Y-48341990D01*
X70809199Y-48341989D01*
X70809201Y-48341989D01*
X70946204Y-48290889D01*
X70949782Y-48288211D01*
X71063261Y-48203261D01*
X71150887Y-48086207D01*
X71150887Y-48086206D01*
X71150889Y-48086204D01*
X71201989Y-47949201D01*
X71203800Y-47932362D01*
X71208499Y-47888649D01*
X71208500Y-47888632D01*
X71208500Y-46091367D01*
X71208499Y-46091350D01*
X71201990Y-46030803D01*
X71201988Y-46030795D01*
X71162285Y-45924350D01*
X71150889Y-45893796D01*
X71150888Y-45893794D01*
X71150887Y-45893792D01*
X71063261Y-45776738D01*
X70946207Y-45689112D01*
X70946202Y-45689110D01*
X70809204Y-45638011D01*
X70809196Y-45638009D01*
X70748649Y-45631500D01*
X70748638Y-45631500D01*
X68951362Y-45631500D01*
X68951350Y-45631500D01*
X68890803Y-45638009D01*
X68890795Y-45638011D01*
X68753797Y-45689110D01*
X68753792Y-45689112D01*
X68636738Y-45776738D01*
X68549112Y-45893792D01*
X68549111Y-45893795D01*
X68505000Y-46012058D01*
X68462453Y-46068893D01*
X68395932Y-46093703D01*
X68326558Y-46078611D01*
X68294246Y-46053363D01*
X68233240Y-45987094D01*
X68233239Y-45987093D01*
X68233237Y-45987091D01*
X68136863Y-45912080D01*
X68055576Y-45848811D01*
X67857574Y-45741658D01*
X67857572Y-45741657D01*
X67857571Y-45741656D01*
X67644639Y-45668557D01*
X67644630Y-45668555D01*
X67567029Y-45655606D01*
X67422569Y-45631500D01*
X67197431Y-45631500D01*
X67052971Y-45655606D01*
X66975369Y-45668555D01*
X66975360Y-45668557D01*
X66762428Y-45741656D01*
X66762426Y-45741658D01*
X66587530Y-45836307D01*
X66564426Y-45848810D01*
X66564424Y-45848811D01*
X66386762Y-45987091D01*
X66234279Y-46152729D01*
X66145483Y-46288643D01*
X66091479Y-46334731D01*
X66021131Y-46344306D01*
X65956774Y-46314329D01*
X65934517Y-46288643D01*
X65845720Y-46152729D01*
X65693237Y-45987091D01*
X65596863Y-45912080D01*
X65515576Y-45848811D01*
X65317574Y-45741658D01*
X65317572Y-45741657D01*
X65317571Y-45741656D01*
X65104639Y-45668557D01*
X65104630Y-45668555D01*
X65027029Y-45655606D01*
X64882569Y-45631500D01*
X64657431Y-45631500D01*
X64512971Y-45655606D01*
X64435369Y-45668555D01*
X64435360Y-45668557D01*
X64222428Y-45741656D01*
X64222426Y-45741658D01*
X64047530Y-45836307D01*
X64024426Y-45848810D01*
X64024424Y-45848811D01*
X63846762Y-45987091D01*
X63694279Y-46152729D01*
X63605483Y-46288643D01*
X63551479Y-46334731D01*
X63481131Y-46344306D01*
X63416774Y-46314329D01*
X63394517Y-46288643D01*
X63305720Y-46152729D01*
X63153237Y-45987091D01*
X63056863Y-45912080D01*
X62975576Y-45848811D01*
X62777574Y-45741658D01*
X62777572Y-45741657D01*
X62777571Y-45741656D01*
X62564639Y-45668557D01*
X62564630Y-45668555D01*
X62487029Y-45655606D01*
X62342569Y-45631500D01*
X62117431Y-45631500D01*
X61972971Y-45655606D01*
X61895369Y-45668555D01*
X61895360Y-45668557D01*
X61682428Y-45741656D01*
X61682426Y-45741658D01*
X61507530Y-45836307D01*
X61484426Y-45848810D01*
X61484424Y-45848811D01*
X61306762Y-45987091D01*
X61154279Y-46152729D01*
X61065483Y-46288643D01*
X61011479Y-46334731D01*
X60941131Y-46344306D01*
X60876774Y-46314329D01*
X60854517Y-46288643D01*
X60765720Y-46152729D01*
X60613237Y-45987091D01*
X60516863Y-45912080D01*
X60435576Y-45848811D01*
X60237574Y-45741658D01*
X60237572Y-45741657D01*
X60237571Y-45741656D01*
X60024639Y-45668557D01*
X60024630Y-45668555D01*
X59947029Y-45655606D01*
X59802569Y-45631500D01*
X59577431Y-45631500D01*
X59432971Y-45655606D01*
X59355369Y-45668555D01*
X59355360Y-45668557D01*
X59220412Y-45714885D01*
X59149487Y-45718085D01*
X59088092Y-45682433D01*
X59055718Y-45619247D01*
X59053500Y-45595712D01*
X59053500Y-45533524D01*
X59073502Y-45465403D01*
X59085858Y-45449220D01*
X59159040Y-45367944D01*
X59254527Y-45202556D01*
X59313542Y-45020928D01*
X59333504Y-44831000D01*
X59313542Y-44641072D01*
X59254527Y-44459444D01*
X59159040Y-44294056D01*
X59159038Y-44294054D01*
X59159034Y-44294048D01*
X59031255Y-44152135D01*
X58876752Y-44039882D01*
X58702288Y-43962206D01*
X58515487Y-43922500D01*
X58324513Y-43922500D01*
X58137711Y-43962206D01*
X57963247Y-44039882D01*
X57808744Y-44152135D01*
X57680965Y-44294048D01*
X57680958Y-44294058D01*
X57585476Y-44459438D01*
X57585473Y-44459444D01*
X57580873Y-44473601D01*
X57526457Y-44641072D01*
X57506496Y-44831000D01*
X57526457Y-45020927D01*
X57531030Y-45035000D01*
X57585473Y-45202556D01*
X57680960Y-45367944D01*
X57754137Y-45449215D01*
X57784853Y-45513220D01*
X57786500Y-45533524D01*
X57786500Y-45595712D01*
X57766498Y-45663833D01*
X57712842Y-45710326D01*
X57642568Y-45720430D01*
X57619588Y-45714885D01*
X57484639Y-45668557D01*
X57484630Y-45668555D01*
X57407029Y-45655606D01*
X57262569Y-45631500D01*
X57037431Y-45631500D01*
X56892971Y-45655606D01*
X56815369Y-45668555D01*
X56815360Y-45668557D01*
X56602428Y-45741656D01*
X56602426Y-45741658D01*
X56427530Y-45836307D01*
X56404426Y-45848810D01*
X56404424Y-45848811D01*
X56226762Y-45987091D01*
X56074279Y-46152729D01*
X55985483Y-46288643D01*
X55931479Y-46334731D01*
X55861131Y-46344306D01*
X55796774Y-46314329D01*
X55774517Y-46288643D01*
X55685720Y-46152729D01*
X55533237Y-45987091D01*
X55436863Y-45912080D01*
X55355576Y-45848811D01*
X55157574Y-45741658D01*
X55157572Y-45741657D01*
X55157571Y-45741656D01*
X54944639Y-45668557D01*
X54944630Y-45668555D01*
X54867029Y-45655606D01*
X54722569Y-45631500D01*
X54497431Y-45631500D01*
X54352971Y-45655606D01*
X54275369Y-45668555D01*
X54275360Y-45668557D01*
X54062428Y-45741656D01*
X54062426Y-45741658D01*
X53887530Y-45836307D01*
X53864426Y-45848810D01*
X53864424Y-45848811D01*
X53686762Y-45987091D01*
X53534279Y-46152729D01*
X53445483Y-46288643D01*
X53391479Y-46334731D01*
X53321131Y-46344306D01*
X53256774Y-46314329D01*
X53234517Y-46288643D01*
X53145720Y-46152729D01*
X52993237Y-45987091D01*
X52896863Y-45912080D01*
X52815576Y-45848811D01*
X52617574Y-45741658D01*
X52617572Y-45741657D01*
X52617571Y-45741656D01*
X52404639Y-45668557D01*
X52404630Y-45668555D01*
X52327029Y-45655606D01*
X52182569Y-45631500D01*
X51957431Y-45631500D01*
X51812971Y-45655606D01*
X51735369Y-45668555D01*
X51735360Y-45668557D01*
X51522428Y-45741656D01*
X51522426Y-45741658D01*
X51347530Y-45836307D01*
X51324426Y-45848810D01*
X51324424Y-45848811D01*
X51146762Y-45987091D01*
X50994279Y-46152729D01*
X50905483Y-46288643D01*
X50851479Y-46334731D01*
X50781131Y-46344306D01*
X50716774Y-46314329D01*
X50694517Y-46288643D01*
X50605720Y-46152729D01*
X50453237Y-45987091D01*
X50356863Y-45912080D01*
X50275576Y-45848811D01*
X50077574Y-45741658D01*
X50077572Y-45741657D01*
X50077571Y-45741656D01*
X49864639Y-45668557D01*
X49864630Y-45668555D01*
X49787029Y-45655606D01*
X49642569Y-45631500D01*
X49417431Y-45631500D01*
X49272971Y-45655606D01*
X49195369Y-45668555D01*
X49195360Y-45668557D01*
X48982428Y-45741656D01*
X48982426Y-45741658D01*
X48807530Y-45836307D01*
X48784426Y-45848810D01*
X48784424Y-45848811D01*
X48606762Y-45987091D01*
X48454279Y-46152729D01*
X48365483Y-46288643D01*
X48311479Y-46334731D01*
X48241131Y-46344306D01*
X48176774Y-46314329D01*
X48154517Y-46288643D01*
X48065720Y-46152729D01*
X47913237Y-45987091D01*
X47816863Y-45912080D01*
X47735576Y-45848811D01*
X47537574Y-45741658D01*
X47537572Y-45741657D01*
X47537571Y-45741656D01*
X47324639Y-45668557D01*
X47324630Y-45668555D01*
X47247029Y-45655606D01*
X47102569Y-45631500D01*
X46877431Y-45631500D01*
X46732971Y-45655606D01*
X46655369Y-45668555D01*
X46655360Y-45668557D01*
X46520412Y-45714885D01*
X46449487Y-45718085D01*
X46388092Y-45682433D01*
X46355718Y-45619247D01*
X46353500Y-45595712D01*
X46353500Y-42732594D01*
X46373502Y-42664473D01*
X46390405Y-42643499D01*
X57100499Y-31933405D01*
X57162811Y-31899379D01*
X57189594Y-31896500D01*
X57245487Y-31896500D01*
X57432288Y-31856794D01*
X57606752Y-31779118D01*
X57761253Y-31666866D01*
X57889040Y-31524944D01*
X57984527Y-31359556D01*
X58043542Y-31177928D01*
X58063504Y-30988000D01*
X58043542Y-30798072D01*
X57984527Y-30616444D01*
X57889040Y-30451056D01*
X57889038Y-30451054D01*
X57889034Y-30451048D01*
X57761255Y-30309135D01*
X57606752Y-30196882D01*
X57432288Y-30119206D01*
X57245487Y-30079500D01*
X57054513Y-30079500D01*
X56867711Y-30119206D01*
X56693247Y-30196882D01*
X56538744Y-30309135D01*
X56410965Y-30451048D01*
X56410958Y-30451058D01*
X56315476Y-30616438D01*
X56315473Y-30616445D01*
X56256457Y-30798072D01*
X56239092Y-30963293D01*
X56212079Y-31028950D01*
X56202877Y-31039217D01*
X55423521Y-31818573D01*
X55400148Y-31831335D01*
X55394321Y-31846304D01*
X55383636Y-31858458D01*
X45316167Y-41925929D01*
X45227931Y-42014164D01*
X45227926Y-42014171D01*
X45158601Y-42117923D01*
X45110846Y-42233212D01*
X45086500Y-42355603D01*
X45086500Y-45595712D01*
X45066498Y-45663833D01*
X45012842Y-45710326D01*
X44942568Y-45720430D01*
X44919588Y-45714885D01*
X44784639Y-45668557D01*
X44784630Y-45668555D01*
X44707029Y-45655606D01*
X44562569Y-45631500D01*
X44337431Y-45631500D01*
X44192971Y-45655606D01*
X44115369Y-45668555D01*
X44115360Y-45668557D01*
X43980412Y-45714885D01*
X43909487Y-45718085D01*
X43848092Y-45682433D01*
X43815718Y-45619247D01*
X43813500Y-45595712D01*
X43813500Y-42732594D01*
X43833502Y-42664473D01*
X43850405Y-42643499D01*
X54560499Y-31933405D01*
X54622811Y-31899379D01*
X54649594Y-31896500D01*
X54705487Y-31896500D01*
X54892288Y-31856794D01*
X55066752Y-31779118D01*
X55220481Y-31667426D01*
X55226553Y-31665259D01*
X55240786Y-31645171D01*
X55349040Y-31524944D01*
X55444527Y-31359556D01*
X55503542Y-31177928D01*
X55523504Y-30988000D01*
X55503542Y-30798072D01*
X55444527Y-30616444D01*
X55349040Y-30451056D01*
X55349038Y-30451054D01*
X55349034Y-30451048D01*
X55221255Y-30309135D01*
X55066752Y-30196882D01*
X54892288Y-30119206D01*
X54705487Y-30079500D01*
X54514513Y-30079500D01*
X54327711Y-30119206D01*
X54153247Y-30196882D01*
X53998744Y-30309135D01*
X53870965Y-30451048D01*
X53870958Y-30451058D01*
X53775476Y-30616438D01*
X53775473Y-30616445D01*
X53716457Y-30798072D01*
X53699092Y-30963293D01*
X53672079Y-31028950D01*
X53662877Y-31039217D01*
X42871166Y-41830930D01*
X42687931Y-42014164D01*
X42687926Y-42014171D01*
X42618601Y-42117923D01*
X42570846Y-42233212D01*
X42546500Y-42355603D01*
X42546500Y-45595712D01*
X42526498Y-45663833D01*
X42472842Y-45710326D01*
X42402568Y-45720430D01*
X42379588Y-45714885D01*
X42244639Y-45668557D01*
X42244630Y-45668555D01*
X42167029Y-45655606D01*
X42022569Y-45631500D01*
X41797431Y-45631500D01*
X41652971Y-45655606D01*
X41575369Y-45668555D01*
X41575360Y-45668557D01*
X41440412Y-45714885D01*
X41369487Y-45718085D01*
X41308092Y-45682433D01*
X41275718Y-45619247D01*
X41273500Y-45595712D01*
X41273500Y-41589594D01*
X41293502Y-41521473D01*
X41310405Y-41500499D01*
X42876499Y-39934405D01*
X42938811Y-39900379D01*
X42965594Y-39897500D01*
X43021487Y-39897500D01*
X43208288Y-39857794D01*
X43382752Y-39780118D01*
X43537253Y-39667866D01*
X43665040Y-39525944D01*
X43760527Y-39360556D01*
X43819542Y-39178928D01*
X43839504Y-38989000D01*
X43819542Y-38799072D01*
X43760527Y-38617444D01*
X43665040Y-38452056D01*
X43665038Y-38452054D01*
X43665034Y-38452048D01*
X43537255Y-38310135D01*
X43382752Y-38197882D01*
X43208288Y-38120206D01*
X43021487Y-38080500D01*
X42830513Y-38080500D01*
X42643711Y-38120206D01*
X42469247Y-38197882D01*
X42314746Y-38310134D01*
X42200460Y-38437062D01*
X42140014Y-38474301D01*
X42069030Y-38472949D01*
X42018902Y-38440732D01*
X42018163Y-38441554D01*
X42013256Y-38437136D01*
X41858752Y-38324882D01*
X41684288Y-38247206D01*
X41497487Y-38207500D01*
X41306513Y-38207500D01*
X41119711Y-38247206D01*
X40945247Y-38324882D01*
X40790744Y-38437135D01*
X40662965Y-38579048D01*
X40662958Y-38579058D01*
X40567476Y-38744438D01*
X40567473Y-38744445D01*
X40508457Y-38926072D01*
X40491092Y-39091293D01*
X40464079Y-39156950D01*
X40454877Y-39167217D01*
X37696167Y-41925929D01*
X37607931Y-42014164D01*
X37607926Y-42014171D01*
X37538601Y-42117923D01*
X37490846Y-42233212D01*
X37466500Y-42355603D01*
X37466500Y-45595712D01*
X37446498Y-45663833D01*
X37392842Y-45710326D01*
X37322568Y-45720430D01*
X37299588Y-45714885D01*
X37164639Y-45668557D01*
X37164630Y-45668555D01*
X37087029Y-45655606D01*
X36942569Y-45631500D01*
X36717431Y-45631500D01*
X36572971Y-45655606D01*
X36495369Y-45668555D01*
X36495360Y-45668557D01*
X36282428Y-45741656D01*
X36282426Y-45741658D01*
X36084424Y-45848810D01*
X36003135Y-45912080D01*
X35937092Y-45938136D01*
X35867447Y-45924350D01*
X35836650Y-45901743D01*
X34477837Y-44542931D01*
X34477835Y-44542929D01*
X34374077Y-44473600D01*
X34258787Y-44425845D01*
X34185088Y-44411185D01*
X34136398Y-44401500D01*
X34136396Y-44401500D01*
X30984200Y-44401500D01*
X30916079Y-44381498D01*
X30890563Y-44359810D01*
X30887252Y-44356133D01*
X30732752Y-44243882D01*
X30558288Y-44166206D01*
X30371487Y-44126500D01*
X30180513Y-44126500D01*
X29993711Y-44166206D01*
X29819247Y-44243882D01*
X29664744Y-44356135D01*
X29536965Y-44498048D01*
X29536958Y-44498058D01*
X29441476Y-44663438D01*
X29441473Y-44663445D01*
X29382457Y-44845072D01*
X29362496Y-45035000D01*
X29382457Y-45224927D01*
X29412526Y-45317470D01*
X29441473Y-45406556D01*
X29441476Y-45406561D01*
X29536958Y-45571941D01*
X29536965Y-45571951D01*
X29664744Y-45713864D01*
X29702996Y-45741656D01*
X29819248Y-45826118D01*
X29993712Y-45903794D01*
X30180513Y-45943500D01*
X30371487Y-45943500D01*
X30558288Y-45903794D01*
X30586552Y-45891209D01*
X30656918Y-45881773D01*
X30721216Y-45911878D01*
X30759031Y-45971966D01*
X30758357Y-46042959D01*
X30730505Y-46091652D01*
X30674280Y-46152729D01*
X30674275Y-46152734D01*
X30551141Y-46341206D01*
X30460703Y-46547386D01*
X30460702Y-46547387D01*
X30405437Y-46765624D01*
X30405436Y-46765630D01*
X30405436Y-46765632D01*
X30386844Y-46990000D01*
X30402836Y-47182993D01*
X30405437Y-47214375D01*
X30460702Y-47432612D01*
X30460703Y-47432613D01*
X30551141Y-47638793D01*
X30674275Y-47827265D01*
X30674279Y-47827270D01*
X30826762Y-47992908D01*
X30881331Y-48035381D01*
X31004424Y-48131189D01*
X31202426Y-48238342D01*
X31202427Y-48238342D01*
X31202428Y-48238343D01*
X31207459Y-48240070D01*
X31415365Y-48311444D01*
X31637431Y-48348500D01*
X31637435Y-48348500D01*
X31862565Y-48348500D01*
X31862569Y-48348500D01*
X32084635Y-48311444D01*
X32297574Y-48238342D01*
X32495576Y-48131189D01*
X32673240Y-47992906D01*
X32825722Y-47827268D01*
X32914518Y-47691354D01*
X32968520Y-47645268D01*
X33038868Y-47635692D01*
X33103225Y-47665669D01*
X33125480Y-47691353D01*
X33155221Y-47736874D01*
X33214275Y-47827265D01*
X33214279Y-47827270D01*
X33366762Y-47992908D01*
X33421331Y-48035381D01*
X33544424Y-48131189D01*
X33742426Y-48238342D01*
X33742427Y-48238342D01*
X33742428Y-48238343D01*
X33747459Y-48240070D01*
X33955365Y-48311444D01*
X34177431Y-48348500D01*
X34177435Y-48348500D01*
X34402565Y-48348500D01*
X34402569Y-48348500D01*
X34624635Y-48311444D01*
X34759590Y-48265113D01*
X34830512Y-48261913D01*
X34891908Y-48297566D01*
X34924282Y-48360751D01*
X34926500Y-48384287D01*
X34926500Y-66483396D01*
X34936182Y-66532068D01*
X34950845Y-66605785D01*
X34998600Y-66721075D01*
X35067929Y-66824833D01*
X37633167Y-69390071D01*
X37736925Y-69459400D01*
X37852215Y-69507155D01*
X37974606Y-69531500D01*
X38099394Y-69531500D01*
X39154800Y-69531500D01*
X39222921Y-69551502D01*
X39248437Y-69573190D01*
X39251747Y-69576866D01*
X39406248Y-69689118D01*
X39514676Y-69737393D01*
X39568772Y-69783373D01*
X39589421Y-69851301D01*
X39570069Y-69919609D01*
X39516858Y-69966610D01*
X39463427Y-69978500D01*
X33334595Y-69978500D01*
X33266474Y-69958498D01*
X33245500Y-69941595D01*
X30030122Y-66726218D01*
X29996096Y-66663906D01*
X29993907Y-66650293D01*
X29993787Y-66649155D01*
X29976542Y-66485072D01*
X29917527Y-66303444D01*
X29822040Y-66138056D01*
X29822038Y-66138054D01*
X29822034Y-66138048D01*
X29694255Y-65996135D01*
X29539752Y-65883882D01*
X29365288Y-65806206D01*
X29178487Y-65766500D01*
X28987513Y-65766500D01*
X28800711Y-65806206D01*
X28626247Y-65883882D01*
X28471744Y-65996135D01*
X28343965Y-66138048D01*
X28343958Y-66138058D01*
X28248476Y-66303438D01*
X28248473Y-66303445D01*
X28189457Y-66485072D01*
X28169496Y-66675000D01*
X25500500Y-66675000D01*
X25500500Y-42037000D01*
X26645496Y-42037000D01*
X26665457Y-42226927D01*
X26695526Y-42319470D01*
X26724473Y-42408556D01*
X26724476Y-42408561D01*
X26819958Y-42573941D01*
X26819965Y-42573951D01*
X26947744Y-42715864D01*
X26947747Y-42715866D01*
X27102248Y-42828118D01*
X27276712Y-42905794D01*
X27463513Y-42945500D01*
X27654487Y-42945500D01*
X27841288Y-42905794D01*
X28015752Y-42828118D01*
X28170253Y-42715866D01*
X28202183Y-42680404D01*
X28298034Y-42573951D01*
X28298035Y-42573949D01*
X28298040Y-42573944D01*
X28393527Y-42408556D01*
X28452542Y-42226928D01*
X28469907Y-42061703D01*
X28496920Y-41996048D01*
X28506113Y-41985789D01*
X33182359Y-37309544D01*
X35006500Y-37309544D01*
X35040500Y-37480468D01*
X35044949Y-37502835D01*
X35120368Y-37684914D01*
X35229861Y-37848782D01*
X35369218Y-37988139D01*
X35533086Y-38097632D01*
X35715165Y-38173051D01*
X35908459Y-38211500D01*
X36105541Y-38211500D01*
X36298835Y-38173051D01*
X36480914Y-38097632D01*
X36644782Y-37988139D01*
X36758405Y-37874516D01*
X36820717Y-37840490D01*
X36891532Y-37845555D01*
X36948368Y-37888102D01*
X36973179Y-37954622D01*
X36973500Y-37963611D01*
X36973500Y-40056404D01*
X36953498Y-40124525D01*
X36936596Y-40145499D01*
X36244501Y-40837595D01*
X36182188Y-40871620D01*
X36155405Y-40874500D01*
X36099513Y-40874500D01*
X35912711Y-40914206D01*
X35738247Y-40991882D01*
X35583744Y-41104135D01*
X35455965Y-41246048D01*
X35455958Y-41246058D01*
X35360476Y-41411438D01*
X35360473Y-41411445D01*
X35301457Y-41593072D01*
X35281496Y-41783000D01*
X35301457Y-41972927D01*
X35317101Y-42021073D01*
X35360473Y-42154556D01*
X35360476Y-42154561D01*
X35455958Y-42319941D01*
X35455965Y-42319951D01*
X35583744Y-42461864D01*
X35583747Y-42461866D01*
X35738248Y-42574118D01*
X35912712Y-42651794D01*
X36099513Y-42691500D01*
X36290487Y-42691500D01*
X36477288Y-42651794D01*
X36651752Y-42574118D01*
X36806253Y-42461866D01*
X36854249Y-42408561D01*
X36934034Y-42319951D01*
X36934035Y-42319949D01*
X36934040Y-42319944D01*
X37029527Y-42154556D01*
X37088542Y-41972928D01*
X37105907Y-41807704D01*
X37132920Y-41742049D01*
X37142104Y-41731799D01*
X38099072Y-40774833D01*
X38168401Y-40671075D01*
X38216155Y-40555784D01*
X38240500Y-40433393D01*
X38240500Y-40308606D01*
X38240500Y-37136524D01*
X38260502Y-37068403D01*
X38272858Y-37052220D01*
X38346040Y-36970944D01*
X38441527Y-36805556D01*
X38500542Y-36623928D01*
X38520504Y-36434000D01*
X38500542Y-36244072D01*
X38441527Y-36062444D01*
X38346040Y-35897056D01*
X38346038Y-35897054D01*
X38346034Y-35897048D01*
X38218255Y-35755135D01*
X38063752Y-35642882D01*
X37889288Y-35565206D01*
X37702487Y-35525500D01*
X37511513Y-35525500D01*
X37324711Y-35565206D01*
X37150247Y-35642882D01*
X36995744Y-35755135D01*
X36867965Y-35897048D01*
X36867958Y-35897058D01*
X36772476Y-36062438D01*
X36772473Y-36062445D01*
X36713457Y-36244072D01*
X36712124Y-36256761D01*
X36685110Y-36322417D01*
X36626888Y-36363046D01*
X36555943Y-36365749D01*
X36516813Y-36348355D01*
X36480914Y-36324368D01*
X36476204Y-36322417D01*
X36298838Y-36248950D01*
X36298835Y-36248949D01*
X36105544Y-36210500D01*
X36105541Y-36210500D01*
X35908459Y-36210500D01*
X35908455Y-36210500D01*
X35715164Y-36248949D01*
X35715161Y-36248950D01*
X35533085Y-36324368D01*
X35369222Y-36433858D01*
X35369215Y-36433863D01*
X35229863Y-36573215D01*
X35229858Y-36573222D01*
X35120368Y-36737085D01*
X35044950Y-36919161D01*
X35044949Y-36919164D01*
X35006500Y-37112455D01*
X35006500Y-37309544D01*
X33182359Y-37309544D01*
X35469071Y-35022833D01*
X35538400Y-34919075D01*
X35586155Y-34803785D01*
X35610500Y-34681394D01*
X35610500Y-34663524D01*
X35630502Y-34595403D01*
X35642858Y-34579220D01*
X35716040Y-34497944D01*
X35811527Y-34332556D01*
X35870542Y-34150928D01*
X35890504Y-33961000D01*
X35870542Y-33771072D01*
X35811527Y-33589444D01*
X35716040Y-33424056D01*
X35716038Y-33424054D01*
X35716034Y-33424048D01*
X35588255Y-33282135D01*
X35433752Y-33169882D01*
X35259288Y-33092206D01*
X35072487Y-33052500D01*
X34881513Y-33052500D01*
X34694711Y-33092206D01*
X34520247Y-33169882D01*
X34365744Y-33282135D01*
X34237965Y-33424048D01*
X34237958Y-33424058D01*
X34142476Y-33589438D01*
X34142473Y-33589445D01*
X34083457Y-33771072D01*
X34063496Y-33961000D01*
X34083457Y-34150927D01*
X34113526Y-34243470D01*
X34142473Y-34332556D01*
X34142476Y-34332561D01*
X34176511Y-34391512D01*
X34193249Y-34460508D01*
X34170028Y-34527599D01*
X34156487Y-34543607D01*
X27608501Y-41091595D01*
X27546189Y-41125621D01*
X27519406Y-41128500D01*
X27463513Y-41128500D01*
X27276711Y-41168206D01*
X27102247Y-41245882D01*
X26947744Y-41358135D01*
X26819965Y-41500048D01*
X26819958Y-41500058D01*
X26724476Y-41665438D01*
X26724473Y-41665445D01*
X26665457Y-41847072D01*
X26645496Y-42037000D01*
X25500500Y-42037000D01*
X25500500Y-37309544D01*
X28006500Y-37309544D01*
X28040500Y-37480468D01*
X28044949Y-37502835D01*
X28120368Y-37684914D01*
X28229861Y-37848782D01*
X28369218Y-37988139D01*
X28533086Y-38097632D01*
X28715165Y-38173051D01*
X28908459Y-38211500D01*
X29105541Y-38211500D01*
X29298835Y-38173051D01*
X29480914Y-38097632D01*
X29644782Y-37988139D01*
X29784139Y-37848782D01*
X29893632Y-37684914D01*
X29969051Y-37502835D01*
X30007500Y-37309541D01*
X30007500Y-37112459D01*
X29969051Y-36919165D01*
X29893632Y-36737086D01*
X29784139Y-36573218D01*
X29644782Y-36433861D01*
X29480914Y-36324368D01*
X29476204Y-36322417D01*
X29298838Y-36248950D01*
X29298835Y-36248949D01*
X29105544Y-36210500D01*
X29105541Y-36210500D01*
X28908459Y-36210500D01*
X28908455Y-36210500D01*
X28715164Y-36248949D01*
X28715161Y-36248950D01*
X28533085Y-36324368D01*
X28369222Y-36433858D01*
X28369215Y-36433863D01*
X28229863Y-36573215D01*
X28229858Y-36573222D01*
X28120368Y-36737085D01*
X28044950Y-36919161D01*
X28044949Y-36919164D01*
X28006500Y-37112455D01*
X28006500Y-37309544D01*
X25500500Y-37309544D01*
X25500500Y-28065962D01*
X26339500Y-28065962D01*
X26367635Y-28243595D01*
X26378911Y-28314790D01*
X26456757Y-28554374D01*
X26456759Y-28554379D01*
X26571130Y-28778845D01*
X26719207Y-28982656D01*
X26719209Y-28982658D01*
X26719211Y-28982661D01*
X26897338Y-29160788D01*
X26897341Y-29160790D01*
X26897344Y-29160793D01*
X27101155Y-29308870D01*
X27325621Y-29423241D01*
X27565215Y-29501090D01*
X27814038Y-29540500D01*
X27814041Y-29540500D01*
X28065959Y-29540500D01*
X28065962Y-29540500D01*
X28314785Y-29501090D01*
X28554379Y-29423241D01*
X28778845Y-29308870D01*
X28982656Y-29160793D01*
X29160793Y-28982656D01*
X29308870Y-28778845D01*
X29423241Y-28554379D01*
X29499071Y-28321000D01*
X33757496Y-28321000D01*
X33777457Y-28510927D01*
X33807526Y-28603470D01*
X33836473Y-28692556D01*
X33836476Y-28692561D01*
X33931958Y-28857941D01*
X33931965Y-28857951D01*
X34059744Y-28999864D01*
X34059747Y-28999866D01*
X34214248Y-29112118D01*
X34388712Y-29189794D01*
X34575513Y-29229500D01*
X34631406Y-29229500D01*
X34699527Y-29249502D01*
X34720501Y-29266405D01*
X36934161Y-31480067D01*
X36934167Y-31480072D01*
X37037925Y-31549401D01*
X37100614Y-31575367D01*
X37153215Y-31597155D01*
X37275606Y-31621500D01*
X37275607Y-31621500D01*
X37400394Y-31621500D01*
X43487800Y-31621500D01*
X43555921Y-31641502D01*
X43581437Y-31663190D01*
X43584747Y-31666866D01*
X43739248Y-31779118D01*
X43913712Y-31856794D01*
X44100513Y-31896500D01*
X44291487Y-31896500D01*
X44478288Y-31856794D01*
X44652752Y-31779118D01*
X44807253Y-31666866D01*
X44935040Y-31524944D01*
X45030527Y-31359556D01*
X45089542Y-31177928D01*
X45109504Y-30988000D01*
X45089542Y-30798072D01*
X45030527Y-30616444D01*
X44935040Y-30451056D01*
X44935038Y-30451054D01*
X44935034Y-30451048D01*
X44807255Y-30309135D01*
X44652752Y-30196882D01*
X44478288Y-30119206D01*
X44291487Y-30079500D01*
X44100513Y-30079500D01*
X43913711Y-30119206D01*
X43739247Y-30196882D01*
X43584747Y-30309133D01*
X43581437Y-30312810D01*
X43520991Y-30350050D01*
X43487800Y-30354500D01*
X37652595Y-30354500D01*
X37584474Y-30334498D01*
X37563500Y-30317595D01*
X35618121Y-28372216D01*
X35584095Y-28309904D01*
X35581908Y-28296306D01*
X35564542Y-28131072D01*
X35505527Y-27949444D01*
X35410040Y-27784056D01*
X35410038Y-27784054D01*
X35410034Y-27784048D01*
X35282255Y-27642135D01*
X35127752Y-27529882D01*
X34953288Y-27452206D01*
X34766487Y-27412500D01*
X34575513Y-27412500D01*
X34388711Y-27452206D01*
X34214247Y-27529882D01*
X34059744Y-27642135D01*
X33931965Y-27784048D01*
X33931958Y-27784058D01*
X33836476Y-27949438D01*
X33836473Y-27949445D01*
X33777457Y-28131072D01*
X33757496Y-28321000D01*
X29499071Y-28321000D01*
X29501090Y-28314785D01*
X29540500Y-28065962D01*
X29540500Y-27814038D01*
X29501090Y-27565215D01*
X29423241Y-27325621D01*
X29308870Y-27101155D01*
X29160793Y-26897344D01*
X29160790Y-26897341D01*
X29160788Y-26897338D01*
X28982661Y-26719211D01*
X28982658Y-26719209D01*
X28982656Y-26719207D01*
X28778845Y-26571130D01*
X28554379Y-26456759D01*
X28554376Y-26456758D01*
X28554374Y-26456757D01*
X28314790Y-26378911D01*
X28314786Y-26378910D01*
X28314785Y-26378910D01*
X28065962Y-26339500D01*
X27814038Y-26339500D01*
X27565215Y-26378910D01*
X27565209Y-26378911D01*
X27325625Y-26456757D01*
X27325619Y-26456760D01*
X27101151Y-26571132D01*
X26897341Y-26719209D01*
X26897338Y-26719211D01*
X26719211Y-26897338D01*
X26719209Y-26897341D01*
X26571132Y-27101151D01*
X26456760Y-27325619D01*
X26456757Y-27325625D01*
X26378911Y-27565209D01*
X26378910Y-27565214D01*
X26378910Y-27565215D01*
X26339500Y-27814038D01*
X26339500Y-28065962D01*
X25500500Y-28065962D01*
X25500500Y-27943805D01*
X25500730Y-27936198D01*
X25508119Y-27814038D01*
X25517827Y-27653545D01*
X25519658Y-27638467D01*
X25570014Y-27363679D01*
X25573650Y-27348925D01*
X25656765Y-27082202D01*
X25662154Y-27067994D01*
X25776805Y-26813250D01*
X25783863Y-26799800D01*
X25928400Y-26560708D01*
X25937016Y-26548224D01*
X26109322Y-26328292D01*
X26119390Y-26316929D01*
X26316929Y-26119390D01*
X26328292Y-26109322D01*
X26548224Y-25937016D01*
X26560708Y-25928400D01*
X26799800Y-25783863D01*
X26813250Y-25776805D01*
X27067994Y-25662154D01*
X27082202Y-25656765D01*
X27348925Y-25573650D01*
X27363679Y-25570014D01*
X27638467Y-25519658D01*
X27653545Y-25517827D01*
X27910932Y-25502258D01*
X27936199Y-25500730D01*
X27943806Y-25500500D01*
X27966929Y-25500500D01*
X40852869Y-25500500D01*
X40920990Y-25520502D01*
G37*
%TD.AperFunction*%
M02*
