M48
; DRILL file {KiCad 8.0.1} date 2024-04-11T01:32:34-0500
; FORMAT={-:-/ absolute / inch / decimal}
; #@! TF.CreationDate,2024-04-11T01:32:34-05:00
; #@! TF.GenerationSoftware,Kicad,Pcbnew,8.0.1
; #@! TF.FileFunction,Plated,1,2,PTH
FMAT,2
INCH
; #@! TA.AperFunction,Plated,PTH,ViaDrill
T1C0.0157
; #@! TA.AperFunction,Plated,PTH,ComponentDrill
T2C0.0394
%
G90
G05
T1
X1.085Y-1.655
X1.145Y-2.625
X1.145Y-3.53
X1.192Y-1.773
X1.365Y-1.115
X1.377Y-1.337
X1.425Y-1.645
X1.4806Y-1.4344
X1.5239Y-1.593
X1.55Y-1.735
X1.5694Y-2.7125
X1.63Y-1.54
X1.69Y-1.535
X1.7Y-2.15
X1.74Y-1.22
X1.74Y-1.395
X1.745Y-2.6
X1.75Y-2.345
X1.8Y-2.15
X1.9198Y-2.1748
X1.92Y-2.6
X1.92Y-2.87
X1.935Y-2.305
X2.15Y-1.22
X2.25Y-1.22
X2.265Y-2.43
X2.2702Y-2.0275
X2.3Y-1.765
X2.355Y-1.97
X2.62Y-2.78
X2.62Y-3.675
X2.625Y-2.085
X2.63Y-2.865
X2.79Y-2.805
X2.895Y-2.1
T2
X1.25Y-1.85
X1.35Y-1.85
X1.45Y-1.85
X1.55Y-1.85
X1.65Y-1.05
X1.65Y-1.85
X1.75Y-1.05
X1.75Y-1.85
X1.85Y-1.05
X1.85Y-1.85
X1.95Y-1.05
X1.95Y-1.85
X2.05Y-1.05
X2.05Y-1.85
X2.15Y-1.05
X2.15Y-1.85
X2.25Y-1.05
X2.25Y-1.85
X2.35Y-1.05
X2.35Y-1.85
X2.45Y-1.05
X2.45Y-1.85
X2.55Y-1.05
X2.55Y-1.85
X2.65Y-1.05
X2.65Y-1.85
X2.75Y-1.05
X2.75Y-1.85
M30
