%TF.GenerationSoftware,KiCad,Pcbnew,8.0.1*%
%TF.CreationDate,2024-04-11T01:32:36-05:00*%
%TF.ProjectId,FeatherWing_KC5,46656174-6865-4725-9769-6e675f4b4335,rev?*%
%TF.SameCoordinates,Original*%
%TF.FileFunction,Drillmap*%
%TF.FilePolarity,Positive*%
%FSLAX45Y45*%
G04 Gerber Fmt 4.5, Leading zero omitted, Abs format (unit mm)*
G04 Created by KiCad (PCBNEW 8.0.1) date 2024-04-11 01:32:36*
%MOMM*%
%LPD*%
G01*
G04 APERTURE LIST*
%ADD10C,0.150000*%
%ADD11C,0.200000*%
%ADD12C,0.270000*%
G04 APERTURE END LIST*
D10*
X7620000Y-9398000D02*
G75*
G02*
X7366000Y-9652000I-254000J0D01*
G01*
D11*
X7366000Y-9652000D02*
X2794000Y-9652000D01*
X7620000Y-2794000D02*
X7620000Y-9398000D01*
D10*
X2794000Y-9652000D02*
G75*
G02*
X2540000Y-9398000I0J254000D01*
G01*
X2540000Y-2794000D02*
G75*
G02*
X2794000Y-2540000I254000J0D01*
G01*
D11*
X2540000Y-2794000D02*
X2540000Y-9398000D01*
X2794000Y-2540000D02*
X7366000Y-2540000D01*
D10*
X7366000Y-2540000D02*
G75*
G02*
X7620000Y-2794000I0J-254000D01*
G01*
D11*
D10*
X2825700Y-3646100D02*
X2975700Y-3796100D01*
X2975700Y-3646100D02*
X2825700Y-3796100D01*
X3525700Y-3646100D02*
X3675700Y-3796100D01*
X3675700Y-3646100D02*
X3525700Y-3796100D01*
D12*
X2929000Y-2794000D02*
G75*
G02*
X2659000Y-2794000I-135000J0D01*
G01*
X2659000Y-2794000D02*
G75*
G02*
X2929000Y-2794000I135000J0D01*
G01*
X2929000Y-9398000D02*
G75*
G02*
X2659000Y-9398000I-135000J0D01*
G01*
X2659000Y-9398000D02*
G75*
G02*
X2929000Y-9398000I135000J0D01*
G01*
X7501000Y-2794000D02*
G75*
G02*
X7231000Y-2794000I-135000J0D01*
G01*
X7231000Y-2794000D02*
G75*
G02*
X7501000Y-2794000I135000J0D01*
G01*
X7501000Y-9398000D02*
G75*
G02*
X7231000Y-9398000I-135000J0D01*
G01*
X7231000Y-9398000D02*
G75*
G02*
X7501000Y-9398000I135000J0D01*
G01*
D11*
X2790777Y-9973484D02*
X2790777Y-9773484D01*
X2790777Y-9773484D02*
X2838396Y-9773484D01*
X2838396Y-9773484D02*
X2866967Y-9783008D01*
X2866967Y-9783008D02*
X2886015Y-9802055D01*
X2886015Y-9802055D02*
X2895539Y-9821103D01*
X2895539Y-9821103D02*
X2905062Y-9859198D01*
X2905062Y-9859198D02*
X2905062Y-9887770D01*
X2905062Y-9887770D02*
X2895539Y-9925865D01*
X2895539Y-9925865D02*
X2886015Y-9944912D01*
X2886015Y-9944912D02*
X2866967Y-9963960D01*
X2866967Y-9963960D02*
X2838396Y-9973484D01*
X2838396Y-9973484D02*
X2790777Y-9973484D01*
X2990777Y-9973484D02*
X2990777Y-9840150D01*
X2990777Y-9878246D02*
X3000301Y-9859198D01*
X3000301Y-9859198D02*
X3009824Y-9849674D01*
X3009824Y-9849674D02*
X3028872Y-9840150D01*
X3028872Y-9840150D02*
X3047920Y-9840150D01*
X3114586Y-9973484D02*
X3114586Y-9840150D01*
X3114586Y-9773484D02*
X3105062Y-9783008D01*
X3105062Y-9783008D02*
X3114586Y-9792531D01*
X3114586Y-9792531D02*
X3124110Y-9783008D01*
X3124110Y-9783008D02*
X3114586Y-9773484D01*
X3114586Y-9773484D02*
X3114586Y-9792531D01*
X3238396Y-9973484D02*
X3219348Y-9963960D01*
X3219348Y-9963960D02*
X3209824Y-9944912D01*
X3209824Y-9944912D02*
X3209824Y-9773484D01*
X3343158Y-9973484D02*
X3324110Y-9963960D01*
X3324110Y-9963960D02*
X3314586Y-9944912D01*
X3314586Y-9944912D02*
X3314586Y-9773484D01*
X3571729Y-9973484D02*
X3571729Y-9773484D01*
X3571729Y-9773484D02*
X3638396Y-9916341D01*
X3638396Y-9916341D02*
X3705062Y-9773484D01*
X3705062Y-9773484D02*
X3705062Y-9973484D01*
X3886015Y-9973484D02*
X3886015Y-9868722D01*
X3886015Y-9868722D02*
X3876491Y-9849674D01*
X3876491Y-9849674D02*
X3857443Y-9840150D01*
X3857443Y-9840150D02*
X3819348Y-9840150D01*
X3819348Y-9840150D02*
X3800301Y-9849674D01*
X3886015Y-9963960D02*
X3866967Y-9973484D01*
X3866967Y-9973484D02*
X3819348Y-9973484D01*
X3819348Y-9973484D02*
X3800301Y-9963960D01*
X3800301Y-9963960D02*
X3790777Y-9944912D01*
X3790777Y-9944912D02*
X3790777Y-9925865D01*
X3790777Y-9925865D02*
X3800301Y-9906817D01*
X3800301Y-9906817D02*
X3819348Y-9897293D01*
X3819348Y-9897293D02*
X3866967Y-9897293D01*
X3866967Y-9897293D02*
X3886015Y-9887770D01*
X3981253Y-9840150D02*
X3981253Y-10040150D01*
X3981253Y-9849674D02*
X4000301Y-9840150D01*
X4000301Y-9840150D02*
X4038396Y-9840150D01*
X4038396Y-9840150D02*
X4057443Y-9849674D01*
X4057443Y-9849674D02*
X4066967Y-9859198D01*
X4066967Y-9859198D02*
X4076491Y-9878246D01*
X4076491Y-9878246D02*
X4076491Y-9935389D01*
X4076491Y-9935389D02*
X4066967Y-9954436D01*
X4066967Y-9954436D02*
X4057443Y-9963960D01*
X4057443Y-9963960D02*
X4038396Y-9973484D01*
X4038396Y-9973484D02*
X4000301Y-9973484D01*
X4000301Y-9973484D02*
X3981253Y-9963960D01*
X4162205Y-9954436D02*
X4171729Y-9963960D01*
X4171729Y-9963960D02*
X4162205Y-9973484D01*
X4162205Y-9973484D02*
X4152682Y-9963960D01*
X4152682Y-9963960D02*
X4162205Y-9954436D01*
X4162205Y-9954436D02*
X4162205Y-9973484D01*
X4162205Y-9849674D02*
X4171729Y-9859198D01*
X4171729Y-9859198D02*
X4162205Y-9868722D01*
X4162205Y-9868722D02*
X4152682Y-9859198D01*
X4152682Y-9859198D02*
X4162205Y-9849674D01*
X4162205Y-9849674D02*
X4162205Y-9868722D01*
D10*
X2380000Y-10227000D02*
X2530000Y-10377000D01*
X2530000Y-10227000D02*
X2380000Y-10377000D01*
D11*
X2895539Y-10393484D02*
X2781253Y-10393484D01*
X2838396Y-10393484D02*
X2838396Y-10193484D01*
X2838396Y-10193484D02*
X2819348Y-10222055D01*
X2819348Y-10222055D02*
X2800301Y-10241103D01*
X2800301Y-10241103D02*
X2781253Y-10250627D01*
X2981253Y-10374436D02*
X2990777Y-10383960D01*
X2990777Y-10383960D02*
X2981253Y-10393484D01*
X2981253Y-10393484D02*
X2971729Y-10383960D01*
X2971729Y-10383960D02*
X2981253Y-10374436D01*
X2981253Y-10374436D02*
X2981253Y-10393484D01*
X3171729Y-10193484D02*
X3076491Y-10193484D01*
X3076491Y-10193484D02*
X3066967Y-10288722D01*
X3066967Y-10288722D02*
X3076491Y-10279198D01*
X3076491Y-10279198D02*
X3095539Y-10269674D01*
X3095539Y-10269674D02*
X3143158Y-10269674D01*
X3143158Y-10269674D02*
X3162205Y-10279198D01*
X3162205Y-10279198D02*
X3171729Y-10288722D01*
X3171729Y-10288722D02*
X3181253Y-10307770D01*
X3181253Y-10307770D02*
X3181253Y-10355389D01*
X3181253Y-10355389D02*
X3171729Y-10374436D01*
X3171729Y-10374436D02*
X3162205Y-10383960D01*
X3162205Y-10383960D02*
X3143158Y-10393484D01*
X3143158Y-10393484D02*
X3095539Y-10393484D01*
X3095539Y-10393484D02*
X3076491Y-10383960D01*
X3076491Y-10383960D02*
X3066967Y-10374436D01*
X3305062Y-10193484D02*
X3324110Y-10193484D01*
X3324110Y-10193484D02*
X3343158Y-10203008D01*
X3343158Y-10203008D02*
X3352682Y-10212531D01*
X3352682Y-10212531D02*
X3362205Y-10231579D01*
X3362205Y-10231579D02*
X3371729Y-10269674D01*
X3371729Y-10269674D02*
X3371729Y-10317293D01*
X3371729Y-10317293D02*
X3362205Y-10355389D01*
X3362205Y-10355389D02*
X3352682Y-10374436D01*
X3352682Y-10374436D02*
X3343158Y-10383960D01*
X3343158Y-10383960D02*
X3324110Y-10393484D01*
X3324110Y-10393484D02*
X3305062Y-10393484D01*
X3305062Y-10393484D02*
X3286015Y-10383960D01*
X3286015Y-10383960D02*
X3276491Y-10374436D01*
X3276491Y-10374436D02*
X3266967Y-10355389D01*
X3266967Y-10355389D02*
X3257443Y-10317293D01*
X3257443Y-10317293D02*
X3257443Y-10269674D01*
X3257443Y-10269674D02*
X3266967Y-10231579D01*
X3266967Y-10231579D02*
X3276491Y-10212531D01*
X3276491Y-10212531D02*
X3286015Y-10203008D01*
X3286015Y-10203008D02*
X3305062Y-10193484D01*
X3495539Y-10193484D02*
X3514586Y-10193484D01*
X3514586Y-10193484D02*
X3533634Y-10203008D01*
X3533634Y-10203008D02*
X3543158Y-10212531D01*
X3543158Y-10212531D02*
X3552682Y-10231579D01*
X3552682Y-10231579D02*
X3562205Y-10269674D01*
X3562205Y-10269674D02*
X3562205Y-10317293D01*
X3562205Y-10317293D02*
X3552682Y-10355389D01*
X3552682Y-10355389D02*
X3543158Y-10374436D01*
X3543158Y-10374436D02*
X3533634Y-10383960D01*
X3533634Y-10383960D02*
X3514586Y-10393484D01*
X3514586Y-10393484D02*
X3495539Y-10393484D01*
X3495539Y-10393484D02*
X3476491Y-10383960D01*
X3476491Y-10383960D02*
X3466967Y-10374436D01*
X3466967Y-10374436D02*
X3457443Y-10355389D01*
X3457443Y-10355389D02*
X3447920Y-10317293D01*
X3447920Y-10317293D02*
X3447920Y-10269674D01*
X3447920Y-10269674D02*
X3457443Y-10231579D01*
X3457443Y-10231579D02*
X3466967Y-10212531D01*
X3466967Y-10212531D02*
X3476491Y-10203008D01*
X3476491Y-10203008D02*
X3495539Y-10193484D01*
X3647920Y-10393484D02*
X3647920Y-10260150D01*
X3647920Y-10279198D02*
X3657443Y-10269674D01*
X3657443Y-10269674D02*
X3676491Y-10260150D01*
X3676491Y-10260150D02*
X3705063Y-10260150D01*
X3705063Y-10260150D02*
X3724110Y-10269674D01*
X3724110Y-10269674D02*
X3733634Y-10288722D01*
X3733634Y-10288722D02*
X3733634Y-10393484D01*
X3733634Y-10288722D02*
X3743158Y-10269674D01*
X3743158Y-10269674D02*
X3762205Y-10260150D01*
X3762205Y-10260150D02*
X3790777Y-10260150D01*
X3790777Y-10260150D02*
X3809824Y-10269674D01*
X3809824Y-10269674D02*
X3819348Y-10288722D01*
X3819348Y-10288722D02*
X3819348Y-10393484D01*
X3914586Y-10393484D02*
X3914586Y-10260150D01*
X3914586Y-10279198D02*
X3924110Y-10269674D01*
X3924110Y-10269674D02*
X3943158Y-10260150D01*
X3943158Y-10260150D02*
X3971729Y-10260150D01*
X3971729Y-10260150D02*
X3990777Y-10269674D01*
X3990777Y-10269674D02*
X4000301Y-10288722D01*
X4000301Y-10288722D02*
X4000301Y-10393484D01*
X4000301Y-10288722D02*
X4009824Y-10269674D01*
X4009824Y-10269674D02*
X4028872Y-10260150D01*
X4028872Y-10260150D02*
X4057443Y-10260150D01*
X4057443Y-10260150D02*
X4076491Y-10269674D01*
X4076491Y-10269674D02*
X4086015Y-10288722D01*
X4086015Y-10288722D02*
X4086015Y-10393484D01*
X4476491Y-10183960D02*
X4305063Y-10441103D01*
X4733634Y-10193484D02*
X4752682Y-10193484D01*
X4752682Y-10193484D02*
X4771729Y-10203008D01*
X4771729Y-10203008D02*
X4781253Y-10212531D01*
X4781253Y-10212531D02*
X4790777Y-10231579D01*
X4790777Y-10231579D02*
X4800301Y-10269674D01*
X4800301Y-10269674D02*
X4800301Y-10317293D01*
X4800301Y-10317293D02*
X4790777Y-10355389D01*
X4790777Y-10355389D02*
X4781253Y-10374436D01*
X4781253Y-10374436D02*
X4771729Y-10383960D01*
X4771729Y-10383960D02*
X4752682Y-10393484D01*
X4752682Y-10393484D02*
X4733634Y-10393484D01*
X4733634Y-10393484D02*
X4714587Y-10383960D01*
X4714587Y-10383960D02*
X4705063Y-10374436D01*
X4705063Y-10374436D02*
X4695539Y-10355389D01*
X4695539Y-10355389D02*
X4686015Y-10317293D01*
X4686015Y-10317293D02*
X4686015Y-10269674D01*
X4686015Y-10269674D02*
X4695539Y-10231579D01*
X4695539Y-10231579D02*
X4705063Y-10212531D01*
X4705063Y-10212531D02*
X4714587Y-10203008D01*
X4714587Y-10203008D02*
X4733634Y-10193484D01*
X4886015Y-10374436D02*
X4895539Y-10383960D01*
X4895539Y-10383960D02*
X4886015Y-10393484D01*
X4886015Y-10393484D02*
X4876491Y-10383960D01*
X4876491Y-10383960D02*
X4886015Y-10374436D01*
X4886015Y-10374436D02*
X4886015Y-10393484D01*
X5019348Y-10193484D02*
X5038396Y-10193484D01*
X5038396Y-10193484D02*
X5057444Y-10203008D01*
X5057444Y-10203008D02*
X5066968Y-10212531D01*
X5066968Y-10212531D02*
X5076491Y-10231579D01*
X5076491Y-10231579D02*
X5086015Y-10269674D01*
X5086015Y-10269674D02*
X5086015Y-10317293D01*
X5086015Y-10317293D02*
X5076491Y-10355389D01*
X5076491Y-10355389D02*
X5066968Y-10374436D01*
X5066968Y-10374436D02*
X5057444Y-10383960D01*
X5057444Y-10383960D02*
X5038396Y-10393484D01*
X5038396Y-10393484D02*
X5019348Y-10393484D01*
X5019348Y-10393484D02*
X5000301Y-10383960D01*
X5000301Y-10383960D02*
X4990777Y-10374436D01*
X4990777Y-10374436D02*
X4981253Y-10355389D01*
X4981253Y-10355389D02*
X4971729Y-10317293D01*
X4971729Y-10317293D02*
X4971729Y-10269674D01*
X4971729Y-10269674D02*
X4981253Y-10231579D01*
X4981253Y-10231579D02*
X4990777Y-10212531D01*
X4990777Y-10212531D02*
X5000301Y-10203008D01*
X5000301Y-10203008D02*
X5019348Y-10193484D01*
X5266968Y-10193484D02*
X5171729Y-10193484D01*
X5171729Y-10193484D02*
X5162206Y-10288722D01*
X5162206Y-10288722D02*
X5171729Y-10279198D01*
X5171729Y-10279198D02*
X5190777Y-10269674D01*
X5190777Y-10269674D02*
X5238396Y-10269674D01*
X5238396Y-10269674D02*
X5257444Y-10279198D01*
X5257444Y-10279198D02*
X5266968Y-10288722D01*
X5266968Y-10288722D02*
X5276491Y-10307770D01*
X5276491Y-10307770D02*
X5276491Y-10355389D01*
X5276491Y-10355389D02*
X5266968Y-10374436D01*
X5266968Y-10374436D02*
X5257444Y-10383960D01*
X5257444Y-10383960D02*
X5238396Y-10393484D01*
X5238396Y-10393484D02*
X5190777Y-10393484D01*
X5190777Y-10393484D02*
X5171729Y-10383960D01*
X5171729Y-10383960D02*
X5162206Y-10374436D01*
X5371729Y-10393484D02*
X5409825Y-10393484D01*
X5409825Y-10393484D02*
X5428872Y-10383960D01*
X5428872Y-10383960D02*
X5438396Y-10374436D01*
X5438396Y-10374436D02*
X5457444Y-10345865D01*
X5457444Y-10345865D02*
X5466968Y-10307770D01*
X5466968Y-10307770D02*
X5466968Y-10231579D01*
X5466968Y-10231579D02*
X5457444Y-10212531D01*
X5457444Y-10212531D02*
X5447920Y-10203008D01*
X5447920Y-10203008D02*
X5428872Y-10193484D01*
X5428872Y-10193484D02*
X5390777Y-10193484D01*
X5390777Y-10193484D02*
X5371729Y-10203008D01*
X5371729Y-10203008D02*
X5362206Y-10212531D01*
X5362206Y-10212531D02*
X5352682Y-10231579D01*
X5352682Y-10231579D02*
X5352682Y-10279198D01*
X5352682Y-10279198D02*
X5362206Y-10298246D01*
X5362206Y-10298246D02*
X5371729Y-10307770D01*
X5371729Y-10307770D02*
X5390777Y-10317293D01*
X5390777Y-10317293D02*
X5428872Y-10317293D01*
X5428872Y-10317293D02*
X5447920Y-10307770D01*
X5447920Y-10307770D02*
X5457444Y-10298246D01*
X5457444Y-10298246D02*
X5466968Y-10279198D01*
X5657444Y-10393484D02*
X5543158Y-10393484D01*
X5600301Y-10393484D02*
X5600301Y-10193484D01*
X5600301Y-10193484D02*
X5581253Y-10222055D01*
X5581253Y-10222055D02*
X5562206Y-10241103D01*
X5562206Y-10241103D02*
X5543158Y-10250627D01*
X5733634Y-10193484D02*
X5733634Y-10231579D01*
X5809825Y-10193484D02*
X5809825Y-10231579D01*
X6105063Y-10469674D02*
X6095539Y-10460150D01*
X6095539Y-10460150D02*
X6076491Y-10431579D01*
X6076491Y-10431579D02*
X6066968Y-10412531D01*
X6066968Y-10412531D02*
X6057444Y-10383960D01*
X6057444Y-10383960D02*
X6047920Y-10336341D01*
X6047920Y-10336341D02*
X6047920Y-10298246D01*
X6047920Y-10298246D02*
X6057444Y-10250627D01*
X6057444Y-10250627D02*
X6066968Y-10222055D01*
X6066968Y-10222055D02*
X6076491Y-10203008D01*
X6076491Y-10203008D02*
X6095539Y-10174436D01*
X6095539Y-10174436D02*
X6105063Y-10164912D01*
X6171729Y-10212531D02*
X6181253Y-10203008D01*
X6181253Y-10203008D02*
X6200301Y-10193484D01*
X6200301Y-10193484D02*
X6247920Y-10193484D01*
X6247920Y-10193484D02*
X6266968Y-10203008D01*
X6266968Y-10203008D02*
X6276491Y-10212531D01*
X6276491Y-10212531D02*
X6286015Y-10231579D01*
X6286015Y-10231579D02*
X6286015Y-10250627D01*
X6286015Y-10250627D02*
X6276491Y-10279198D01*
X6276491Y-10279198D02*
X6162206Y-10393484D01*
X6162206Y-10393484D02*
X6286015Y-10393484D01*
X6524110Y-10393484D02*
X6524110Y-10193484D01*
X6609825Y-10393484D02*
X6609825Y-10288722D01*
X6609825Y-10288722D02*
X6600301Y-10269674D01*
X6600301Y-10269674D02*
X6581253Y-10260150D01*
X6581253Y-10260150D02*
X6552682Y-10260150D01*
X6552682Y-10260150D02*
X6533634Y-10269674D01*
X6533634Y-10269674D02*
X6524110Y-10279198D01*
X6733634Y-10393484D02*
X6714587Y-10383960D01*
X6714587Y-10383960D02*
X6705063Y-10374436D01*
X6705063Y-10374436D02*
X6695539Y-10355389D01*
X6695539Y-10355389D02*
X6695539Y-10298246D01*
X6695539Y-10298246D02*
X6705063Y-10279198D01*
X6705063Y-10279198D02*
X6714587Y-10269674D01*
X6714587Y-10269674D02*
X6733634Y-10260150D01*
X6733634Y-10260150D02*
X6762206Y-10260150D01*
X6762206Y-10260150D02*
X6781253Y-10269674D01*
X6781253Y-10269674D02*
X6790777Y-10279198D01*
X6790777Y-10279198D02*
X6800301Y-10298246D01*
X6800301Y-10298246D02*
X6800301Y-10355389D01*
X6800301Y-10355389D02*
X6790777Y-10374436D01*
X6790777Y-10374436D02*
X6781253Y-10383960D01*
X6781253Y-10383960D02*
X6762206Y-10393484D01*
X6762206Y-10393484D02*
X6733634Y-10393484D01*
X6914587Y-10393484D02*
X6895539Y-10383960D01*
X6895539Y-10383960D02*
X6886015Y-10364912D01*
X6886015Y-10364912D02*
X6886015Y-10193484D01*
X7066968Y-10383960D02*
X7047920Y-10393484D01*
X7047920Y-10393484D02*
X7009825Y-10393484D01*
X7009825Y-10393484D02*
X6990777Y-10383960D01*
X6990777Y-10383960D02*
X6981253Y-10364912D01*
X6981253Y-10364912D02*
X6981253Y-10288722D01*
X6981253Y-10288722D02*
X6990777Y-10269674D01*
X6990777Y-10269674D02*
X7009825Y-10260150D01*
X7009825Y-10260150D02*
X7047920Y-10260150D01*
X7047920Y-10260150D02*
X7066968Y-10269674D01*
X7066968Y-10269674D02*
X7076491Y-10288722D01*
X7076491Y-10288722D02*
X7076491Y-10307770D01*
X7076491Y-10307770D02*
X6981253Y-10326817D01*
X7152682Y-10383960D02*
X7171730Y-10393484D01*
X7171730Y-10393484D02*
X7209825Y-10393484D01*
X7209825Y-10393484D02*
X7228872Y-10383960D01*
X7228872Y-10383960D02*
X7238396Y-10364912D01*
X7238396Y-10364912D02*
X7238396Y-10355389D01*
X7238396Y-10355389D02*
X7228872Y-10336341D01*
X7228872Y-10336341D02*
X7209825Y-10326817D01*
X7209825Y-10326817D02*
X7181253Y-10326817D01*
X7181253Y-10326817D02*
X7162206Y-10317293D01*
X7162206Y-10317293D02*
X7152682Y-10298246D01*
X7152682Y-10298246D02*
X7152682Y-10288722D01*
X7152682Y-10288722D02*
X7162206Y-10269674D01*
X7162206Y-10269674D02*
X7181253Y-10260150D01*
X7181253Y-10260150D02*
X7209825Y-10260150D01*
X7209825Y-10260150D02*
X7228872Y-10269674D01*
X7305063Y-10469674D02*
X7314587Y-10460150D01*
X7314587Y-10460150D02*
X7333634Y-10431579D01*
X7333634Y-10431579D02*
X7343158Y-10412531D01*
X7343158Y-10412531D02*
X7352682Y-10383960D01*
X7352682Y-10383960D02*
X7362206Y-10336341D01*
X7362206Y-10336341D02*
X7362206Y-10298246D01*
X7362206Y-10298246D02*
X7352682Y-10250627D01*
X7352682Y-10250627D02*
X7343158Y-10222055D01*
X7343158Y-10222055D02*
X7333634Y-10203008D01*
X7333634Y-10203008D02*
X7314587Y-10174436D01*
X7314587Y-10174436D02*
X7305063Y-10164912D01*
X7666968Y-10469674D02*
X7657444Y-10460150D01*
X7657444Y-10460150D02*
X7638396Y-10431579D01*
X7638396Y-10431579D02*
X7628872Y-10412531D01*
X7628872Y-10412531D02*
X7619349Y-10383960D01*
X7619349Y-10383960D02*
X7609825Y-10336341D01*
X7609825Y-10336341D02*
X7609825Y-10298246D01*
X7609825Y-10298246D02*
X7619349Y-10250627D01*
X7619349Y-10250627D02*
X7628872Y-10222055D01*
X7628872Y-10222055D02*
X7638396Y-10203008D01*
X7638396Y-10203008D02*
X7657444Y-10174436D01*
X7657444Y-10174436D02*
X7666968Y-10164912D01*
X7743158Y-10260150D02*
X7743158Y-10393484D01*
X7743158Y-10279198D02*
X7752682Y-10269674D01*
X7752682Y-10269674D02*
X7771730Y-10260150D01*
X7771730Y-10260150D02*
X7800301Y-10260150D01*
X7800301Y-10260150D02*
X7819349Y-10269674D01*
X7819349Y-10269674D02*
X7828872Y-10288722D01*
X7828872Y-10288722D02*
X7828872Y-10393484D01*
X7952682Y-10393484D02*
X7933634Y-10383960D01*
X7933634Y-10383960D02*
X7924111Y-10374436D01*
X7924111Y-10374436D02*
X7914587Y-10355389D01*
X7914587Y-10355389D02*
X7914587Y-10298246D01*
X7914587Y-10298246D02*
X7924111Y-10279198D01*
X7924111Y-10279198D02*
X7933634Y-10269674D01*
X7933634Y-10269674D02*
X7952682Y-10260150D01*
X7952682Y-10260150D02*
X7981253Y-10260150D01*
X7981253Y-10260150D02*
X8000301Y-10269674D01*
X8000301Y-10269674D02*
X8009825Y-10279198D01*
X8009825Y-10279198D02*
X8019349Y-10298246D01*
X8019349Y-10298246D02*
X8019349Y-10355389D01*
X8019349Y-10355389D02*
X8009825Y-10374436D01*
X8009825Y-10374436D02*
X8000301Y-10383960D01*
X8000301Y-10383960D02*
X7981253Y-10393484D01*
X7981253Y-10393484D02*
X7952682Y-10393484D01*
X8076492Y-10260150D02*
X8152682Y-10260150D01*
X8105063Y-10193484D02*
X8105063Y-10364912D01*
X8105063Y-10364912D02*
X8114587Y-10383960D01*
X8114587Y-10383960D02*
X8133634Y-10393484D01*
X8133634Y-10393484D02*
X8152682Y-10393484D01*
X8371730Y-10260150D02*
X8371730Y-10460150D01*
X8371730Y-10269674D02*
X8390777Y-10260150D01*
X8390777Y-10260150D02*
X8428873Y-10260150D01*
X8428873Y-10260150D02*
X8447920Y-10269674D01*
X8447920Y-10269674D02*
X8457444Y-10279198D01*
X8457444Y-10279198D02*
X8466968Y-10298246D01*
X8466968Y-10298246D02*
X8466968Y-10355389D01*
X8466968Y-10355389D02*
X8457444Y-10374436D01*
X8457444Y-10374436D02*
X8447920Y-10383960D01*
X8447920Y-10383960D02*
X8428873Y-10393484D01*
X8428873Y-10393484D02*
X8390777Y-10393484D01*
X8390777Y-10393484D02*
X8371730Y-10383960D01*
X8581254Y-10393484D02*
X8562206Y-10383960D01*
X8562206Y-10383960D02*
X8552682Y-10364912D01*
X8552682Y-10364912D02*
X8552682Y-10193484D01*
X8743158Y-10393484D02*
X8743158Y-10288722D01*
X8743158Y-10288722D02*
X8733635Y-10269674D01*
X8733635Y-10269674D02*
X8714587Y-10260150D01*
X8714587Y-10260150D02*
X8676492Y-10260150D01*
X8676492Y-10260150D02*
X8657444Y-10269674D01*
X8743158Y-10383960D02*
X8724111Y-10393484D01*
X8724111Y-10393484D02*
X8676492Y-10393484D01*
X8676492Y-10393484D02*
X8657444Y-10383960D01*
X8657444Y-10383960D02*
X8647920Y-10364912D01*
X8647920Y-10364912D02*
X8647920Y-10345865D01*
X8647920Y-10345865D02*
X8657444Y-10326817D01*
X8657444Y-10326817D02*
X8676492Y-10317293D01*
X8676492Y-10317293D02*
X8724111Y-10317293D01*
X8724111Y-10317293D02*
X8743158Y-10307770D01*
X8809825Y-10260150D02*
X8886015Y-10260150D01*
X8838396Y-10193484D02*
X8838396Y-10364912D01*
X8838396Y-10364912D02*
X8847920Y-10383960D01*
X8847920Y-10383960D02*
X8866968Y-10393484D01*
X8866968Y-10393484D02*
X8886015Y-10393484D01*
X9028873Y-10383960D02*
X9009825Y-10393484D01*
X9009825Y-10393484D02*
X8971730Y-10393484D01*
X8971730Y-10393484D02*
X8952682Y-10383960D01*
X8952682Y-10383960D02*
X8943158Y-10364912D01*
X8943158Y-10364912D02*
X8943158Y-10288722D01*
X8943158Y-10288722D02*
X8952682Y-10269674D01*
X8952682Y-10269674D02*
X8971730Y-10260150D01*
X8971730Y-10260150D02*
X9009825Y-10260150D01*
X9009825Y-10260150D02*
X9028873Y-10269674D01*
X9028873Y-10269674D02*
X9038396Y-10288722D01*
X9038396Y-10288722D02*
X9038396Y-10307770D01*
X9038396Y-10307770D02*
X8943158Y-10326817D01*
X9209825Y-10393484D02*
X9209825Y-10193484D01*
X9209825Y-10383960D02*
X9190777Y-10393484D01*
X9190777Y-10393484D02*
X9152682Y-10393484D01*
X9152682Y-10393484D02*
X9133635Y-10383960D01*
X9133635Y-10383960D02*
X9124111Y-10374436D01*
X9124111Y-10374436D02*
X9114587Y-10355389D01*
X9114587Y-10355389D02*
X9114587Y-10298246D01*
X9114587Y-10298246D02*
X9124111Y-10279198D01*
X9124111Y-10279198D02*
X9133635Y-10269674D01*
X9133635Y-10269674D02*
X9152682Y-10260150D01*
X9152682Y-10260150D02*
X9190777Y-10260150D01*
X9190777Y-10260150D02*
X9209825Y-10269674D01*
X9286016Y-10469674D02*
X9295539Y-10460150D01*
X9295539Y-10460150D02*
X9314587Y-10431579D01*
X9314587Y-10431579D02*
X9324111Y-10412531D01*
X9324111Y-10412531D02*
X9333635Y-10383960D01*
X9333635Y-10383960D02*
X9343158Y-10336341D01*
X9343158Y-10336341D02*
X9343158Y-10298246D01*
X9343158Y-10298246D02*
X9333635Y-10250627D01*
X9333635Y-10250627D02*
X9324111Y-10222055D01*
X9324111Y-10222055D02*
X9314587Y-10203008D01*
X9314587Y-10203008D02*
X9295539Y-10174436D01*
X9295539Y-10174436D02*
X9286016Y-10164912D01*
X2530000Y-10572000D02*
G75*
G02*
X2330000Y-10572000I-100000J0D01*
G01*
X2330000Y-10572000D02*
G75*
G02*
X2530000Y-10572000I100000J0D01*
G01*
X2781253Y-10482531D02*
X2790777Y-10473008D01*
X2790777Y-10473008D02*
X2809824Y-10463484D01*
X2809824Y-10463484D02*
X2857443Y-10463484D01*
X2857443Y-10463484D02*
X2876491Y-10473008D01*
X2876491Y-10473008D02*
X2886015Y-10482531D01*
X2886015Y-10482531D02*
X2895539Y-10501579D01*
X2895539Y-10501579D02*
X2895539Y-10520627D01*
X2895539Y-10520627D02*
X2886015Y-10549198D01*
X2886015Y-10549198D02*
X2771729Y-10663484D01*
X2771729Y-10663484D02*
X2895539Y-10663484D01*
X2981253Y-10644436D02*
X2990777Y-10653960D01*
X2990777Y-10653960D02*
X2981253Y-10663484D01*
X2981253Y-10663484D02*
X2971729Y-10653960D01*
X2971729Y-10653960D02*
X2981253Y-10644436D01*
X2981253Y-10644436D02*
X2981253Y-10663484D01*
X3057443Y-10463484D02*
X3190777Y-10463484D01*
X3190777Y-10463484D02*
X3105062Y-10663484D01*
X3305062Y-10463484D02*
X3324110Y-10463484D01*
X3324110Y-10463484D02*
X3343158Y-10473008D01*
X3343158Y-10473008D02*
X3352682Y-10482531D01*
X3352682Y-10482531D02*
X3362205Y-10501579D01*
X3362205Y-10501579D02*
X3371729Y-10539674D01*
X3371729Y-10539674D02*
X3371729Y-10587293D01*
X3371729Y-10587293D02*
X3362205Y-10625389D01*
X3362205Y-10625389D02*
X3352682Y-10644436D01*
X3352682Y-10644436D02*
X3343158Y-10653960D01*
X3343158Y-10653960D02*
X3324110Y-10663484D01*
X3324110Y-10663484D02*
X3305062Y-10663484D01*
X3305062Y-10663484D02*
X3286015Y-10653960D01*
X3286015Y-10653960D02*
X3276491Y-10644436D01*
X3276491Y-10644436D02*
X3266967Y-10625389D01*
X3266967Y-10625389D02*
X3257443Y-10587293D01*
X3257443Y-10587293D02*
X3257443Y-10539674D01*
X3257443Y-10539674D02*
X3266967Y-10501579D01*
X3266967Y-10501579D02*
X3276491Y-10482531D01*
X3276491Y-10482531D02*
X3286015Y-10473008D01*
X3286015Y-10473008D02*
X3305062Y-10463484D01*
X3495539Y-10463484D02*
X3514586Y-10463484D01*
X3514586Y-10463484D02*
X3533634Y-10473008D01*
X3533634Y-10473008D02*
X3543158Y-10482531D01*
X3543158Y-10482531D02*
X3552682Y-10501579D01*
X3552682Y-10501579D02*
X3562205Y-10539674D01*
X3562205Y-10539674D02*
X3562205Y-10587293D01*
X3562205Y-10587293D02*
X3552682Y-10625389D01*
X3552682Y-10625389D02*
X3543158Y-10644436D01*
X3543158Y-10644436D02*
X3533634Y-10653960D01*
X3533634Y-10653960D02*
X3514586Y-10663484D01*
X3514586Y-10663484D02*
X3495539Y-10663484D01*
X3495539Y-10663484D02*
X3476491Y-10653960D01*
X3476491Y-10653960D02*
X3466967Y-10644436D01*
X3466967Y-10644436D02*
X3457443Y-10625389D01*
X3457443Y-10625389D02*
X3447920Y-10587293D01*
X3447920Y-10587293D02*
X3447920Y-10539674D01*
X3447920Y-10539674D02*
X3457443Y-10501579D01*
X3457443Y-10501579D02*
X3466967Y-10482531D01*
X3466967Y-10482531D02*
X3476491Y-10473008D01*
X3476491Y-10473008D02*
X3495539Y-10463484D01*
X3647920Y-10663484D02*
X3647920Y-10530150D01*
X3647920Y-10549198D02*
X3657443Y-10539674D01*
X3657443Y-10539674D02*
X3676491Y-10530150D01*
X3676491Y-10530150D02*
X3705063Y-10530150D01*
X3705063Y-10530150D02*
X3724110Y-10539674D01*
X3724110Y-10539674D02*
X3733634Y-10558722D01*
X3733634Y-10558722D02*
X3733634Y-10663484D01*
X3733634Y-10558722D02*
X3743158Y-10539674D01*
X3743158Y-10539674D02*
X3762205Y-10530150D01*
X3762205Y-10530150D02*
X3790777Y-10530150D01*
X3790777Y-10530150D02*
X3809824Y-10539674D01*
X3809824Y-10539674D02*
X3819348Y-10558722D01*
X3819348Y-10558722D02*
X3819348Y-10663484D01*
X3914586Y-10663484D02*
X3914586Y-10530150D01*
X3914586Y-10549198D02*
X3924110Y-10539674D01*
X3924110Y-10539674D02*
X3943158Y-10530150D01*
X3943158Y-10530150D02*
X3971729Y-10530150D01*
X3971729Y-10530150D02*
X3990777Y-10539674D01*
X3990777Y-10539674D02*
X4000301Y-10558722D01*
X4000301Y-10558722D02*
X4000301Y-10663484D01*
X4000301Y-10558722D02*
X4009824Y-10539674D01*
X4009824Y-10539674D02*
X4028872Y-10530150D01*
X4028872Y-10530150D02*
X4057443Y-10530150D01*
X4057443Y-10530150D02*
X4076491Y-10539674D01*
X4076491Y-10539674D02*
X4086015Y-10558722D01*
X4086015Y-10558722D02*
X4086015Y-10663484D01*
X4476491Y-10453960D02*
X4305063Y-10711103D01*
X4733634Y-10463484D02*
X4752682Y-10463484D01*
X4752682Y-10463484D02*
X4771729Y-10473008D01*
X4771729Y-10473008D02*
X4781253Y-10482531D01*
X4781253Y-10482531D02*
X4790777Y-10501579D01*
X4790777Y-10501579D02*
X4800301Y-10539674D01*
X4800301Y-10539674D02*
X4800301Y-10587293D01*
X4800301Y-10587293D02*
X4790777Y-10625389D01*
X4790777Y-10625389D02*
X4781253Y-10644436D01*
X4781253Y-10644436D02*
X4771729Y-10653960D01*
X4771729Y-10653960D02*
X4752682Y-10663484D01*
X4752682Y-10663484D02*
X4733634Y-10663484D01*
X4733634Y-10663484D02*
X4714587Y-10653960D01*
X4714587Y-10653960D02*
X4705063Y-10644436D01*
X4705063Y-10644436D02*
X4695539Y-10625389D01*
X4695539Y-10625389D02*
X4686015Y-10587293D01*
X4686015Y-10587293D02*
X4686015Y-10539674D01*
X4686015Y-10539674D02*
X4695539Y-10501579D01*
X4695539Y-10501579D02*
X4705063Y-10482531D01*
X4705063Y-10482531D02*
X4714587Y-10473008D01*
X4714587Y-10473008D02*
X4733634Y-10463484D01*
X4886015Y-10644436D02*
X4895539Y-10653960D01*
X4895539Y-10653960D02*
X4886015Y-10663484D01*
X4886015Y-10663484D02*
X4876491Y-10653960D01*
X4876491Y-10653960D02*
X4886015Y-10644436D01*
X4886015Y-10644436D02*
X4886015Y-10663484D01*
X5086015Y-10663484D02*
X4971729Y-10663484D01*
X5028872Y-10663484D02*
X5028872Y-10463484D01*
X5028872Y-10463484D02*
X5009825Y-10492055D01*
X5009825Y-10492055D02*
X4990777Y-10511103D01*
X4990777Y-10511103D02*
X4971729Y-10520627D01*
X5209825Y-10463484D02*
X5228872Y-10463484D01*
X5228872Y-10463484D02*
X5247920Y-10473008D01*
X5247920Y-10473008D02*
X5257444Y-10482531D01*
X5257444Y-10482531D02*
X5266968Y-10501579D01*
X5266968Y-10501579D02*
X5276491Y-10539674D01*
X5276491Y-10539674D02*
X5276491Y-10587293D01*
X5276491Y-10587293D02*
X5266968Y-10625389D01*
X5266968Y-10625389D02*
X5257444Y-10644436D01*
X5257444Y-10644436D02*
X5247920Y-10653960D01*
X5247920Y-10653960D02*
X5228872Y-10663484D01*
X5228872Y-10663484D02*
X5209825Y-10663484D01*
X5209825Y-10663484D02*
X5190777Y-10653960D01*
X5190777Y-10653960D02*
X5181253Y-10644436D01*
X5181253Y-10644436D02*
X5171729Y-10625389D01*
X5171729Y-10625389D02*
X5162206Y-10587293D01*
X5162206Y-10587293D02*
X5162206Y-10539674D01*
X5162206Y-10539674D02*
X5171729Y-10501579D01*
X5171729Y-10501579D02*
X5181253Y-10482531D01*
X5181253Y-10482531D02*
X5190777Y-10473008D01*
X5190777Y-10473008D02*
X5209825Y-10463484D01*
X5447920Y-10463484D02*
X5409825Y-10463484D01*
X5409825Y-10463484D02*
X5390777Y-10473008D01*
X5390777Y-10473008D02*
X5381253Y-10482531D01*
X5381253Y-10482531D02*
X5362206Y-10511103D01*
X5362206Y-10511103D02*
X5352682Y-10549198D01*
X5352682Y-10549198D02*
X5352682Y-10625389D01*
X5352682Y-10625389D02*
X5362206Y-10644436D01*
X5362206Y-10644436D02*
X5371729Y-10653960D01*
X5371729Y-10653960D02*
X5390777Y-10663484D01*
X5390777Y-10663484D02*
X5428872Y-10663484D01*
X5428872Y-10663484D02*
X5447920Y-10653960D01*
X5447920Y-10653960D02*
X5457444Y-10644436D01*
X5457444Y-10644436D02*
X5466968Y-10625389D01*
X5466968Y-10625389D02*
X5466968Y-10577770D01*
X5466968Y-10577770D02*
X5457444Y-10558722D01*
X5457444Y-10558722D02*
X5447920Y-10549198D01*
X5447920Y-10549198D02*
X5428872Y-10539674D01*
X5428872Y-10539674D02*
X5390777Y-10539674D01*
X5390777Y-10539674D02*
X5371729Y-10549198D01*
X5371729Y-10549198D02*
X5362206Y-10558722D01*
X5362206Y-10558722D02*
X5352682Y-10577770D01*
X5533634Y-10463484D02*
X5657444Y-10463484D01*
X5657444Y-10463484D02*
X5590777Y-10539674D01*
X5590777Y-10539674D02*
X5619348Y-10539674D01*
X5619348Y-10539674D02*
X5638396Y-10549198D01*
X5638396Y-10549198D02*
X5647920Y-10558722D01*
X5647920Y-10558722D02*
X5657444Y-10577770D01*
X5657444Y-10577770D02*
X5657444Y-10625389D01*
X5657444Y-10625389D02*
X5647920Y-10644436D01*
X5647920Y-10644436D02*
X5638396Y-10653960D01*
X5638396Y-10653960D02*
X5619348Y-10663484D01*
X5619348Y-10663484D02*
X5562206Y-10663484D01*
X5562206Y-10663484D02*
X5543158Y-10653960D01*
X5543158Y-10653960D02*
X5533634Y-10644436D01*
X5733634Y-10463484D02*
X5733634Y-10501579D01*
X5809825Y-10463484D02*
X5809825Y-10501579D01*
X6105063Y-10739674D02*
X6095539Y-10730150D01*
X6095539Y-10730150D02*
X6076491Y-10701579D01*
X6076491Y-10701579D02*
X6066968Y-10682531D01*
X6066968Y-10682531D02*
X6057444Y-10653960D01*
X6057444Y-10653960D02*
X6047920Y-10606341D01*
X6047920Y-10606341D02*
X6047920Y-10568246D01*
X6047920Y-10568246D02*
X6057444Y-10520627D01*
X6057444Y-10520627D02*
X6066968Y-10492055D01*
X6066968Y-10492055D02*
X6076491Y-10473008D01*
X6076491Y-10473008D02*
X6095539Y-10444436D01*
X6095539Y-10444436D02*
X6105063Y-10434912D01*
X6266968Y-10530150D02*
X6266968Y-10663484D01*
X6219348Y-10453960D02*
X6171729Y-10596817D01*
X6171729Y-10596817D02*
X6295539Y-10596817D01*
X6524110Y-10663484D02*
X6524110Y-10463484D01*
X6609825Y-10663484D02*
X6609825Y-10558722D01*
X6609825Y-10558722D02*
X6600301Y-10539674D01*
X6600301Y-10539674D02*
X6581253Y-10530150D01*
X6581253Y-10530150D02*
X6552682Y-10530150D01*
X6552682Y-10530150D02*
X6533634Y-10539674D01*
X6533634Y-10539674D02*
X6524110Y-10549198D01*
X6733634Y-10663484D02*
X6714587Y-10653960D01*
X6714587Y-10653960D02*
X6705063Y-10644436D01*
X6705063Y-10644436D02*
X6695539Y-10625389D01*
X6695539Y-10625389D02*
X6695539Y-10568246D01*
X6695539Y-10568246D02*
X6705063Y-10549198D01*
X6705063Y-10549198D02*
X6714587Y-10539674D01*
X6714587Y-10539674D02*
X6733634Y-10530150D01*
X6733634Y-10530150D02*
X6762206Y-10530150D01*
X6762206Y-10530150D02*
X6781253Y-10539674D01*
X6781253Y-10539674D02*
X6790777Y-10549198D01*
X6790777Y-10549198D02*
X6800301Y-10568246D01*
X6800301Y-10568246D02*
X6800301Y-10625389D01*
X6800301Y-10625389D02*
X6790777Y-10644436D01*
X6790777Y-10644436D02*
X6781253Y-10653960D01*
X6781253Y-10653960D02*
X6762206Y-10663484D01*
X6762206Y-10663484D02*
X6733634Y-10663484D01*
X6914587Y-10663484D02*
X6895539Y-10653960D01*
X6895539Y-10653960D02*
X6886015Y-10634912D01*
X6886015Y-10634912D02*
X6886015Y-10463484D01*
X7066968Y-10653960D02*
X7047920Y-10663484D01*
X7047920Y-10663484D02*
X7009825Y-10663484D01*
X7009825Y-10663484D02*
X6990777Y-10653960D01*
X6990777Y-10653960D02*
X6981253Y-10634912D01*
X6981253Y-10634912D02*
X6981253Y-10558722D01*
X6981253Y-10558722D02*
X6990777Y-10539674D01*
X6990777Y-10539674D02*
X7009825Y-10530150D01*
X7009825Y-10530150D02*
X7047920Y-10530150D01*
X7047920Y-10530150D02*
X7066968Y-10539674D01*
X7066968Y-10539674D02*
X7076491Y-10558722D01*
X7076491Y-10558722D02*
X7076491Y-10577770D01*
X7076491Y-10577770D02*
X6981253Y-10596817D01*
X7152682Y-10653960D02*
X7171730Y-10663484D01*
X7171730Y-10663484D02*
X7209825Y-10663484D01*
X7209825Y-10663484D02*
X7228872Y-10653960D01*
X7228872Y-10653960D02*
X7238396Y-10634912D01*
X7238396Y-10634912D02*
X7238396Y-10625389D01*
X7238396Y-10625389D02*
X7228872Y-10606341D01*
X7228872Y-10606341D02*
X7209825Y-10596817D01*
X7209825Y-10596817D02*
X7181253Y-10596817D01*
X7181253Y-10596817D02*
X7162206Y-10587293D01*
X7162206Y-10587293D02*
X7152682Y-10568246D01*
X7152682Y-10568246D02*
X7152682Y-10558722D01*
X7152682Y-10558722D02*
X7162206Y-10539674D01*
X7162206Y-10539674D02*
X7181253Y-10530150D01*
X7181253Y-10530150D02*
X7209825Y-10530150D01*
X7209825Y-10530150D02*
X7228872Y-10539674D01*
X7305063Y-10739674D02*
X7314587Y-10730150D01*
X7314587Y-10730150D02*
X7333634Y-10701579D01*
X7333634Y-10701579D02*
X7343158Y-10682531D01*
X7343158Y-10682531D02*
X7352682Y-10653960D01*
X7352682Y-10653960D02*
X7362206Y-10606341D01*
X7362206Y-10606341D02*
X7362206Y-10568246D01*
X7362206Y-10568246D02*
X7352682Y-10520627D01*
X7352682Y-10520627D02*
X7343158Y-10492055D01*
X7343158Y-10492055D02*
X7333634Y-10473008D01*
X7333634Y-10473008D02*
X7314587Y-10444436D01*
X7314587Y-10444436D02*
X7305063Y-10434912D01*
X7666968Y-10739674D02*
X7657444Y-10730150D01*
X7657444Y-10730150D02*
X7638396Y-10701579D01*
X7638396Y-10701579D02*
X7628872Y-10682531D01*
X7628872Y-10682531D02*
X7619349Y-10653960D01*
X7619349Y-10653960D02*
X7609825Y-10606341D01*
X7609825Y-10606341D02*
X7609825Y-10568246D01*
X7609825Y-10568246D02*
X7619349Y-10520627D01*
X7619349Y-10520627D02*
X7628872Y-10492055D01*
X7628872Y-10492055D02*
X7638396Y-10473008D01*
X7638396Y-10473008D02*
X7657444Y-10444436D01*
X7657444Y-10444436D02*
X7666968Y-10434912D01*
X7743158Y-10530150D02*
X7743158Y-10663484D01*
X7743158Y-10549198D02*
X7752682Y-10539674D01*
X7752682Y-10539674D02*
X7771730Y-10530150D01*
X7771730Y-10530150D02*
X7800301Y-10530150D01*
X7800301Y-10530150D02*
X7819349Y-10539674D01*
X7819349Y-10539674D02*
X7828872Y-10558722D01*
X7828872Y-10558722D02*
X7828872Y-10663484D01*
X7952682Y-10663484D02*
X7933634Y-10653960D01*
X7933634Y-10653960D02*
X7924111Y-10644436D01*
X7924111Y-10644436D02*
X7914587Y-10625389D01*
X7914587Y-10625389D02*
X7914587Y-10568246D01*
X7914587Y-10568246D02*
X7924111Y-10549198D01*
X7924111Y-10549198D02*
X7933634Y-10539674D01*
X7933634Y-10539674D02*
X7952682Y-10530150D01*
X7952682Y-10530150D02*
X7981253Y-10530150D01*
X7981253Y-10530150D02*
X8000301Y-10539674D01*
X8000301Y-10539674D02*
X8009825Y-10549198D01*
X8009825Y-10549198D02*
X8019349Y-10568246D01*
X8019349Y-10568246D02*
X8019349Y-10625389D01*
X8019349Y-10625389D02*
X8009825Y-10644436D01*
X8009825Y-10644436D02*
X8000301Y-10653960D01*
X8000301Y-10653960D02*
X7981253Y-10663484D01*
X7981253Y-10663484D02*
X7952682Y-10663484D01*
X8076492Y-10530150D02*
X8152682Y-10530150D01*
X8105063Y-10463484D02*
X8105063Y-10634912D01*
X8105063Y-10634912D02*
X8114587Y-10653960D01*
X8114587Y-10653960D02*
X8133634Y-10663484D01*
X8133634Y-10663484D02*
X8152682Y-10663484D01*
X8371730Y-10530150D02*
X8371730Y-10730150D01*
X8371730Y-10539674D02*
X8390777Y-10530150D01*
X8390777Y-10530150D02*
X8428873Y-10530150D01*
X8428873Y-10530150D02*
X8447920Y-10539674D01*
X8447920Y-10539674D02*
X8457444Y-10549198D01*
X8457444Y-10549198D02*
X8466968Y-10568246D01*
X8466968Y-10568246D02*
X8466968Y-10625389D01*
X8466968Y-10625389D02*
X8457444Y-10644436D01*
X8457444Y-10644436D02*
X8447920Y-10653960D01*
X8447920Y-10653960D02*
X8428873Y-10663484D01*
X8428873Y-10663484D02*
X8390777Y-10663484D01*
X8390777Y-10663484D02*
X8371730Y-10653960D01*
X8581254Y-10663484D02*
X8562206Y-10653960D01*
X8562206Y-10653960D02*
X8552682Y-10634912D01*
X8552682Y-10634912D02*
X8552682Y-10463484D01*
X8743158Y-10663484D02*
X8743158Y-10558722D01*
X8743158Y-10558722D02*
X8733635Y-10539674D01*
X8733635Y-10539674D02*
X8714587Y-10530150D01*
X8714587Y-10530150D02*
X8676492Y-10530150D01*
X8676492Y-10530150D02*
X8657444Y-10539674D01*
X8743158Y-10653960D02*
X8724111Y-10663484D01*
X8724111Y-10663484D02*
X8676492Y-10663484D01*
X8676492Y-10663484D02*
X8657444Y-10653960D01*
X8657444Y-10653960D02*
X8647920Y-10634912D01*
X8647920Y-10634912D02*
X8647920Y-10615865D01*
X8647920Y-10615865D02*
X8657444Y-10596817D01*
X8657444Y-10596817D02*
X8676492Y-10587293D01*
X8676492Y-10587293D02*
X8724111Y-10587293D01*
X8724111Y-10587293D02*
X8743158Y-10577770D01*
X8809825Y-10530150D02*
X8886015Y-10530150D01*
X8838396Y-10463484D02*
X8838396Y-10634912D01*
X8838396Y-10634912D02*
X8847920Y-10653960D01*
X8847920Y-10653960D02*
X8866968Y-10663484D01*
X8866968Y-10663484D02*
X8886015Y-10663484D01*
X9028873Y-10653960D02*
X9009825Y-10663484D01*
X9009825Y-10663484D02*
X8971730Y-10663484D01*
X8971730Y-10663484D02*
X8952682Y-10653960D01*
X8952682Y-10653960D02*
X8943158Y-10634912D01*
X8943158Y-10634912D02*
X8943158Y-10558722D01*
X8943158Y-10558722D02*
X8952682Y-10539674D01*
X8952682Y-10539674D02*
X8971730Y-10530150D01*
X8971730Y-10530150D02*
X9009825Y-10530150D01*
X9009825Y-10530150D02*
X9028873Y-10539674D01*
X9028873Y-10539674D02*
X9038396Y-10558722D01*
X9038396Y-10558722D02*
X9038396Y-10577770D01*
X9038396Y-10577770D02*
X8943158Y-10596817D01*
X9209825Y-10663484D02*
X9209825Y-10463484D01*
X9209825Y-10653960D02*
X9190777Y-10663484D01*
X9190777Y-10663484D02*
X9152682Y-10663484D01*
X9152682Y-10663484D02*
X9133635Y-10653960D01*
X9133635Y-10653960D02*
X9124111Y-10644436D01*
X9124111Y-10644436D02*
X9114587Y-10625389D01*
X9114587Y-10625389D02*
X9114587Y-10568246D01*
X9114587Y-10568246D02*
X9124111Y-10549198D01*
X9124111Y-10549198D02*
X9133635Y-10539674D01*
X9133635Y-10539674D02*
X9152682Y-10530150D01*
X9152682Y-10530150D02*
X9190777Y-10530150D01*
X9190777Y-10530150D02*
X9209825Y-10539674D01*
X9286016Y-10739674D02*
X9295539Y-10730150D01*
X9295539Y-10730150D02*
X9314587Y-10701579D01*
X9314587Y-10701579D02*
X9324111Y-10682531D01*
X9324111Y-10682531D02*
X9333635Y-10653960D01*
X9333635Y-10653960D02*
X9343158Y-10606341D01*
X9343158Y-10606341D02*
X9343158Y-10568246D01*
X9343158Y-10568246D02*
X9333635Y-10520627D01*
X9333635Y-10520627D02*
X9324111Y-10492055D01*
X9324111Y-10492055D02*
X9314587Y-10473008D01*
X9314587Y-10473008D02*
X9295539Y-10444436D01*
X9295539Y-10444436D02*
X9286016Y-10434912D01*
M02*
