%TF.GenerationSoftware,KiCad,Pcbnew,8.0.1*%
%TF.CreationDate,2024-04-11T01:32:40-05:00*%
%TF.ProjectId,FeatherWing_KC5,46656174-6865-4725-9769-6e675f4b4335,rev?*%
%TF.SameCoordinates,Original*%
%TF.FileFunction,Copper,L1,Top*%
%TF.FilePolarity,Positive*%
%FSLAX46Y46*%
G04 Gerber Fmt 4.6, Leading zero omitted, Abs format (unit mm)*
G04 Created by KiCad (PCBNEW 8.0.1) date 2024-04-11 01:32:40*
%MOMM*%
%LPD*%
G01*
G04 APERTURE LIST*
G04 Aperture macros list*
%AMRoundRect*
0 Rectangle with rounded corners*
0 $1 Rounding radius*
0 $2 $3 $4 $5 $6 $7 $8 $9 X,Y pos of 4 corners*
0 Add a 4 corners polygon primitive as box body*
4,1,4,$2,$3,$4,$5,$6,$7,$8,$9,$2,$3,0*
0 Add four circle primitives for the rounded corners*
1,1,$1+$1,$2,$3*
1,1,$1+$1,$4,$5*
1,1,$1+$1,$6,$7*
1,1,$1+$1,$8,$9*
0 Add four rect primitives between the rounded corners*
20,1,$1+$1,$2,$3,$4,$5,0*
20,1,$1+$1,$4,$5,$6,$7,0*
20,1,$1+$1,$6,$7,$8,$9,0*
20,1,$1+$1,$8,$9,$2,$3,0*%
G04 Aperture macros list end*
%TA.AperFunction,EtchedComponent*%
%ADD10C,0.000000*%
%TD*%
%TA.AperFunction,ComponentPad*%
%ADD11R,1.700000X1.700000*%
%TD*%
%TA.AperFunction,ComponentPad*%
%ADD12O,1.700000X1.700000*%
%TD*%
%TA.AperFunction,SMDPad,CuDef*%
%ADD13R,2.000000X4.000000*%
%TD*%
%TA.AperFunction,SMDPad,CuDef*%
%ADD14R,4.000000X2.000000*%
%TD*%
%TA.AperFunction,SMDPad,CuDef*%
%ADD15R,6.500000X6.600000*%
%TD*%
%TA.AperFunction,SMDPad,CuDef*%
%ADD16R,4.000000X8.000000*%
%TD*%
%TA.AperFunction,SMDPad,CuDef*%
%ADD17R,1.000000X1.000000*%
%TD*%
%TA.AperFunction,SMDPad,CuDef*%
%ADD18R,1.050000X2.200000*%
%TD*%
%TA.AperFunction,SMDPad,CuDef*%
%ADD19R,1.500000X1.000000*%
%TD*%
%TA.AperFunction,SMDPad,CuDef*%
%ADD20R,1.100000X0.400000*%
%TD*%
%TA.AperFunction,SMDPad,CuDef*%
%ADD21RoundRect,0.225000X0.225000X0.250000X-0.225000X0.250000X-0.225000X-0.250000X0.225000X-0.250000X0*%
%TD*%
%TA.AperFunction,SMDPad,CuDef*%
%ADD22RoundRect,0.218750X-0.256250X0.218750X-0.256250X-0.218750X0.256250X-0.218750X0.256250X0.218750X0*%
%TD*%
%TA.AperFunction,SMDPad,CuDef*%
%ADD23R,1.200000X2.500000*%
%TD*%
%TA.AperFunction,SMDPad,CuDef*%
%ADD24RoundRect,0.200000X-0.200000X-0.275000X0.200000X-0.275000X0.200000X0.275000X-0.200000X0.275000X0*%
%TD*%
%TA.AperFunction,SMDPad,CuDef*%
%ADD25RoundRect,0.225000X0.250000X-0.225000X0.250000X0.225000X-0.250000X0.225000X-0.250000X-0.225000X0*%
%TD*%
%TA.AperFunction,SMDPad,CuDef*%
%ADD26RoundRect,0.200000X0.275000X-0.200000X0.275000X0.200000X-0.275000X0.200000X-0.275000X-0.200000X0*%
%TD*%
%TA.AperFunction,SMDPad,CuDef*%
%ADD27RoundRect,0.200000X-0.275000X0.200000X-0.275000X-0.200000X0.275000X-0.200000X0.275000X0.200000X0*%
%TD*%
%TA.AperFunction,SMDPad,CuDef*%
%ADD28RoundRect,0.225000X-0.225000X-0.250000X0.225000X-0.250000X0.225000X0.250000X-0.225000X0.250000X0*%
%TD*%
%TA.AperFunction,SMDPad,CuDef*%
%ADD29RoundRect,0.250000X-0.475000X0.250000X-0.475000X-0.250000X0.475000X-0.250000X0.475000X0.250000X0*%
%TD*%
%TA.AperFunction,SMDPad,CuDef*%
%ADD30RoundRect,0.249999X0.325001X0.650001X-0.325001X0.650001X-0.325001X-0.650001X0.325001X-0.650001X0*%
%TD*%
%TA.AperFunction,ViaPad*%
%ADD31C,0.800000*%
%TD*%
%TA.AperFunction,Conductor*%
%ADD32C,0.250000*%
%TD*%
%TA.AperFunction,Conductor*%
%ADD33C,0.500000*%
%TD*%
G04 APERTURE END LIST*
D10*
%TA.AperFunction,EtchedComponent*%
G36*
X54910000Y-30603000D02*
G01*
X54310000Y-30603000D01*
X54310000Y-30103000D01*
X54910000Y-30103000D01*
X54910000Y-30603000D01*
G37*
%TD.AperFunction*%
%TA.AperFunction,EtchedComponent*%
G36*
X57450000Y-30603000D02*
G01*
X56850000Y-30603000D01*
X56850000Y-30103000D01*
X57450000Y-30103000D01*
X57450000Y-30603000D01*
G37*
%TD.AperFunction*%
%TA.AperFunction,EtchedComponent*%
G36*
X54910000Y-43557000D02*
G01*
X54310000Y-43557000D01*
X54310000Y-43057000D01*
X54910000Y-43057000D01*
X54910000Y-43557000D01*
G37*
%TD.AperFunction*%
%TA.AperFunction,EtchedComponent*%
G36*
X52370000Y-30603000D02*
G01*
X51770000Y-30603000D01*
X51770000Y-30103000D01*
X52370000Y-30103000D01*
X52370000Y-30603000D01*
G37*
%TD.AperFunction*%
D11*
X69850000Y-46990000D03*
D12*
X67310000Y-46990000D03*
X64770000Y-46990000D03*
X62230000Y-46990000D03*
X59690000Y-46990000D03*
X57150000Y-46990000D03*
X54610000Y-46990000D03*
X52070000Y-46990000D03*
X49530000Y-46990000D03*
X46990000Y-46990000D03*
X44450000Y-46990000D03*
X41910000Y-46990000D03*
X39370000Y-46990000D03*
X36830000Y-46990000D03*
X34290000Y-46990000D03*
X31750000Y-46990000D03*
D11*
X69850000Y-26670000D03*
D12*
X67310000Y-26670000D03*
X64770000Y-26670000D03*
X62230000Y-26670000D03*
X59690000Y-26670000D03*
X57150000Y-26670000D03*
X54610000Y-26670000D03*
X52070000Y-26670000D03*
X49530000Y-26670000D03*
X46990000Y-26670000D03*
X44450000Y-26670000D03*
X41910000Y-26670000D03*
D13*
X39863000Y-51498000D03*
X44313000Y-51498000D03*
X48763000Y-51498000D03*
X53213000Y-51498000D03*
X57663000Y-51498000D03*
X62113000Y-51498000D03*
X66563000Y-51498000D03*
D14*
X70739000Y-53340000D03*
X70739000Y-57912000D03*
X70739000Y-62484000D03*
X70739000Y-67056000D03*
D13*
X66563000Y-68898000D03*
X62113000Y-68898000D03*
X57663000Y-68898000D03*
X53213000Y-68898000D03*
X48763000Y-68898000D03*
X44313000Y-68898000D03*
X39863000Y-68898000D03*
D15*
X64313000Y-60198000D03*
D16*
X34925000Y-53340000D03*
X34925000Y-67056000D03*
D13*
X39863000Y-74231000D03*
X44313000Y-74231000D03*
X48763000Y-74231000D03*
X53213000Y-74231000D03*
X57663000Y-74231000D03*
X62113000Y-74231000D03*
X66563000Y-74231000D03*
D14*
X70739000Y-76073000D03*
X70739000Y-80645000D03*
X70739000Y-85217000D03*
X70739000Y-89789000D03*
D13*
X66563000Y-91631000D03*
X62113000Y-91631000D03*
X57663000Y-91631000D03*
X53213000Y-91631000D03*
X48763000Y-91631000D03*
X44313000Y-91631000D03*
X39863000Y-91631000D03*
D15*
X64313000Y-82931000D03*
D16*
X34925000Y-76073000D03*
X34925000Y-89789000D03*
D17*
X29083000Y-52935000D03*
D18*
X27608000Y-51435000D03*
D17*
X29083000Y-49935000D03*
D18*
X30558000Y-51435000D03*
D17*
X29083000Y-75795000D03*
D18*
X27608000Y-74295000D03*
D17*
X29083000Y-72795000D03*
D18*
X30558000Y-74295000D03*
D19*
X54610000Y-29703000D03*
X54610000Y-31003000D03*
X57150000Y-29703000D03*
X57150000Y-31003000D03*
X54610000Y-42657000D03*
X54610000Y-43957000D03*
D20*
X33410000Y-26965000D03*
X33410000Y-27615000D03*
X33410000Y-28265000D03*
X33410000Y-28915000D03*
X37710000Y-28915000D03*
X37710000Y-28265000D03*
X37710000Y-27615000D03*
X37710000Y-26965000D03*
D21*
X29096000Y-57785000D03*
X27546000Y-57785000D03*
X29096000Y-62357000D03*
X27546000Y-62357000D03*
X29096000Y-80645000D03*
X27546000Y-80645000D03*
X29096000Y-85217000D03*
X27546000Y-85217000D03*
D22*
X29083000Y-59283500D03*
X29083000Y-60858500D03*
X29083000Y-63855500D03*
X29083000Y-65430500D03*
X29083000Y-77571500D03*
X29083000Y-79146500D03*
X29083000Y-82143500D03*
X29083000Y-83718500D03*
X29083000Y-86715500D03*
X29083000Y-88290500D03*
X29083000Y-54711500D03*
X29083000Y-56286500D03*
D23*
X33607000Y-33961000D03*
X30607000Y-33961000D03*
X38707000Y-40461000D03*
X37607000Y-33961000D03*
D24*
X30671000Y-30988000D03*
X32321000Y-30988000D03*
D25*
X42291000Y-36843000D03*
X42291000Y-35293000D03*
X40767000Y-36843000D03*
X40767000Y-35293000D03*
D26*
X42291000Y-33845000D03*
X42291000Y-32195000D03*
D27*
X40767000Y-32195000D03*
X40767000Y-33845000D03*
D25*
X39370000Y-29858000D03*
X39370000Y-28308000D03*
D28*
X27546000Y-45085000D03*
X29096000Y-45085000D03*
D24*
X27496000Y-43307000D03*
X29146000Y-43307000D03*
D29*
X44196000Y-32197000D03*
X44196000Y-34097000D03*
D30*
X34622000Y-41783000D03*
X31672000Y-41783000D03*
D19*
X52070000Y-31003000D03*
X52070000Y-29703000D03*
D24*
X48197000Y-30988000D03*
X49847000Y-30988000D03*
D31*
X48768000Y-66040000D03*
X44323000Y-66040000D03*
X66802000Y-72771000D03*
X66675000Y-52959000D03*
X57663000Y-51498000D03*
X38707000Y-40461000D03*
X57531000Y-61722000D03*
X70866000Y-71247000D03*
X39370000Y-44069000D03*
X49149000Y-58547000D03*
X44196000Y-35433000D03*
X73533000Y-53340000D03*
X43180000Y-54610000D03*
X54610000Y-30988000D03*
X57150000Y-30988000D03*
X45720000Y-54610000D03*
X66548000Y-70612000D03*
X29083000Y-66675000D03*
X29083000Y-89662000D03*
X66548000Y-93345000D03*
X48763000Y-55240000D03*
X42926000Y-38989000D03*
X44450000Y-59563000D03*
X48768000Y-72898000D03*
X41402000Y-39116000D03*
X34671000Y-28321000D03*
X44196000Y-30988000D03*
X30276000Y-45035000D03*
X39863000Y-68898000D03*
X34977000Y-33961000D03*
X27559000Y-42037000D03*
X37607000Y-36434000D03*
X36195000Y-41783000D03*
X59817000Y-50038000D03*
X58420000Y-44831000D03*
D32*
X48768000Y-66040000D02*
X48768000Y-68893000D01*
X48768000Y-68893000D02*
X48763000Y-68898000D01*
X44323000Y-66040000D02*
X44323000Y-68888000D01*
X44323000Y-68888000D02*
X44313000Y-68898000D01*
X54610000Y-43957000D02*
X54610000Y-46990000D01*
X53721000Y-48641000D02*
X52070000Y-46990000D01*
X66563000Y-51498000D02*
X66563000Y-50561000D01*
X64643000Y-48641000D02*
X53721000Y-48641000D01*
X66563000Y-50561000D02*
X64643000Y-48641000D01*
X55372000Y-71940000D02*
X55372000Y-58039000D01*
X57663000Y-74231000D02*
X55372000Y-71940000D01*
X55372000Y-58039000D02*
X51054000Y-53721000D01*
X51054000Y-48514000D02*
X49530000Y-46990000D01*
X51054000Y-53721000D02*
X51054000Y-48514000D01*
X57663000Y-51498000D02*
X57663000Y-52065000D01*
X57663000Y-51498000D02*
X57663000Y-51498000D01*
X46609000Y-47371000D02*
X46990000Y-46990000D01*
X41466000Y-74231000D02*
X42037000Y-73660000D01*
X39863000Y-74231000D02*
X41466000Y-74231000D01*
X42037000Y-49403000D02*
X44450000Y-46990000D01*
X42037000Y-73660000D02*
X42037000Y-49403000D01*
X39863000Y-49037000D02*
X41910000Y-46990000D01*
X39863000Y-51498000D02*
X39863000Y-49037000D01*
X38707000Y-40461000D02*
X38707000Y-43406000D01*
X44196000Y-34224000D02*
X43145990Y-33173990D01*
X33922000Y-29858000D02*
X39370000Y-29858000D01*
X70739000Y-62484000D02*
X70739000Y-57912000D01*
X32477999Y-48165001D02*
X38194999Y-48165001D01*
X64389000Y-89789000D02*
X64389000Y-94615000D01*
X70739000Y-80645000D02*
X68199000Y-78105000D01*
X44196000Y-34097000D02*
X45088000Y-34097000D01*
X30558000Y-51435000D02*
X30558000Y-50085000D01*
X44196000Y-35433000D02*
X44196000Y-34224000D01*
X29083000Y-72795000D02*
X29083000Y-72820000D01*
X66040000Y-88138000D02*
X64389000Y-89789000D01*
X70739000Y-82804000D02*
X70739000Y-80645000D01*
X39370000Y-46990000D02*
X39370000Y-44069000D01*
X27608000Y-51435000D02*
X27608000Y-57723000D01*
X29083000Y-49960000D02*
X27608000Y-51435000D01*
X63627000Y-95377000D02*
X33724998Y-95377000D01*
X27546000Y-57785000D02*
X27546000Y-62357000D01*
X33724998Y-95377000D02*
X27546000Y-89198002D01*
X67818000Y-88138000D02*
X66040000Y-88138000D01*
X44196000Y-34224000D02*
X44196000Y-34224000D01*
X27546000Y-80645000D02*
X27546000Y-85217000D01*
X33410000Y-29346000D02*
X33922000Y-29858000D01*
X33410000Y-28915000D02*
X33410000Y-29346000D01*
X27608000Y-74295000D02*
X27608000Y-74270000D01*
X30558000Y-51410000D02*
X29083000Y-49935000D01*
X64389000Y-94615000D02*
X63627000Y-95377000D01*
X68199000Y-65024000D02*
X70739000Y-62484000D01*
X27608000Y-74270000D02*
X29083000Y-72795000D01*
X27608000Y-57723000D02*
X27546000Y-57785000D01*
X29083000Y-49935000D02*
X29083000Y-49960000D01*
X38194999Y-48165001D02*
X39370000Y-46990000D01*
X43145990Y-33173990D02*
X43145990Y-31832512D01*
X38707000Y-40461000D02*
X38707000Y-40461000D01*
X38707000Y-43406000D02*
X39370000Y-44069000D01*
X43145990Y-31832512D02*
X41171478Y-29858000D01*
X70739000Y-85217000D02*
X67818000Y-88138000D01*
X41171478Y-29858000D02*
X39370000Y-29858000D01*
X27546000Y-62357000D02*
X27546000Y-74233000D01*
X30558000Y-51435000D02*
X30558000Y-51410000D01*
X27608000Y-80583000D02*
X27546000Y-80645000D01*
X45088000Y-34097000D02*
X48197000Y-30988000D01*
X38653000Y-29858000D02*
X37710000Y-28915000D01*
X30558000Y-50085000D02*
X32477999Y-48165001D01*
X68199000Y-78105000D02*
X68199000Y-65024000D01*
X70739000Y-62484000D02*
X69723000Y-62484000D01*
X27546000Y-89198002D02*
X27546000Y-85217000D01*
X27546000Y-74233000D02*
X27608000Y-74295000D01*
X29083000Y-72820000D02*
X30558000Y-74295000D01*
X39370000Y-29858000D02*
X38653000Y-29858000D01*
X70739000Y-85217000D02*
X70739000Y-82804000D01*
X27608000Y-74295000D02*
X27608000Y-80583000D01*
X32613589Y-26439999D02*
X37184999Y-26439999D01*
X39370000Y-28308000D02*
X39370000Y-27858000D01*
X31369000Y-29081590D02*
X31359932Y-29081590D01*
X31369000Y-29081590D02*
X31369000Y-27684588D01*
X32766000Y-43307000D02*
X29146000Y-43307000D01*
X31359932Y-29081590D02*
X26670000Y-33771522D01*
X29146000Y-41465000D02*
X29146000Y-43307000D01*
X31369000Y-27684588D02*
X32613589Y-26439999D01*
X34290000Y-46990000D02*
X34290000Y-44831000D01*
X38477000Y-26965000D02*
X37710000Y-26965000D01*
X26670000Y-33771522D02*
X26670000Y-38989000D01*
X26670000Y-38989000D02*
X29146000Y-41465000D01*
X39370000Y-27858000D02*
X38477000Y-26965000D01*
X37184999Y-26439999D02*
X37710000Y-26965000D01*
X34290000Y-44831000D02*
X32766000Y-43307000D01*
X57150000Y-29703000D02*
X57150000Y-26670000D01*
X54610000Y-29703000D02*
X54610000Y-26670000D01*
X52070000Y-29703000D02*
X52070000Y-26670000D01*
D33*
X73533000Y-53340000D02*
X70739000Y-53340000D01*
X73787000Y-74295000D02*
X73787000Y-55118000D01*
D32*
X73533000Y-53340000D02*
X73533000Y-53340000D01*
X70739000Y-76073000D02*
X72009000Y-76073000D01*
D33*
X72009000Y-76073000D02*
X73787000Y-74295000D01*
X73787000Y-55118000D02*
X72009000Y-53340000D01*
D32*
X72009000Y-53340000D02*
X70739000Y-53340000D01*
X29083000Y-52935000D02*
X29083000Y-54711500D01*
X29083000Y-75795000D02*
X29083000Y-77571500D01*
X43180000Y-63754000D02*
X43180000Y-63500000D01*
X44313000Y-91631000D02*
X45275000Y-91631000D01*
X45275000Y-91631000D02*
X46164500Y-90741500D01*
X46228000Y-90678000D02*
X46164500Y-90741500D01*
X43180000Y-63500000D02*
X43180000Y-54610000D01*
X46228000Y-66802000D02*
X46228000Y-90678000D01*
X46228000Y-66802000D02*
X43180000Y-63754000D01*
X51054000Y-67252998D02*
X47907501Y-64106499D01*
X45720000Y-54610000D02*
X45720000Y-61918998D01*
X51054000Y-90424000D02*
X51054000Y-67252998D01*
X47907501Y-64106499D02*
X47301002Y-63500000D01*
X49847000Y-91631000D02*
X51054000Y-90424000D01*
X48763000Y-91631000D02*
X49847000Y-91631000D01*
X45720000Y-61918998D02*
X47907501Y-64106499D01*
X29083000Y-56286500D02*
X29083000Y-59283500D01*
X29083000Y-60858500D02*
X29083000Y-63855500D01*
X29083000Y-79146500D02*
X29083000Y-82143500D01*
X29083000Y-83718500D02*
X29083000Y-86715500D01*
X29083000Y-66675000D02*
X29083000Y-65430500D01*
X29083000Y-89662000D02*
X29083000Y-88290500D01*
X39647999Y-38885999D02*
X43419000Y-42657000D01*
X32154999Y-38885999D02*
X39647999Y-38885999D01*
X30607000Y-37338000D02*
X32154999Y-38885999D01*
X30607000Y-33961000D02*
X30607000Y-37338000D01*
X43419000Y-42657000D02*
X54610000Y-42657000D01*
X40767000Y-31750000D02*
X40005000Y-30988000D01*
X32321000Y-28131000D02*
X32837000Y-27615000D01*
X32321000Y-30988000D02*
X32321000Y-28131000D01*
X40767000Y-32195000D02*
X42291000Y-32195000D01*
X40005000Y-30988000D02*
X32321000Y-30988000D01*
X32837000Y-27615000D02*
X33410000Y-27615000D01*
X40767000Y-32195000D02*
X40767000Y-31750000D01*
X42291000Y-33845000D02*
X42291000Y-35293000D01*
X42926000Y-38989000D02*
X42926000Y-38989000D01*
X48763000Y-55240000D02*
X48763000Y-55240000D01*
X42291000Y-36843000D02*
X42291000Y-38354000D01*
X48763000Y-51498000D02*
X48763000Y-55240000D01*
X42291000Y-38354000D02*
X42926000Y-38989000D01*
X40767000Y-33845000D02*
X40767000Y-35293000D01*
X41402000Y-39116000D02*
X41402000Y-39116000D01*
X44450000Y-59563000D02*
X44450000Y-59563000D01*
X40767000Y-38481000D02*
X41402000Y-39116000D01*
X47059009Y-65474009D02*
X44450000Y-62865000D01*
X44450000Y-62865000D02*
X44450000Y-59563000D01*
X47059009Y-72527009D02*
X47059009Y-65474009D01*
X48763000Y-74231000D02*
X47059009Y-72527009D01*
X40767000Y-36843000D02*
X40767000Y-38481000D01*
X33466000Y-28321000D02*
X33410000Y-28265000D01*
X44196000Y-30988000D02*
X44196000Y-32324000D01*
X34671000Y-28321000D02*
X33466000Y-28321000D01*
X39863000Y-68898000D02*
X39863000Y-68898000D01*
X38613000Y-91631000D02*
X37592000Y-90610000D01*
X37592000Y-71169000D02*
X39863000Y-68898000D01*
X30276000Y-45035000D02*
X29146000Y-45035000D01*
X39863000Y-91631000D02*
X38613000Y-91631000D01*
X37592000Y-90610000D02*
X37592000Y-71169000D01*
X29146000Y-45035000D02*
X29096000Y-45085000D01*
X34977000Y-33961000D02*
X34977000Y-33961000D01*
X27432000Y-43116000D02*
X27496000Y-43180000D01*
X27559000Y-43244000D02*
X27496000Y-43307000D01*
X27546000Y-45085000D02*
X27546000Y-44780000D01*
X27496000Y-43307000D02*
X27496000Y-45035000D01*
X27559000Y-42037000D02*
X27559000Y-43244000D01*
X27496000Y-45035000D02*
X27546000Y-45085000D01*
X33607000Y-33961000D02*
X34977000Y-33961000D01*
X30671000Y-30988000D02*
X30671000Y-30416000D01*
X27559000Y-38481000D02*
X27559000Y-34100000D01*
X31870990Y-27819008D02*
X32724998Y-26965000D01*
X31870990Y-29216010D02*
X31870990Y-27819008D01*
X27559000Y-34100000D02*
X30671000Y-30988000D01*
X30671000Y-30416000D02*
X31870990Y-29216010D01*
X30861000Y-41783000D02*
X27559000Y-38481000D01*
X31672000Y-41783000D02*
X30861000Y-41783000D01*
X32724998Y-26965000D02*
X33410000Y-26965000D01*
X37607000Y-36434000D02*
X37607000Y-36434000D01*
X36195000Y-41783000D02*
X36322000Y-41783000D01*
X37607000Y-33961000D02*
X37607000Y-36434000D01*
X34622000Y-41783000D02*
X36195000Y-41783000D01*
X58420000Y-44831000D02*
X58420000Y-44831000D01*
X59817000Y-50038000D02*
X59817000Y-50038000D01*
X61277000Y-51498000D02*
X59817000Y-50038000D01*
X62113000Y-74231000D02*
X60863000Y-74231000D01*
X59944000Y-73312000D02*
X59944000Y-53667000D01*
X62113000Y-51498000D02*
X61277000Y-51498000D01*
X58420000Y-42926000D02*
X58420000Y-44831000D01*
X59944000Y-53667000D02*
X62113000Y-51498000D01*
X52070000Y-36576000D02*
X58420000Y-42926000D01*
X60863000Y-74231000D02*
X59944000Y-73312000D01*
X52055000Y-30988000D02*
X52070000Y-31003000D01*
X52070000Y-31003000D02*
X52070000Y-36576000D01*
X49847000Y-30988000D02*
X52055000Y-30988000D01*
%TA.AperFunction,Conductor*%
G36*
X40920990Y-25520502D02*
G01*
X40967483Y-25574158D01*
X40977587Y-25644432D01*
X40948093Y-25709012D01*
X40945570Y-25711838D01*
X40834279Y-25832729D01*
X40834275Y-25832734D01*
X40711141Y-26021206D01*
X40620703Y-26227386D01*
X40620702Y-26227387D01*
X40565437Y-26445624D01*
X40565436Y-26445630D01*
X40565436Y-26445632D01*
X40546844Y-26670000D01*
X40550921Y-26719207D01*
X40565437Y-26894375D01*
X40620702Y-27112612D01*
X40620703Y-27112613D01*
X40620704Y-27112616D01*
X40691581Y-27274201D01*
X40711141Y-27318793D01*
X40834275Y-27507265D01*
X40834279Y-27507270D01*
X40986762Y-27672908D01*
X41041331Y-27715381D01*
X41164424Y-27811189D01*
X41362426Y-27918342D01*
X41362427Y-27918342D01*
X41362428Y-27918343D01*
X41453023Y-27949444D01*
X41575365Y-27991444D01*
X41797431Y-28028500D01*
X41797435Y-28028500D01*
X42022565Y-28028500D01*
X42022569Y-28028500D01*
X42244635Y-27991444D01*
X42457574Y-27918342D01*
X42655576Y-27811189D01*
X42833240Y-27672906D01*
X42985722Y-27507268D01*
X43074518Y-27371354D01*
X43128520Y-27325268D01*
X43198868Y-27315692D01*
X43263225Y-27345669D01*
X43285480Y-27371353D01*
X43299295Y-27392498D01*
X43374275Y-27507265D01*
X43374279Y-27507270D01*
X43526762Y-27672908D01*
X43581331Y-27715381D01*
X43704424Y-27811189D01*
X43902426Y-27918342D01*
X43902427Y-27918342D01*
X43902428Y-27918343D01*
X43993023Y-27949444D01*
X44115365Y-27991444D01*
X44337431Y-28028500D01*
X44337435Y-28028500D01*
X44562565Y-28028500D01*
X44562569Y-28028500D01*
X44784635Y-27991444D01*
X44997574Y-27918342D01*
X45195576Y-27811189D01*
X45373240Y-27672906D01*
X45525722Y-27507268D01*
X45614518Y-27371354D01*
X45668520Y-27325268D01*
X45738868Y-27315692D01*
X45803225Y-27345669D01*
X45825480Y-27371353D01*
X45839295Y-27392498D01*
X45914275Y-27507265D01*
X45914279Y-27507270D01*
X46066762Y-27672908D01*
X46121331Y-27715381D01*
X46244424Y-27811189D01*
X46442426Y-27918342D01*
X46442427Y-27918342D01*
X46442428Y-27918343D01*
X46533023Y-27949444D01*
X46655365Y-27991444D01*
X46877431Y-28028500D01*
X46877435Y-28028500D01*
X47102565Y-28028500D01*
X47102569Y-28028500D01*
X47324635Y-27991444D01*
X47537574Y-27918342D01*
X47735576Y-27811189D01*
X47913240Y-27672906D01*
X48065722Y-27507268D01*
X48154518Y-27371354D01*
X48208520Y-27325268D01*
X48278868Y-27315692D01*
X48343225Y-27345669D01*
X48365480Y-27371353D01*
X48379295Y-27392498D01*
X48454275Y-27507265D01*
X48454279Y-27507270D01*
X48606762Y-27672908D01*
X48661331Y-27715381D01*
X48784424Y-27811189D01*
X48982426Y-27918342D01*
X48982427Y-27918342D01*
X48982428Y-27918343D01*
X49073023Y-27949444D01*
X49195365Y-27991444D01*
X49417431Y-28028500D01*
X49417435Y-28028500D01*
X49642565Y-28028500D01*
X49642569Y-28028500D01*
X49864635Y-27991444D01*
X50077574Y-27918342D01*
X50275576Y-27811189D01*
X50453240Y-27672906D01*
X50605722Y-27507268D01*
X50694518Y-27371354D01*
X50748520Y-27325268D01*
X50818868Y-27315692D01*
X50883225Y-27345669D01*
X50905480Y-27371353D01*
X50919295Y-27392498D01*
X50994275Y-27507265D01*
X50994279Y-27507270D01*
X51146762Y-27672908D01*
X51235592Y-27742047D01*
X51324424Y-27811189D01*
X51370471Y-27836108D01*
X51420859Y-27886118D01*
X51436500Y-27946920D01*
X51436500Y-28568500D01*
X51416498Y-28636621D01*
X51362842Y-28683114D01*
X51310500Y-28694500D01*
X51271350Y-28694500D01*
X51210803Y-28701009D01*
X51210795Y-28701011D01*
X51073797Y-28752110D01*
X51073792Y-28752112D01*
X50956738Y-28839738D01*
X50869112Y-28956792D01*
X50869110Y-28956797D01*
X50818011Y-29093795D01*
X50818009Y-29093803D01*
X50811500Y-29154350D01*
X50811500Y-30171338D01*
X50791498Y-30239459D01*
X50737842Y-30285952D01*
X50667568Y-30296056D01*
X50602988Y-30266562D01*
X50596405Y-30260433D01*
X50487160Y-30151188D01*
X50487155Y-30151184D01*
X50339911Y-30062172D01*
X50339906Y-30062170D01*
X50175646Y-30010986D01*
X50123723Y-30006268D01*
X50104265Y-30004500D01*
X50104262Y-30004500D01*
X49589738Y-30004500D01*
X49518353Y-30010986D01*
X49518352Y-30010986D01*
X49354093Y-30062170D01*
X49354088Y-30062172D01*
X49206844Y-30151184D01*
X49206839Y-30151188D01*
X49110741Y-30247287D01*
X49048429Y-30281313D01*
X48977614Y-30276248D01*
X48932551Y-30247287D01*
X48836850Y-30151586D01*
X48836840Y-30151578D01*
X48689706Y-30062633D01*
X48525552Y-30011481D01*
X48454223Y-30005000D01*
X48451000Y-30005000D01*
X48451000Y-31970999D01*
X48454222Y-31970999D01*
X48525553Y-31964518D01*
X48689706Y-31913366D01*
X48836840Y-31824421D01*
X48836850Y-31824413D01*
X48932551Y-31728713D01*
X48994863Y-31694687D01*
X49065678Y-31699752D01*
X49110741Y-31728713D01*
X49206839Y-31824811D01*
X49206844Y-31824815D01*
X49206845Y-31824816D01*
X49354087Y-31913827D01*
X49518351Y-31965013D01*
X49589735Y-31971500D01*
X50104264Y-31971499D01*
X50175649Y-31965013D01*
X50339913Y-31913827D01*
X50487155Y-31824816D01*
X50608816Y-31703155D01*
X50611584Y-31698575D01*
X50621415Y-31682315D01*
X50673774Y-31634367D01*
X50729243Y-31621500D01*
X50733996Y-31621500D01*
X50802117Y-31641502D01*
X50848610Y-31695158D01*
X50852051Y-31703466D01*
X50869111Y-31749205D01*
X50956738Y-31866261D01*
X51073792Y-31953887D01*
X51073794Y-31953888D01*
X51073796Y-31953889D01*
X51132875Y-31975924D01*
X51210795Y-32004988D01*
X51210803Y-32004990D01*
X51271350Y-32011499D01*
X51271355Y-32011499D01*
X51271362Y-32011500D01*
X51310500Y-32011500D01*
X51378621Y-32031502D01*
X51425114Y-32085158D01*
X51436500Y-32137500D01*
X51436500Y-36513606D01*
X51436500Y-36638394D01*
X51460845Y-36760785D01*
X51508600Y-36876075D01*
X51577929Y-36979833D01*
X51577931Y-36979835D01*
X57749595Y-43151499D01*
X57783621Y-43213811D01*
X57786500Y-43240594D01*
X57786500Y-44128474D01*
X57766498Y-44196595D01*
X57754137Y-44212784D01*
X57680957Y-44294059D01*
X57585476Y-44459438D01*
X57585473Y-44459445D01*
X57526457Y-44641072D01*
X57506496Y-44831000D01*
X57526457Y-45020927D01*
X57549388Y-45091500D01*
X57585473Y-45202556D01*
X57585476Y-45202561D01*
X57680958Y-45367941D01*
X57680965Y-45367951D01*
X57808744Y-45509864D01*
X57808745Y-45509865D01*
X57844742Y-45536019D01*
X57888095Y-45592241D01*
X57894170Y-45662978D01*
X57861038Y-45725769D01*
X57799217Y-45760680D01*
X57728337Y-45756626D01*
X57710716Y-45748770D01*
X57697574Y-45741658D01*
X57697571Y-45741656D01*
X57484639Y-45668557D01*
X57484630Y-45668555D01*
X57407029Y-45655606D01*
X57262569Y-45631500D01*
X57037431Y-45631500D01*
X56892971Y-45655606D01*
X56815369Y-45668555D01*
X56815360Y-45668557D01*
X56602428Y-45741656D01*
X56602426Y-45741658D01*
X56404426Y-45848810D01*
X56404424Y-45848811D01*
X56226762Y-45987091D01*
X56074279Y-46152729D01*
X55985483Y-46288643D01*
X55931479Y-46334731D01*
X55861131Y-46344306D01*
X55796774Y-46314329D01*
X55774517Y-46288643D01*
X55685720Y-46152729D01*
X55549080Y-46004301D01*
X55533240Y-45987094D01*
X55533239Y-45987093D01*
X55533237Y-45987091D01*
X55439688Y-45914279D01*
X55355576Y-45848811D01*
X55327620Y-45833681D01*
X55309529Y-45823891D01*
X55259139Y-45773877D01*
X55243500Y-45713078D01*
X55243500Y-45091500D01*
X55263502Y-45023379D01*
X55317158Y-44976886D01*
X55369500Y-44965500D01*
X55408632Y-44965500D01*
X55408638Y-44965500D01*
X55408645Y-44965499D01*
X55408649Y-44965499D01*
X55469196Y-44958990D01*
X55469199Y-44958989D01*
X55469201Y-44958989D01*
X55606204Y-44907889D01*
X55690118Y-44845072D01*
X55723261Y-44820261D01*
X55810887Y-44703207D01*
X55810887Y-44703206D01*
X55810889Y-44703204D01*
X55861989Y-44566201D01*
X55865782Y-44530925D01*
X55868499Y-44505649D01*
X55868500Y-44505632D01*
X55868500Y-43408367D01*
X55868499Y-43408350D01*
X55861989Y-43347798D01*
X55860177Y-43340129D01*
X55862379Y-43339608D01*
X55858130Y-43280220D01*
X55860930Y-43270682D01*
X55861989Y-43266201D01*
X55868499Y-43205649D01*
X55868500Y-43205632D01*
X55868500Y-42108367D01*
X55868499Y-42108350D01*
X55861990Y-42047803D01*
X55861988Y-42047795D01*
X55810889Y-41910797D01*
X55810887Y-41910792D01*
X55723261Y-41793738D01*
X55606207Y-41706112D01*
X55606202Y-41706110D01*
X55469204Y-41655011D01*
X55469196Y-41655009D01*
X55408649Y-41648500D01*
X55408638Y-41648500D01*
X53811362Y-41648500D01*
X53811350Y-41648500D01*
X53750803Y-41655009D01*
X53750795Y-41655011D01*
X53613797Y-41706110D01*
X53613792Y-41706112D01*
X53496738Y-41793738D01*
X53409112Y-41910792D01*
X53409111Y-41910795D01*
X53397646Y-41941534D01*
X53355099Y-41998369D01*
X53288578Y-42023179D01*
X53279591Y-42023500D01*
X43733595Y-42023500D01*
X43665474Y-42003498D01*
X43644500Y-41986595D01*
X42740350Y-41082445D01*
X41785144Y-40127240D01*
X41751120Y-40064929D01*
X41756184Y-39994114D01*
X41798731Y-39937278D01*
X41822989Y-39923040D01*
X41858752Y-39907118D01*
X42013253Y-39794866D01*
X42127541Y-39667936D01*
X42187984Y-39630698D01*
X42258968Y-39632049D01*
X42309098Y-39664266D01*
X42309837Y-39663446D01*
X42314743Y-39667863D01*
X42314746Y-39667865D01*
X42314747Y-39667866D01*
X42469248Y-39780118D01*
X42643712Y-39857794D01*
X42830513Y-39897500D01*
X43021487Y-39897500D01*
X43208288Y-39857794D01*
X43382752Y-39780118D01*
X43537253Y-39667866D01*
X43537256Y-39667863D01*
X43665034Y-39525951D01*
X43665035Y-39525949D01*
X43665040Y-39525944D01*
X43760527Y-39360556D01*
X43819542Y-39178928D01*
X43839504Y-38989000D01*
X43819542Y-38799072D01*
X43760527Y-38617444D01*
X43665040Y-38452056D01*
X43665038Y-38452054D01*
X43665034Y-38452048D01*
X43537255Y-38310135D01*
X43382752Y-38197882D01*
X43312055Y-38166406D01*
X43208288Y-38120206D01*
X43208287Y-38120205D01*
X43208283Y-38120204D01*
X43024303Y-38081097D01*
X42961829Y-38047369D01*
X42927508Y-37985219D01*
X42924500Y-37957851D01*
X42924500Y-37763584D01*
X42944502Y-37695463D01*
X42984352Y-37656344D01*
X42999040Y-37647285D01*
X43120285Y-37526040D01*
X43210302Y-37380101D01*
X43264236Y-37217336D01*
X43267035Y-37189936D01*
X43274500Y-37116880D01*
X43274500Y-36569119D01*
X43264236Y-36468666D01*
X43264236Y-36468664D01*
X43210302Y-36305899D01*
X43120285Y-36159960D01*
X43117423Y-36157098D01*
X43116086Y-36154650D01*
X43115732Y-36154202D01*
X43115808Y-36154141D01*
X43083396Y-36094791D01*
X43088457Y-36023975D01*
X43117423Y-35978901D01*
X43120285Y-35976040D01*
X43210302Y-35830101D01*
X43264236Y-35667336D01*
X43267035Y-35639936D01*
X43274500Y-35566880D01*
X43274500Y-35172066D01*
X43294502Y-35103945D01*
X43348158Y-35057452D01*
X43418432Y-35047348D01*
X43440133Y-35052462D01*
X43566669Y-35094392D01*
X43566681Y-35094394D01*
X43670483Y-35104999D01*
X43670483Y-35105000D01*
X43942000Y-35105000D01*
X43942000Y-34351000D01*
X44450000Y-34351000D01*
X44450000Y-35105000D01*
X44721517Y-35105000D01*
X44721516Y-35104999D01*
X44825318Y-35094394D01*
X44825321Y-35094393D01*
X44993525Y-35038657D01*
X45144339Y-34945634D01*
X45144345Y-34945629D01*
X45269629Y-34820345D01*
X45269634Y-34820339D01*
X45362657Y-34669525D01*
X45418393Y-34501321D01*
X45418394Y-34501318D01*
X45428999Y-34397516D01*
X45429000Y-34397516D01*
X45429000Y-34351000D01*
X44450000Y-34351000D01*
X43942000Y-34351000D01*
X43942000Y-33969000D01*
X43962002Y-33900879D01*
X44015658Y-33854386D01*
X44068000Y-33843000D01*
X45429000Y-33843000D01*
X45429000Y-33796483D01*
X45418394Y-33692681D01*
X45418393Y-33692678D01*
X45362657Y-33524474D01*
X45269634Y-33373660D01*
X45269629Y-33373654D01*
X45144344Y-33248369D01*
X45141551Y-33246161D01*
X45140131Y-33244156D01*
X45139150Y-33243175D01*
X45139317Y-33243007D01*
X45100519Y-33188222D01*
X45097325Y-33117298D01*
X45132983Y-33055905D01*
X45141554Y-33048478D01*
X45144639Y-33046037D01*
X45144652Y-33046030D01*
X45270030Y-32920652D01*
X45363115Y-32769738D01*
X45418887Y-32601426D01*
X45429500Y-32497545D01*
X45429499Y-31896456D01*
X45426414Y-31866261D01*
X45418887Y-31792574D01*
X45397726Y-31728713D01*
X45363115Y-31624262D01*
X45270030Y-31473348D01*
X45270029Y-31473347D01*
X45270024Y-31473341D01*
X45144658Y-31347975D01*
X45144652Y-31347970D01*
X45144650Y-31347969D01*
X45137005Y-31343253D01*
X45089528Y-31290470D01*
X45081640Y-31242000D01*
X47289001Y-31242000D01*
X47289001Y-31320221D01*
X47295481Y-31391553D01*
X47346633Y-31555706D01*
X47435578Y-31702840D01*
X47435586Y-31702850D01*
X47557149Y-31824413D01*
X47557159Y-31824421D01*
X47704293Y-31913366D01*
X47868446Y-31964518D01*
X47939781Y-31970999D01*
X47942999Y-31970999D01*
X47943000Y-31970998D01*
X47943000Y-31242000D01*
X47289001Y-31242000D01*
X45081640Y-31242000D01*
X45078124Y-31220395D01*
X45083317Y-31197084D01*
X45089542Y-31177928D01*
X45109504Y-30988000D01*
X45089542Y-30798072D01*
X45068724Y-30734000D01*
X47289000Y-30734000D01*
X47943000Y-30734000D01*
X47943000Y-30005000D01*
X47939768Y-30005001D01*
X47868446Y-30011481D01*
X47704293Y-30062633D01*
X47557159Y-30151578D01*
X47557149Y-30151586D01*
X47435586Y-30273149D01*
X47435578Y-30273159D01*
X47346633Y-30420293D01*
X47295481Y-30584446D01*
X47295481Y-30584447D01*
X47289000Y-30655777D01*
X47289000Y-30734000D01*
X45068724Y-30734000D01*
X45030527Y-30616444D01*
X44935040Y-30451056D01*
X44935038Y-30451054D01*
X44935034Y-30451048D01*
X44807255Y-30309135D01*
X44652752Y-30196882D01*
X44478288Y-30119206D01*
X44291487Y-30079500D01*
X44100513Y-30079500D01*
X43913711Y-30119206D01*
X43739247Y-30196882D01*
X43584744Y-30309135D01*
X43456965Y-30451048D01*
X43456958Y-30451058D01*
X43361476Y-30616438D01*
X43361473Y-30616444D01*
X43348693Y-30655777D01*
X43302457Y-30798072D01*
X43282496Y-30988000D01*
X43302457Y-31177926D01*
X43308680Y-31197078D01*
X43310706Y-31268046D01*
X43274043Y-31328844D01*
X43254998Y-31343251D01*
X43247349Y-31347969D01*
X43247346Y-31347971D01*
X43172545Y-31422772D01*
X43110232Y-31456797D01*
X43039417Y-31451731D01*
X43012848Y-31436843D01*
X43012677Y-31437127D01*
X43006155Y-31433184D01*
X42858913Y-31344173D01*
X42858912Y-31344172D01*
X42858911Y-31344172D01*
X42858906Y-31344170D01*
X42694646Y-31292986D01*
X42642723Y-31288268D01*
X42623265Y-31286500D01*
X42623262Y-31286500D01*
X41958738Y-31286500D01*
X41887353Y-31292986D01*
X41887352Y-31292986D01*
X41723093Y-31344170D01*
X41723090Y-31344171D01*
X41676139Y-31372554D01*
X41594183Y-31422098D01*
X41525540Y-31440221D01*
X41463817Y-31422098D01*
X41334913Y-31344173D01*
X41251493Y-31318178D01*
X41199885Y-31286980D01*
X41090827Y-31177922D01*
X40408833Y-30495929D01*
X40362970Y-30465284D01*
X40317442Y-30410807D01*
X40308594Y-30340364D01*
X40313368Y-30320886D01*
X40342742Y-30232241D01*
X40342744Y-30232229D01*
X40352999Y-30131852D01*
X40353000Y-30131852D01*
X40353000Y-30112000D01*
X38387000Y-30112000D01*
X38387000Y-30131852D01*
X38395566Y-30215693D01*
X38382592Y-30285494D01*
X38333940Y-30337200D01*
X38270219Y-30354500D01*
X33203243Y-30354500D01*
X33135122Y-30334498D01*
X33095415Y-30293685D01*
X33082820Y-30272851D01*
X33082818Y-30272848D01*
X33082816Y-30272845D01*
X33082813Y-30272842D01*
X33082810Y-30272838D01*
X32991405Y-30181433D01*
X32957379Y-30119121D01*
X32954500Y-30092338D01*
X32954500Y-29749000D01*
X32974502Y-29680879D01*
X33028158Y-29634386D01*
X33080500Y-29623000D01*
X33210000Y-29623000D01*
X33210000Y-29099500D01*
X33230002Y-29031379D01*
X33283658Y-28984886D01*
X33336000Y-28973500D01*
X33484000Y-28973500D01*
X33552121Y-28993502D01*
X33598614Y-29047158D01*
X33610000Y-29099500D01*
X33610000Y-29623000D01*
X34008585Y-29623000D01*
X34008597Y-29622999D01*
X34069093Y-29616494D01*
X34205964Y-29565444D01*
X34205965Y-29565444D01*
X34322904Y-29477904D01*
X34410444Y-29360965D01*
X34410445Y-29360963D01*
X34430030Y-29308453D01*
X34472576Y-29251617D01*
X34539096Y-29226805D01*
X34568943Y-29228869D01*
X34568950Y-29228810D01*
X34570628Y-29228986D01*
X34574288Y-29229239D01*
X34575513Y-29229500D01*
X34575516Y-29229500D01*
X34766487Y-29229500D01*
X34953288Y-29189794D01*
X35127752Y-29112118D01*
X35282253Y-28999866D01*
X35295741Y-28984886D01*
X35410034Y-28857951D01*
X35410035Y-28857949D01*
X35410040Y-28857944D01*
X35505527Y-28692556D01*
X35564542Y-28510928D01*
X35584504Y-28321000D01*
X35564542Y-28131072D01*
X35505527Y-27949444D01*
X35410040Y-27784056D01*
X35410038Y-27784054D01*
X35410034Y-27784048D01*
X35282255Y-27642135D01*
X35127752Y-27529882D01*
X34953288Y-27452206D01*
X34766487Y-27412500D01*
X34587393Y-27412500D01*
X34519272Y-27392498D01*
X34472779Y-27338842D01*
X34462115Y-27273032D01*
X34468499Y-27213649D01*
X34468500Y-27213632D01*
X34468500Y-27199499D01*
X34488502Y-27131378D01*
X34542158Y-27084885D01*
X34594500Y-27073499D01*
X36525500Y-27073499D01*
X36593621Y-27093501D01*
X36640114Y-27147157D01*
X36651500Y-27199499D01*
X36651500Y-27213649D01*
X36658261Y-27276532D01*
X36658261Y-27303468D01*
X36651500Y-27366350D01*
X36651500Y-27863649D01*
X36658261Y-27926532D01*
X36658261Y-27953468D01*
X36651500Y-28016350D01*
X36651500Y-28513632D01*
X36651501Y-28513652D01*
X36658513Y-28578884D01*
X36658513Y-28605818D01*
X36652001Y-28666394D01*
X36652000Y-28666414D01*
X36652000Y-28715001D01*
X36653294Y-28716295D01*
X36717003Y-28735002D01*
X36749750Y-28765491D01*
X36796738Y-28828261D01*
X36876716Y-28888132D01*
X36919263Y-28944968D01*
X36924327Y-29015784D01*
X36890302Y-29078096D01*
X36827990Y-29112121D01*
X36801207Y-29115000D01*
X36652000Y-29115000D01*
X36652000Y-29163597D01*
X36658505Y-29224093D01*
X36709555Y-29360964D01*
X36709555Y-29360965D01*
X36797095Y-29477904D01*
X36914034Y-29565444D01*
X37050906Y-29616494D01*
X37111402Y-29622999D01*
X37111415Y-29623000D01*
X37510000Y-29623000D01*
X37510000Y-29099500D01*
X37530002Y-29031379D01*
X37583658Y-28984886D01*
X37636000Y-28973500D01*
X37784000Y-28973500D01*
X37852121Y-28993502D01*
X37898614Y-29047158D01*
X37910000Y-29099500D01*
X37910000Y-29623000D01*
X38308588Y-29623000D01*
X38308588Y-29622999D01*
X38367218Y-29616694D01*
X38380500Y-29608490D01*
X38413835Y-29604000D01*
X40353000Y-29604000D01*
X40353000Y-29584147D01*
X40342744Y-29483770D01*
X40342742Y-29483758D01*
X40288847Y-29321115D01*
X40198890Y-29175271D01*
X40198885Y-29175265D01*
X40196067Y-29172447D01*
X40194749Y-29170034D01*
X40194338Y-29169514D01*
X40194426Y-29169443D01*
X40162041Y-29110135D01*
X40167106Y-29039320D01*
X40196073Y-28994251D01*
X40199285Y-28991040D01*
X40289302Y-28845101D01*
X40343236Y-28682336D01*
X40351054Y-28605818D01*
X40353500Y-28581880D01*
X40353500Y-28034119D01*
X40343236Y-27933666D01*
X40343236Y-27933664D01*
X40289302Y-27770899D01*
X40199285Y-27624960D01*
X40199284Y-27624959D01*
X40199279Y-27624953D01*
X40078046Y-27503720D01*
X40078040Y-27503715D01*
X39932101Y-27413698D01*
X39868122Y-27392498D01*
X39795187Y-27368330D01*
X39745727Y-27337822D01*
X39539283Y-27131378D01*
X38880833Y-26472929D01*
X38777075Y-26403600D01*
X38661785Y-26355845D01*
X38553868Y-26334379D01*
X38514899Y-26316999D01*
X38514118Y-26318432D01*
X38506202Y-26314110D01*
X38369204Y-26263011D01*
X38369196Y-26263009D01*
X38308649Y-26256500D01*
X38308638Y-26256500D01*
X37949596Y-26256500D01*
X37881475Y-26236498D01*
X37860501Y-26219596D01*
X37588832Y-25947928D01*
X37485074Y-25878599D01*
X37369784Y-25830844D01*
X37296085Y-25816184D01*
X37247395Y-25806499D01*
X37247393Y-25806499D01*
X32551195Y-25806499D01*
X32551189Y-25806499D01*
X32428806Y-25830843D01*
X32428798Y-25830845D01*
X32395036Y-25844829D01*
X32395036Y-25844830D01*
X32313514Y-25878598D01*
X32209756Y-25947926D01*
X31979944Y-26177739D01*
X30965167Y-27192517D01*
X30876931Y-27280752D01*
X30876926Y-27280759D01*
X30824137Y-27359764D01*
X30807600Y-27384513D01*
X30796007Y-27412500D01*
X30759846Y-27499800D01*
X30735500Y-27622191D01*
X30735500Y-28757928D01*
X30715498Y-28826049D01*
X30698595Y-28847023D01*
X26177931Y-33367686D01*
X26177926Y-33367693D01*
X26140266Y-33424056D01*
X26108600Y-33471447D01*
X26060845Y-33586737D01*
X26051028Y-33636090D01*
X26036500Y-33709125D01*
X26036500Y-33709128D01*
X26036500Y-38926606D01*
X26036500Y-39051394D01*
X26060845Y-39173785D01*
X26108600Y-39289075D01*
X26177929Y-39392833D01*
X26177931Y-39392835D01*
X27698500Y-40913405D01*
X27732526Y-40975717D01*
X27727461Y-41046533D01*
X27684914Y-41103368D01*
X27618394Y-41128179D01*
X27609405Y-41128500D01*
X27463513Y-41128500D01*
X27276711Y-41168206D01*
X27102247Y-41245882D01*
X26947744Y-41358135D01*
X26819965Y-41500048D01*
X26819958Y-41500058D01*
X26724476Y-41665438D01*
X26724473Y-41665445D01*
X26665457Y-41847072D01*
X26645496Y-42037000D01*
X26665457Y-42226928D01*
X26724470Y-42408550D01*
X26724472Y-42408555D01*
X26746962Y-42447509D01*
X26763699Y-42516505D01*
X26740478Y-42583597D01*
X26737030Y-42588211D01*
X26734185Y-42591841D01*
X26645171Y-42739090D01*
X26645170Y-42739093D01*
X26593986Y-42903353D01*
X26587500Y-42974737D01*
X26587500Y-43639261D01*
X26593986Y-43710646D01*
X26593986Y-43710647D01*
X26645170Y-43874906D01*
X26645172Y-43874911D01*
X26645173Y-43874913D01*
X26707132Y-43977405D01*
X26734184Y-44022155D01*
X26734188Y-44022160D01*
X26825595Y-44113567D01*
X26859621Y-44175879D01*
X26862500Y-44202662D01*
X26862500Y-44203984D01*
X26842498Y-44272105D01*
X26825595Y-44293079D01*
X26741720Y-44376953D01*
X26741715Y-44376959D01*
X26651698Y-44522899D01*
X26597763Y-44685666D01*
X26587500Y-44786119D01*
X26587500Y-45383880D01*
X26587499Y-45383880D01*
X26597763Y-45484333D01*
X26597764Y-45484336D01*
X26651698Y-45647101D01*
X26721755Y-45760680D01*
X26741715Y-45793040D01*
X26741720Y-45793046D01*
X26862953Y-45914279D01*
X26862959Y-45914284D01*
X26862960Y-45914285D01*
X27008899Y-46004302D01*
X27171664Y-46058236D01*
X27191756Y-46060288D01*
X27272120Y-46068500D01*
X27272128Y-46068500D01*
X27819880Y-46068500D01*
X27892936Y-46061035D01*
X27920336Y-46058236D01*
X28083101Y-46004302D01*
X28229040Y-45914285D01*
X28231901Y-45911423D01*
X28234349Y-45910086D01*
X28234798Y-45909732D01*
X28234858Y-45909808D01*
X28294209Y-45877396D01*
X28365025Y-45882457D01*
X28410098Y-45911423D01*
X28412960Y-45914285D01*
X28558899Y-46004302D01*
X28721664Y-46058236D01*
X28741756Y-46060288D01*
X28822120Y-46068500D01*
X28822128Y-46068500D01*
X29369880Y-46068500D01*
X29442936Y-46061035D01*
X29470336Y-46058236D01*
X29633101Y-46004302D01*
X29779040Y-45914285D01*
X29791197Y-45902126D01*
X29853507Y-45868101D01*
X29924323Y-45873164D01*
X29931544Y-45876115D01*
X29993709Y-45903793D01*
X29993710Y-45903793D01*
X29993712Y-45903794D01*
X30180513Y-45943500D01*
X30371487Y-45943500D01*
X30558288Y-45903794D01*
X30586552Y-45891209D01*
X30656918Y-45881773D01*
X30721216Y-45911878D01*
X30759031Y-45971966D01*
X30758357Y-46042959D01*
X30730505Y-46091652D01*
X30674280Y-46152729D01*
X30674275Y-46152734D01*
X30551141Y-46341206D01*
X30460703Y-46547386D01*
X30460702Y-46547387D01*
X30405437Y-46765624D01*
X30405436Y-46765630D01*
X30405436Y-46765632D01*
X30386844Y-46990000D01*
X30402836Y-47182993D01*
X30405437Y-47214375D01*
X30460702Y-47432612D01*
X30460703Y-47432613D01*
X30551141Y-47638793D01*
X30674275Y-47827265D01*
X30674279Y-47827270D01*
X30826762Y-47992908D01*
X30845510Y-48007500D01*
X31004424Y-48131189D01*
X31202426Y-48238342D01*
X31202427Y-48238342D01*
X31202428Y-48238343D01*
X31314227Y-48276723D01*
X31415365Y-48311444D01*
X31637431Y-48348500D01*
X31637435Y-48348500D01*
X31862565Y-48348500D01*
X31862569Y-48348500D01*
X32084635Y-48311444D01*
X32297574Y-48238342D01*
X32495576Y-48131189D01*
X32673240Y-47992906D01*
X32825722Y-47827268D01*
X32914518Y-47691354D01*
X32968520Y-47645268D01*
X33038868Y-47635692D01*
X33103225Y-47665669D01*
X33125480Y-47691353D01*
X33158607Y-47742058D01*
X33214275Y-47827265D01*
X33214279Y-47827270D01*
X33366762Y-47992908D01*
X33385510Y-48007500D01*
X33544424Y-48131189D01*
X33742426Y-48238342D01*
X33742427Y-48238342D01*
X33742428Y-48238343D01*
X33854227Y-48276723D01*
X33955365Y-48311444D01*
X34177431Y-48348500D01*
X34177435Y-48348500D01*
X34402565Y-48348500D01*
X34402569Y-48348500D01*
X34624635Y-48311444D01*
X34837574Y-48238342D01*
X35035576Y-48131189D01*
X35213240Y-47992906D01*
X35365722Y-47827268D01*
X35454518Y-47691354D01*
X35508520Y-47645268D01*
X35578868Y-47635692D01*
X35643225Y-47665669D01*
X35665480Y-47691353D01*
X35698607Y-47742058D01*
X35754275Y-47827265D01*
X35754279Y-47827270D01*
X35906762Y-47992908D01*
X35925510Y-48007500D01*
X36084424Y-48131189D01*
X36282426Y-48238342D01*
X36282427Y-48238342D01*
X36282428Y-48238343D01*
X36394227Y-48276723D01*
X36495365Y-48311444D01*
X36717431Y-48348500D01*
X36717435Y-48348500D01*
X36942565Y-48348500D01*
X36942569Y-48348500D01*
X37164635Y-48311444D01*
X37377574Y-48238342D01*
X37575576Y-48131189D01*
X37753240Y-47992906D01*
X37905722Y-47827268D01*
X37994816Y-47690898D01*
X38048819Y-47644810D01*
X38119167Y-47635235D01*
X38183524Y-47665212D01*
X38205782Y-47690898D01*
X38294674Y-47826958D01*
X38447097Y-47992534D01*
X38624698Y-48130767D01*
X38624699Y-48130768D01*
X38822628Y-48237882D01*
X38822630Y-48237883D01*
X39035483Y-48310955D01*
X39035492Y-48310957D01*
X39116000Y-48324391D01*
X39116000Y-47420702D01*
X39177007Y-47455925D01*
X39304174Y-47490000D01*
X39435826Y-47490000D01*
X39562993Y-47455925D01*
X39624000Y-47420702D01*
X39624000Y-48327903D01*
X39603998Y-48396024D01*
X39587096Y-48416998D01*
X39459167Y-48544929D01*
X39370927Y-48633169D01*
X39370926Y-48633171D01*
X39301601Y-48736923D01*
X39253846Y-48852212D01*
X39246711Y-48888082D01*
X39213803Y-48950991D01*
X39152108Y-48986123D01*
X39123132Y-48989500D01*
X38814350Y-48989500D01*
X38753803Y-48996009D01*
X38753795Y-48996011D01*
X38616797Y-49047110D01*
X38616792Y-49047112D01*
X38499738Y-49134738D01*
X38412112Y-49251792D01*
X38412110Y-49251797D01*
X38361011Y-49388795D01*
X38361009Y-49388803D01*
X38354500Y-49449350D01*
X38354500Y-53546649D01*
X38361009Y-53607196D01*
X38361011Y-53607204D01*
X38412110Y-53744202D01*
X38412112Y-53744207D01*
X38499738Y-53861261D01*
X38616792Y-53948887D01*
X38616794Y-53948888D01*
X38616796Y-53948889D01*
X38675875Y-53970924D01*
X38753795Y-53999988D01*
X38753803Y-53999990D01*
X38814350Y-54006499D01*
X38814355Y-54006499D01*
X38814362Y-54006500D01*
X38814368Y-54006500D01*
X40911632Y-54006500D01*
X40911638Y-54006500D01*
X40911645Y-54006499D01*
X40911649Y-54006499D01*
X40972196Y-53999990D01*
X40972199Y-53999989D01*
X40972201Y-53999989D01*
X41109204Y-53948889D01*
X41201992Y-53879427D01*
X41268510Y-53854618D01*
X41337885Y-53869709D01*
X41388087Y-53919911D01*
X41403500Y-53980297D01*
X41403500Y-66415702D01*
X41383498Y-66483823D01*
X41329842Y-66530316D01*
X41259568Y-66540420D01*
X41201991Y-66516570D01*
X41109207Y-66447112D01*
X41109202Y-66447110D01*
X40972204Y-66396011D01*
X40972196Y-66396009D01*
X40911649Y-66389500D01*
X40911638Y-66389500D01*
X38814362Y-66389500D01*
X38814350Y-66389500D01*
X38753803Y-66396009D01*
X38753795Y-66396011D01*
X38616797Y-66447110D01*
X38616792Y-66447112D01*
X38499738Y-66534738D01*
X38412112Y-66651792D01*
X38412110Y-66651797D01*
X38361011Y-66788795D01*
X38361009Y-66788803D01*
X38354500Y-66849350D01*
X38354500Y-69458406D01*
X38334498Y-69526527D01*
X38317595Y-69547501D01*
X37648595Y-70216501D01*
X37586283Y-70250527D01*
X37515468Y-70245462D01*
X37458632Y-70202915D01*
X37433821Y-70136395D01*
X37433500Y-70127406D01*
X37433500Y-63007367D01*
X37433499Y-63007350D01*
X37426990Y-62946803D01*
X37426988Y-62946795D01*
X37375889Y-62809797D01*
X37375887Y-62809792D01*
X37288261Y-62692738D01*
X37171207Y-62605112D01*
X37171202Y-62605110D01*
X37034204Y-62554011D01*
X37034196Y-62554009D01*
X36973649Y-62547500D01*
X36973638Y-62547500D01*
X32876362Y-62547500D01*
X32876350Y-62547500D01*
X32815803Y-62554009D01*
X32815795Y-62554011D01*
X32678797Y-62605110D01*
X32678792Y-62605112D01*
X32561738Y-62692738D01*
X32474112Y-62809792D01*
X32474110Y-62809797D01*
X32423011Y-62946795D01*
X32423009Y-62946803D01*
X32416500Y-63007350D01*
X32416500Y-71104649D01*
X32423009Y-71165196D01*
X32423011Y-71165204D01*
X32474110Y-71302202D01*
X32474112Y-71302207D01*
X32561737Y-71419259D01*
X32561738Y-71419259D01*
X32561739Y-71419261D01*
X32573548Y-71428101D01*
X32621011Y-71463632D01*
X32663557Y-71520469D01*
X32668621Y-71591284D01*
X32634596Y-71653596D01*
X32621011Y-71665368D01*
X32561737Y-71709740D01*
X32474112Y-71826792D01*
X32474110Y-71826797D01*
X32423011Y-71963795D01*
X32423009Y-71963803D01*
X32416500Y-72024350D01*
X32416500Y-80121649D01*
X32423009Y-80182196D01*
X32423011Y-80182204D01*
X32474110Y-80319202D01*
X32474112Y-80319207D01*
X32561738Y-80436261D01*
X32678792Y-80523887D01*
X32678794Y-80523888D01*
X32678796Y-80523889D01*
X32737875Y-80545924D01*
X32815795Y-80574988D01*
X32815803Y-80574990D01*
X32876350Y-80581499D01*
X32876355Y-80581499D01*
X32876362Y-80581500D01*
X36832500Y-80581500D01*
X36900621Y-80601502D01*
X36947114Y-80655158D01*
X36958500Y-80707500D01*
X36958500Y-85154500D01*
X36938498Y-85222621D01*
X36884842Y-85269114D01*
X36832500Y-85280500D01*
X32876350Y-85280500D01*
X32815803Y-85287009D01*
X32815795Y-85287011D01*
X32678797Y-85338110D01*
X32678792Y-85338112D01*
X32561738Y-85425738D01*
X32474112Y-85542792D01*
X32474110Y-85542797D01*
X32423011Y-85679795D01*
X32423009Y-85679803D01*
X32416500Y-85740350D01*
X32416500Y-93837649D01*
X32423009Y-93898196D01*
X32423011Y-93898204D01*
X32474110Y-94035202D01*
X32474112Y-94035207D01*
X32561738Y-94152261D01*
X32678792Y-94239887D01*
X32678794Y-94239888D01*
X32678796Y-94239889D01*
X32737875Y-94261924D01*
X32815795Y-94290988D01*
X32815803Y-94290990D01*
X32876350Y-94297499D01*
X32876355Y-94297499D01*
X32876362Y-94297500D01*
X32876368Y-94297500D01*
X36973632Y-94297500D01*
X36973638Y-94297500D01*
X36973645Y-94297499D01*
X36973649Y-94297499D01*
X37034196Y-94290990D01*
X37034199Y-94290989D01*
X37034201Y-94290989D01*
X37171204Y-94239889D01*
X37288261Y-94152261D01*
X37340941Y-94081889D01*
X37375887Y-94035207D01*
X37375887Y-94035206D01*
X37375889Y-94035204D01*
X37426989Y-93898201D01*
X37429247Y-93877204D01*
X37433499Y-93837649D01*
X37433500Y-93837632D01*
X37433500Y-91651594D01*
X37453502Y-91583473D01*
X37507158Y-91536980D01*
X37577432Y-91526876D01*
X37642012Y-91556370D01*
X37648595Y-91562499D01*
X38120929Y-92034833D01*
X38209167Y-92123071D01*
X38298503Y-92182763D01*
X38344029Y-92237238D01*
X38354500Y-92287527D01*
X38354500Y-93679649D01*
X38361009Y-93740196D01*
X38361011Y-93740204D01*
X38412110Y-93877202D01*
X38412112Y-93877207D01*
X38499738Y-93994261D01*
X38616792Y-94081887D01*
X38616794Y-94081888D01*
X38616796Y-94081889D01*
X38675875Y-94103924D01*
X38753795Y-94132988D01*
X38753803Y-94132990D01*
X38814350Y-94139499D01*
X38814355Y-94139499D01*
X38814362Y-94139500D01*
X38814368Y-94139500D01*
X40911632Y-94139500D01*
X40911638Y-94139500D01*
X40911645Y-94139499D01*
X40911649Y-94139499D01*
X40972196Y-94132990D01*
X40972199Y-94132989D01*
X40972201Y-94132989D01*
X40984808Y-94128287D01*
X41044662Y-94105962D01*
X41109204Y-94081889D01*
X41171571Y-94035202D01*
X41226261Y-93994261D01*
X41313887Y-93877207D01*
X41313887Y-93877206D01*
X41313889Y-93877204D01*
X41364989Y-93740201D01*
X41371500Y-93679638D01*
X41371500Y-89582362D01*
X41371499Y-89582350D01*
X41364990Y-89521803D01*
X41364988Y-89521795D01*
X41327132Y-89420302D01*
X41313889Y-89384796D01*
X41313888Y-89384794D01*
X41313887Y-89384792D01*
X41226261Y-89267738D01*
X41109207Y-89180112D01*
X41109202Y-89180110D01*
X40972204Y-89129011D01*
X40972196Y-89129009D01*
X40911649Y-89122500D01*
X40911638Y-89122500D01*
X38814362Y-89122500D01*
X38814350Y-89122500D01*
X38753803Y-89129009D01*
X38753795Y-89129011D01*
X38616797Y-89180110D01*
X38616792Y-89180112D01*
X38499740Y-89267737D01*
X38452368Y-89331019D01*
X38395532Y-89373565D01*
X38324716Y-89378629D01*
X38262404Y-89344604D01*
X38228379Y-89282292D01*
X38225500Y-89255509D01*
X38225500Y-76606490D01*
X38245502Y-76538369D01*
X38299158Y-76491876D01*
X38369432Y-76481772D01*
X38434012Y-76511266D01*
X38452368Y-76530981D01*
X38499738Y-76594261D01*
X38616792Y-76681887D01*
X38616794Y-76681888D01*
X38616796Y-76681889D01*
X38675875Y-76703924D01*
X38753795Y-76732988D01*
X38753803Y-76732990D01*
X38814350Y-76739499D01*
X38814355Y-76739499D01*
X38814362Y-76739500D01*
X38814368Y-76739500D01*
X40911632Y-76739500D01*
X40911638Y-76739500D01*
X40911645Y-76739499D01*
X40911649Y-76739499D01*
X40972196Y-76732990D01*
X40972199Y-76732989D01*
X40972201Y-76732989D01*
X41109204Y-76681889D01*
X41226261Y-76594261D01*
X41273632Y-76530981D01*
X41313887Y-76477207D01*
X41313887Y-76477206D01*
X41313889Y-76477204D01*
X41364989Y-76340201D01*
X41371500Y-76279638D01*
X41371500Y-74990500D01*
X41391502Y-74922379D01*
X41445158Y-74875886D01*
X41497500Y-74864500D01*
X41528393Y-74864500D01*
X41528394Y-74864500D01*
X41650785Y-74840155D01*
X41766075Y-74792400D01*
X41869833Y-74723071D01*
X42529071Y-74063833D01*
X42573735Y-73996987D01*
X42628211Y-73951461D01*
X42698654Y-73942612D01*
X42762699Y-73973253D01*
X42800010Y-74033655D01*
X42804500Y-74066990D01*
X42804500Y-76279649D01*
X42811009Y-76340196D01*
X42811011Y-76340204D01*
X42862110Y-76477202D01*
X42862112Y-76477207D01*
X42949738Y-76594261D01*
X43066792Y-76681887D01*
X43066794Y-76681888D01*
X43066796Y-76681889D01*
X43125875Y-76703924D01*
X43203795Y-76732988D01*
X43203803Y-76732990D01*
X43264350Y-76739499D01*
X43264355Y-76739499D01*
X43264362Y-76739500D01*
X43264368Y-76739500D01*
X45361632Y-76739500D01*
X45361638Y-76739500D01*
X45361645Y-76739499D01*
X45361649Y-76739499D01*
X45422196Y-76732990D01*
X45422197Y-76732989D01*
X45422201Y-76732989D01*
X45424464Y-76732145D01*
X45426340Y-76732010D01*
X45429868Y-76731177D01*
X45430003Y-76731748D01*
X45495279Y-76727078D01*
X45557593Y-76761101D01*
X45591620Y-76823412D01*
X45594500Y-76850199D01*
X45594500Y-89011800D01*
X45574498Y-89079921D01*
X45520842Y-89126414D01*
X45450568Y-89136518D01*
X45424474Y-89129858D01*
X45422205Y-89129011D01*
X45422196Y-89129009D01*
X45361649Y-89122500D01*
X45361638Y-89122500D01*
X43264362Y-89122500D01*
X43264350Y-89122500D01*
X43203803Y-89129009D01*
X43203795Y-89129011D01*
X43066797Y-89180110D01*
X43066792Y-89180112D01*
X42949738Y-89267738D01*
X42862112Y-89384792D01*
X42862110Y-89384797D01*
X42811011Y-89521795D01*
X42811009Y-89521803D01*
X42804500Y-89582350D01*
X42804500Y-93679649D01*
X42811009Y-93740196D01*
X42811011Y-93740204D01*
X42862110Y-93877202D01*
X42862112Y-93877207D01*
X42949738Y-93994261D01*
X43066792Y-94081887D01*
X43066794Y-94081888D01*
X43066796Y-94081889D01*
X43125875Y-94103924D01*
X43203795Y-94132988D01*
X43203803Y-94132990D01*
X43264350Y-94139499D01*
X43264355Y-94139499D01*
X43264362Y-94139500D01*
X43264368Y-94139500D01*
X45361632Y-94139500D01*
X45361638Y-94139500D01*
X45361645Y-94139499D01*
X45361649Y-94139499D01*
X45422196Y-94132990D01*
X45422199Y-94132989D01*
X45422201Y-94132989D01*
X45434808Y-94128287D01*
X45494662Y-94105962D01*
X45559204Y-94081889D01*
X45621571Y-94035202D01*
X45676261Y-93994261D01*
X45763887Y-93877207D01*
X45763887Y-93877206D01*
X45763889Y-93877204D01*
X45814989Y-93740201D01*
X45821500Y-93679638D01*
X45821500Y-92032594D01*
X45841502Y-91964473D01*
X45858399Y-91943504D01*
X46631833Y-91170071D01*
X46720072Y-91081833D01*
X46789401Y-90978075D01*
X46837155Y-90862784D01*
X46861500Y-90740393D01*
X46861500Y-90615606D01*
X46861500Y-73529594D01*
X46881502Y-73461473D01*
X46935158Y-73414980D01*
X47005432Y-73404876D01*
X47070012Y-73434370D01*
X47076595Y-73440499D01*
X47217595Y-73581499D01*
X47251621Y-73643811D01*
X47254500Y-73670594D01*
X47254500Y-76279649D01*
X47261009Y-76340196D01*
X47261011Y-76340204D01*
X47312110Y-76477202D01*
X47312112Y-76477207D01*
X47399738Y-76594261D01*
X47516792Y-76681887D01*
X47516794Y-76681888D01*
X47516796Y-76681889D01*
X47575875Y-76703924D01*
X47653795Y-76732988D01*
X47653803Y-76732990D01*
X47714350Y-76739499D01*
X47714355Y-76739499D01*
X47714362Y-76739500D01*
X47714368Y-76739500D01*
X49811632Y-76739500D01*
X49811638Y-76739500D01*
X49811645Y-76739499D01*
X49811649Y-76739499D01*
X49872196Y-76732990D01*
X49872199Y-76732989D01*
X49872201Y-76732989D01*
X50009204Y-76681889D01*
X50126261Y-76594261D01*
X50193632Y-76504263D01*
X50250467Y-76461717D01*
X50321283Y-76456652D01*
X50383595Y-76490677D01*
X50417620Y-76552990D01*
X50420500Y-76579773D01*
X50420500Y-89282226D01*
X50400498Y-89350347D01*
X50346842Y-89396840D01*
X50276568Y-89406944D01*
X50211988Y-89377450D01*
X50193632Y-89357735D01*
X50126261Y-89267738D01*
X50009207Y-89180112D01*
X50009202Y-89180110D01*
X49872204Y-89129011D01*
X49872196Y-89129009D01*
X49811649Y-89122500D01*
X49811638Y-89122500D01*
X47714362Y-89122500D01*
X47714350Y-89122500D01*
X47653803Y-89129009D01*
X47653795Y-89129011D01*
X47516797Y-89180110D01*
X47516792Y-89180112D01*
X47399738Y-89267738D01*
X47312112Y-89384792D01*
X47312110Y-89384797D01*
X47261011Y-89521795D01*
X47261009Y-89521803D01*
X47254500Y-89582350D01*
X47254500Y-93679649D01*
X47261009Y-93740196D01*
X47261011Y-93740204D01*
X47312110Y-93877202D01*
X47312112Y-93877207D01*
X47399738Y-93994261D01*
X47516792Y-94081887D01*
X47516794Y-94081888D01*
X47516796Y-94081889D01*
X47575875Y-94103924D01*
X47653795Y-94132988D01*
X47653803Y-94132990D01*
X47714350Y-94139499D01*
X47714355Y-94139499D01*
X47714362Y-94139500D01*
X47714368Y-94139500D01*
X49811632Y-94139500D01*
X49811638Y-94139500D01*
X49811645Y-94139499D01*
X49811649Y-94139499D01*
X49872196Y-94132990D01*
X49872199Y-94132989D01*
X49872201Y-94132989D01*
X49884808Y-94128287D01*
X49944662Y-94105962D01*
X50009204Y-94081889D01*
X50071571Y-94035202D01*
X50126261Y-93994261D01*
X50213887Y-93877207D01*
X50213887Y-93877206D01*
X50213889Y-93877204D01*
X50264989Y-93740201D01*
X50271500Y-93679638D01*
X50271500Y-92154594D01*
X50291502Y-92086473D01*
X50308405Y-92065499D01*
X51489405Y-90884500D01*
X51551717Y-90850474D01*
X51622533Y-90855539D01*
X51679368Y-90898086D01*
X51704179Y-90964606D01*
X51704500Y-90973595D01*
X51704500Y-93679649D01*
X51711009Y-93740196D01*
X51711011Y-93740204D01*
X51762110Y-93877202D01*
X51762112Y-93877207D01*
X51849738Y-93994261D01*
X51966792Y-94081887D01*
X51966794Y-94081888D01*
X51966796Y-94081889D01*
X52025875Y-94103924D01*
X52103795Y-94132988D01*
X52103803Y-94132990D01*
X52164350Y-94139499D01*
X52164355Y-94139499D01*
X52164362Y-94139500D01*
X52164368Y-94139500D01*
X54261632Y-94139500D01*
X54261638Y-94139500D01*
X54261645Y-94139499D01*
X54261649Y-94139499D01*
X54322196Y-94132990D01*
X54322199Y-94132989D01*
X54322201Y-94132989D01*
X54334808Y-94128287D01*
X54394662Y-94105962D01*
X54459204Y-94081889D01*
X54521571Y-94035202D01*
X54576261Y-93994261D01*
X54663887Y-93877207D01*
X54663887Y-93877206D01*
X54663889Y-93877204D01*
X54714989Y-93740201D01*
X54721499Y-93679649D01*
X56154500Y-93679649D01*
X56161009Y-93740196D01*
X56161011Y-93740204D01*
X56212110Y-93877202D01*
X56212112Y-93877207D01*
X56299738Y-93994261D01*
X56416792Y-94081887D01*
X56416794Y-94081888D01*
X56416796Y-94081889D01*
X56475875Y-94103924D01*
X56553795Y-94132988D01*
X56553803Y-94132990D01*
X56614350Y-94139499D01*
X56614355Y-94139499D01*
X56614362Y-94139500D01*
X56614368Y-94139500D01*
X58711632Y-94139500D01*
X58711638Y-94139500D01*
X58711645Y-94139499D01*
X58711649Y-94139499D01*
X58772196Y-94132990D01*
X58772199Y-94132989D01*
X58772201Y-94132989D01*
X58784808Y-94128287D01*
X58844662Y-94105962D01*
X58909204Y-94081889D01*
X58971571Y-94035202D01*
X59026261Y-93994261D01*
X59113887Y-93877207D01*
X59113887Y-93877206D01*
X59113889Y-93877204D01*
X59164989Y-93740201D01*
X59171499Y-93679649D01*
X60604500Y-93679649D01*
X60611009Y-93740196D01*
X60611011Y-93740204D01*
X60662110Y-93877202D01*
X60662112Y-93877207D01*
X60749738Y-93994261D01*
X60866792Y-94081887D01*
X60866794Y-94081888D01*
X60866796Y-94081889D01*
X60925875Y-94103924D01*
X61003795Y-94132988D01*
X61003803Y-94132990D01*
X61064350Y-94139499D01*
X61064355Y-94139499D01*
X61064362Y-94139500D01*
X61064368Y-94139500D01*
X63161632Y-94139500D01*
X63161638Y-94139500D01*
X63161645Y-94139499D01*
X63161649Y-94139499D01*
X63222196Y-94132990D01*
X63222199Y-94132989D01*
X63222201Y-94132989D01*
X63234808Y-94128287D01*
X63294662Y-94105962D01*
X63359204Y-94081889D01*
X63421571Y-94035202D01*
X63476261Y-93994261D01*
X63563887Y-93877207D01*
X63563887Y-93877206D01*
X63563889Y-93877204D01*
X63614989Y-93740201D01*
X63621499Y-93679649D01*
X65054500Y-93679649D01*
X65061009Y-93740196D01*
X65061011Y-93740204D01*
X65112110Y-93877202D01*
X65112112Y-93877207D01*
X65199738Y-93994261D01*
X65316792Y-94081887D01*
X65316794Y-94081888D01*
X65316796Y-94081889D01*
X65375875Y-94103924D01*
X65453795Y-94132988D01*
X65453803Y-94132990D01*
X65514350Y-94139499D01*
X65514355Y-94139499D01*
X65514362Y-94139500D01*
X66072061Y-94139500D01*
X66123309Y-94150393D01*
X66265709Y-94213793D01*
X66265710Y-94213793D01*
X66265712Y-94213794D01*
X66452513Y-94253500D01*
X66643487Y-94253500D01*
X66830288Y-94213794D01*
X66854238Y-94203130D01*
X66972691Y-94150393D01*
X67023939Y-94139500D01*
X67611632Y-94139500D01*
X67611638Y-94139500D01*
X67611645Y-94139499D01*
X67611649Y-94139499D01*
X67672196Y-94132990D01*
X67672199Y-94132989D01*
X67672201Y-94132989D01*
X67684808Y-94128287D01*
X67744662Y-94105962D01*
X72059500Y-94105962D01*
X72088806Y-94290989D01*
X72098911Y-94354790D01*
X72169190Y-94571084D01*
X72176759Y-94594379D01*
X72291130Y-94818845D01*
X72291132Y-94818848D01*
X72315229Y-94852014D01*
X72439207Y-95022656D01*
X72439209Y-95022658D01*
X72439211Y-95022661D01*
X72617338Y-95200788D01*
X72617341Y-95200790D01*
X72617344Y-95200793D01*
X72821155Y-95348870D01*
X73045621Y-95463241D01*
X73285215Y-95541090D01*
X73534038Y-95580500D01*
X73534041Y-95580500D01*
X73785959Y-95580500D01*
X73785962Y-95580500D01*
X74034785Y-95541090D01*
X74274379Y-95463241D01*
X74498845Y-95348870D01*
X74702656Y-95200793D01*
X74880793Y-95022656D01*
X75028870Y-94818845D01*
X75143241Y-94594379D01*
X75221090Y-94354785D01*
X75260500Y-94105962D01*
X75260500Y-93854038D01*
X75221090Y-93605215D01*
X75143241Y-93365621D01*
X75028870Y-93141155D01*
X74880793Y-92937344D01*
X74880790Y-92937341D01*
X74880788Y-92937338D01*
X74702661Y-92759211D01*
X74702658Y-92759209D01*
X74702656Y-92759207D01*
X74498845Y-92611130D01*
X74274379Y-92496759D01*
X74274376Y-92496758D01*
X74274374Y-92496757D01*
X74034790Y-92418911D01*
X74034786Y-92418910D01*
X74034785Y-92418910D01*
X73785962Y-92379500D01*
X73534038Y-92379500D01*
X73285215Y-92418910D01*
X73285209Y-92418911D01*
X73045625Y-92496757D01*
X73045619Y-92496760D01*
X72821151Y-92611132D01*
X72617341Y-92759209D01*
X72617338Y-92759211D01*
X72439211Y-92937338D01*
X72439209Y-92937341D01*
X72291132Y-93141151D01*
X72176760Y-93365619D01*
X72176757Y-93365625D01*
X72098911Y-93605209D01*
X72098910Y-93605214D01*
X72098910Y-93605215D01*
X72059500Y-93854038D01*
X72059500Y-94105962D01*
X67744662Y-94105962D01*
X67809204Y-94081889D01*
X67871571Y-94035202D01*
X67926261Y-93994261D01*
X68013887Y-93877207D01*
X68013887Y-93877206D01*
X68013889Y-93877204D01*
X68064989Y-93740201D01*
X68071500Y-93679638D01*
X68071500Y-91124415D01*
X68091502Y-91056294D01*
X68145158Y-91009801D01*
X68215432Y-90999697D01*
X68280012Y-91029191D01*
X68298368Y-91048906D01*
X68375738Y-91152261D01*
X68492792Y-91239887D01*
X68492794Y-91239888D01*
X68492796Y-91239889D01*
X68551875Y-91261924D01*
X68629795Y-91290988D01*
X68629803Y-91290990D01*
X68690350Y-91297499D01*
X68690355Y-91297499D01*
X68690362Y-91297500D01*
X68690368Y-91297500D01*
X72787632Y-91297500D01*
X72787638Y-91297500D01*
X72787645Y-91297499D01*
X72787649Y-91297499D01*
X72848196Y-91290990D01*
X72848199Y-91290989D01*
X72848201Y-91290989D01*
X72985204Y-91239889D01*
X73102261Y-91152261D01*
X73189889Y-91035204D01*
X73240989Y-90898201D01*
X73241002Y-90898086D01*
X73247499Y-90837649D01*
X73247500Y-90837632D01*
X73247500Y-88740367D01*
X73247499Y-88740350D01*
X73240990Y-88679803D01*
X73240988Y-88679795D01*
X73195452Y-88557711D01*
X73189889Y-88542796D01*
X73189888Y-88542794D01*
X73189887Y-88542792D01*
X73102261Y-88425738D01*
X72985207Y-88338112D01*
X72985202Y-88338110D01*
X72848204Y-88287011D01*
X72848196Y-88287009D01*
X72787649Y-88280500D01*
X72787638Y-88280500D01*
X68690362Y-88280500D01*
X68690350Y-88280500D01*
X68629803Y-88287009D01*
X68629795Y-88287011D01*
X68492797Y-88338110D01*
X68492792Y-88338112D01*
X68375738Y-88425738D01*
X68288112Y-88542792D01*
X68288110Y-88542797D01*
X68237011Y-88679795D01*
X68237009Y-88679803D01*
X68230500Y-88740350D01*
X68230500Y-89295584D01*
X68210498Y-89363705D01*
X68156842Y-89410198D01*
X68086568Y-89420302D01*
X68021988Y-89390808D01*
X68003632Y-89371093D01*
X67926261Y-89267738D01*
X67809207Y-89180112D01*
X67809202Y-89180110D01*
X67672204Y-89129011D01*
X67672196Y-89129009D01*
X67611649Y-89122500D01*
X67611638Y-89122500D01*
X65514362Y-89122500D01*
X65514350Y-89122500D01*
X65453803Y-89129009D01*
X65453795Y-89129011D01*
X65316797Y-89180110D01*
X65316792Y-89180112D01*
X65199738Y-89267738D01*
X65112112Y-89384792D01*
X65112110Y-89384797D01*
X65061011Y-89521795D01*
X65061009Y-89521803D01*
X65054500Y-89582350D01*
X65054500Y-93679649D01*
X63621499Y-93679649D01*
X63621500Y-93679638D01*
X63621500Y-89582362D01*
X63621499Y-89582350D01*
X63614990Y-89521803D01*
X63614988Y-89521795D01*
X63577132Y-89420302D01*
X63563889Y-89384796D01*
X63563888Y-89384794D01*
X63563887Y-89384792D01*
X63476261Y-89267738D01*
X63359207Y-89180112D01*
X63359202Y-89180110D01*
X63222204Y-89129011D01*
X63222196Y-89129009D01*
X63161649Y-89122500D01*
X63161638Y-89122500D01*
X61064362Y-89122500D01*
X61064350Y-89122500D01*
X61003803Y-89129009D01*
X61003795Y-89129011D01*
X60866797Y-89180110D01*
X60866792Y-89180112D01*
X60749738Y-89267738D01*
X60662112Y-89384792D01*
X60662110Y-89384797D01*
X60611011Y-89521795D01*
X60611009Y-89521803D01*
X60604500Y-89582350D01*
X60604500Y-93679649D01*
X59171499Y-93679649D01*
X59171500Y-93679638D01*
X59171500Y-89582362D01*
X59171499Y-89582350D01*
X59164990Y-89521803D01*
X59164988Y-89521795D01*
X59127132Y-89420302D01*
X59113889Y-89384796D01*
X59113888Y-89384794D01*
X59113887Y-89384792D01*
X59026261Y-89267738D01*
X58909207Y-89180112D01*
X58909202Y-89180110D01*
X58772204Y-89129011D01*
X58772196Y-89129009D01*
X58711649Y-89122500D01*
X58711638Y-89122500D01*
X56614362Y-89122500D01*
X56614350Y-89122500D01*
X56553803Y-89129009D01*
X56553795Y-89129011D01*
X56416797Y-89180110D01*
X56416792Y-89180112D01*
X56299738Y-89267738D01*
X56212112Y-89384792D01*
X56212110Y-89384797D01*
X56161011Y-89521795D01*
X56161009Y-89521803D01*
X56154500Y-89582350D01*
X56154500Y-93679649D01*
X54721499Y-93679649D01*
X54721500Y-93679638D01*
X54721500Y-89582362D01*
X54721499Y-89582350D01*
X54714990Y-89521803D01*
X54714988Y-89521795D01*
X54677132Y-89420302D01*
X54663889Y-89384796D01*
X54663888Y-89384794D01*
X54663887Y-89384792D01*
X54576261Y-89267738D01*
X54459207Y-89180112D01*
X54459202Y-89180110D01*
X54322204Y-89129011D01*
X54322196Y-89129009D01*
X54261649Y-89122500D01*
X54261638Y-89122500D01*
X52164362Y-89122500D01*
X52164350Y-89122500D01*
X52103803Y-89129009D01*
X52103795Y-89129011D01*
X51966797Y-89180110D01*
X51966792Y-89180112D01*
X51889009Y-89238341D01*
X51822489Y-89263152D01*
X51753115Y-89248061D01*
X51702912Y-89197858D01*
X51687500Y-89137473D01*
X51687500Y-86279649D01*
X60554500Y-86279649D01*
X60561009Y-86340196D01*
X60561011Y-86340204D01*
X60612110Y-86477202D01*
X60612112Y-86477207D01*
X60699738Y-86594261D01*
X60816792Y-86681887D01*
X60816794Y-86681888D01*
X60816796Y-86681889D01*
X60875875Y-86703924D01*
X60953795Y-86732988D01*
X60953803Y-86732990D01*
X61014350Y-86739499D01*
X61014355Y-86739499D01*
X61014362Y-86739500D01*
X61014368Y-86739500D01*
X67611632Y-86739500D01*
X67611638Y-86739500D01*
X67611645Y-86739499D01*
X67611649Y-86739499D01*
X67672196Y-86732990D01*
X67672199Y-86732989D01*
X67672201Y-86732989D01*
X67809204Y-86681889D01*
X67926261Y-86594261D01*
X68013889Y-86477204D01*
X68035823Y-86418395D01*
X68078367Y-86361563D01*
X68144887Y-86336752D01*
X68214262Y-86351843D01*
X68264464Y-86402045D01*
X68271932Y-86418398D01*
X68288553Y-86462960D01*
X68288555Y-86462965D01*
X68376095Y-86579904D01*
X68493034Y-86667444D01*
X68629906Y-86718494D01*
X68690402Y-86724999D01*
X68690415Y-86725000D01*
X70485000Y-86725000D01*
X70485000Y-85471000D01*
X70993000Y-85471000D01*
X70993000Y-86725000D01*
X72787585Y-86725000D01*
X72787597Y-86724999D01*
X72848093Y-86718494D01*
X72984964Y-86667444D01*
X72984965Y-86667444D01*
X73101904Y-86579904D01*
X73189444Y-86462965D01*
X73189444Y-86462964D01*
X73240494Y-86326093D01*
X73246999Y-86265597D01*
X73247000Y-86265585D01*
X73247000Y-85471000D01*
X70993000Y-85471000D01*
X70485000Y-85471000D01*
X70485000Y-83709000D01*
X70993000Y-83709000D01*
X70993000Y-84963000D01*
X73247000Y-84963000D01*
X73247000Y-84168414D01*
X73246999Y-84168402D01*
X73240494Y-84107906D01*
X73189444Y-83971035D01*
X73189444Y-83971034D01*
X73101904Y-83854095D01*
X72984965Y-83766555D01*
X72848093Y-83715505D01*
X72787597Y-83709000D01*
X70993000Y-83709000D01*
X70485000Y-83709000D01*
X68690402Y-83709000D01*
X68629906Y-83715505D01*
X68493035Y-83766555D01*
X68493034Y-83766555D01*
X68376095Y-83854095D01*
X68298368Y-83957927D01*
X68241532Y-84000474D01*
X68170716Y-84005538D01*
X68108404Y-83971513D01*
X68074379Y-83909201D01*
X68071500Y-83882418D01*
X68071500Y-81979581D01*
X68091502Y-81911460D01*
X68145158Y-81864967D01*
X68215432Y-81854863D01*
X68280012Y-81884357D01*
X68298368Y-81904072D01*
X68376095Y-82007904D01*
X68493034Y-82095444D01*
X68629906Y-82146494D01*
X68690402Y-82152999D01*
X68690415Y-82153000D01*
X70485000Y-82153000D01*
X70485000Y-80899000D01*
X70993000Y-80899000D01*
X70993000Y-82153000D01*
X72787585Y-82153000D01*
X72787597Y-82152999D01*
X72848093Y-82146494D01*
X72984964Y-82095444D01*
X72984965Y-82095444D01*
X73101904Y-82007904D01*
X73189444Y-81890965D01*
X73189444Y-81890964D01*
X73240494Y-81754093D01*
X73246999Y-81693597D01*
X73247000Y-81693585D01*
X73247000Y-80899000D01*
X70993000Y-80899000D01*
X70485000Y-80899000D01*
X70485000Y-79137000D01*
X70993000Y-79137000D01*
X70993000Y-80391000D01*
X73247000Y-80391000D01*
X73247000Y-79596414D01*
X73246999Y-79596402D01*
X73240494Y-79535906D01*
X73189444Y-79399035D01*
X73189444Y-79399034D01*
X73101904Y-79282095D01*
X72984965Y-79194555D01*
X72848093Y-79143505D01*
X72787597Y-79137000D01*
X70993000Y-79137000D01*
X70485000Y-79137000D01*
X68690402Y-79137000D01*
X68629906Y-79143505D01*
X68493035Y-79194555D01*
X68493034Y-79194555D01*
X68376095Y-79282095D01*
X68288555Y-79399034D01*
X68288554Y-79399037D01*
X68271932Y-79443602D01*
X68229385Y-79500437D01*
X68162864Y-79525247D01*
X68093490Y-79510155D01*
X68043289Y-79459952D01*
X68035826Y-79443611D01*
X68013889Y-79384796D01*
X68013887Y-79384794D01*
X68013887Y-79384792D01*
X67926261Y-79267738D01*
X67809207Y-79180112D01*
X67809202Y-79180110D01*
X67672204Y-79129011D01*
X67672196Y-79129009D01*
X67611649Y-79122500D01*
X67611638Y-79122500D01*
X61014362Y-79122500D01*
X61014350Y-79122500D01*
X60953803Y-79129009D01*
X60953795Y-79129011D01*
X60816797Y-79180110D01*
X60816792Y-79180112D01*
X60699738Y-79267738D01*
X60612112Y-79384792D01*
X60612110Y-79384797D01*
X60561011Y-79521795D01*
X60561009Y-79521803D01*
X60554500Y-79582350D01*
X60554500Y-86279649D01*
X51687500Y-86279649D01*
X51687500Y-76724526D01*
X51707502Y-76656405D01*
X51761158Y-76609912D01*
X51831432Y-76599808D01*
X51889007Y-76623656D01*
X51935233Y-76658261D01*
X51966796Y-76681889D01*
X52103795Y-76732988D01*
X52103803Y-76732990D01*
X52164350Y-76739499D01*
X52164355Y-76739499D01*
X52164362Y-76739500D01*
X52164368Y-76739500D01*
X54261632Y-76739500D01*
X54261638Y-76739500D01*
X54261645Y-76739499D01*
X54261649Y-76739499D01*
X54322196Y-76732990D01*
X54322199Y-76732989D01*
X54322201Y-76732989D01*
X54459204Y-76681889D01*
X54576261Y-76594261D01*
X54623632Y-76530981D01*
X54663887Y-76477207D01*
X54663887Y-76477206D01*
X54663889Y-76477204D01*
X54714989Y-76340201D01*
X54721500Y-76279638D01*
X54721500Y-72489594D01*
X54741502Y-72421473D01*
X54795158Y-72374980D01*
X54865432Y-72364876D01*
X54930012Y-72394370D01*
X54936595Y-72400499D01*
X56117595Y-73581499D01*
X56151621Y-73643811D01*
X56154500Y-73670594D01*
X56154500Y-76279649D01*
X56161009Y-76340196D01*
X56161011Y-76340204D01*
X56212110Y-76477202D01*
X56212112Y-76477207D01*
X56299738Y-76594261D01*
X56416792Y-76681887D01*
X56416794Y-76681888D01*
X56416796Y-76681889D01*
X56475875Y-76703924D01*
X56553795Y-76732988D01*
X56553803Y-76732990D01*
X56614350Y-76739499D01*
X56614355Y-76739499D01*
X56614362Y-76739500D01*
X56614368Y-76739500D01*
X58711632Y-76739500D01*
X58711638Y-76739500D01*
X58711645Y-76739499D01*
X58711649Y-76739499D01*
X58772196Y-76732990D01*
X58772199Y-76732989D01*
X58772201Y-76732989D01*
X58909204Y-76681889D01*
X59026261Y-76594261D01*
X59073632Y-76530981D01*
X59113887Y-76477207D01*
X59113887Y-76477206D01*
X59113889Y-76477204D01*
X59164989Y-76340201D01*
X59171500Y-76279638D01*
X59171500Y-73711507D01*
X59191502Y-73643386D01*
X59245158Y-73596893D01*
X59315432Y-73586789D01*
X59380012Y-73616283D01*
X59402265Y-73641506D01*
X59451922Y-73715824D01*
X59451927Y-73715830D01*
X59451929Y-73715833D01*
X60459167Y-74723071D01*
X60548503Y-74782763D01*
X60594029Y-74837238D01*
X60604500Y-74887527D01*
X60604500Y-76279649D01*
X60611009Y-76340196D01*
X60611011Y-76340204D01*
X60662110Y-76477202D01*
X60662112Y-76477207D01*
X60749738Y-76594261D01*
X60866792Y-76681887D01*
X60866794Y-76681888D01*
X60866796Y-76681889D01*
X60925875Y-76703924D01*
X61003795Y-76732988D01*
X61003803Y-76732990D01*
X61064350Y-76739499D01*
X61064355Y-76739499D01*
X61064362Y-76739500D01*
X61064368Y-76739500D01*
X63161632Y-76739500D01*
X63161638Y-76739500D01*
X63161645Y-76739499D01*
X63161649Y-76739499D01*
X63222196Y-76732990D01*
X63222199Y-76732989D01*
X63222201Y-76732989D01*
X63359204Y-76681889D01*
X63476261Y-76594261D01*
X63523632Y-76530981D01*
X63563887Y-76477207D01*
X63563887Y-76477206D01*
X63563889Y-76477204D01*
X63614989Y-76340201D01*
X63621500Y-76279638D01*
X63621500Y-72182362D01*
X63621499Y-72182350D01*
X63614990Y-72121803D01*
X63614988Y-72121795D01*
X63585924Y-72043875D01*
X63563889Y-71984796D01*
X63563888Y-71984794D01*
X63563887Y-71984792D01*
X63476261Y-71867738D01*
X63359207Y-71780112D01*
X63359202Y-71780110D01*
X63222204Y-71729011D01*
X63222196Y-71729009D01*
X63161649Y-71722500D01*
X63161638Y-71722500D01*
X61064362Y-71722500D01*
X61064350Y-71722500D01*
X61003803Y-71729009D01*
X61003795Y-71729011D01*
X60866797Y-71780110D01*
X60866792Y-71780112D01*
X60779009Y-71845827D01*
X60712489Y-71870638D01*
X60643115Y-71855547D01*
X60592913Y-71805344D01*
X60577500Y-71744959D01*
X60577500Y-71384040D01*
X60597502Y-71315919D01*
X60651158Y-71269426D01*
X60721432Y-71259322D01*
X60779006Y-71283170D01*
X60866793Y-71348887D01*
X60866796Y-71348889D01*
X61003795Y-71399988D01*
X61003803Y-71399990D01*
X61064350Y-71406499D01*
X61064355Y-71406499D01*
X61064362Y-71406500D01*
X61064368Y-71406500D01*
X63161632Y-71406500D01*
X63161638Y-71406500D01*
X63161645Y-71406499D01*
X63161649Y-71406499D01*
X63222196Y-71399990D01*
X63222199Y-71399989D01*
X63222201Y-71399989D01*
X63359204Y-71348889D01*
X63421571Y-71302202D01*
X63476261Y-71261261D01*
X63563887Y-71144207D01*
X63563887Y-71144206D01*
X63563889Y-71144204D01*
X63614989Y-71007201D01*
X63621500Y-70946638D01*
X63621500Y-66849362D01*
X63620037Y-66835754D01*
X63614990Y-66788803D01*
X63614988Y-66788795D01*
X63577132Y-66687302D01*
X63563889Y-66651796D01*
X63563888Y-66651794D01*
X63563887Y-66651792D01*
X63476261Y-66534738D01*
X63359207Y-66447112D01*
X63359202Y-66447110D01*
X63222204Y-66396011D01*
X63222196Y-66396009D01*
X63161649Y-66389500D01*
X63161638Y-66389500D01*
X61064362Y-66389500D01*
X61064350Y-66389500D01*
X61003803Y-66396009D01*
X61003795Y-66396011D01*
X60866797Y-66447110D01*
X60866792Y-66447112D01*
X60779009Y-66512827D01*
X60712489Y-66537638D01*
X60643115Y-66522547D01*
X60592913Y-66472344D01*
X60577500Y-66411959D01*
X60577500Y-64021470D01*
X60597502Y-63953349D01*
X60651158Y-63906856D01*
X60721432Y-63896752D01*
X60779010Y-63920603D01*
X60816791Y-63948886D01*
X60816793Y-63948887D01*
X60816796Y-63948889D01*
X60828754Y-63953349D01*
X60953795Y-63999988D01*
X60953803Y-63999990D01*
X61014350Y-64006499D01*
X61014355Y-64006499D01*
X61014362Y-64006500D01*
X61014368Y-64006500D01*
X67611632Y-64006500D01*
X67611638Y-64006500D01*
X67611645Y-64006499D01*
X67611649Y-64006499D01*
X67672196Y-63999990D01*
X67672199Y-63999989D01*
X67672201Y-63999989D01*
X67809204Y-63948889D01*
X67865354Y-63906856D01*
X67926261Y-63861261D01*
X68013887Y-63744207D01*
X68013887Y-63744206D01*
X68013889Y-63744204D01*
X68035823Y-63685395D01*
X68078367Y-63628563D01*
X68144887Y-63603752D01*
X68214262Y-63618843D01*
X68264464Y-63669045D01*
X68271932Y-63685398D01*
X68288553Y-63729960D01*
X68288555Y-63729965D01*
X68376095Y-63846904D01*
X68493034Y-63934444D01*
X68629906Y-63985494D01*
X68690402Y-63991999D01*
X68690415Y-63992000D01*
X70485000Y-63992000D01*
X70485000Y-60976000D01*
X68690402Y-60976000D01*
X68629906Y-60982505D01*
X68493035Y-61033555D01*
X68493034Y-61033555D01*
X68376095Y-61121095D01*
X68298368Y-61224927D01*
X68241532Y-61267474D01*
X68170716Y-61272538D01*
X68108404Y-61238513D01*
X68074379Y-61176201D01*
X68071500Y-61149418D01*
X68071500Y-59246581D01*
X68091502Y-59178460D01*
X68145158Y-59131967D01*
X68215432Y-59121863D01*
X68280012Y-59151357D01*
X68298368Y-59171072D01*
X68376095Y-59274904D01*
X68493034Y-59362444D01*
X68629906Y-59413494D01*
X68690402Y-59419999D01*
X68690415Y-59420000D01*
X70485000Y-59420000D01*
X70485000Y-56404000D01*
X68690402Y-56404000D01*
X68629906Y-56410505D01*
X68493035Y-56461555D01*
X68493034Y-56461555D01*
X68376095Y-56549095D01*
X68288555Y-56666034D01*
X68288554Y-56666037D01*
X68271932Y-56710602D01*
X68229385Y-56767437D01*
X68162864Y-56792247D01*
X68093490Y-56777155D01*
X68043289Y-56726952D01*
X68035826Y-56710611D01*
X68013889Y-56651796D01*
X68013887Y-56651794D01*
X68013887Y-56651792D01*
X67926261Y-56534738D01*
X67809207Y-56447112D01*
X67809202Y-56447110D01*
X67672204Y-56396011D01*
X67672196Y-56396009D01*
X67611649Y-56389500D01*
X67611638Y-56389500D01*
X61014362Y-56389500D01*
X61014350Y-56389500D01*
X60953803Y-56396009D01*
X60953795Y-56396011D01*
X60816797Y-56447110D01*
X60779009Y-56475398D01*
X60712488Y-56500208D01*
X60643114Y-56485116D01*
X60592912Y-56434914D01*
X60577500Y-56374529D01*
X60577500Y-53984040D01*
X60597502Y-53915919D01*
X60651158Y-53869426D01*
X60721432Y-53859322D01*
X60779006Y-53883170D01*
X60866793Y-53948887D01*
X60866796Y-53948889D01*
X61003795Y-53999988D01*
X61003803Y-53999990D01*
X61064350Y-54006499D01*
X61064355Y-54006499D01*
X61064362Y-54006500D01*
X61064368Y-54006500D01*
X63161632Y-54006500D01*
X63161638Y-54006500D01*
X63161645Y-54006499D01*
X63161649Y-54006499D01*
X63222196Y-53999990D01*
X63222199Y-53999989D01*
X63222201Y-53999989D01*
X63359204Y-53948889D01*
X63399933Y-53918400D01*
X63476261Y-53861261D01*
X63563887Y-53744207D01*
X63563887Y-53744206D01*
X63563889Y-53744204D01*
X63614989Y-53607201D01*
X63621500Y-53546638D01*
X63621500Y-49449362D01*
X63617695Y-49413969D01*
X63630301Y-49344100D01*
X63678679Y-49292138D01*
X63742973Y-49274500D01*
X64328406Y-49274500D01*
X64396527Y-49294502D01*
X64417501Y-49311405D01*
X65017595Y-49911499D01*
X65051621Y-49973811D01*
X65054500Y-50000594D01*
X65054500Y-53546649D01*
X65061009Y-53607196D01*
X65061011Y-53607204D01*
X65112110Y-53744202D01*
X65112112Y-53744207D01*
X65199738Y-53861261D01*
X65316792Y-53948887D01*
X65316794Y-53948888D01*
X65316796Y-53948889D01*
X65375875Y-53970924D01*
X65453795Y-53999988D01*
X65453803Y-53999990D01*
X65514350Y-54006499D01*
X65514355Y-54006499D01*
X65514362Y-54006500D01*
X65514368Y-54006500D01*
X67611632Y-54006500D01*
X67611638Y-54006500D01*
X67611645Y-54006499D01*
X67611649Y-54006499D01*
X67672196Y-53999990D01*
X67672199Y-53999989D01*
X67672201Y-53999989D01*
X67809204Y-53948889D01*
X67849933Y-53918400D01*
X67926261Y-53861261D01*
X68003632Y-53757906D01*
X68060468Y-53715359D01*
X68131283Y-53710295D01*
X68193595Y-53744320D01*
X68227621Y-53806632D01*
X68230500Y-53833415D01*
X68230500Y-54388649D01*
X68237009Y-54449196D01*
X68237011Y-54449204D01*
X68288110Y-54586202D01*
X68288112Y-54586207D01*
X68375738Y-54703261D01*
X68492792Y-54790887D01*
X68492794Y-54790888D01*
X68492796Y-54790889D01*
X68551875Y-54812924D01*
X68629795Y-54841988D01*
X68629803Y-54841990D01*
X68690350Y-54848499D01*
X68690355Y-54848499D01*
X68690362Y-54848500D01*
X72392629Y-54848500D01*
X72460750Y-54868502D01*
X72481724Y-54885405D01*
X72991595Y-55395276D01*
X73025621Y-55457588D01*
X73028500Y-55484371D01*
X73028500Y-56296318D01*
X73008498Y-56364439D01*
X72954842Y-56410932D01*
X72884568Y-56421036D01*
X72858472Y-56414375D01*
X72848096Y-56410505D01*
X72787597Y-56404000D01*
X70993000Y-56404000D01*
X70993000Y-59420000D01*
X72787585Y-59420000D01*
X72787597Y-59419999D01*
X72848094Y-59413494D01*
X72858466Y-59409626D01*
X72929282Y-59404560D01*
X72991594Y-59438585D01*
X73025620Y-59500896D01*
X73028500Y-59527681D01*
X73028500Y-60868318D01*
X73008498Y-60936439D01*
X72954842Y-60982932D01*
X72884568Y-60993036D01*
X72858472Y-60986375D01*
X72848096Y-60982505D01*
X72787597Y-60976000D01*
X70993000Y-60976000D01*
X70993000Y-63992000D01*
X72787585Y-63992000D01*
X72787597Y-63991999D01*
X72848094Y-63985494D01*
X72858466Y-63981626D01*
X72929282Y-63976560D01*
X72991594Y-64010585D01*
X73025620Y-64072896D01*
X73028500Y-64099681D01*
X73028500Y-65439784D01*
X73008498Y-65507905D01*
X72954842Y-65554398D01*
X72884568Y-65564502D01*
X72858470Y-65557841D01*
X72848199Y-65554010D01*
X72848196Y-65554009D01*
X72787649Y-65547500D01*
X72787638Y-65547500D01*
X68690362Y-65547500D01*
X68690350Y-65547500D01*
X68629803Y-65554009D01*
X68629795Y-65554011D01*
X68492797Y-65605110D01*
X68492792Y-65605112D01*
X68375738Y-65692738D01*
X68288112Y-65809792D01*
X68288110Y-65809797D01*
X68237011Y-65946795D01*
X68237009Y-65946803D01*
X68230500Y-66007350D01*
X68230500Y-66562584D01*
X68210498Y-66630705D01*
X68156842Y-66677198D01*
X68086568Y-66687302D01*
X68021988Y-66657808D01*
X68003632Y-66638093D01*
X67926261Y-66534738D01*
X67809207Y-66447112D01*
X67809202Y-66447110D01*
X67672204Y-66396011D01*
X67672196Y-66396009D01*
X67611649Y-66389500D01*
X67611638Y-66389500D01*
X65514362Y-66389500D01*
X65514350Y-66389500D01*
X65453803Y-66396009D01*
X65453795Y-66396011D01*
X65316797Y-66447110D01*
X65316792Y-66447112D01*
X65199738Y-66534738D01*
X65112112Y-66651792D01*
X65112110Y-66651797D01*
X65061011Y-66788795D01*
X65061009Y-66788803D01*
X65054500Y-66849350D01*
X65054500Y-70946649D01*
X65061009Y-71007196D01*
X65061011Y-71007204D01*
X65112110Y-71144202D01*
X65112112Y-71144207D01*
X65199738Y-71261261D01*
X65316792Y-71348887D01*
X65316794Y-71348888D01*
X65316796Y-71348889D01*
X65375875Y-71370924D01*
X65453795Y-71399988D01*
X65453803Y-71399990D01*
X65514350Y-71406499D01*
X65514355Y-71406499D01*
X65514362Y-71406500D01*
X66072061Y-71406500D01*
X66123310Y-71417393D01*
X66267057Y-71481393D01*
X66321153Y-71527373D01*
X66341802Y-71595300D01*
X66322450Y-71663608D01*
X66269239Y-71710610D01*
X66215808Y-71722500D01*
X65514350Y-71722500D01*
X65453803Y-71729009D01*
X65453795Y-71729011D01*
X65316797Y-71780110D01*
X65316792Y-71780112D01*
X65199738Y-71867738D01*
X65112112Y-71984792D01*
X65112110Y-71984797D01*
X65061011Y-72121795D01*
X65061009Y-72121803D01*
X65054500Y-72182350D01*
X65054500Y-76279649D01*
X65061009Y-76340196D01*
X65061011Y-76340204D01*
X65112110Y-76477202D01*
X65112112Y-76477207D01*
X65199738Y-76594261D01*
X65316792Y-76681887D01*
X65316794Y-76681888D01*
X65316796Y-76681889D01*
X65375875Y-76703924D01*
X65453795Y-76732988D01*
X65453803Y-76732990D01*
X65514350Y-76739499D01*
X65514355Y-76739499D01*
X65514362Y-76739500D01*
X65514368Y-76739500D01*
X67611632Y-76739500D01*
X67611638Y-76739500D01*
X67611645Y-76739499D01*
X67611649Y-76739499D01*
X67672196Y-76732990D01*
X67672199Y-76732989D01*
X67672201Y-76732989D01*
X67809204Y-76681889D01*
X67926261Y-76594261D01*
X67973632Y-76530981D01*
X68003632Y-76490906D01*
X68060468Y-76448359D01*
X68131283Y-76443295D01*
X68193595Y-76477320D01*
X68227621Y-76539632D01*
X68230500Y-76566415D01*
X68230500Y-77121649D01*
X68237009Y-77182196D01*
X68237011Y-77182204D01*
X68288110Y-77319202D01*
X68288112Y-77319207D01*
X68375738Y-77436261D01*
X68492792Y-77523887D01*
X68492794Y-77523888D01*
X68492796Y-77523889D01*
X68551875Y-77545924D01*
X68629795Y-77574988D01*
X68629803Y-77574990D01*
X68690350Y-77581499D01*
X68690355Y-77581499D01*
X68690362Y-77581500D01*
X68690368Y-77581500D01*
X72787632Y-77581500D01*
X72787638Y-77581500D01*
X72787645Y-77581499D01*
X72787649Y-77581499D01*
X72848196Y-77574990D01*
X72848199Y-77574989D01*
X72848201Y-77574989D01*
X72985204Y-77523889D01*
X73102261Y-77436261D01*
X73189889Y-77319204D01*
X73240989Y-77182201D01*
X73247500Y-77121638D01*
X73247500Y-75959371D01*
X73267502Y-75891250D01*
X73284405Y-75870276D01*
X73711096Y-75443585D01*
X74376166Y-74778515D01*
X74459174Y-74654284D01*
X74516351Y-74516246D01*
X74545500Y-74369705D01*
X74545500Y-74220295D01*
X74545500Y-55043294D01*
X74516351Y-54896754D01*
X74459174Y-54758716D01*
X74421983Y-54703056D01*
X74376166Y-54634485D01*
X74026329Y-54284648D01*
X73992306Y-54222338D01*
X73997370Y-54151523D01*
X74039917Y-54094687D01*
X74041365Y-54093619D01*
X74088446Y-54059412D01*
X74144253Y-54018866D01*
X74145068Y-54017961D01*
X74272034Y-53876951D01*
X74272035Y-53876949D01*
X74272040Y-53876944D01*
X74367527Y-53711556D01*
X74426542Y-53529928D01*
X74446504Y-53340000D01*
X74426542Y-53150072D01*
X74367527Y-52968444D01*
X74272040Y-52803056D01*
X74272038Y-52803054D01*
X74272034Y-52803048D01*
X74144255Y-52661135D01*
X73989752Y-52548882D01*
X73815288Y-52471206D01*
X73628487Y-52431500D01*
X73437513Y-52431500D01*
X73399697Y-52439538D01*
X73328906Y-52434136D01*
X73272274Y-52391319D01*
X73247780Y-52324682D01*
X73247500Y-52316291D01*
X73247500Y-52291367D01*
X73247499Y-52291350D01*
X73240990Y-52230803D01*
X73240988Y-52230795D01*
X73189889Y-52093797D01*
X73189887Y-52093792D01*
X73102261Y-51976738D01*
X72985207Y-51889112D01*
X72985202Y-51889110D01*
X72848204Y-51838011D01*
X72848196Y-51838009D01*
X72787649Y-51831500D01*
X72787638Y-51831500D01*
X68690362Y-51831500D01*
X68690350Y-51831500D01*
X68629803Y-51838009D01*
X68629795Y-51838011D01*
X68492797Y-51889110D01*
X68492792Y-51889112D01*
X68375738Y-51976738D01*
X68298368Y-52080093D01*
X68241532Y-52122640D01*
X68170716Y-52127704D01*
X68108404Y-52093679D01*
X68074379Y-52031367D01*
X68071500Y-52004584D01*
X68071500Y-49449367D01*
X68071499Y-49449350D01*
X68064990Y-49388803D01*
X68064988Y-49388795D01*
X68028648Y-49291367D01*
X68013889Y-49251796D01*
X68013888Y-49251794D01*
X68013887Y-49251792D01*
X67926261Y-49134738D01*
X67809207Y-49047112D01*
X67809202Y-49047110D01*
X67672204Y-48996011D01*
X67672196Y-48996009D01*
X67611649Y-48989500D01*
X67611638Y-48989500D01*
X65939594Y-48989500D01*
X65871473Y-48969498D01*
X65850499Y-48952595D01*
X65319402Y-48421498D01*
X65285376Y-48359186D01*
X65290441Y-48288371D01*
X65332988Y-48231535D01*
X65348511Y-48221599D01*
X65515576Y-48131189D01*
X65693240Y-47992906D01*
X65845722Y-47827268D01*
X65934518Y-47691354D01*
X65988520Y-47645268D01*
X66058868Y-47635692D01*
X66123225Y-47665669D01*
X66145480Y-47691353D01*
X66178607Y-47742058D01*
X66234275Y-47827265D01*
X66234279Y-47827270D01*
X66386762Y-47992908D01*
X66405510Y-48007500D01*
X66564424Y-48131189D01*
X66762426Y-48238342D01*
X66762427Y-48238342D01*
X66762428Y-48238343D01*
X66874227Y-48276723D01*
X66975365Y-48311444D01*
X67197431Y-48348500D01*
X67197435Y-48348500D01*
X67422565Y-48348500D01*
X67422569Y-48348500D01*
X67644635Y-48311444D01*
X67857574Y-48238342D01*
X68055576Y-48131189D01*
X68233240Y-47992906D01*
X68294245Y-47926637D01*
X68355096Y-47890067D01*
X68426061Y-47892200D01*
X68484606Y-47932362D01*
X68505000Y-47967941D01*
X68549111Y-48086204D01*
X68549112Y-48086207D01*
X68636738Y-48203261D01*
X68753792Y-48290887D01*
X68753794Y-48290888D01*
X68753796Y-48290889D01*
X68807600Y-48310957D01*
X68890795Y-48341988D01*
X68890803Y-48341990D01*
X68951350Y-48348499D01*
X68951355Y-48348499D01*
X68951362Y-48348500D01*
X68951368Y-48348500D01*
X70748632Y-48348500D01*
X70748638Y-48348500D01*
X70748645Y-48348499D01*
X70748649Y-48348499D01*
X70809196Y-48341990D01*
X70809199Y-48341989D01*
X70809201Y-48341989D01*
X70820942Y-48337610D01*
X70846862Y-48327942D01*
X70946204Y-48290889D01*
X70949782Y-48288211D01*
X71063261Y-48203261D01*
X71150887Y-48086207D01*
X71150887Y-48086206D01*
X71150889Y-48086204D01*
X71201989Y-47949201D01*
X71203800Y-47932362D01*
X71208499Y-47888649D01*
X71208500Y-47888632D01*
X71208500Y-46091367D01*
X71208499Y-46091350D01*
X71201990Y-46030803D01*
X71201988Y-46030795D01*
X71158531Y-45914285D01*
X71150889Y-45893796D01*
X71150888Y-45893794D01*
X71150887Y-45893792D01*
X71063261Y-45776738D01*
X70946207Y-45689112D01*
X70946202Y-45689110D01*
X70809204Y-45638011D01*
X70809196Y-45638009D01*
X70748649Y-45631500D01*
X70748638Y-45631500D01*
X68951362Y-45631500D01*
X68951350Y-45631500D01*
X68890803Y-45638009D01*
X68890795Y-45638011D01*
X68753797Y-45689110D01*
X68753792Y-45689112D01*
X68636738Y-45776738D01*
X68549112Y-45893792D01*
X68549111Y-45893795D01*
X68505000Y-46012058D01*
X68462453Y-46068893D01*
X68395932Y-46093703D01*
X68326558Y-46078611D01*
X68294246Y-46053363D01*
X68233240Y-45987094D01*
X68233239Y-45987093D01*
X68233237Y-45987091D01*
X68139688Y-45914279D01*
X68055576Y-45848811D01*
X67857574Y-45741658D01*
X67857572Y-45741657D01*
X67857571Y-45741656D01*
X67644639Y-45668557D01*
X67644630Y-45668555D01*
X67567029Y-45655606D01*
X67422569Y-45631500D01*
X67197431Y-45631500D01*
X67052971Y-45655606D01*
X66975369Y-45668555D01*
X66975360Y-45668557D01*
X66762428Y-45741656D01*
X66762426Y-45741658D01*
X66564426Y-45848810D01*
X66564424Y-45848811D01*
X66386762Y-45987091D01*
X66234279Y-46152729D01*
X66145483Y-46288643D01*
X66091479Y-46334731D01*
X66021131Y-46344306D01*
X65956774Y-46314329D01*
X65934517Y-46288643D01*
X65845720Y-46152729D01*
X65709080Y-46004301D01*
X65693240Y-45987094D01*
X65693239Y-45987093D01*
X65693237Y-45987091D01*
X65599688Y-45914279D01*
X65515576Y-45848811D01*
X65317574Y-45741658D01*
X65317572Y-45741657D01*
X65317571Y-45741656D01*
X65104639Y-45668557D01*
X65104630Y-45668555D01*
X65027029Y-45655606D01*
X64882569Y-45631500D01*
X64657431Y-45631500D01*
X64512971Y-45655606D01*
X64435369Y-45668555D01*
X64435360Y-45668557D01*
X64222428Y-45741656D01*
X64222426Y-45741658D01*
X64024426Y-45848810D01*
X64024424Y-45848811D01*
X63846762Y-45987091D01*
X63694279Y-46152729D01*
X63605483Y-46288643D01*
X63551479Y-46334731D01*
X63481131Y-46344306D01*
X63416774Y-46314329D01*
X63394517Y-46288643D01*
X63305720Y-46152729D01*
X63169080Y-46004301D01*
X63153240Y-45987094D01*
X63153239Y-45987093D01*
X63153237Y-45987091D01*
X63059688Y-45914279D01*
X62975576Y-45848811D01*
X62777574Y-45741658D01*
X62777572Y-45741657D01*
X62777571Y-45741656D01*
X62564639Y-45668557D01*
X62564630Y-45668555D01*
X62487029Y-45655606D01*
X62342569Y-45631500D01*
X62117431Y-45631500D01*
X61972971Y-45655606D01*
X61895369Y-45668555D01*
X61895360Y-45668557D01*
X61682428Y-45741656D01*
X61682426Y-45741658D01*
X61484426Y-45848810D01*
X61484424Y-45848811D01*
X61306762Y-45987091D01*
X61154279Y-46152729D01*
X61065483Y-46288643D01*
X61011479Y-46334731D01*
X60941131Y-46344306D01*
X60876774Y-46314329D01*
X60854517Y-46288643D01*
X60765720Y-46152729D01*
X60629080Y-46004301D01*
X60613240Y-45987094D01*
X60613239Y-45987093D01*
X60613237Y-45987091D01*
X60519688Y-45914279D01*
X60435576Y-45848811D01*
X60237574Y-45741658D01*
X60237572Y-45741657D01*
X60237571Y-45741656D01*
X60024639Y-45668557D01*
X60024630Y-45668555D01*
X59947029Y-45655606D01*
X59802569Y-45631500D01*
X59577431Y-45631500D01*
X59432971Y-45655606D01*
X59355369Y-45668555D01*
X59355360Y-45668557D01*
X59142428Y-45741656D01*
X59142426Y-45741658D01*
X59129288Y-45748768D01*
X59059857Y-45763598D01*
X58993431Y-45738537D01*
X58951098Y-45681542D01*
X58946300Y-45610708D01*
X58980559Y-45548524D01*
X58995258Y-45536018D01*
X59031253Y-45509866D01*
X59031255Y-45509864D01*
X59159034Y-45367951D01*
X59159035Y-45367949D01*
X59159040Y-45367944D01*
X59254527Y-45202556D01*
X59313542Y-45020928D01*
X59333504Y-44831000D01*
X59313542Y-44641072D01*
X59254527Y-44459444D01*
X59189997Y-44347675D01*
X59159042Y-44294059D01*
X59159041Y-44294058D01*
X59159040Y-44294056D01*
X59085863Y-44212784D01*
X59055146Y-44148776D01*
X59053500Y-44128474D01*
X59053500Y-42863607D01*
X59053499Y-42863603D01*
X59029155Y-42741215D01*
X58981400Y-42625925D01*
X58912071Y-42522167D01*
X58823833Y-42433929D01*
X52740405Y-36350501D01*
X52706379Y-36288189D01*
X52703500Y-36261406D01*
X52703500Y-32137500D01*
X52723502Y-32069379D01*
X52777158Y-32022886D01*
X52829500Y-32011500D01*
X52868632Y-32011500D01*
X52868638Y-32011500D01*
X52868645Y-32011499D01*
X52868649Y-32011499D01*
X52929196Y-32004990D01*
X52929199Y-32004989D01*
X52929201Y-32004989D01*
X53066204Y-31953889D01*
X53087781Y-31937737D01*
X53183261Y-31866261D01*
X53214588Y-31824413D01*
X53239132Y-31791625D01*
X53295967Y-31749079D01*
X53366783Y-31744014D01*
X53429095Y-31778039D01*
X53440866Y-31791624D01*
X53450417Y-31804383D01*
X53496738Y-31866261D01*
X53613792Y-31953887D01*
X53613794Y-31953888D01*
X53613796Y-31953889D01*
X53672875Y-31975924D01*
X53750795Y-32004988D01*
X53750803Y-32004990D01*
X53811350Y-32011499D01*
X53811355Y-32011499D01*
X53811362Y-32011500D01*
X53811368Y-32011500D01*
X55408632Y-32011500D01*
X55408638Y-32011500D01*
X55408645Y-32011499D01*
X55408649Y-32011499D01*
X55469196Y-32004990D01*
X55469199Y-32004989D01*
X55469201Y-32004989D01*
X55606204Y-31953889D01*
X55627781Y-31937737D01*
X55723261Y-31866261D01*
X55754588Y-31824413D01*
X55779132Y-31791625D01*
X55835967Y-31749079D01*
X55906783Y-31744014D01*
X55969095Y-31778039D01*
X55980866Y-31791624D01*
X55990417Y-31804383D01*
X56036738Y-31866261D01*
X56153792Y-31953887D01*
X56153794Y-31953888D01*
X56153796Y-31953889D01*
X56212875Y-31975924D01*
X56290795Y-32004988D01*
X56290803Y-32004990D01*
X56351350Y-32011499D01*
X56351355Y-32011499D01*
X56351362Y-32011500D01*
X56351368Y-32011500D01*
X57948632Y-32011500D01*
X57948638Y-32011500D01*
X57948645Y-32011499D01*
X57948649Y-32011499D01*
X58009196Y-32004990D01*
X58009199Y-32004989D01*
X58009201Y-32004989D01*
X58146204Y-31953889D01*
X58167781Y-31937737D01*
X58263261Y-31866261D01*
X58350887Y-31749207D01*
X58350888Y-31749205D01*
X58350889Y-31749204D01*
X58401989Y-31612201D01*
X58403448Y-31598636D01*
X58408499Y-31551649D01*
X58408500Y-31551632D01*
X58408500Y-30454367D01*
X58408499Y-30454350D01*
X58401989Y-30393798D01*
X58400177Y-30386129D01*
X58402379Y-30385608D01*
X58398130Y-30326220D01*
X58400930Y-30316682D01*
X58401989Y-30312201D01*
X58408499Y-30251649D01*
X58408500Y-30251632D01*
X58408500Y-29154367D01*
X58408499Y-29154350D01*
X58401990Y-29093803D01*
X58401988Y-29093795D01*
X58357119Y-28973500D01*
X58350889Y-28956796D01*
X58350888Y-28956794D01*
X58350887Y-28956792D01*
X58263261Y-28839738D01*
X58146207Y-28752112D01*
X58146202Y-28752110D01*
X58009204Y-28701011D01*
X58009196Y-28701009D01*
X57948649Y-28694500D01*
X57948638Y-28694500D01*
X57909500Y-28694500D01*
X57841379Y-28674498D01*
X57794886Y-28620842D01*
X57783500Y-28568500D01*
X57783500Y-28065962D01*
X72059500Y-28065962D01*
X72098910Y-28314785D01*
X72098911Y-28314790D01*
X72163519Y-28513632D01*
X72176759Y-28554379D01*
X72291130Y-28778845D01*
X72439207Y-28982656D01*
X72439209Y-28982658D01*
X72439211Y-28982661D01*
X72617338Y-29160788D01*
X72617341Y-29160790D01*
X72617344Y-29160793D01*
X72821155Y-29308870D01*
X73045621Y-29423241D01*
X73285215Y-29501090D01*
X73534038Y-29540500D01*
X73534041Y-29540500D01*
X73785959Y-29540500D01*
X73785962Y-29540500D01*
X74034785Y-29501090D01*
X74274379Y-29423241D01*
X74498845Y-29308870D01*
X74702656Y-29160793D01*
X74880793Y-28982656D01*
X75028870Y-28778845D01*
X75143241Y-28554379D01*
X75221090Y-28314785D01*
X75260500Y-28065962D01*
X75260500Y-27814038D01*
X75221090Y-27565215D01*
X75143241Y-27325621D01*
X75028870Y-27101155D01*
X74880793Y-26897344D01*
X74880790Y-26897341D01*
X74880788Y-26897338D01*
X74702661Y-26719211D01*
X74702658Y-26719209D01*
X74702656Y-26719207D01*
X74498845Y-26571130D01*
X74274379Y-26456759D01*
X74274376Y-26456758D01*
X74274374Y-26456757D01*
X74034790Y-26378911D01*
X74034786Y-26378910D01*
X74034785Y-26378910D01*
X73785962Y-26339500D01*
X73534038Y-26339500D01*
X73285215Y-26378910D01*
X73285209Y-26378911D01*
X73045625Y-26456757D01*
X73045619Y-26456760D01*
X72821151Y-26571132D01*
X72617341Y-26719209D01*
X72617338Y-26719211D01*
X72439211Y-26897338D01*
X72439209Y-26897341D01*
X72291132Y-27101151D01*
X72176760Y-27325619D01*
X72176757Y-27325625D01*
X72098911Y-27565209D01*
X72098910Y-27565214D01*
X72098910Y-27565215D01*
X72059500Y-27814038D01*
X72059500Y-28065962D01*
X57783500Y-28065962D01*
X57783500Y-27946920D01*
X57803502Y-27878799D01*
X57849527Y-27836108D01*
X57895576Y-27811189D01*
X58073240Y-27672906D01*
X58225722Y-27507268D01*
X58314518Y-27371354D01*
X58368520Y-27325268D01*
X58438868Y-27315692D01*
X58503225Y-27345669D01*
X58525480Y-27371353D01*
X58539295Y-27392498D01*
X58614275Y-27507265D01*
X58614279Y-27507270D01*
X58766762Y-27672908D01*
X58821331Y-27715381D01*
X58944424Y-27811189D01*
X59142426Y-27918342D01*
X59142427Y-27918342D01*
X59142428Y-27918343D01*
X59233023Y-27949444D01*
X59355365Y-27991444D01*
X59577431Y-28028500D01*
X59577435Y-28028500D01*
X59802565Y-28028500D01*
X59802569Y-28028500D01*
X60024635Y-27991444D01*
X60237574Y-27918342D01*
X60435576Y-27811189D01*
X60613240Y-27672906D01*
X60765722Y-27507268D01*
X60854518Y-27371354D01*
X60908520Y-27325268D01*
X60978868Y-27315692D01*
X61043225Y-27345669D01*
X61065480Y-27371353D01*
X61079295Y-27392498D01*
X61154275Y-27507265D01*
X61154279Y-27507270D01*
X61306762Y-27672908D01*
X61361331Y-27715381D01*
X61484424Y-27811189D01*
X61682426Y-27918342D01*
X61682427Y-27918342D01*
X61682428Y-27918343D01*
X61773023Y-27949444D01*
X61895365Y-27991444D01*
X62117431Y-28028500D01*
X62117435Y-28028500D01*
X62342565Y-28028500D01*
X62342569Y-28028500D01*
X62564635Y-27991444D01*
X62777574Y-27918342D01*
X62975576Y-27811189D01*
X63153240Y-27672906D01*
X63305722Y-27507268D01*
X63394518Y-27371354D01*
X63448520Y-27325268D01*
X63518868Y-27315692D01*
X63583225Y-27345669D01*
X63605480Y-27371353D01*
X63619295Y-27392498D01*
X63694275Y-27507265D01*
X63694279Y-27507270D01*
X63846762Y-27672908D01*
X63901331Y-27715381D01*
X64024424Y-27811189D01*
X64222426Y-27918342D01*
X64222427Y-27918342D01*
X64222428Y-27918343D01*
X64313023Y-27949444D01*
X64435365Y-27991444D01*
X64657431Y-28028500D01*
X64657435Y-28028500D01*
X64882565Y-28028500D01*
X64882569Y-28028500D01*
X65104635Y-27991444D01*
X65317574Y-27918342D01*
X65515576Y-27811189D01*
X65693240Y-27672906D01*
X65845722Y-27507268D01*
X65934518Y-27371354D01*
X65988520Y-27325268D01*
X66058868Y-27315692D01*
X66123225Y-27345669D01*
X66145480Y-27371353D01*
X66159295Y-27392498D01*
X66234275Y-27507265D01*
X66234279Y-27507270D01*
X66386762Y-27672908D01*
X66441331Y-27715381D01*
X66564424Y-27811189D01*
X66762426Y-27918342D01*
X66762427Y-27918342D01*
X66762428Y-27918343D01*
X66853023Y-27949444D01*
X66975365Y-27991444D01*
X67197431Y-28028500D01*
X67197435Y-28028500D01*
X67422565Y-28028500D01*
X67422569Y-28028500D01*
X67644635Y-27991444D01*
X67857574Y-27918342D01*
X68055576Y-27811189D01*
X68233240Y-27672906D01*
X68294245Y-27606637D01*
X68355096Y-27570067D01*
X68426061Y-27572200D01*
X68484606Y-27612362D01*
X68505000Y-27647941D01*
X68549111Y-27766204D01*
X68549112Y-27766207D01*
X68636738Y-27883261D01*
X68753792Y-27970887D01*
X68753794Y-27970888D01*
X68753796Y-27970889D01*
X68808900Y-27991442D01*
X68890795Y-28021988D01*
X68890803Y-28021990D01*
X68951350Y-28028499D01*
X68951355Y-28028499D01*
X68951362Y-28028500D01*
X68951368Y-28028500D01*
X70748632Y-28028500D01*
X70748638Y-28028500D01*
X70748645Y-28028499D01*
X70748649Y-28028499D01*
X70809196Y-28021990D01*
X70809199Y-28021989D01*
X70809201Y-28021989D01*
X70946204Y-27970889D01*
X71016399Y-27918342D01*
X71063261Y-27883261D01*
X71150887Y-27766207D01*
X71150887Y-27766206D01*
X71150889Y-27766204D01*
X71201989Y-27629201D01*
X71202743Y-27622194D01*
X71208499Y-27568649D01*
X71208500Y-27568632D01*
X71208500Y-25771367D01*
X71208499Y-25771350D01*
X71201990Y-25710803D01*
X71201989Y-25710802D01*
X71201989Y-25710799D01*
X71186969Y-25670531D01*
X71181905Y-25599717D01*
X71215930Y-25537405D01*
X71278243Y-25503380D01*
X71305026Y-25500500D01*
X73633071Y-25500500D01*
X73656194Y-25500500D01*
X73663801Y-25500730D01*
X73690954Y-25502372D01*
X73946452Y-25517827D01*
X73961534Y-25519658D01*
X74236316Y-25570013D01*
X74251078Y-25573651D01*
X74517791Y-25656763D01*
X74532011Y-25662156D01*
X74642398Y-25711838D01*
X74786740Y-25776801D01*
X74800206Y-25783867D01*
X75039283Y-25928395D01*
X75051782Y-25937022D01*
X75271698Y-26109315D01*
X75283078Y-26119398D01*
X75480601Y-26316921D01*
X75490685Y-26328302D01*
X75662974Y-26548214D01*
X75671606Y-26560719D01*
X75732064Y-26660728D01*
X75816128Y-26799787D01*
X75823198Y-26813259D01*
X75937841Y-27067985D01*
X75943237Y-27082211D01*
X76026346Y-27348915D01*
X76029987Y-27363689D01*
X76080339Y-27638454D01*
X76082173Y-27653558D01*
X76099270Y-27936197D01*
X76099500Y-27943805D01*
X76099500Y-93976194D01*
X76099270Y-93983802D01*
X76082173Y-94266441D01*
X76080339Y-94281545D01*
X76029987Y-94556310D01*
X76026346Y-94571084D01*
X75943237Y-94837788D01*
X75937841Y-94852014D01*
X75823198Y-95106740D01*
X75816128Y-95120212D01*
X75671611Y-95359273D01*
X75662967Y-95371796D01*
X75490691Y-95591690D01*
X75480601Y-95603078D01*
X75283078Y-95800601D01*
X75271690Y-95810691D01*
X75051796Y-95982967D01*
X75039273Y-95991611D01*
X74800212Y-96136128D01*
X74786740Y-96143198D01*
X74532014Y-96257841D01*
X74517788Y-96263237D01*
X74251084Y-96346346D01*
X74236310Y-96349987D01*
X73961545Y-96400339D01*
X73946441Y-96402173D01*
X73663802Y-96419270D01*
X73656194Y-96419500D01*
X27943806Y-96419500D01*
X27936198Y-96419270D01*
X27653558Y-96402173D01*
X27638454Y-96400339D01*
X27363689Y-96349987D01*
X27348915Y-96346346D01*
X27082211Y-96263237D01*
X27067985Y-96257841D01*
X26813259Y-96143198D01*
X26799787Y-96136128D01*
X26560719Y-95991606D01*
X26548214Y-95982974D01*
X26328302Y-95810685D01*
X26316921Y-95800601D01*
X26119398Y-95603078D01*
X26109315Y-95591698D01*
X25937022Y-95371782D01*
X25928395Y-95359283D01*
X25783867Y-95120206D01*
X25776801Y-95106740D01*
X25662158Y-94852014D01*
X25656762Y-94837788D01*
X25617607Y-94712136D01*
X25573651Y-94571078D01*
X25570012Y-94556310D01*
X25545582Y-94422997D01*
X25519658Y-94281534D01*
X25517827Y-94266452D01*
X25508119Y-94105962D01*
X26339500Y-94105962D01*
X26368806Y-94290989D01*
X26378911Y-94354790D01*
X26449190Y-94571084D01*
X26456759Y-94594379D01*
X26571130Y-94818845D01*
X26571132Y-94818848D01*
X26595229Y-94852014D01*
X26719207Y-95022656D01*
X26719209Y-95022658D01*
X26719211Y-95022661D01*
X26897338Y-95200788D01*
X26897341Y-95200790D01*
X26897344Y-95200793D01*
X27101155Y-95348870D01*
X27325621Y-95463241D01*
X27565215Y-95541090D01*
X27814038Y-95580500D01*
X27814041Y-95580500D01*
X28065959Y-95580500D01*
X28065962Y-95580500D01*
X28314785Y-95541090D01*
X28554379Y-95463241D01*
X28778845Y-95348870D01*
X28982656Y-95200793D01*
X29160793Y-95022656D01*
X29308870Y-94818845D01*
X29423241Y-94594379D01*
X29501090Y-94354785D01*
X29540500Y-94105962D01*
X29540500Y-93854038D01*
X29501090Y-93605215D01*
X29423241Y-93365621D01*
X29308870Y-93141155D01*
X29160793Y-92937344D01*
X29160790Y-92937341D01*
X29160788Y-92937338D01*
X28982661Y-92759211D01*
X28982658Y-92759209D01*
X28982656Y-92759207D01*
X28778845Y-92611130D01*
X28554379Y-92496759D01*
X28554376Y-92496758D01*
X28554374Y-92496757D01*
X28314790Y-92418911D01*
X28314786Y-92418910D01*
X28314785Y-92418910D01*
X28065962Y-92379500D01*
X27814038Y-92379500D01*
X27565215Y-92418910D01*
X27565209Y-92418911D01*
X27325625Y-92496757D01*
X27325619Y-92496760D01*
X27101151Y-92611132D01*
X26897341Y-92759209D01*
X26897338Y-92759211D01*
X26719211Y-92937338D01*
X26719209Y-92937341D01*
X26571132Y-93141151D01*
X26456760Y-93365619D01*
X26456757Y-93365625D01*
X26378911Y-93605209D01*
X26378910Y-93605214D01*
X26378910Y-93605215D01*
X26339500Y-93854038D01*
X26339500Y-94105962D01*
X25508119Y-94105962D01*
X25500730Y-93983801D01*
X25500500Y-93976194D01*
X25500500Y-85471000D01*
X26588000Y-85471000D01*
X26588000Y-85515852D01*
X26598255Y-85616229D01*
X26598257Y-85616241D01*
X26652152Y-85778884D01*
X26742109Y-85924728D01*
X26742114Y-85924734D01*
X26863265Y-86045885D01*
X26863271Y-86045890D01*
X27009115Y-86135847D01*
X27171758Y-86189742D01*
X27171770Y-86189744D01*
X27272147Y-86199999D01*
X27272147Y-86200000D01*
X27292000Y-86200000D01*
X27800000Y-86200000D01*
X27819853Y-86200000D01*
X27819852Y-86199999D01*
X27920229Y-86189744D01*
X27920234Y-86189743D01*
X27954052Y-86178537D01*
X28025007Y-86176096D01*
X28086018Y-86212403D01*
X28117714Y-86275931D01*
X28113293Y-86337770D01*
X28109675Y-86348687D01*
X28099500Y-86448280D01*
X28099500Y-86982710D01*
X28109675Y-87082309D01*
X28109676Y-87082314D01*
X28163151Y-87243692D01*
X28252400Y-87388387D01*
X28252405Y-87388393D01*
X28277917Y-87413905D01*
X28311943Y-87476217D01*
X28306878Y-87547032D01*
X28277917Y-87592095D01*
X28252405Y-87617606D01*
X28252400Y-87617612D01*
X28163151Y-87762307D01*
X28109675Y-87923690D01*
X28099500Y-88023280D01*
X28099500Y-88557710D01*
X28109675Y-88657309D01*
X28109676Y-88657314D01*
X28137197Y-88740367D01*
X28163151Y-88818692D01*
X28252400Y-88963387D01*
X28252405Y-88963393D01*
X28301255Y-89012243D01*
X28335281Y-89074555D01*
X28330216Y-89145370D01*
X28321280Y-89164337D01*
X28248474Y-89290441D01*
X28248473Y-89290445D01*
X28189457Y-89472072D01*
X28169496Y-89662000D01*
X28189457Y-89851927D01*
X28219526Y-89944470D01*
X28248473Y-90033556D01*
X28248476Y-90033561D01*
X28343958Y-90198941D01*
X28343965Y-90198951D01*
X28471744Y-90340864D01*
X28471747Y-90340866D01*
X28626248Y-90453118D01*
X28800712Y-90530794D01*
X28987513Y-90570500D01*
X29178487Y-90570500D01*
X29365288Y-90530794D01*
X29539752Y-90453118D01*
X29694253Y-90340866D01*
X29822040Y-90198944D01*
X29917527Y-90033556D01*
X29976542Y-89851928D01*
X29996504Y-89662000D01*
X29976542Y-89472072D01*
X29917527Y-89290444D01*
X29869081Y-89206533D01*
X29844720Y-89164338D01*
X29827982Y-89095343D01*
X29851203Y-89028251D01*
X29864738Y-89012248D01*
X29913600Y-88963387D01*
X30002849Y-88818692D01*
X30056324Y-88657314D01*
X30066500Y-88557711D01*
X30066499Y-88023290D01*
X30056324Y-87923686D01*
X30002849Y-87762308D01*
X29913600Y-87617613D01*
X29888081Y-87592094D01*
X29854057Y-87529785D01*
X29859121Y-87458969D01*
X29888081Y-87413905D01*
X29913600Y-87388387D01*
X30002849Y-87243692D01*
X30056324Y-87082314D01*
X30066500Y-86982711D01*
X30066499Y-86448290D01*
X30056324Y-86348686D01*
X30002849Y-86187308D01*
X29913600Y-86042613D01*
X29913598Y-86042611D01*
X29911482Y-86039180D01*
X29892745Y-85970701D01*
X29911481Y-85906887D01*
X29990302Y-85779101D01*
X30044236Y-85616336D01*
X30047035Y-85588936D01*
X30054500Y-85515880D01*
X30054500Y-84918119D01*
X30044247Y-84817770D01*
X30044236Y-84817664D01*
X29990302Y-84654899D01*
X29911482Y-84527113D01*
X29892745Y-84458634D01*
X29911482Y-84394819D01*
X29913597Y-84391389D01*
X29913600Y-84391387D01*
X30002849Y-84246692D01*
X30056324Y-84085314D01*
X30066500Y-83985711D01*
X30066499Y-83451290D01*
X30056324Y-83351686D01*
X30002849Y-83190308D01*
X29913600Y-83045613D01*
X29888081Y-83020094D01*
X29854057Y-82957785D01*
X29859121Y-82886969D01*
X29888081Y-82841905D01*
X29913600Y-82816387D01*
X30002849Y-82671692D01*
X30056324Y-82510314D01*
X30066500Y-82410711D01*
X30066499Y-81876290D01*
X30056324Y-81776686D01*
X30002849Y-81615308D01*
X29913600Y-81470613D01*
X29913598Y-81470611D01*
X29911482Y-81467180D01*
X29892745Y-81398701D01*
X29911481Y-81334887D01*
X29990302Y-81207101D01*
X30044236Y-81044336D01*
X30047035Y-81016936D01*
X30054500Y-80943880D01*
X30054500Y-80346119D01*
X30044247Y-80245770D01*
X30044236Y-80245664D01*
X29990302Y-80082899D01*
X29911482Y-79955113D01*
X29892745Y-79886634D01*
X29911482Y-79822819D01*
X29913597Y-79819389D01*
X29913600Y-79819387D01*
X30002849Y-79674692D01*
X30056324Y-79513314D01*
X30066500Y-79413711D01*
X30066499Y-78879290D01*
X30056324Y-78779686D01*
X30002849Y-78618308D01*
X29913600Y-78473613D01*
X29888081Y-78448094D01*
X29854057Y-78385785D01*
X29859121Y-78314969D01*
X29888081Y-78269905D01*
X29913600Y-78244387D01*
X30002849Y-78099692D01*
X30056324Y-77938314D01*
X30066500Y-77838711D01*
X30066499Y-77304290D01*
X30056324Y-77204686D01*
X30002849Y-77043308D01*
X29913600Y-76898613D01*
X29913599Y-76898612D01*
X29913594Y-76898606D01*
X29892950Y-76877962D01*
X29858924Y-76815650D01*
X29863989Y-76744835D01*
X29906536Y-76687999D01*
X29946261Y-76658261D01*
X30033887Y-76541207D01*
X30033887Y-76541206D01*
X30033889Y-76541204D01*
X30084989Y-76404201D01*
X30091500Y-76343638D01*
X30091500Y-76029000D01*
X30111502Y-75960879D01*
X30165158Y-75914386D01*
X30217500Y-75903000D01*
X30304000Y-75903000D01*
X30304000Y-74549000D01*
X30812000Y-74549000D01*
X30812000Y-75903000D01*
X31131585Y-75903000D01*
X31131597Y-75902999D01*
X31192093Y-75896494D01*
X31328964Y-75845444D01*
X31328965Y-75845444D01*
X31445904Y-75757904D01*
X31533444Y-75640965D01*
X31533444Y-75640964D01*
X31584494Y-75504093D01*
X31590999Y-75443597D01*
X31591000Y-75443585D01*
X31591000Y-74549000D01*
X30812000Y-74549000D01*
X30304000Y-74549000D01*
X29525000Y-74549000D01*
X29525000Y-74660500D01*
X29504998Y-74728621D01*
X29451342Y-74775114D01*
X29399000Y-74786500D01*
X28767000Y-74786500D01*
X28698879Y-74766498D01*
X28652386Y-74712842D01*
X28641000Y-74660500D01*
X28641000Y-74549000D01*
X27862000Y-74549000D01*
X27862000Y-75903000D01*
X27948500Y-75903000D01*
X28016621Y-75923002D01*
X28063114Y-75976658D01*
X28074500Y-76029000D01*
X28074500Y-76343649D01*
X28081009Y-76404196D01*
X28081011Y-76404204D01*
X28132110Y-76541202D01*
X28132112Y-76541207D01*
X28219737Y-76658259D01*
X28219738Y-76658259D01*
X28219739Y-76658261D01*
X28249859Y-76680809D01*
X28259464Y-76687999D01*
X28302010Y-76744836D01*
X28307074Y-76815651D01*
X28273051Y-76877961D01*
X28252400Y-76898612D01*
X28163151Y-77043307D01*
X28163151Y-77043308D01*
X28117129Y-77182196D01*
X28109675Y-77204690D01*
X28099500Y-77304280D01*
X28099500Y-77838710D01*
X28109675Y-77938309D01*
X28109676Y-77938314D01*
X28163151Y-78099692D01*
X28252400Y-78244387D01*
X28252405Y-78244393D01*
X28277917Y-78269905D01*
X28311943Y-78332217D01*
X28306878Y-78403032D01*
X28277917Y-78448095D01*
X28252405Y-78473606D01*
X28252400Y-78473612D01*
X28163151Y-78618307D01*
X28109675Y-78779690D01*
X28099500Y-78879280D01*
X28099500Y-79413710D01*
X28109675Y-79513312D01*
X28109675Y-79513313D01*
X28113292Y-79524227D01*
X28115731Y-79595182D01*
X28079422Y-79656192D01*
X28015893Y-79687886D01*
X27954055Y-79683463D01*
X27920236Y-79672256D01*
X27920229Y-79672255D01*
X27819852Y-79662000D01*
X27800000Y-79662000D01*
X27800000Y-81628000D01*
X27819853Y-81628000D01*
X27819852Y-81627999D01*
X27920229Y-81617744D01*
X27920234Y-81617743D01*
X27954052Y-81606537D01*
X28025007Y-81604096D01*
X28086018Y-81640403D01*
X28117714Y-81703931D01*
X28113293Y-81765770D01*
X28109675Y-81776687D01*
X28099500Y-81876280D01*
X28099500Y-82410710D01*
X28109675Y-82510309D01*
X28109676Y-82510314D01*
X28163151Y-82671692D01*
X28252400Y-82816387D01*
X28252405Y-82816393D01*
X28277917Y-82841905D01*
X28311943Y-82904217D01*
X28306878Y-82975032D01*
X28277917Y-83020095D01*
X28252405Y-83045606D01*
X28252400Y-83045612D01*
X28163151Y-83190307D01*
X28109675Y-83351690D01*
X28099500Y-83451280D01*
X28099500Y-83985710D01*
X28109675Y-84085312D01*
X28109675Y-84085313D01*
X28113292Y-84096227D01*
X28115731Y-84167182D01*
X28079422Y-84228192D01*
X28015893Y-84259886D01*
X27954055Y-84255463D01*
X27920236Y-84244256D01*
X27920229Y-84244255D01*
X27819852Y-84234000D01*
X27800000Y-84234000D01*
X27800000Y-86200000D01*
X27292000Y-86200000D01*
X27292000Y-85471000D01*
X26588000Y-85471000D01*
X25500500Y-85471000D01*
X25500500Y-84963000D01*
X26588000Y-84963000D01*
X27292000Y-84963000D01*
X27292000Y-84234000D01*
X27272147Y-84234000D01*
X27171770Y-84244255D01*
X27171758Y-84244257D01*
X27009115Y-84298152D01*
X26863271Y-84388109D01*
X26863265Y-84388114D01*
X26742114Y-84509265D01*
X26742109Y-84509271D01*
X26652152Y-84655115D01*
X26598257Y-84817758D01*
X26598255Y-84817770D01*
X26588000Y-84918147D01*
X26588000Y-84963000D01*
X25500500Y-84963000D01*
X25500500Y-80899000D01*
X26588000Y-80899000D01*
X26588000Y-80943852D01*
X26598255Y-81044229D01*
X26598257Y-81044241D01*
X26652152Y-81206884D01*
X26742109Y-81352728D01*
X26742114Y-81352734D01*
X26863265Y-81473885D01*
X26863271Y-81473890D01*
X27009115Y-81563847D01*
X27171758Y-81617742D01*
X27171770Y-81617744D01*
X27272147Y-81627999D01*
X27272147Y-81628000D01*
X27292000Y-81628000D01*
X27292000Y-80899000D01*
X26588000Y-80899000D01*
X25500500Y-80899000D01*
X25500500Y-80391000D01*
X26588000Y-80391000D01*
X27292000Y-80391000D01*
X27292000Y-79662000D01*
X27272147Y-79662000D01*
X27171770Y-79672255D01*
X27171758Y-79672257D01*
X27009115Y-79726152D01*
X26863271Y-79816109D01*
X26863265Y-79816114D01*
X26742114Y-79937265D01*
X26742109Y-79937271D01*
X26652152Y-80083115D01*
X26598257Y-80245758D01*
X26598255Y-80245770D01*
X26588000Y-80346147D01*
X26588000Y-80391000D01*
X25500500Y-80391000D01*
X25500500Y-74549000D01*
X26575000Y-74549000D01*
X26575000Y-75443597D01*
X26581505Y-75504093D01*
X26632555Y-75640964D01*
X26632555Y-75640965D01*
X26720095Y-75757904D01*
X26837034Y-75845444D01*
X26973906Y-75896494D01*
X27034402Y-75902999D01*
X27034415Y-75903000D01*
X27354000Y-75903000D01*
X27354000Y-74549000D01*
X26575000Y-74549000D01*
X25500500Y-74549000D01*
X25500500Y-74041000D01*
X26575000Y-74041000D01*
X27354000Y-74041000D01*
X27862000Y-74041000D01*
X28641000Y-74041000D01*
X28641000Y-73929000D01*
X28661002Y-73860879D01*
X28714658Y-73814386D01*
X28767000Y-73803000D01*
X28829000Y-73803000D01*
X28829000Y-71787000D01*
X29337000Y-71787000D01*
X29337000Y-73803000D01*
X29399000Y-73803000D01*
X29467121Y-73823002D01*
X29513614Y-73876658D01*
X29525000Y-73929000D01*
X29525000Y-74041000D01*
X30304000Y-74041000D01*
X30304000Y-72687000D01*
X30812000Y-72687000D01*
X30812000Y-74041000D01*
X31591000Y-74041000D01*
X31591000Y-73146414D01*
X31590999Y-73146402D01*
X31584494Y-73085906D01*
X31533444Y-72949035D01*
X31533444Y-72949034D01*
X31445904Y-72832095D01*
X31328965Y-72744555D01*
X31192093Y-72693505D01*
X31131597Y-72687000D01*
X30812000Y-72687000D01*
X30304000Y-72687000D01*
X30217000Y-72687000D01*
X30148879Y-72666998D01*
X30102386Y-72613342D01*
X30091000Y-72561000D01*
X30091000Y-72246414D01*
X30090999Y-72246402D01*
X30084494Y-72185906D01*
X30033444Y-72049035D01*
X30033444Y-72049034D01*
X29945904Y-71932095D01*
X29828965Y-71844555D01*
X29692093Y-71793505D01*
X29631597Y-71787000D01*
X29337000Y-71787000D01*
X28829000Y-71787000D01*
X28534402Y-71787000D01*
X28473906Y-71793505D01*
X28337035Y-71844555D01*
X28337034Y-71844555D01*
X28220095Y-71932095D01*
X28132555Y-72049034D01*
X28132555Y-72049035D01*
X28081505Y-72185906D01*
X28075000Y-72246402D01*
X28075000Y-72561000D01*
X28054998Y-72629121D01*
X28001342Y-72675614D01*
X27949000Y-72687000D01*
X27862000Y-72687000D01*
X27862000Y-74041000D01*
X27354000Y-74041000D01*
X27354000Y-72687000D01*
X27034402Y-72687000D01*
X26973906Y-72693505D01*
X26837035Y-72744555D01*
X26837034Y-72744555D01*
X26720095Y-72832095D01*
X26632555Y-72949034D01*
X26632555Y-72949035D01*
X26581505Y-73085906D01*
X26575000Y-73146402D01*
X26575000Y-74041000D01*
X25500500Y-74041000D01*
X25500500Y-62611000D01*
X26588000Y-62611000D01*
X26588000Y-62655852D01*
X26598255Y-62756229D01*
X26598257Y-62756241D01*
X26652152Y-62918884D01*
X26742109Y-63064728D01*
X26742114Y-63064734D01*
X26863265Y-63185885D01*
X26863271Y-63185890D01*
X27009115Y-63275847D01*
X27171758Y-63329742D01*
X27171770Y-63329744D01*
X27272147Y-63339999D01*
X27272147Y-63340000D01*
X27292000Y-63340000D01*
X27800000Y-63340000D01*
X27819853Y-63340000D01*
X27819852Y-63339999D01*
X27920229Y-63329744D01*
X27920234Y-63329743D01*
X27954052Y-63318537D01*
X28025007Y-63316096D01*
X28086018Y-63352403D01*
X28117714Y-63415931D01*
X28113293Y-63477770D01*
X28109675Y-63488687D01*
X28099500Y-63588280D01*
X28099500Y-64122710D01*
X28109675Y-64222309D01*
X28109676Y-64222314D01*
X28142005Y-64319876D01*
X28163151Y-64383692D01*
X28252400Y-64528387D01*
X28252405Y-64528393D01*
X28277917Y-64553905D01*
X28311943Y-64616217D01*
X28306878Y-64687032D01*
X28277917Y-64732095D01*
X28252405Y-64757606D01*
X28252400Y-64757612D01*
X28163151Y-64902307D01*
X28109675Y-65063690D01*
X28099500Y-65163280D01*
X28099500Y-65697710D01*
X28108786Y-65788603D01*
X28109676Y-65797314D01*
X28159209Y-65946795D01*
X28163151Y-65958692D01*
X28252400Y-66103387D01*
X28252405Y-66103393D01*
X28254770Y-66105758D01*
X28255875Y-66107781D01*
X28256953Y-66109145D01*
X28256720Y-66109329D01*
X28288796Y-66168070D01*
X28283731Y-66238885D01*
X28274795Y-66257852D01*
X28248472Y-66303444D01*
X28248470Y-66303449D01*
X28189457Y-66485071D01*
X28169496Y-66675000D01*
X28189457Y-66864927D01*
X28218050Y-66952923D01*
X28248473Y-67046556D01*
X28248476Y-67046561D01*
X28343958Y-67211941D01*
X28343965Y-67211951D01*
X28471744Y-67353864D01*
X28471747Y-67353866D01*
X28626248Y-67466118D01*
X28800712Y-67543794D01*
X28987513Y-67583500D01*
X29178487Y-67583500D01*
X29365288Y-67543794D01*
X29539752Y-67466118D01*
X29694253Y-67353866D01*
X29822040Y-67211944D01*
X29917527Y-67046556D01*
X29976542Y-66864928D01*
X29996504Y-66675000D01*
X29976542Y-66485072D01*
X29917527Y-66303444D01*
X29891204Y-66257852D01*
X29874467Y-66188859D01*
X29897687Y-66121767D01*
X29911228Y-66105758D01*
X29913600Y-66103387D01*
X30002849Y-65958692D01*
X30056324Y-65797314D01*
X30066500Y-65697711D01*
X30066499Y-65163290D01*
X30056324Y-65063686D01*
X30002849Y-64902308D01*
X29913600Y-64757613D01*
X29888081Y-64732094D01*
X29854057Y-64669785D01*
X29859121Y-64598969D01*
X29888081Y-64553905D01*
X29913600Y-64528387D01*
X30002849Y-64383692D01*
X30056324Y-64222314D01*
X30066500Y-64122711D01*
X30066499Y-63588290D01*
X30056324Y-63488686D01*
X30002849Y-63327308D01*
X29913600Y-63182613D01*
X29913598Y-63182611D01*
X29911482Y-63179180D01*
X29892745Y-63110701D01*
X29911481Y-63046887D01*
X29990302Y-62919101D01*
X30044236Y-62756336D01*
X30047035Y-62728936D01*
X30054500Y-62655880D01*
X30054500Y-62058119D01*
X30044247Y-61957770D01*
X30044236Y-61957664D01*
X29990302Y-61794899D01*
X29911482Y-61667113D01*
X29892745Y-61598634D01*
X29911482Y-61534819D01*
X29913597Y-61531389D01*
X29913600Y-61531387D01*
X30002849Y-61386692D01*
X30056324Y-61225314D01*
X30066500Y-61125711D01*
X30066499Y-60591290D01*
X30056324Y-60491686D01*
X30002849Y-60330308D01*
X29913600Y-60185613D01*
X29888081Y-60160094D01*
X29854057Y-60097785D01*
X29859121Y-60026969D01*
X29888081Y-59981905D01*
X29913600Y-59956387D01*
X30002849Y-59811692D01*
X30056324Y-59650314D01*
X30066500Y-59550711D01*
X30066499Y-59016290D01*
X30056324Y-58916686D01*
X30002849Y-58755308D01*
X29913600Y-58610613D01*
X29913598Y-58610611D01*
X29911482Y-58607180D01*
X29892745Y-58538701D01*
X29911481Y-58474887D01*
X29990302Y-58347101D01*
X30044236Y-58184336D01*
X30047035Y-58156936D01*
X30054500Y-58083880D01*
X30054500Y-57486119D01*
X30044541Y-57388649D01*
X32416500Y-57388649D01*
X32423009Y-57449196D01*
X32423011Y-57449204D01*
X32474110Y-57586202D01*
X32474112Y-57586207D01*
X32561738Y-57703261D01*
X32678792Y-57790887D01*
X32678794Y-57790888D01*
X32678796Y-57790889D01*
X32737875Y-57812924D01*
X32815795Y-57841988D01*
X32815803Y-57841990D01*
X32876350Y-57848499D01*
X32876355Y-57848499D01*
X32876362Y-57848500D01*
X32876368Y-57848500D01*
X36973632Y-57848500D01*
X36973638Y-57848500D01*
X36973645Y-57848499D01*
X36973649Y-57848499D01*
X37034196Y-57841990D01*
X37034199Y-57841989D01*
X37034201Y-57841989D01*
X37171204Y-57790889D01*
X37288261Y-57703261D01*
X37375889Y-57586204D01*
X37426989Y-57449201D01*
X37433500Y-57388638D01*
X37433500Y-49291362D01*
X37433499Y-49291350D01*
X37426990Y-49230803D01*
X37426988Y-49230795D01*
X37389449Y-49130152D01*
X37375889Y-49093796D01*
X37375888Y-49093794D01*
X37375887Y-49093792D01*
X37288261Y-48976738D01*
X37171207Y-48889112D01*
X37171202Y-48889110D01*
X37034204Y-48838011D01*
X37034196Y-48838009D01*
X36973649Y-48831500D01*
X36973638Y-48831500D01*
X32876362Y-48831500D01*
X32876350Y-48831500D01*
X32815803Y-48838009D01*
X32815795Y-48838011D01*
X32678797Y-48889110D01*
X32678792Y-48889112D01*
X32561738Y-48976738D01*
X32474112Y-49093792D01*
X32474110Y-49093797D01*
X32423011Y-49230795D01*
X32423009Y-49230803D01*
X32416500Y-49291350D01*
X32416500Y-57388649D01*
X30044541Y-57388649D01*
X30044247Y-57385770D01*
X30044236Y-57385664D01*
X29990302Y-57222899D01*
X29911482Y-57095113D01*
X29892745Y-57026634D01*
X29911482Y-56962819D01*
X29913597Y-56959389D01*
X29913600Y-56959387D01*
X30002849Y-56814692D01*
X30056324Y-56653314D01*
X30066500Y-56553711D01*
X30066499Y-56019290D01*
X30056324Y-55919686D01*
X30002849Y-55758308D01*
X29913600Y-55613613D01*
X29888081Y-55588094D01*
X29854057Y-55525785D01*
X29859121Y-55454969D01*
X29888081Y-55409905D01*
X29913600Y-55384387D01*
X30002849Y-55239692D01*
X30056324Y-55078314D01*
X30066500Y-54978711D01*
X30066499Y-54444290D01*
X30056324Y-54344686D01*
X30002849Y-54183308D01*
X29913600Y-54038613D01*
X29913599Y-54038612D01*
X29913594Y-54038606D01*
X29892950Y-54017962D01*
X29858924Y-53955650D01*
X29863989Y-53884835D01*
X29906536Y-53827999D01*
X29946261Y-53798261D01*
X30033887Y-53681207D01*
X30033887Y-53681206D01*
X30033889Y-53681204D01*
X30084989Y-53544201D01*
X30086524Y-53529928D01*
X30091499Y-53483649D01*
X30091500Y-53483632D01*
X30091500Y-53169000D01*
X30111502Y-53100879D01*
X30165158Y-53054386D01*
X30217500Y-53043000D01*
X30304000Y-53043000D01*
X30304000Y-51689000D01*
X30812000Y-51689000D01*
X30812000Y-53043000D01*
X31131585Y-53043000D01*
X31131597Y-53042999D01*
X31192093Y-53036494D01*
X31328964Y-52985444D01*
X31328965Y-52985444D01*
X31445904Y-52897904D01*
X31533444Y-52780965D01*
X31533444Y-52780964D01*
X31584494Y-52644093D01*
X31590999Y-52583597D01*
X31591000Y-52583585D01*
X31591000Y-51689000D01*
X30812000Y-51689000D01*
X30304000Y-51689000D01*
X29525000Y-51689000D01*
X29525000Y-51800500D01*
X29504998Y-51868621D01*
X29451342Y-51915114D01*
X29399000Y-51926500D01*
X28767000Y-51926500D01*
X28698879Y-51906498D01*
X28652386Y-51852842D01*
X28641000Y-51800500D01*
X28641000Y-51689000D01*
X27862000Y-51689000D01*
X27862000Y-53043000D01*
X27948500Y-53043000D01*
X28016621Y-53063002D01*
X28063114Y-53116658D01*
X28074500Y-53169000D01*
X28074500Y-53483649D01*
X28081009Y-53544196D01*
X28081011Y-53544204D01*
X28132110Y-53681202D01*
X28132112Y-53681207D01*
X28219737Y-53798259D01*
X28219738Y-53798259D01*
X28219739Y-53798261D01*
X28234471Y-53809289D01*
X28259464Y-53827999D01*
X28302010Y-53884836D01*
X28307074Y-53955651D01*
X28273051Y-54017961D01*
X28252400Y-54038612D01*
X28163151Y-54183307D01*
X28136172Y-54264723D01*
X28129570Y-54284651D01*
X28109675Y-54344690D01*
X28099500Y-54444280D01*
X28099500Y-54978710D01*
X28109675Y-55078309D01*
X28109676Y-55078314D01*
X28132417Y-55146941D01*
X28163151Y-55239692D01*
X28252400Y-55384387D01*
X28252405Y-55384393D01*
X28277917Y-55409905D01*
X28311943Y-55472217D01*
X28306878Y-55543032D01*
X28277917Y-55588095D01*
X28252405Y-55613606D01*
X28252400Y-55613612D01*
X28163151Y-55758307D01*
X28156973Y-55776951D01*
X28109949Y-55918864D01*
X28109675Y-55919690D01*
X28099500Y-56019280D01*
X28099500Y-56553710D01*
X28109675Y-56653312D01*
X28109675Y-56653313D01*
X28113292Y-56664227D01*
X28115731Y-56735182D01*
X28079422Y-56796192D01*
X28015893Y-56827886D01*
X27954055Y-56823463D01*
X27920236Y-56812256D01*
X27920229Y-56812255D01*
X27819852Y-56802000D01*
X27800000Y-56802000D01*
X27800000Y-58768000D01*
X27819853Y-58768000D01*
X27819852Y-58767999D01*
X27920229Y-58757744D01*
X27920234Y-58757743D01*
X27954052Y-58746537D01*
X28025007Y-58744096D01*
X28086018Y-58780403D01*
X28117714Y-58843931D01*
X28113293Y-58905770D01*
X28109675Y-58916687D01*
X28099500Y-59016280D01*
X28099500Y-59550710D01*
X28109675Y-59650309D01*
X28109676Y-59650314D01*
X28163151Y-59811692D01*
X28252400Y-59956387D01*
X28252405Y-59956393D01*
X28277917Y-59981905D01*
X28311943Y-60044217D01*
X28306878Y-60115032D01*
X28277917Y-60160095D01*
X28252405Y-60185606D01*
X28252400Y-60185612D01*
X28163151Y-60330307D01*
X28109675Y-60491690D01*
X28099500Y-60591280D01*
X28099500Y-61125710D01*
X28109675Y-61225312D01*
X28109675Y-61225313D01*
X28113292Y-61236227D01*
X28115731Y-61307182D01*
X28079422Y-61368192D01*
X28015893Y-61399886D01*
X27954055Y-61395463D01*
X27920236Y-61384256D01*
X27920229Y-61384255D01*
X27819852Y-61374000D01*
X27800000Y-61374000D01*
X27800000Y-63340000D01*
X27292000Y-63340000D01*
X27292000Y-62611000D01*
X26588000Y-62611000D01*
X25500500Y-62611000D01*
X25500500Y-62103000D01*
X26588000Y-62103000D01*
X27292000Y-62103000D01*
X27292000Y-61374000D01*
X27272147Y-61374000D01*
X27171770Y-61384255D01*
X27171758Y-61384257D01*
X27009115Y-61438152D01*
X26863271Y-61528109D01*
X26863265Y-61528114D01*
X26742114Y-61649265D01*
X26742109Y-61649271D01*
X26652152Y-61795115D01*
X26598257Y-61957758D01*
X26598255Y-61957770D01*
X26588000Y-62058147D01*
X26588000Y-62103000D01*
X25500500Y-62103000D01*
X25500500Y-58039000D01*
X26588000Y-58039000D01*
X26588000Y-58083852D01*
X26598255Y-58184229D01*
X26598257Y-58184241D01*
X26652152Y-58346884D01*
X26742109Y-58492728D01*
X26742114Y-58492734D01*
X26863265Y-58613885D01*
X26863271Y-58613890D01*
X27009115Y-58703847D01*
X27171758Y-58757742D01*
X27171770Y-58757744D01*
X27272147Y-58767999D01*
X27272147Y-58768000D01*
X27292000Y-58768000D01*
X27292000Y-58039000D01*
X26588000Y-58039000D01*
X25500500Y-58039000D01*
X25500500Y-57531000D01*
X26588000Y-57531000D01*
X27292000Y-57531000D01*
X27292000Y-56802000D01*
X27272147Y-56802000D01*
X27171770Y-56812255D01*
X27171758Y-56812257D01*
X27009115Y-56866152D01*
X26863271Y-56956109D01*
X26863265Y-56956114D01*
X26742114Y-57077265D01*
X26742109Y-57077271D01*
X26652152Y-57223115D01*
X26598257Y-57385758D01*
X26598255Y-57385770D01*
X26588000Y-57486147D01*
X26588000Y-57531000D01*
X25500500Y-57531000D01*
X25500500Y-51689000D01*
X26575000Y-51689000D01*
X26575000Y-52583597D01*
X26581505Y-52644093D01*
X26632555Y-52780964D01*
X26632555Y-52780965D01*
X26720095Y-52897904D01*
X26837034Y-52985444D01*
X26973906Y-53036494D01*
X27034402Y-53042999D01*
X27034415Y-53043000D01*
X27354000Y-53043000D01*
X27354000Y-51689000D01*
X26575000Y-51689000D01*
X25500500Y-51689000D01*
X25500500Y-51181000D01*
X26575000Y-51181000D01*
X27354000Y-51181000D01*
X27862000Y-51181000D01*
X28641000Y-51181000D01*
X28641000Y-51069000D01*
X28661002Y-51000879D01*
X28714658Y-50954386D01*
X28767000Y-50943000D01*
X28829000Y-50943000D01*
X28829000Y-48927000D01*
X29337000Y-48927000D01*
X29337000Y-50943000D01*
X29399000Y-50943000D01*
X29467121Y-50963002D01*
X29513614Y-51016658D01*
X29525000Y-51069000D01*
X29525000Y-51181000D01*
X30304000Y-51181000D01*
X30304000Y-49827000D01*
X30812000Y-49827000D01*
X30812000Y-51181000D01*
X31591000Y-51181000D01*
X31591000Y-50286414D01*
X31590999Y-50286402D01*
X31584494Y-50225906D01*
X31533444Y-50089035D01*
X31533444Y-50089034D01*
X31445904Y-49972095D01*
X31328965Y-49884555D01*
X31192093Y-49833505D01*
X31131597Y-49827000D01*
X30812000Y-49827000D01*
X30304000Y-49827000D01*
X30217000Y-49827000D01*
X30148879Y-49806998D01*
X30102386Y-49753342D01*
X30091000Y-49701000D01*
X30091000Y-49386414D01*
X30090999Y-49386402D01*
X30084494Y-49325906D01*
X30033444Y-49189035D01*
X30033444Y-49189034D01*
X29945904Y-49072095D01*
X29828965Y-48984555D01*
X29692093Y-48933505D01*
X29631597Y-48927000D01*
X29337000Y-48927000D01*
X28829000Y-48927000D01*
X28534402Y-48927000D01*
X28473906Y-48933505D01*
X28337035Y-48984555D01*
X28337034Y-48984555D01*
X28220095Y-49072095D01*
X28132555Y-49189034D01*
X28132555Y-49189035D01*
X28081505Y-49325906D01*
X28075000Y-49386402D01*
X28075000Y-49701000D01*
X28054998Y-49769121D01*
X28001342Y-49815614D01*
X27949000Y-49827000D01*
X27862000Y-49827000D01*
X27862000Y-51181000D01*
X27354000Y-51181000D01*
X27354000Y-49827000D01*
X27034402Y-49827000D01*
X26973906Y-49833505D01*
X26837035Y-49884555D01*
X26837034Y-49884555D01*
X26720095Y-49972095D01*
X26632555Y-50089034D01*
X26632555Y-50089035D01*
X26581505Y-50225906D01*
X26575000Y-50286402D01*
X26575000Y-51181000D01*
X25500500Y-51181000D01*
X25500500Y-28065962D01*
X26339500Y-28065962D01*
X26378910Y-28314785D01*
X26378911Y-28314790D01*
X26443519Y-28513632D01*
X26456759Y-28554379D01*
X26571130Y-28778845D01*
X26719207Y-28982656D01*
X26719209Y-28982658D01*
X26719211Y-28982661D01*
X26897338Y-29160788D01*
X26897341Y-29160790D01*
X26897344Y-29160793D01*
X27101155Y-29308870D01*
X27325621Y-29423241D01*
X27565215Y-29501090D01*
X27814038Y-29540500D01*
X27814041Y-29540500D01*
X28065959Y-29540500D01*
X28065962Y-29540500D01*
X28314785Y-29501090D01*
X28554379Y-29423241D01*
X28778845Y-29308870D01*
X28982656Y-29160793D01*
X29160793Y-28982656D01*
X29308870Y-28778845D01*
X29423241Y-28554379D01*
X29501090Y-28314785D01*
X29540500Y-28065962D01*
X29540500Y-27814038D01*
X29501090Y-27565215D01*
X29423241Y-27325621D01*
X29308870Y-27101155D01*
X29160793Y-26897344D01*
X29160790Y-26897341D01*
X29160788Y-26897338D01*
X28982661Y-26719211D01*
X28982658Y-26719209D01*
X28982656Y-26719207D01*
X28778845Y-26571130D01*
X28554379Y-26456759D01*
X28554376Y-26456758D01*
X28554374Y-26456757D01*
X28314790Y-26378911D01*
X28314786Y-26378910D01*
X28314785Y-26378910D01*
X28065962Y-26339500D01*
X27814038Y-26339500D01*
X27565215Y-26378910D01*
X27565209Y-26378911D01*
X27325625Y-26456757D01*
X27325619Y-26456760D01*
X27101151Y-26571132D01*
X26897341Y-26719209D01*
X26897338Y-26719211D01*
X26719211Y-26897338D01*
X26719209Y-26897341D01*
X26571132Y-27101151D01*
X26456760Y-27325619D01*
X26456757Y-27325625D01*
X26378911Y-27565209D01*
X26378910Y-27565214D01*
X26378910Y-27565215D01*
X26339500Y-27814038D01*
X26339500Y-28065962D01*
X25500500Y-28065962D01*
X25500500Y-27943805D01*
X25500730Y-27936198D01*
X25505119Y-27863638D01*
X25517827Y-27653545D01*
X25519658Y-27638467D01*
X25570014Y-27363679D01*
X25573650Y-27348925D01*
X25656765Y-27082202D01*
X25662154Y-27067994D01*
X25776805Y-26813250D01*
X25783863Y-26799800D01*
X25928400Y-26560708D01*
X25937016Y-26548224D01*
X26109322Y-26328292D01*
X26119390Y-26316929D01*
X26316929Y-26119390D01*
X26328292Y-26109322D01*
X26548224Y-25937016D01*
X26560708Y-25928400D01*
X26799800Y-25783863D01*
X26813250Y-25776805D01*
X27067994Y-25662154D01*
X27082202Y-25656765D01*
X27348925Y-25573650D01*
X27363679Y-25570014D01*
X27638467Y-25519658D01*
X27653545Y-25517827D01*
X27910932Y-25502258D01*
X27936199Y-25500730D01*
X27943806Y-25500500D01*
X27966929Y-25500500D01*
X40852869Y-25500500D01*
X40920990Y-25520502D01*
G37*
%TD.AperFunction*%
%TA.AperFunction,Conductor*%
G36*
X68280012Y-68296191D02*
G01*
X68298368Y-68315906D01*
X68375738Y-68419261D01*
X68492792Y-68506887D01*
X68492794Y-68506888D01*
X68492796Y-68506889D01*
X68551875Y-68528924D01*
X68629795Y-68557988D01*
X68629803Y-68557990D01*
X68690350Y-68564499D01*
X68690355Y-68564499D01*
X68690362Y-68564500D01*
X68690368Y-68564500D01*
X72787632Y-68564500D01*
X72787638Y-68564500D01*
X72787645Y-68564499D01*
X72787649Y-68564499D01*
X72848195Y-68557990D01*
X72848196Y-68557989D01*
X72848201Y-68557989D01*
X72858467Y-68554159D01*
X72929280Y-68549094D01*
X72991593Y-68583117D01*
X73025620Y-68645429D01*
X73028500Y-68672215D01*
X73028500Y-73928629D01*
X73008498Y-73996750D01*
X72991595Y-74017724D01*
X72481724Y-74527595D01*
X72419412Y-74561621D01*
X72392629Y-74564500D01*
X68690350Y-74564500D01*
X68629803Y-74571009D01*
X68629795Y-74571011D01*
X68492797Y-74622110D01*
X68492792Y-74622112D01*
X68375738Y-74709738D01*
X68298368Y-74813093D01*
X68241532Y-74855640D01*
X68170716Y-74860704D01*
X68108404Y-74826679D01*
X68074379Y-74764367D01*
X68071500Y-74737584D01*
X68071500Y-72182367D01*
X68071499Y-72182350D01*
X68064990Y-72121803D01*
X68064988Y-72121795D01*
X68035924Y-72043875D01*
X68013889Y-71984796D01*
X68013888Y-71984794D01*
X68013887Y-71984792D01*
X67926261Y-71867738D01*
X67809207Y-71780112D01*
X67809202Y-71780110D01*
X67672204Y-71729011D01*
X67672196Y-71729009D01*
X67611649Y-71722500D01*
X67611638Y-71722500D01*
X66880192Y-71722500D01*
X66812071Y-71702498D01*
X66765578Y-71648842D01*
X66755474Y-71578568D01*
X66784968Y-71513988D01*
X66828943Y-71481393D01*
X66972690Y-71417393D01*
X67023939Y-71406500D01*
X67611632Y-71406500D01*
X67611638Y-71406500D01*
X67611645Y-71406499D01*
X67611649Y-71406499D01*
X67672196Y-71399990D01*
X67672199Y-71399989D01*
X67672201Y-71399989D01*
X67809204Y-71348889D01*
X67871571Y-71302202D01*
X67926261Y-71261261D01*
X68013887Y-71144207D01*
X68013887Y-71144206D01*
X68013889Y-71144204D01*
X68064989Y-71007201D01*
X68071500Y-70946638D01*
X68071500Y-68391415D01*
X68091502Y-68323294D01*
X68145158Y-68276801D01*
X68215432Y-68266697D01*
X68280012Y-68296191D01*
G37*
%TD.AperFunction*%
%TA.AperFunction,Conductor*%
G36*
X48343225Y-47665669D02*
G01*
X48365480Y-47691353D01*
X48398607Y-47742058D01*
X48454275Y-47827265D01*
X48454279Y-47827270D01*
X48606762Y-47992908D01*
X48625510Y-48007500D01*
X48784424Y-48131189D01*
X48982426Y-48238342D01*
X48982427Y-48238342D01*
X48982428Y-48238343D01*
X49094227Y-48276723D01*
X49195365Y-48311444D01*
X49417431Y-48348500D01*
X49417435Y-48348500D01*
X49642565Y-48348500D01*
X49642569Y-48348500D01*
X49864635Y-48311444D01*
X49864651Y-48311438D01*
X49867751Y-48310654D01*
X49869072Y-48310703D01*
X49869777Y-48310586D01*
X49869801Y-48310730D01*
X49938698Y-48313311D01*
X49987795Y-48343699D01*
X50383595Y-48739499D01*
X50417621Y-48801811D01*
X50420500Y-48828594D01*
X50420500Y-49149226D01*
X50400498Y-49217347D01*
X50346842Y-49263840D01*
X50276568Y-49273944D01*
X50211988Y-49244450D01*
X50193632Y-49224735D01*
X50126261Y-49134738D01*
X50009207Y-49047112D01*
X50009202Y-49047110D01*
X49872204Y-48996011D01*
X49872196Y-48996009D01*
X49811649Y-48989500D01*
X49811638Y-48989500D01*
X47714362Y-48989500D01*
X47714350Y-48989500D01*
X47653803Y-48996009D01*
X47653795Y-48996011D01*
X47516797Y-49047110D01*
X47516792Y-49047112D01*
X47399738Y-49134738D01*
X47312112Y-49251792D01*
X47312110Y-49251797D01*
X47261011Y-49388795D01*
X47261009Y-49388803D01*
X47254500Y-49449350D01*
X47254500Y-53546649D01*
X47261009Y-53607196D01*
X47261011Y-53607204D01*
X47312110Y-53744202D01*
X47312112Y-53744207D01*
X47399738Y-53861261D01*
X47516792Y-53948887D01*
X47516794Y-53948888D01*
X47516796Y-53948889D01*
X47575875Y-53970924D01*
X47653795Y-53999988D01*
X47653803Y-53999990D01*
X47714350Y-54006499D01*
X47714355Y-54006499D01*
X47714362Y-54006500D01*
X48003500Y-54006500D01*
X48071621Y-54026502D01*
X48118114Y-54080158D01*
X48129500Y-54132500D01*
X48129500Y-54537474D01*
X48109498Y-54605595D01*
X48097137Y-54621784D01*
X48023957Y-54703059D01*
X47928476Y-54868438D01*
X47928473Y-54868444D01*
X47913999Y-54912986D01*
X47869457Y-55050072D01*
X47849496Y-55240000D01*
X47869457Y-55429927D01*
X47891901Y-55499000D01*
X47928473Y-55611556D01*
X47928476Y-55611561D01*
X48023958Y-55776941D01*
X48023965Y-55776951D01*
X48151744Y-55918864D01*
X48152881Y-55919690D01*
X48306248Y-56031118D01*
X48480712Y-56108794D01*
X48667513Y-56148500D01*
X48858487Y-56148500D01*
X49045288Y-56108794D01*
X49219752Y-56031118D01*
X49374253Y-55918866D01*
X49502040Y-55776944D01*
X49597527Y-55611556D01*
X49656542Y-55429928D01*
X49676504Y-55240000D01*
X49656542Y-55050072D01*
X49597527Y-54868444D01*
X49533869Y-54758185D01*
X49502042Y-54703059D01*
X49502041Y-54703058D01*
X49502040Y-54703056D01*
X49428863Y-54621784D01*
X49398146Y-54557776D01*
X49396500Y-54537474D01*
X49396500Y-54132500D01*
X49416502Y-54064379D01*
X49470158Y-54017886D01*
X49522500Y-54006500D01*
X49811632Y-54006500D01*
X49811638Y-54006500D01*
X49811645Y-54006499D01*
X49811649Y-54006499D01*
X49872196Y-53999990D01*
X49872199Y-53999989D01*
X49872201Y-53999989D01*
X50009204Y-53948889D01*
X50126261Y-53861261D01*
X50201642Y-53760562D01*
X50258476Y-53718018D01*
X50329291Y-53712952D01*
X50391604Y-53746977D01*
X50425629Y-53809289D01*
X50426088Y-53811490D01*
X50434667Y-53854618D01*
X50440887Y-53885889D01*
X50444846Y-53905788D01*
X50450070Y-53918400D01*
X50492600Y-54021075D01*
X50561929Y-54124833D01*
X50561931Y-54124835D01*
X54701595Y-58264499D01*
X54735621Y-58326811D01*
X54738500Y-58353594D01*
X54738500Y-66404473D01*
X54718498Y-66472594D01*
X54664842Y-66519087D01*
X54594568Y-66529191D01*
X54536991Y-66505341D01*
X54459207Y-66447112D01*
X54459202Y-66447110D01*
X54322204Y-66396011D01*
X54322196Y-66396009D01*
X54261649Y-66389500D01*
X54261638Y-66389500D01*
X52164362Y-66389500D01*
X52164350Y-66389500D01*
X52103803Y-66396009D01*
X52103795Y-66396011D01*
X51966797Y-66447110D01*
X51966792Y-66447112D01*
X51849738Y-66534738D01*
X51762112Y-66651792D01*
X51762111Y-66651795D01*
X51718320Y-66769201D01*
X51675773Y-66826036D01*
X51609252Y-66850846D01*
X51539878Y-66835754D01*
X51511170Y-66814262D01*
X48406761Y-63709855D01*
X48406749Y-63709841D01*
X46390405Y-61693497D01*
X46356379Y-61631185D01*
X46353500Y-61604402D01*
X46353500Y-55312524D01*
X46373502Y-55244403D01*
X46385858Y-55228220D01*
X46459040Y-55146944D01*
X46554527Y-54981556D01*
X46613542Y-54799928D01*
X46633504Y-54610000D01*
X46613542Y-54420072D01*
X46554527Y-54238444D01*
X46459040Y-54073056D01*
X46459038Y-54073054D01*
X46459034Y-54073048D01*
X46331255Y-53931135D01*
X46176752Y-53818882D01*
X46002288Y-53741206D01*
X45916326Y-53722934D01*
X45853852Y-53689205D01*
X45819531Y-53627056D01*
X45817245Y-53586218D01*
X45821499Y-53546647D01*
X45821500Y-53546632D01*
X45821500Y-49449367D01*
X45821499Y-49449350D01*
X45814990Y-49388803D01*
X45814988Y-49388795D01*
X45778648Y-49291367D01*
X45763889Y-49251796D01*
X45763888Y-49251794D01*
X45763887Y-49251792D01*
X45676261Y-49134738D01*
X45559207Y-49047112D01*
X45559202Y-49047110D01*
X45422204Y-48996011D01*
X45422196Y-48996009D01*
X45361649Y-48989500D01*
X45361638Y-48989500D01*
X43650595Y-48989500D01*
X43582474Y-48969498D01*
X43535981Y-48915842D01*
X43525877Y-48845568D01*
X43555371Y-48780988D01*
X43561499Y-48774405D01*
X43884297Y-48451606D01*
X43992205Y-48343697D01*
X44054515Y-48309674D01*
X44110218Y-48310617D01*
X44110224Y-48310586D01*
X44110436Y-48310621D01*
X44112241Y-48310652D01*
X44115350Y-48311439D01*
X44115365Y-48311444D01*
X44337431Y-48348500D01*
X44337435Y-48348500D01*
X44562565Y-48348500D01*
X44562569Y-48348500D01*
X44784635Y-48311444D01*
X44997574Y-48238342D01*
X45195576Y-48131189D01*
X45373240Y-47992906D01*
X45525722Y-47827268D01*
X45614518Y-47691354D01*
X45668520Y-47645268D01*
X45738868Y-47635692D01*
X45803225Y-47665669D01*
X45825480Y-47691353D01*
X45858607Y-47742058D01*
X45914275Y-47827265D01*
X45914279Y-47827270D01*
X46066762Y-47992908D01*
X46085510Y-48007500D01*
X46244424Y-48131189D01*
X46442426Y-48238342D01*
X46442427Y-48238342D01*
X46442428Y-48238343D01*
X46554227Y-48276723D01*
X46655365Y-48311444D01*
X46877431Y-48348500D01*
X46877435Y-48348500D01*
X47102565Y-48348500D01*
X47102569Y-48348500D01*
X47324635Y-48311444D01*
X47537574Y-48238342D01*
X47735576Y-48131189D01*
X47913240Y-47992906D01*
X48065722Y-47827268D01*
X48154518Y-47691354D01*
X48208520Y-47645268D01*
X48278868Y-47635692D01*
X48343225Y-47665669D01*
G37*
%TD.AperFunction*%
%TA.AperFunction,Conductor*%
G36*
X56101148Y-49294502D02*
G01*
X56147641Y-49348158D01*
X56158305Y-49413969D01*
X56154500Y-49449352D01*
X56154500Y-53546649D01*
X56161009Y-53607196D01*
X56161011Y-53607204D01*
X56212110Y-53744202D01*
X56212112Y-53744207D01*
X56299738Y-53861261D01*
X56416792Y-53948887D01*
X56416794Y-53948888D01*
X56416796Y-53948889D01*
X56475875Y-53970924D01*
X56553795Y-53999988D01*
X56553803Y-53999990D01*
X56614350Y-54006499D01*
X56614355Y-54006499D01*
X56614362Y-54006500D01*
X56614368Y-54006500D01*
X58711632Y-54006500D01*
X58711638Y-54006500D01*
X58711645Y-54006499D01*
X58711649Y-54006499D01*
X58772196Y-53999990D01*
X58772199Y-53999989D01*
X58772201Y-53999989D01*
X58909204Y-53948889D01*
X58949933Y-53918400D01*
X59026261Y-53861261D01*
X59083632Y-53784623D01*
X59140468Y-53742076D01*
X59211283Y-53737012D01*
X59273596Y-53771037D01*
X59307621Y-53833349D01*
X59310500Y-53860132D01*
X59310500Y-66535867D01*
X59290498Y-66603988D01*
X59236842Y-66650481D01*
X59166568Y-66660585D01*
X59101988Y-66631091D01*
X59083632Y-66611377D01*
X59057155Y-66576009D01*
X59026261Y-66534739D01*
X59026259Y-66534738D01*
X59026259Y-66534737D01*
X58909207Y-66447112D01*
X58909202Y-66447110D01*
X58772204Y-66396011D01*
X58772196Y-66396009D01*
X58711649Y-66389500D01*
X58711638Y-66389500D01*
X56614362Y-66389500D01*
X56614350Y-66389500D01*
X56553803Y-66396009D01*
X56553795Y-66396011D01*
X56416797Y-66447110D01*
X56416792Y-66447112D01*
X56299738Y-66534738D01*
X56232368Y-66624735D01*
X56175532Y-66667282D01*
X56104716Y-66672346D01*
X56042404Y-66638321D01*
X56008379Y-66576009D01*
X56005500Y-66549226D01*
X56005500Y-57976607D01*
X56005499Y-57976603D01*
X55981155Y-57854215D01*
X55933400Y-57738925D01*
X55864071Y-57635167D01*
X55775833Y-57546929D01*
X52450499Y-54221595D01*
X52416473Y-54159283D01*
X52421538Y-54088468D01*
X52464085Y-54031632D01*
X52530605Y-54006821D01*
X52539594Y-54006500D01*
X54261632Y-54006500D01*
X54261638Y-54006500D01*
X54261645Y-54006499D01*
X54261649Y-54006499D01*
X54322196Y-53999990D01*
X54322199Y-53999989D01*
X54322201Y-53999989D01*
X54459204Y-53948889D01*
X54499933Y-53918400D01*
X54576261Y-53861261D01*
X54663887Y-53744207D01*
X54663887Y-53744206D01*
X54663889Y-53744204D01*
X54714989Y-53607201D01*
X54721500Y-53546638D01*
X54721500Y-49449362D01*
X54717695Y-49413969D01*
X54730301Y-49344100D01*
X54778679Y-49292138D01*
X54842973Y-49274500D01*
X56033027Y-49274500D01*
X56101148Y-49294502D01*
G37*
%TD.AperFunction*%
%TA.AperFunction,Conductor*%
G36*
X30069463Y-37680833D02*
G01*
X30090029Y-37704568D01*
X30114925Y-37741828D01*
X30114927Y-37741831D01*
X30114929Y-37741833D01*
X31751166Y-39378070D01*
X31854924Y-39447399D01*
X31970214Y-39495154D01*
X32092605Y-39519499D01*
X32217393Y-39519499D01*
X37473000Y-39519499D01*
X37541121Y-39539501D01*
X37587614Y-39593157D01*
X37599000Y-39645499D01*
X37599000Y-40207000D01*
X39815001Y-40207000D01*
X39834159Y-40187841D01*
X39835002Y-40184973D01*
X39850178Y-40171822D01*
X39851905Y-40170096D01*
X39852028Y-40170219D01*
X39888658Y-40138480D01*
X39958932Y-40128376D01*
X40023512Y-40157870D01*
X40030095Y-40163999D01*
X43015161Y-43149067D01*
X43015167Y-43149072D01*
X43118925Y-43218401D01*
X43234215Y-43266155D01*
X43356606Y-43290500D01*
X53225500Y-43290500D01*
X53293621Y-43310502D01*
X53340114Y-43364158D01*
X53351500Y-43416500D01*
X53351500Y-44505649D01*
X53358009Y-44566196D01*
X53358011Y-44566204D01*
X53409110Y-44703202D01*
X53409112Y-44703207D01*
X53496738Y-44820261D01*
X53613792Y-44907887D01*
X53613794Y-44907888D01*
X53613796Y-44907889D01*
X53672875Y-44929924D01*
X53750795Y-44958988D01*
X53750803Y-44958990D01*
X53811350Y-44965499D01*
X53811355Y-44965499D01*
X53811362Y-44965500D01*
X53850500Y-44965500D01*
X53918621Y-44985502D01*
X53965114Y-45039158D01*
X53976500Y-45091500D01*
X53976500Y-45713078D01*
X53956498Y-45781199D01*
X53910471Y-45823891D01*
X53864426Y-45848810D01*
X53864424Y-45848811D01*
X53686762Y-45987091D01*
X53534279Y-46152729D01*
X53445483Y-46288643D01*
X53391479Y-46334731D01*
X53321131Y-46344306D01*
X53256774Y-46314329D01*
X53234517Y-46288643D01*
X53145720Y-46152729D01*
X53009080Y-46004301D01*
X52993240Y-45987094D01*
X52993239Y-45987093D01*
X52993237Y-45987091D01*
X52899688Y-45914279D01*
X52815576Y-45848811D01*
X52617574Y-45741658D01*
X52617572Y-45741657D01*
X52617571Y-45741656D01*
X52404639Y-45668557D01*
X52404630Y-45668555D01*
X52327029Y-45655606D01*
X52182569Y-45631500D01*
X51957431Y-45631500D01*
X51812971Y-45655606D01*
X51735369Y-45668555D01*
X51735360Y-45668557D01*
X51522428Y-45741656D01*
X51522426Y-45741658D01*
X51324426Y-45848810D01*
X51324424Y-45848811D01*
X51146762Y-45987091D01*
X50994279Y-46152729D01*
X50905483Y-46288643D01*
X50851479Y-46334731D01*
X50781131Y-46344306D01*
X50716774Y-46314329D01*
X50694517Y-46288643D01*
X50605720Y-46152729D01*
X50469080Y-46004301D01*
X50453240Y-45987094D01*
X50453239Y-45987093D01*
X50453237Y-45987091D01*
X50359688Y-45914279D01*
X50275576Y-45848811D01*
X50077574Y-45741658D01*
X50077572Y-45741657D01*
X50077571Y-45741656D01*
X49864639Y-45668557D01*
X49864630Y-45668555D01*
X49787029Y-45655606D01*
X49642569Y-45631500D01*
X49417431Y-45631500D01*
X49272971Y-45655606D01*
X49195369Y-45668555D01*
X49195360Y-45668557D01*
X48982428Y-45741656D01*
X48982426Y-45741658D01*
X48784426Y-45848810D01*
X48784424Y-45848811D01*
X48606762Y-45987091D01*
X48454279Y-46152729D01*
X48365483Y-46288643D01*
X48311479Y-46334731D01*
X48241131Y-46344306D01*
X48176774Y-46314329D01*
X48154517Y-46288643D01*
X48065720Y-46152729D01*
X47929080Y-46004301D01*
X47913240Y-45987094D01*
X47913239Y-45987093D01*
X47913237Y-45987091D01*
X47819688Y-45914279D01*
X47735576Y-45848811D01*
X47537574Y-45741658D01*
X47537572Y-45741657D01*
X47537571Y-45741656D01*
X47324639Y-45668557D01*
X47324630Y-45668555D01*
X47247029Y-45655606D01*
X47102569Y-45631500D01*
X46877431Y-45631500D01*
X46732971Y-45655606D01*
X46655369Y-45668555D01*
X46655360Y-45668557D01*
X46442428Y-45741656D01*
X46442426Y-45741658D01*
X46244426Y-45848810D01*
X46244424Y-45848811D01*
X46066762Y-45987091D01*
X45914279Y-46152729D01*
X45825483Y-46288643D01*
X45771479Y-46334731D01*
X45701131Y-46344306D01*
X45636774Y-46314329D01*
X45614517Y-46288643D01*
X45525720Y-46152729D01*
X45389080Y-46004301D01*
X45373240Y-45987094D01*
X45373239Y-45987093D01*
X45373237Y-45987091D01*
X45279688Y-45914279D01*
X45195576Y-45848811D01*
X44997574Y-45741658D01*
X44997572Y-45741657D01*
X44997571Y-45741656D01*
X44784639Y-45668557D01*
X44784630Y-45668555D01*
X44707029Y-45655606D01*
X44562569Y-45631500D01*
X44337431Y-45631500D01*
X44192971Y-45655606D01*
X44115369Y-45668555D01*
X44115360Y-45668557D01*
X43902428Y-45741656D01*
X43902426Y-45741658D01*
X43704426Y-45848810D01*
X43704424Y-45848811D01*
X43526762Y-45987091D01*
X43374279Y-46152729D01*
X43285483Y-46288643D01*
X43231479Y-46334731D01*
X43161131Y-46344306D01*
X43096774Y-46314329D01*
X43074517Y-46288643D01*
X42985720Y-46152729D01*
X42849080Y-46004301D01*
X42833240Y-45987094D01*
X42833239Y-45987093D01*
X42833237Y-45987091D01*
X42739688Y-45914279D01*
X42655576Y-45848811D01*
X42457574Y-45741658D01*
X42457572Y-45741657D01*
X42457571Y-45741656D01*
X42244639Y-45668557D01*
X42244630Y-45668555D01*
X42167029Y-45655606D01*
X42022569Y-45631500D01*
X41797431Y-45631500D01*
X41652971Y-45655606D01*
X41575369Y-45668555D01*
X41575360Y-45668557D01*
X41362428Y-45741656D01*
X41362426Y-45741658D01*
X41164426Y-45848810D01*
X41164424Y-45848811D01*
X40986762Y-45987091D01*
X40834279Y-46152729D01*
X40745183Y-46289101D01*
X40691179Y-46335189D01*
X40620831Y-46344764D01*
X40556474Y-46314786D01*
X40534217Y-46289100D01*
X40445327Y-46153044D01*
X40292902Y-45987465D01*
X40115301Y-45849232D01*
X40115300Y-45849231D01*
X39917371Y-45742117D01*
X39917369Y-45742116D01*
X39704512Y-45669043D01*
X39704501Y-45669040D01*
X39624000Y-45655606D01*
X39624000Y-46559297D01*
X39562993Y-46524075D01*
X39435826Y-46490000D01*
X39304174Y-46490000D01*
X39177007Y-46524075D01*
X39116000Y-46559297D01*
X39116000Y-45655607D01*
X39115999Y-45655606D01*
X39035498Y-45669040D01*
X39035487Y-45669043D01*
X38822630Y-45742116D01*
X38822628Y-45742117D01*
X38624699Y-45849231D01*
X38624698Y-45849232D01*
X38447097Y-45987465D01*
X38294670Y-46153045D01*
X38205780Y-46289101D01*
X38151776Y-46335189D01*
X38081428Y-46344764D01*
X38017071Y-46314786D01*
X37994816Y-46289101D01*
X37955884Y-46229511D01*
X37905724Y-46152734D01*
X37905720Y-46152729D01*
X37769080Y-46004301D01*
X37753240Y-45987094D01*
X37753239Y-45987093D01*
X37753237Y-45987091D01*
X37659688Y-45914279D01*
X37575576Y-45848811D01*
X37377574Y-45741658D01*
X37377572Y-45741657D01*
X37377571Y-45741656D01*
X37164639Y-45668557D01*
X37164630Y-45668555D01*
X37087029Y-45655606D01*
X36942569Y-45631500D01*
X36717431Y-45631500D01*
X36572971Y-45655606D01*
X36495369Y-45668555D01*
X36495360Y-45668557D01*
X36282428Y-45741656D01*
X36282426Y-45741658D01*
X36084426Y-45848810D01*
X36084424Y-45848811D01*
X35906762Y-45987091D01*
X35754279Y-46152729D01*
X35665483Y-46288643D01*
X35611479Y-46334731D01*
X35541131Y-46344306D01*
X35476774Y-46314329D01*
X35454517Y-46288643D01*
X35365720Y-46152729D01*
X35229080Y-46004301D01*
X35213240Y-45987094D01*
X35213239Y-45987093D01*
X35213237Y-45987091D01*
X35119688Y-45914279D01*
X35035576Y-45848811D01*
X35007620Y-45833681D01*
X34989529Y-45823891D01*
X34939139Y-45773877D01*
X34923500Y-45713078D01*
X34923500Y-44768607D01*
X34923499Y-44768603D01*
X34899155Y-44646215D01*
X34851400Y-44530925D01*
X34782071Y-44427167D01*
X34693833Y-44338929D01*
X33169833Y-42814929D01*
X33066075Y-42745600D01*
X32984556Y-42711833D01*
X32950788Y-42697846D01*
X32950786Y-42697845D01*
X32950785Y-42697845D01*
X32894030Y-42686555D01*
X32850345Y-42677866D01*
X32787436Y-42644958D01*
X32752305Y-42583262D01*
X32749581Y-42541479D01*
X32750275Y-42534693D01*
X32753775Y-42500433D01*
X32755500Y-42483554D01*
X33538499Y-42483554D01*
X33549112Y-42587421D01*
X33549113Y-42587428D01*
X33570441Y-42651793D01*
X33604885Y-42755739D01*
X33671417Y-42863603D01*
X33697970Y-42906652D01*
X33697975Y-42906658D01*
X33823341Y-43032024D01*
X33823347Y-43032029D01*
X33823348Y-43032030D01*
X33974261Y-43125115D01*
X34142573Y-43180887D01*
X34182527Y-43184968D01*
X34246446Y-43191500D01*
X34246454Y-43191500D01*
X34997554Y-43191500D01*
X35056906Y-43185435D01*
X35101427Y-43180887D01*
X35269739Y-43125115D01*
X35420652Y-43032030D01*
X35546030Y-42906652D01*
X35639115Y-42755739D01*
X35660545Y-42691064D01*
X35700957Y-42632695D01*
X35766513Y-42605438D01*
X35831397Y-42615591D01*
X35912709Y-42651793D01*
X35912710Y-42651793D01*
X35912712Y-42651794D01*
X36099513Y-42691500D01*
X36290487Y-42691500D01*
X36477288Y-42651794D01*
X36651752Y-42574118D01*
X36806253Y-42461866D01*
X36831408Y-42433929D01*
X36934034Y-42319951D01*
X36934035Y-42319949D01*
X36934040Y-42319944D01*
X37029527Y-42154556D01*
X37088542Y-41972928D01*
X37108504Y-41783000D01*
X37088542Y-41593072D01*
X37029527Y-41411444D01*
X36934040Y-41246056D01*
X36934038Y-41246054D01*
X36934034Y-41246048D01*
X36806255Y-41104135D01*
X36651752Y-40991882D01*
X36477288Y-40914206D01*
X36290487Y-40874500D01*
X36099513Y-40874500D01*
X35912707Y-40914207D01*
X35831396Y-40950408D01*
X35761029Y-40959842D01*
X35696733Y-40929735D01*
X35660545Y-40874935D01*
X35639115Y-40810261D01*
X35580357Y-40715000D01*
X37599000Y-40715000D01*
X37599000Y-41759597D01*
X37605505Y-41820093D01*
X37656555Y-41956964D01*
X37656555Y-41956965D01*
X37744095Y-42073904D01*
X37861034Y-42161444D01*
X37997906Y-42212494D01*
X38058402Y-42218999D01*
X38058415Y-42219000D01*
X38453000Y-42219000D01*
X38453000Y-40715000D01*
X38961000Y-40715000D01*
X38961000Y-42219000D01*
X39355585Y-42219000D01*
X39355597Y-42218999D01*
X39416093Y-42212494D01*
X39552964Y-42161444D01*
X39552965Y-42161444D01*
X39669904Y-42073904D01*
X39757444Y-41956965D01*
X39757444Y-41956964D01*
X39808494Y-41820093D01*
X39814999Y-41759597D01*
X39815000Y-41759585D01*
X39815000Y-40715000D01*
X38961000Y-40715000D01*
X38453000Y-40715000D01*
X37599000Y-40715000D01*
X35580357Y-40715000D01*
X35546030Y-40659348D01*
X35546029Y-40659347D01*
X35546024Y-40659341D01*
X35420658Y-40533975D01*
X35420652Y-40533970D01*
X35269739Y-40440885D01*
X35185583Y-40412999D01*
X35101428Y-40385113D01*
X35101421Y-40385112D01*
X34997554Y-40374500D01*
X34997546Y-40374500D01*
X34246454Y-40374500D01*
X34246446Y-40374500D01*
X34142578Y-40385112D01*
X34142571Y-40385113D01*
X33974261Y-40440885D01*
X33823347Y-40533970D01*
X33823341Y-40533975D01*
X33697975Y-40659341D01*
X33697970Y-40659347D01*
X33604885Y-40810261D01*
X33549113Y-40978571D01*
X33549112Y-40978578D01*
X33538500Y-41082445D01*
X33538500Y-42483554D01*
X33538499Y-42483554D01*
X32755500Y-42483554D01*
X32755500Y-42483553D01*
X32755500Y-41082445D01*
X32748677Y-41015673D01*
X32744887Y-40978573D01*
X32689115Y-40810261D01*
X32596030Y-40659348D01*
X32596029Y-40659347D01*
X32596024Y-40659341D01*
X32470658Y-40533975D01*
X32470652Y-40533970D01*
X32319739Y-40440885D01*
X32235583Y-40412999D01*
X32151428Y-40385113D01*
X32151421Y-40385112D01*
X32047554Y-40374500D01*
X32047546Y-40374500D01*
X31296454Y-40374500D01*
X31296446Y-40374500D01*
X31192578Y-40385112D01*
X31192571Y-40385113D01*
X31024261Y-40440885D01*
X30873347Y-40533970D01*
X30779705Y-40627612D01*
X30717393Y-40661637D01*
X30646577Y-40656571D01*
X30601515Y-40627611D01*
X28229405Y-38255501D01*
X28195379Y-38193189D01*
X28192500Y-38166406D01*
X28192500Y-38105789D01*
X28212502Y-38037668D01*
X28266158Y-37991175D01*
X28336432Y-37981071D01*
X28388501Y-38001023D01*
X28533086Y-38097632D01*
X28715165Y-38173051D01*
X28908459Y-38211500D01*
X29105541Y-38211500D01*
X29298835Y-38173051D01*
X29480914Y-38097632D01*
X29644782Y-37988139D01*
X29784139Y-37848782D01*
X29880500Y-37704568D01*
X29934975Y-37659041D01*
X30005418Y-37650192D01*
X30069463Y-37680833D01*
G37*
%TD.AperFunction*%
M02*
