%TF.GenerationSoftware,KiCad,Pcbnew,8.0.1*%
%TF.CreationDate,2024-04-11T01:32:40-05:00*%
%TF.ProjectId,FeatherWing_KC5,46656174-6865-4725-9769-6e675f4b4335,rev?*%
%TF.SameCoordinates,Original*%
%TF.FileFunction,Soldermask,Bot*%
%TF.FilePolarity,Negative*%
%FSLAX46Y46*%
G04 Gerber Fmt 4.6, Leading zero omitted, Abs format (unit mm)*
G04 Created by KiCad (PCBNEW 8.0.1) date 2024-04-11 01:32:40*
%MOMM*%
%LPD*%
G01*
G04 APERTURE LIST*
G04 APERTURE END LIST*
G36*
X27995892Y-92583785D02*
G01*
X28055694Y-92583785D01*
X28109079Y-92592693D01*
X28159109Y-92596631D01*
X28219361Y-92611096D01*
X28283925Y-92621870D01*
X28329712Y-92637589D01*
X28372811Y-92647936D01*
X28435549Y-92673923D01*
X28502775Y-92697002D01*
X28540323Y-92717322D01*
X28575865Y-92732044D01*
X28638860Y-92770647D01*
X28706274Y-92807130D01*
X28735445Y-92829835D01*
X28763257Y-92846878D01*
X28824028Y-92898781D01*
X28888871Y-92949251D01*
X28910025Y-92972230D01*
X28930382Y-92989617D01*
X28986280Y-93055065D01*
X29045586Y-93119488D01*
X29059524Y-93140823D01*
X29073121Y-93156742D01*
X29121438Y-93235588D01*
X29172143Y-93313198D01*
X29180065Y-93331259D01*
X29187955Y-93344134D01*
X29225979Y-93435933D01*
X29265090Y-93525096D01*
X29268515Y-93538624D01*
X29272063Y-93547188D01*
X29297219Y-93651974D01*
X29321892Y-93749403D01*
X29322567Y-93757556D01*
X29323368Y-93760890D01*
X29333288Y-93886935D01*
X29341000Y-93980000D01*
X29333287Y-94073072D01*
X29323368Y-94199109D01*
X29322567Y-94202442D01*
X29321892Y-94210597D01*
X29297215Y-94308043D01*
X29272063Y-94412811D01*
X29268516Y-94421372D01*
X29265090Y-94434904D01*
X29225972Y-94524083D01*
X29187955Y-94615865D01*
X29180067Y-94628736D01*
X29172143Y-94646802D01*
X29121428Y-94724426D01*
X29073121Y-94803257D01*
X29059527Y-94819172D01*
X29045586Y-94840512D01*
X28986268Y-94904947D01*
X28930382Y-94970382D01*
X28910029Y-94987764D01*
X28888871Y-95010749D01*
X28824015Y-95061228D01*
X28763257Y-95113121D01*
X28735451Y-95130160D01*
X28706274Y-95152870D01*
X28638846Y-95189359D01*
X28575865Y-95227955D01*
X28540331Y-95242673D01*
X28502775Y-95262998D01*
X28435535Y-95286081D01*
X28372811Y-95312063D01*
X28329722Y-95322407D01*
X28283925Y-95338130D01*
X28219347Y-95348906D01*
X28159109Y-95363368D01*
X28109090Y-95367304D01*
X28055694Y-95376215D01*
X27995879Y-95376215D01*
X27940000Y-95380613D01*
X27884120Y-95376215D01*
X27824306Y-95376215D01*
X27770910Y-95367304D01*
X27720890Y-95363368D01*
X27660648Y-95348905D01*
X27596075Y-95338130D01*
X27550280Y-95322408D01*
X27507188Y-95312063D01*
X27444458Y-95286079D01*
X27377225Y-95262998D01*
X27339672Y-95242675D01*
X27304134Y-95227955D01*
X27241145Y-95189355D01*
X27173726Y-95152870D01*
X27144552Y-95130163D01*
X27116742Y-95113121D01*
X27055973Y-95061219D01*
X26991129Y-95010749D01*
X26969973Y-94987768D01*
X26949617Y-94970382D01*
X26893717Y-94904932D01*
X26834414Y-94840512D01*
X26820475Y-94819177D01*
X26806878Y-94803257D01*
X26758555Y-94724401D01*
X26707857Y-94646802D01*
X26699935Y-94628742D01*
X26692044Y-94615865D01*
X26654009Y-94524042D01*
X26614910Y-94434904D01*
X26611485Y-94421379D01*
X26607936Y-94412811D01*
X26582765Y-94307967D01*
X26558108Y-94210597D01*
X26557432Y-94202448D01*
X26556631Y-94199109D01*
X26546692Y-94072831D01*
X26539000Y-93980000D01*
X26546691Y-93887176D01*
X26556631Y-93760890D01*
X26557432Y-93757549D01*
X26558108Y-93749403D01*
X26582760Y-93652050D01*
X26607936Y-93547188D01*
X26611485Y-93538618D01*
X26614910Y-93525096D01*
X26654002Y-93435973D01*
X26692044Y-93344134D01*
X26699936Y-93331253D01*
X26707857Y-93313198D01*
X26758545Y-93235613D01*
X26806878Y-93156742D01*
X26820478Y-93140818D01*
X26834414Y-93119488D01*
X26893705Y-93055080D01*
X26949617Y-92989617D01*
X26969978Y-92972226D01*
X26991129Y-92949251D01*
X27055960Y-92898790D01*
X27116742Y-92846878D01*
X27144558Y-92829832D01*
X27173726Y-92807130D01*
X27241131Y-92770652D01*
X27304134Y-92732044D01*
X27339679Y-92717320D01*
X27377225Y-92697002D01*
X27444444Y-92673925D01*
X27507188Y-92647936D01*
X27550289Y-92637588D01*
X27596075Y-92621870D01*
X27660635Y-92611096D01*
X27720890Y-92596631D01*
X27770921Y-92592693D01*
X27824306Y-92583785D01*
X27884108Y-92583785D01*
X27940000Y-92579386D01*
X27995892Y-92583785D01*
G37*
G36*
X73715892Y-92583785D02*
G01*
X73775694Y-92583785D01*
X73829079Y-92592693D01*
X73879109Y-92596631D01*
X73939361Y-92611096D01*
X74003925Y-92621870D01*
X74049712Y-92637589D01*
X74092811Y-92647936D01*
X74155549Y-92673923D01*
X74222775Y-92697002D01*
X74260323Y-92717322D01*
X74295865Y-92732044D01*
X74358860Y-92770647D01*
X74426274Y-92807130D01*
X74455445Y-92829835D01*
X74483257Y-92846878D01*
X74544028Y-92898781D01*
X74608871Y-92949251D01*
X74630025Y-92972230D01*
X74650382Y-92989617D01*
X74706280Y-93055065D01*
X74765586Y-93119488D01*
X74779524Y-93140823D01*
X74793121Y-93156742D01*
X74841438Y-93235588D01*
X74892143Y-93313198D01*
X74900065Y-93331259D01*
X74907955Y-93344134D01*
X74945979Y-93435933D01*
X74985090Y-93525096D01*
X74988515Y-93538624D01*
X74992063Y-93547188D01*
X75017219Y-93651974D01*
X75041892Y-93749403D01*
X75042567Y-93757556D01*
X75043368Y-93760890D01*
X75053288Y-93886935D01*
X75061000Y-93980000D01*
X75053287Y-94073072D01*
X75043368Y-94199109D01*
X75042567Y-94202442D01*
X75041892Y-94210597D01*
X75017215Y-94308043D01*
X74992063Y-94412811D01*
X74988516Y-94421372D01*
X74985090Y-94434904D01*
X74945972Y-94524083D01*
X74907955Y-94615865D01*
X74900067Y-94628736D01*
X74892143Y-94646802D01*
X74841428Y-94724426D01*
X74793121Y-94803257D01*
X74779527Y-94819172D01*
X74765586Y-94840512D01*
X74706268Y-94904947D01*
X74650382Y-94970382D01*
X74630029Y-94987764D01*
X74608871Y-95010749D01*
X74544015Y-95061228D01*
X74483257Y-95113121D01*
X74455451Y-95130160D01*
X74426274Y-95152870D01*
X74358846Y-95189359D01*
X74295865Y-95227955D01*
X74260331Y-95242673D01*
X74222775Y-95262998D01*
X74155535Y-95286081D01*
X74092811Y-95312063D01*
X74049722Y-95322407D01*
X74003925Y-95338130D01*
X73939347Y-95348906D01*
X73879109Y-95363368D01*
X73829090Y-95367304D01*
X73775694Y-95376215D01*
X73715879Y-95376215D01*
X73660000Y-95380613D01*
X73604120Y-95376215D01*
X73544306Y-95376215D01*
X73490910Y-95367304D01*
X73440890Y-95363368D01*
X73380648Y-95348905D01*
X73316075Y-95338130D01*
X73270280Y-95322408D01*
X73227188Y-95312063D01*
X73164458Y-95286079D01*
X73097225Y-95262998D01*
X73059672Y-95242675D01*
X73024134Y-95227955D01*
X72961145Y-95189355D01*
X72893726Y-95152870D01*
X72864552Y-95130163D01*
X72836742Y-95113121D01*
X72775973Y-95061219D01*
X72711129Y-95010749D01*
X72689973Y-94987768D01*
X72669617Y-94970382D01*
X72613717Y-94904932D01*
X72554414Y-94840512D01*
X72540475Y-94819177D01*
X72526878Y-94803257D01*
X72478555Y-94724401D01*
X72427857Y-94646802D01*
X72419935Y-94628742D01*
X72412044Y-94615865D01*
X72374009Y-94524042D01*
X72334910Y-94434904D01*
X72331485Y-94421379D01*
X72327936Y-94412811D01*
X72302765Y-94307967D01*
X72278108Y-94210597D01*
X72277432Y-94202448D01*
X72276631Y-94199109D01*
X72266692Y-94072831D01*
X72259000Y-93980000D01*
X72266691Y-93887176D01*
X72276631Y-93760890D01*
X72277432Y-93757549D01*
X72278108Y-93749403D01*
X72302760Y-93652050D01*
X72327936Y-93547188D01*
X72331485Y-93538618D01*
X72334910Y-93525096D01*
X72374002Y-93435973D01*
X72412044Y-93344134D01*
X72419936Y-93331253D01*
X72427857Y-93313198D01*
X72478545Y-93235613D01*
X72526878Y-93156742D01*
X72540478Y-93140818D01*
X72554414Y-93119488D01*
X72613705Y-93055080D01*
X72669617Y-92989617D01*
X72689978Y-92972226D01*
X72711129Y-92949251D01*
X72775960Y-92898790D01*
X72836742Y-92846878D01*
X72864558Y-92829832D01*
X72893726Y-92807130D01*
X72961131Y-92770652D01*
X73024134Y-92732044D01*
X73059679Y-92717320D01*
X73097225Y-92697002D01*
X73164444Y-92673925D01*
X73227188Y-92647936D01*
X73270289Y-92637588D01*
X73316075Y-92621870D01*
X73380635Y-92611096D01*
X73440890Y-92596631D01*
X73490921Y-92592693D01*
X73544306Y-92583785D01*
X73604108Y-92583785D01*
X73660000Y-92579386D01*
X73715892Y-92583785D01*
G37*
G36*
X70719517Y-46092882D02*
G01*
X70736062Y-46103938D01*
X70747118Y-46120483D01*
X70751000Y-46140000D01*
X70751000Y-47840000D01*
X70747118Y-47859517D01*
X70736062Y-47876062D01*
X70719517Y-47887118D01*
X70700000Y-47891000D01*
X69000000Y-47891000D01*
X68980483Y-47887118D01*
X68963938Y-47876062D01*
X68952882Y-47859517D01*
X68949000Y-47840000D01*
X68949000Y-46140000D01*
X68952882Y-46120483D01*
X68963938Y-46103938D01*
X68980483Y-46092882D01*
X69000000Y-46089000D01*
X70700000Y-46089000D01*
X70719517Y-46092882D01*
G37*
G36*
X31793983Y-46093936D02*
G01*
X31844180Y-46093936D01*
X31887524Y-46103149D01*
X31925659Y-46106905D01*
X31973566Y-46121437D01*
X32028424Y-46133098D01*
X32063530Y-46148728D01*
X32094566Y-46158143D01*
X32143884Y-46184504D01*
X32200500Y-46209711D01*
X32226822Y-46228835D01*
X32250232Y-46241348D01*
X32297988Y-46280540D01*
X32352887Y-46320427D01*
X32370711Y-46340223D01*
X32386675Y-46353324D01*
X32429572Y-46405594D01*
X32478924Y-46460405D01*
X32489292Y-46478363D01*
X32498651Y-46489767D01*
X32533273Y-46554542D01*
X32573104Y-46623530D01*
X32577685Y-46637630D01*
X32581856Y-46645433D01*
X32604852Y-46721242D01*
X32631311Y-46802672D01*
X32632242Y-46811532D01*
X32633094Y-46814340D01*
X32641384Y-46898513D01*
X32651000Y-46990000D01*
X32641383Y-47081494D01*
X32633094Y-47165659D01*
X32632242Y-47168466D01*
X32631311Y-47177328D01*
X32604848Y-47258771D01*
X32581856Y-47334566D01*
X32577686Y-47342366D01*
X32573104Y-47356470D01*
X32533266Y-47425470D01*
X32498651Y-47490232D01*
X32489294Y-47501633D01*
X32478924Y-47519595D01*
X32429563Y-47574415D01*
X32386675Y-47626675D01*
X32370714Y-47639773D01*
X32352887Y-47659573D01*
X32297977Y-47699467D01*
X32250232Y-47738651D01*
X32226827Y-47751161D01*
X32200500Y-47770289D01*
X32143873Y-47795500D01*
X32094566Y-47821856D01*
X32063537Y-47831268D01*
X32028424Y-47846902D01*
X31973555Y-47858564D01*
X31925659Y-47873094D01*
X31887532Y-47876849D01*
X31844180Y-47886064D01*
X31793973Y-47886064D01*
X31750000Y-47890395D01*
X31706027Y-47886064D01*
X31655820Y-47886064D01*
X31612467Y-47876849D01*
X31574340Y-47873094D01*
X31526441Y-47858563D01*
X31471576Y-47846902D01*
X31436464Y-47831269D01*
X31405433Y-47821856D01*
X31356120Y-47795498D01*
X31299500Y-47770289D01*
X31273175Y-47751163D01*
X31249767Y-47738651D01*
X31202013Y-47699460D01*
X31147113Y-47659573D01*
X31129287Y-47639776D01*
X31113324Y-47626675D01*
X31070425Y-47574402D01*
X31021076Y-47519595D01*
X31010708Y-47501637D01*
X31001348Y-47490232D01*
X30966719Y-47425447D01*
X30926896Y-47356470D01*
X30922315Y-47342371D01*
X30918143Y-47334566D01*
X30895136Y-47258725D01*
X30868689Y-47177328D01*
X30867758Y-47168471D01*
X30866905Y-47165659D01*
X30858600Y-47081342D01*
X30849000Y-46990000D01*
X30858599Y-46898664D01*
X30866905Y-46814340D01*
X30867758Y-46811527D01*
X30868689Y-46802672D01*
X30895132Y-46721288D01*
X30918143Y-46645433D01*
X30922315Y-46637626D01*
X30926896Y-46623530D01*
X30966712Y-46554565D01*
X31001348Y-46489767D01*
X31010710Y-46478359D01*
X31021076Y-46460405D01*
X31070416Y-46405607D01*
X31113324Y-46353324D01*
X31129291Y-46340219D01*
X31147113Y-46320427D01*
X31202002Y-46280546D01*
X31249767Y-46241348D01*
X31273180Y-46228833D01*
X31299500Y-46209711D01*
X31356109Y-46184506D01*
X31405433Y-46158143D01*
X31436471Y-46148727D01*
X31471576Y-46133098D01*
X31526430Y-46121438D01*
X31574340Y-46106905D01*
X31612476Y-46103148D01*
X31655820Y-46093936D01*
X31706016Y-46093936D01*
X31750000Y-46089604D01*
X31793983Y-46093936D01*
G37*
G36*
X34333983Y-46093936D02*
G01*
X34384180Y-46093936D01*
X34427524Y-46103149D01*
X34465659Y-46106905D01*
X34513566Y-46121437D01*
X34568424Y-46133098D01*
X34603530Y-46148728D01*
X34634566Y-46158143D01*
X34683884Y-46184504D01*
X34740500Y-46209711D01*
X34766822Y-46228835D01*
X34790232Y-46241348D01*
X34837988Y-46280540D01*
X34892887Y-46320427D01*
X34910711Y-46340223D01*
X34926675Y-46353324D01*
X34969572Y-46405594D01*
X35018924Y-46460405D01*
X35029292Y-46478363D01*
X35038651Y-46489767D01*
X35073273Y-46554542D01*
X35113104Y-46623530D01*
X35117685Y-46637630D01*
X35121856Y-46645433D01*
X35144852Y-46721242D01*
X35171311Y-46802672D01*
X35172242Y-46811532D01*
X35173094Y-46814340D01*
X35181384Y-46898513D01*
X35191000Y-46990000D01*
X35181383Y-47081494D01*
X35173094Y-47165659D01*
X35172242Y-47168466D01*
X35171311Y-47177328D01*
X35144848Y-47258771D01*
X35121856Y-47334566D01*
X35117686Y-47342366D01*
X35113104Y-47356470D01*
X35073266Y-47425470D01*
X35038651Y-47490232D01*
X35029294Y-47501633D01*
X35018924Y-47519595D01*
X34969563Y-47574415D01*
X34926675Y-47626675D01*
X34910714Y-47639773D01*
X34892887Y-47659573D01*
X34837977Y-47699467D01*
X34790232Y-47738651D01*
X34766827Y-47751161D01*
X34740500Y-47770289D01*
X34683873Y-47795500D01*
X34634566Y-47821856D01*
X34603537Y-47831268D01*
X34568424Y-47846902D01*
X34513555Y-47858564D01*
X34465659Y-47873094D01*
X34427532Y-47876849D01*
X34384180Y-47886064D01*
X34333973Y-47886064D01*
X34290000Y-47890395D01*
X34246027Y-47886064D01*
X34195820Y-47886064D01*
X34152467Y-47876849D01*
X34114340Y-47873094D01*
X34066441Y-47858563D01*
X34011576Y-47846902D01*
X33976464Y-47831269D01*
X33945433Y-47821856D01*
X33896120Y-47795498D01*
X33839500Y-47770289D01*
X33813175Y-47751163D01*
X33789767Y-47738651D01*
X33742013Y-47699460D01*
X33687113Y-47659573D01*
X33669287Y-47639776D01*
X33653324Y-47626675D01*
X33610425Y-47574402D01*
X33561076Y-47519595D01*
X33550708Y-47501637D01*
X33541348Y-47490232D01*
X33506719Y-47425447D01*
X33466896Y-47356470D01*
X33462315Y-47342371D01*
X33458143Y-47334566D01*
X33435136Y-47258725D01*
X33408689Y-47177328D01*
X33407758Y-47168471D01*
X33406905Y-47165659D01*
X33398600Y-47081342D01*
X33389000Y-46990000D01*
X33398599Y-46898664D01*
X33406905Y-46814340D01*
X33407758Y-46811527D01*
X33408689Y-46802672D01*
X33435132Y-46721288D01*
X33458143Y-46645433D01*
X33462315Y-46637626D01*
X33466896Y-46623530D01*
X33506712Y-46554565D01*
X33541348Y-46489767D01*
X33550710Y-46478359D01*
X33561076Y-46460405D01*
X33610416Y-46405607D01*
X33653324Y-46353324D01*
X33669291Y-46340219D01*
X33687113Y-46320427D01*
X33742002Y-46280546D01*
X33789767Y-46241348D01*
X33813180Y-46228833D01*
X33839500Y-46209711D01*
X33896109Y-46184506D01*
X33945433Y-46158143D01*
X33976471Y-46148727D01*
X34011576Y-46133098D01*
X34066430Y-46121438D01*
X34114340Y-46106905D01*
X34152476Y-46103148D01*
X34195820Y-46093936D01*
X34246016Y-46093936D01*
X34290000Y-46089604D01*
X34333983Y-46093936D01*
G37*
G36*
X36873983Y-46093936D02*
G01*
X36924180Y-46093936D01*
X36967524Y-46103149D01*
X37005659Y-46106905D01*
X37053566Y-46121437D01*
X37108424Y-46133098D01*
X37143530Y-46148728D01*
X37174566Y-46158143D01*
X37223884Y-46184504D01*
X37280500Y-46209711D01*
X37306822Y-46228835D01*
X37330232Y-46241348D01*
X37377988Y-46280540D01*
X37432887Y-46320427D01*
X37450711Y-46340223D01*
X37466675Y-46353324D01*
X37509572Y-46405594D01*
X37558924Y-46460405D01*
X37569292Y-46478363D01*
X37578651Y-46489767D01*
X37613273Y-46554542D01*
X37653104Y-46623530D01*
X37657685Y-46637630D01*
X37661856Y-46645433D01*
X37684852Y-46721242D01*
X37711311Y-46802672D01*
X37712242Y-46811532D01*
X37713094Y-46814340D01*
X37721384Y-46898513D01*
X37731000Y-46990000D01*
X37721383Y-47081494D01*
X37713094Y-47165659D01*
X37712242Y-47168466D01*
X37711311Y-47177328D01*
X37684848Y-47258771D01*
X37661856Y-47334566D01*
X37657686Y-47342366D01*
X37653104Y-47356470D01*
X37613266Y-47425470D01*
X37578651Y-47490232D01*
X37569294Y-47501633D01*
X37558924Y-47519595D01*
X37509563Y-47574415D01*
X37466675Y-47626675D01*
X37450714Y-47639773D01*
X37432887Y-47659573D01*
X37377977Y-47699467D01*
X37330232Y-47738651D01*
X37306827Y-47751161D01*
X37280500Y-47770289D01*
X37223873Y-47795500D01*
X37174566Y-47821856D01*
X37143537Y-47831268D01*
X37108424Y-47846902D01*
X37053555Y-47858564D01*
X37005659Y-47873094D01*
X36967532Y-47876849D01*
X36924180Y-47886064D01*
X36873973Y-47886064D01*
X36830000Y-47890395D01*
X36786027Y-47886064D01*
X36735820Y-47886064D01*
X36692467Y-47876849D01*
X36654340Y-47873094D01*
X36606441Y-47858563D01*
X36551576Y-47846902D01*
X36516464Y-47831269D01*
X36485433Y-47821856D01*
X36436120Y-47795498D01*
X36379500Y-47770289D01*
X36353175Y-47751163D01*
X36329767Y-47738651D01*
X36282013Y-47699460D01*
X36227113Y-47659573D01*
X36209287Y-47639776D01*
X36193324Y-47626675D01*
X36150425Y-47574402D01*
X36101076Y-47519595D01*
X36090708Y-47501637D01*
X36081348Y-47490232D01*
X36046719Y-47425447D01*
X36006896Y-47356470D01*
X36002315Y-47342371D01*
X35998143Y-47334566D01*
X35975136Y-47258725D01*
X35948689Y-47177328D01*
X35947758Y-47168471D01*
X35946905Y-47165659D01*
X35938600Y-47081342D01*
X35929000Y-46990000D01*
X35938599Y-46898664D01*
X35946905Y-46814340D01*
X35947758Y-46811527D01*
X35948689Y-46802672D01*
X35975132Y-46721288D01*
X35998143Y-46645433D01*
X36002315Y-46637626D01*
X36006896Y-46623530D01*
X36046712Y-46554565D01*
X36081348Y-46489767D01*
X36090710Y-46478359D01*
X36101076Y-46460405D01*
X36150416Y-46405607D01*
X36193324Y-46353324D01*
X36209291Y-46340219D01*
X36227113Y-46320427D01*
X36282002Y-46280546D01*
X36329767Y-46241348D01*
X36353180Y-46228833D01*
X36379500Y-46209711D01*
X36436109Y-46184506D01*
X36485433Y-46158143D01*
X36516471Y-46148727D01*
X36551576Y-46133098D01*
X36606430Y-46121438D01*
X36654340Y-46106905D01*
X36692476Y-46103148D01*
X36735820Y-46093936D01*
X36786016Y-46093936D01*
X36830000Y-46089604D01*
X36873983Y-46093936D01*
G37*
G36*
X39413983Y-46093936D02*
G01*
X39464180Y-46093936D01*
X39507524Y-46103149D01*
X39545659Y-46106905D01*
X39593566Y-46121437D01*
X39648424Y-46133098D01*
X39683530Y-46148728D01*
X39714566Y-46158143D01*
X39763884Y-46184504D01*
X39820500Y-46209711D01*
X39846822Y-46228835D01*
X39870232Y-46241348D01*
X39917988Y-46280540D01*
X39972887Y-46320427D01*
X39990711Y-46340223D01*
X40006675Y-46353324D01*
X40049572Y-46405594D01*
X40098924Y-46460405D01*
X40109292Y-46478363D01*
X40118651Y-46489767D01*
X40153273Y-46554542D01*
X40193104Y-46623530D01*
X40197685Y-46637630D01*
X40201856Y-46645433D01*
X40224852Y-46721242D01*
X40251311Y-46802672D01*
X40252242Y-46811532D01*
X40253094Y-46814340D01*
X40261384Y-46898513D01*
X40271000Y-46990000D01*
X40261383Y-47081494D01*
X40253094Y-47165659D01*
X40252242Y-47168466D01*
X40251311Y-47177328D01*
X40224848Y-47258771D01*
X40201856Y-47334566D01*
X40197686Y-47342366D01*
X40193104Y-47356470D01*
X40153266Y-47425470D01*
X40118651Y-47490232D01*
X40109294Y-47501633D01*
X40098924Y-47519595D01*
X40049563Y-47574415D01*
X40006675Y-47626675D01*
X39990714Y-47639773D01*
X39972887Y-47659573D01*
X39917977Y-47699467D01*
X39870232Y-47738651D01*
X39846827Y-47751161D01*
X39820500Y-47770289D01*
X39763873Y-47795500D01*
X39714566Y-47821856D01*
X39683537Y-47831268D01*
X39648424Y-47846902D01*
X39593555Y-47858564D01*
X39545659Y-47873094D01*
X39507532Y-47876849D01*
X39464180Y-47886064D01*
X39413973Y-47886064D01*
X39370000Y-47890395D01*
X39326027Y-47886064D01*
X39275820Y-47886064D01*
X39232467Y-47876849D01*
X39194340Y-47873094D01*
X39146441Y-47858563D01*
X39091576Y-47846902D01*
X39056464Y-47831269D01*
X39025433Y-47821856D01*
X38976120Y-47795498D01*
X38919500Y-47770289D01*
X38893175Y-47751163D01*
X38869767Y-47738651D01*
X38822013Y-47699460D01*
X38767113Y-47659573D01*
X38749287Y-47639776D01*
X38733324Y-47626675D01*
X38690425Y-47574402D01*
X38641076Y-47519595D01*
X38630708Y-47501637D01*
X38621348Y-47490232D01*
X38586719Y-47425447D01*
X38546896Y-47356470D01*
X38542315Y-47342371D01*
X38538143Y-47334566D01*
X38515136Y-47258725D01*
X38488689Y-47177328D01*
X38487758Y-47168471D01*
X38486905Y-47165659D01*
X38478600Y-47081342D01*
X38469000Y-46990000D01*
X38478599Y-46898664D01*
X38486905Y-46814340D01*
X38487758Y-46811527D01*
X38488689Y-46802672D01*
X38515132Y-46721288D01*
X38538143Y-46645433D01*
X38542315Y-46637626D01*
X38546896Y-46623530D01*
X38586712Y-46554565D01*
X38621348Y-46489767D01*
X38630710Y-46478359D01*
X38641076Y-46460405D01*
X38690416Y-46405607D01*
X38733324Y-46353324D01*
X38749291Y-46340219D01*
X38767113Y-46320427D01*
X38822002Y-46280546D01*
X38869767Y-46241348D01*
X38893180Y-46228833D01*
X38919500Y-46209711D01*
X38976109Y-46184506D01*
X39025433Y-46158143D01*
X39056471Y-46148727D01*
X39091576Y-46133098D01*
X39146430Y-46121438D01*
X39194340Y-46106905D01*
X39232476Y-46103148D01*
X39275820Y-46093936D01*
X39326016Y-46093936D01*
X39370000Y-46089604D01*
X39413983Y-46093936D01*
G37*
G36*
X41953983Y-46093936D02*
G01*
X42004180Y-46093936D01*
X42047524Y-46103149D01*
X42085659Y-46106905D01*
X42133566Y-46121437D01*
X42188424Y-46133098D01*
X42223530Y-46148728D01*
X42254566Y-46158143D01*
X42303884Y-46184504D01*
X42360500Y-46209711D01*
X42386822Y-46228835D01*
X42410232Y-46241348D01*
X42457988Y-46280540D01*
X42512887Y-46320427D01*
X42530711Y-46340223D01*
X42546675Y-46353324D01*
X42589572Y-46405594D01*
X42638924Y-46460405D01*
X42649292Y-46478363D01*
X42658651Y-46489767D01*
X42693273Y-46554542D01*
X42733104Y-46623530D01*
X42737685Y-46637630D01*
X42741856Y-46645433D01*
X42764852Y-46721242D01*
X42791311Y-46802672D01*
X42792242Y-46811532D01*
X42793094Y-46814340D01*
X42801384Y-46898513D01*
X42811000Y-46990000D01*
X42801383Y-47081494D01*
X42793094Y-47165659D01*
X42792242Y-47168466D01*
X42791311Y-47177328D01*
X42764848Y-47258771D01*
X42741856Y-47334566D01*
X42737686Y-47342366D01*
X42733104Y-47356470D01*
X42693266Y-47425470D01*
X42658651Y-47490232D01*
X42649294Y-47501633D01*
X42638924Y-47519595D01*
X42589563Y-47574415D01*
X42546675Y-47626675D01*
X42530714Y-47639773D01*
X42512887Y-47659573D01*
X42457977Y-47699467D01*
X42410232Y-47738651D01*
X42386827Y-47751161D01*
X42360500Y-47770289D01*
X42303873Y-47795500D01*
X42254566Y-47821856D01*
X42223537Y-47831268D01*
X42188424Y-47846902D01*
X42133555Y-47858564D01*
X42085659Y-47873094D01*
X42047532Y-47876849D01*
X42004180Y-47886064D01*
X41953973Y-47886064D01*
X41910000Y-47890395D01*
X41866027Y-47886064D01*
X41815820Y-47886064D01*
X41772467Y-47876849D01*
X41734340Y-47873094D01*
X41686441Y-47858563D01*
X41631576Y-47846902D01*
X41596464Y-47831269D01*
X41565433Y-47821856D01*
X41516120Y-47795498D01*
X41459500Y-47770289D01*
X41433175Y-47751163D01*
X41409767Y-47738651D01*
X41362013Y-47699460D01*
X41307113Y-47659573D01*
X41289287Y-47639776D01*
X41273324Y-47626675D01*
X41230425Y-47574402D01*
X41181076Y-47519595D01*
X41170708Y-47501637D01*
X41161348Y-47490232D01*
X41126719Y-47425447D01*
X41086896Y-47356470D01*
X41082315Y-47342371D01*
X41078143Y-47334566D01*
X41055136Y-47258725D01*
X41028689Y-47177328D01*
X41027758Y-47168471D01*
X41026905Y-47165659D01*
X41018600Y-47081342D01*
X41009000Y-46990000D01*
X41018599Y-46898664D01*
X41026905Y-46814340D01*
X41027758Y-46811527D01*
X41028689Y-46802672D01*
X41055132Y-46721288D01*
X41078143Y-46645433D01*
X41082315Y-46637626D01*
X41086896Y-46623530D01*
X41126712Y-46554565D01*
X41161348Y-46489767D01*
X41170710Y-46478359D01*
X41181076Y-46460405D01*
X41230416Y-46405607D01*
X41273324Y-46353324D01*
X41289291Y-46340219D01*
X41307113Y-46320427D01*
X41362002Y-46280546D01*
X41409767Y-46241348D01*
X41433180Y-46228833D01*
X41459500Y-46209711D01*
X41516109Y-46184506D01*
X41565433Y-46158143D01*
X41596471Y-46148727D01*
X41631576Y-46133098D01*
X41686430Y-46121438D01*
X41734340Y-46106905D01*
X41772476Y-46103148D01*
X41815820Y-46093936D01*
X41866016Y-46093936D01*
X41910000Y-46089604D01*
X41953983Y-46093936D01*
G37*
G36*
X44493983Y-46093936D02*
G01*
X44544180Y-46093936D01*
X44587524Y-46103149D01*
X44625659Y-46106905D01*
X44673566Y-46121437D01*
X44728424Y-46133098D01*
X44763530Y-46148728D01*
X44794566Y-46158143D01*
X44843884Y-46184504D01*
X44900500Y-46209711D01*
X44926822Y-46228835D01*
X44950232Y-46241348D01*
X44997988Y-46280540D01*
X45052887Y-46320427D01*
X45070711Y-46340223D01*
X45086675Y-46353324D01*
X45129572Y-46405594D01*
X45178924Y-46460405D01*
X45189292Y-46478363D01*
X45198651Y-46489767D01*
X45233273Y-46554542D01*
X45273104Y-46623530D01*
X45277685Y-46637630D01*
X45281856Y-46645433D01*
X45304852Y-46721242D01*
X45331311Y-46802672D01*
X45332242Y-46811532D01*
X45333094Y-46814340D01*
X45341384Y-46898513D01*
X45351000Y-46990000D01*
X45341383Y-47081494D01*
X45333094Y-47165659D01*
X45332242Y-47168466D01*
X45331311Y-47177328D01*
X45304848Y-47258771D01*
X45281856Y-47334566D01*
X45277686Y-47342366D01*
X45273104Y-47356470D01*
X45233266Y-47425470D01*
X45198651Y-47490232D01*
X45189294Y-47501633D01*
X45178924Y-47519595D01*
X45129563Y-47574415D01*
X45086675Y-47626675D01*
X45070714Y-47639773D01*
X45052887Y-47659573D01*
X44997977Y-47699467D01*
X44950232Y-47738651D01*
X44926827Y-47751161D01*
X44900500Y-47770289D01*
X44843873Y-47795500D01*
X44794566Y-47821856D01*
X44763537Y-47831268D01*
X44728424Y-47846902D01*
X44673555Y-47858564D01*
X44625659Y-47873094D01*
X44587532Y-47876849D01*
X44544180Y-47886064D01*
X44493973Y-47886064D01*
X44450000Y-47890395D01*
X44406027Y-47886064D01*
X44355820Y-47886064D01*
X44312467Y-47876849D01*
X44274340Y-47873094D01*
X44226441Y-47858563D01*
X44171576Y-47846902D01*
X44136464Y-47831269D01*
X44105433Y-47821856D01*
X44056120Y-47795498D01*
X43999500Y-47770289D01*
X43973175Y-47751163D01*
X43949767Y-47738651D01*
X43902013Y-47699460D01*
X43847113Y-47659573D01*
X43829287Y-47639776D01*
X43813324Y-47626675D01*
X43770425Y-47574402D01*
X43721076Y-47519595D01*
X43710708Y-47501637D01*
X43701348Y-47490232D01*
X43666719Y-47425447D01*
X43626896Y-47356470D01*
X43622315Y-47342371D01*
X43618143Y-47334566D01*
X43595136Y-47258725D01*
X43568689Y-47177328D01*
X43567758Y-47168471D01*
X43566905Y-47165659D01*
X43558600Y-47081342D01*
X43549000Y-46990000D01*
X43558599Y-46898664D01*
X43566905Y-46814340D01*
X43567758Y-46811527D01*
X43568689Y-46802672D01*
X43595132Y-46721288D01*
X43618143Y-46645433D01*
X43622315Y-46637626D01*
X43626896Y-46623530D01*
X43666712Y-46554565D01*
X43701348Y-46489767D01*
X43710710Y-46478359D01*
X43721076Y-46460405D01*
X43770416Y-46405607D01*
X43813324Y-46353324D01*
X43829291Y-46340219D01*
X43847113Y-46320427D01*
X43902002Y-46280546D01*
X43949767Y-46241348D01*
X43973180Y-46228833D01*
X43999500Y-46209711D01*
X44056109Y-46184506D01*
X44105433Y-46158143D01*
X44136471Y-46148727D01*
X44171576Y-46133098D01*
X44226430Y-46121438D01*
X44274340Y-46106905D01*
X44312476Y-46103148D01*
X44355820Y-46093936D01*
X44406016Y-46093936D01*
X44450000Y-46089604D01*
X44493983Y-46093936D01*
G37*
G36*
X47033983Y-46093936D02*
G01*
X47084180Y-46093936D01*
X47127524Y-46103149D01*
X47165659Y-46106905D01*
X47213566Y-46121437D01*
X47268424Y-46133098D01*
X47303530Y-46148728D01*
X47334566Y-46158143D01*
X47383884Y-46184504D01*
X47440500Y-46209711D01*
X47466822Y-46228835D01*
X47490232Y-46241348D01*
X47537988Y-46280540D01*
X47592887Y-46320427D01*
X47610711Y-46340223D01*
X47626675Y-46353324D01*
X47669572Y-46405594D01*
X47718924Y-46460405D01*
X47729292Y-46478363D01*
X47738651Y-46489767D01*
X47773273Y-46554542D01*
X47813104Y-46623530D01*
X47817685Y-46637630D01*
X47821856Y-46645433D01*
X47844852Y-46721242D01*
X47871311Y-46802672D01*
X47872242Y-46811532D01*
X47873094Y-46814340D01*
X47881384Y-46898513D01*
X47891000Y-46990000D01*
X47881383Y-47081494D01*
X47873094Y-47165659D01*
X47872242Y-47168466D01*
X47871311Y-47177328D01*
X47844848Y-47258771D01*
X47821856Y-47334566D01*
X47817686Y-47342366D01*
X47813104Y-47356470D01*
X47773266Y-47425470D01*
X47738651Y-47490232D01*
X47729294Y-47501633D01*
X47718924Y-47519595D01*
X47669563Y-47574415D01*
X47626675Y-47626675D01*
X47610714Y-47639773D01*
X47592887Y-47659573D01*
X47537977Y-47699467D01*
X47490232Y-47738651D01*
X47466827Y-47751161D01*
X47440500Y-47770289D01*
X47383873Y-47795500D01*
X47334566Y-47821856D01*
X47303537Y-47831268D01*
X47268424Y-47846902D01*
X47213555Y-47858564D01*
X47165659Y-47873094D01*
X47127532Y-47876849D01*
X47084180Y-47886064D01*
X47033973Y-47886064D01*
X46990000Y-47890395D01*
X46946027Y-47886064D01*
X46895820Y-47886064D01*
X46852467Y-47876849D01*
X46814340Y-47873094D01*
X46766441Y-47858563D01*
X46711576Y-47846902D01*
X46676464Y-47831269D01*
X46645433Y-47821856D01*
X46596120Y-47795498D01*
X46539500Y-47770289D01*
X46513175Y-47751163D01*
X46489767Y-47738651D01*
X46442013Y-47699460D01*
X46387113Y-47659573D01*
X46369287Y-47639776D01*
X46353324Y-47626675D01*
X46310425Y-47574402D01*
X46261076Y-47519595D01*
X46250708Y-47501637D01*
X46241348Y-47490232D01*
X46206719Y-47425447D01*
X46166896Y-47356470D01*
X46162315Y-47342371D01*
X46158143Y-47334566D01*
X46135136Y-47258725D01*
X46108689Y-47177328D01*
X46107758Y-47168471D01*
X46106905Y-47165659D01*
X46098600Y-47081342D01*
X46089000Y-46990000D01*
X46098599Y-46898664D01*
X46106905Y-46814340D01*
X46107758Y-46811527D01*
X46108689Y-46802672D01*
X46135132Y-46721288D01*
X46158143Y-46645433D01*
X46162315Y-46637626D01*
X46166896Y-46623530D01*
X46206712Y-46554565D01*
X46241348Y-46489767D01*
X46250710Y-46478359D01*
X46261076Y-46460405D01*
X46310416Y-46405607D01*
X46353324Y-46353324D01*
X46369291Y-46340219D01*
X46387113Y-46320427D01*
X46442002Y-46280546D01*
X46489767Y-46241348D01*
X46513180Y-46228833D01*
X46539500Y-46209711D01*
X46596109Y-46184506D01*
X46645433Y-46158143D01*
X46676471Y-46148727D01*
X46711576Y-46133098D01*
X46766430Y-46121438D01*
X46814340Y-46106905D01*
X46852476Y-46103148D01*
X46895820Y-46093936D01*
X46946016Y-46093936D01*
X46990000Y-46089604D01*
X47033983Y-46093936D01*
G37*
G36*
X49573983Y-46093936D02*
G01*
X49624180Y-46093936D01*
X49667524Y-46103149D01*
X49705659Y-46106905D01*
X49753566Y-46121437D01*
X49808424Y-46133098D01*
X49843530Y-46148728D01*
X49874566Y-46158143D01*
X49923884Y-46184504D01*
X49980500Y-46209711D01*
X50006822Y-46228835D01*
X50030232Y-46241348D01*
X50077988Y-46280540D01*
X50132887Y-46320427D01*
X50150711Y-46340223D01*
X50166675Y-46353324D01*
X50209572Y-46405594D01*
X50258924Y-46460405D01*
X50269292Y-46478363D01*
X50278651Y-46489767D01*
X50313273Y-46554542D01*
X50353104Y-46623530D01*
X50357685Y-46637630D01*
X50361856Y-46645433D01*
X50384852Y-46721242D01*
X50411311Y-46802672D01*
X50412242Y-46811532D01*
X50413094Y-46814340D01*
X50421384Y-46898513D01*
X50431000Y-46990000D01*
X50421383Y-47081494D01*
X50413094Y-47165659D01*
X50412242Y-47168466D01*
X50411311Y-47177328D01*
X50384848Y-47258771D01*
X50361856Y-47334566D01*
X50357686Y-47342366D01*
X50353104Y-47356470D01*
X50313266Y-47425470D01*
X50278651Y-47490232D01*
X50269294Y-47501633D01*
X50258924Y-47519595D01*
X50209563Y-47574415D01*
X50166675Y-47626675D01*
X50150714Y-47639773D01*
X50132887Y-47659573D01*
X50077977Y-47699467D01*
X50030232Y-47738651D01*
X50006827Y-47751161D01*
X49980500Y-47770289D01*
X49923873Y-47795500D01*
X49874566Y-47821856D01*
X49843537Y-47831268D01*
X49808424Y-47846902D01*
X49753555Y-47858564D01*
X49705659Y-47873094D01*
X49667532Y-47876849D01*
X49624180Y-47886064D01*
X49573973Y-47886064D01*
X49530000Y-47890395D01*
X49486027Y-47886064D01*
X49435820Y-47886064D01*
X49392467Y-47876849D01*
X49354340Y-47873094D01*
X49306441Y-47858563D01*
X49251576Y-47846902D01*
X49216464Y-47831269D01*
X49185433Y-47821856D01*
X49136120Y-47795498D01*
X49079500Y-47770289D01*
X49053175Y-47751163D01*
X49029767Y-47738651D01*
X48982013Y-47699460D01*
X48927113Y-47659573D01*
X48909287Y-47639776D01*
X48893324Y-47626675D01*
X48850425Y-47574402D01*
X48801076Y-47519595D01*
X48790708Y-47501637D01*
X48781348Y-47490232D01*
X48746719Y-47425447D01*
X48706896Y-47356470D01*
X48702315Y-47342371D01*
X48698143Y-47334566D01*
X48675136Y-47258725D01*
X48648689Y-47177328D01*
X48647758Y-47168471D01*
X48646905Y-47165659D01*
X48638600Y-47081342D01*
X48629000Y-46990000D01*
X48638599Y-46898664D01*
X48646905Y-46814340D01*
X48647758Y-46811527D01*
X48648689Y-46802672D01*
X48675132Y-46721288D01*
X48698143Y-46645433D01*
X48702315Y-46637626D01*
X48706896Y-46623530D01*
X48746712Y-46554565D01*
X48781348Y-46489767D01*
X48790710Y-46478359D01*
X48801076Y-46460405D01*
X48850416Y-46405607D01*
X48893324Y-46353324D01*
X48909291Y-46340219D01*
X48927113Y-46320427D01*
X48982002Y-46280546D01*
X49029767Y-46241348D01*
X49053180Y-46228833D01*
X49079500Y-46209711D01*
X49136109Y-46184506D01*
X49185433Y-46158143D01*
X49216471Y-46148727D01*
X49251576Y-46133098D01*
X49306430Y-46121438D01*
X49354340Y-46106905D01*
X49392476Y-46103148D01*
X49435820Y-46093936D01*
X49486016Y-46093936D01*
X49530000Y-46089604D01*
X49573983Y-46093936D01*
G37*
G36*
X52113983Y-46093936D02*
G01*
X52164180Y-46093936D01*
X52207524Y-46103149D01*
X52245659Y-46106905D01*
X52293566Y-46121437D01*
X52348424Y-46133098D01*
X52383530Y-46148728D01*
X52414566Y-46158143D01*
X52463884Y-46184504D01*
X52520500Y-46209711D01*
X52546822Y-46228835D01*
X52570232Y-46241348D01*
X52617988Y-46280540D01*
X52672887Y-46320427D01*
X52690711Y-46340223D01*
X52706675Y-46353324D01*
X52749572Y-46405594D01*
X52798924Y-46460405D01*
X52809292Y-46478363D01*
X52818651Y-46489767D01*
X52853273Y-46554542D01*
X52893104Y-46623530D01*
X52897685Y-46637630D01*
X52901856Y-46645433D01*
X52924852Y-46721242D01*
X52951311Y-46802672D01*
X52952242Y-46811532D01*
X52953094Y-46814340D01*
X52961384Y-46898513D01*
X52971000Y-46990000D01*
X52961383Y-47081494D01*
X52953094Y-47165659D01*
X52952242Y-47168466D01*
X52951311Y-47177328D01*
X52924848Y-47258771D01*
X52901856Y-47334566D01*
X52897686Y-47342366D01*
X52893104Y-47356470D01*
X52853266Y-47425470D01*
X52818651Y-47490232D01*
X52809294Y-47501633D01*
X52798924Y-47519595D01*
X52749563Y-47574415D01*
X52706675Y-47626675D01*
X52690714Y-47639773D01*
X52672887Y-47659573D01*
X52617977Y-47699467D01*
X52570232Y-47738651D01*
X52546827Y-47751161D01*
X52520500Y-47770289D01*
X52463873Y-47795500D01*
X52414566Y-47821856D01*
X52383537Y-47831268D01*
X52348424Y-47846902D01*
X52293555Y-47858564D01*
X52245659Y-47873094D01*
X52207532Y-47876849D01*
X52164180Y-47886064D01*
X52113973Y-47886064D01*
X52070000Y-47890395D01*
X52026027Y-47886064D01*
X51975820Y-47886064D01*
X51932467Y-47876849D01*
X51894340Y-47873094D01*
X51846441Y-47858563D01*
X51791576Y-47846902D01*
X51756464Y-47831269D01*
X51725433Y-47821856D01*
X51676120Y-47795498D01*
X51619500Y-47770289D01*
X51593175Y-47751163D01*
X51569767Y-47738651D01*
X51522013Y-47699460D01*
X51467113Y-47659573D01*
X51449287Y-47639776D01*
X51433324Y-47626675D01*
X51390425Y-47574402D01*
X51341076Y-47519595D01*
X51330708Y-47501637D01*
X51321348Y-47490232D01*
X51286719Y-47425447D01*
X51246896Y-47356470D01*
X51242315Y-47342371D01*
X51238143Y-47334566D01*
X51215136Y-47258725D01*
X51188689Y-47177328D01*
X51187758Y-47168471D01*
X51186905Y-47165659D01*
X51178600Y-47081342D01*
X51169000Y-46990000D01*
X51178599Y-46898664D01*
X51186905Y-46814340D01*
X51187758Y-46811527D01*
X51188689Y-46802672D01*
X51215132Y-46721288D01*
X51238143Y-46645433D01*
X51242315Y-46637626D01*
X51246896Y-46623530D01*
X51286712Y-46554565D01*
X51321348Y-46489767D01*
X51330710Y-46478359D01*
X51341076Y-46460405D01*
X51390416Y-46405607D01*
X51433324Y-46353324D01*
X51449291Y-46340219D01*
X51467113Y-46320427D01*
X51522002Y-46280546D01*
X51569767Y-46241348D01*
X51593180Y-46228833D01*
X51619500Y-46209711D01*
X51676109Y-46184506D01*
X51725433Y-46158143D01*
X51756471Y-46148727D01*
X51791576Y-46133098D01*
X51846430Y-46121438D01*
X51894340Y-46106905D01*
X51932476Y-46103148D01*
X51975820Y-46093936D01*
X52026016Y-46093936D01*
X52070000Y-46089604D01*
X52113983Y-46093936D01*
G37*
G36*
X54653983Y-46093936D02*
G01*
X54704180Y-46093936D01*
X54747524Y-46103149D01*
X54785659Y-46106905D01*
X54833566Y-46121437D01*
X54888424Y-46133098D01*
X54923530Y-46148728D01*
X54954566Y-46158143D01*
X55003884Y-46184504D01*
X55060500Y-46209711D01*
X55086822Y-46228835D01*
X55110232Y-46241348D01*
X55157988Y-46280540D01*
X55212887Y-46320427D01*
X55230711Y-46340223D01*
X55246675Y-46353324D01*
X55289572Y-46405594D01*
X55338924Y-46460405D01*
X55349292Y-46478363D01*
X55358651Y-46489767D01*
X55393273Y-46554542D01*
X55433104Y-46623530D01*
X55437685Y-46637630D01*
X55441856Y-46645433D01*
X55464852Y-46721242D01*
X55491311Y-46802672D01*
X55492242Y-46811532D01*
X55493094Y-46814340D01*
X55501384Y-46898513D01*
X55511000Y-46990000D01*
X55501383Y-47081494D01*
X55493094Y-47165659D01*
X55492242Y-47168466D01*
X55491311Y-47177328D01*
X55464848Y-47258771D01*
X55441856Y-47334566D01*
X55437686Y-47342366D01*
X55433104Y-47356470D01*
X55393266Y-47425470D01*
X55358651Y-47490232D01*
X55349294Y-47501633D01*
X55338924Y-47519595D01*
X55289563Y-47574415D01*
X55246675Y-47626675D01*
X55230714Y-47639773D01*
X55212887Y-47659573D01*
X55157977Y-47699467D01*
X55110232Y-47738651D01*
X55086827Y-47751161D01*
X55060500Y-47770289D01*
X55003873Y-47795500D01*
X54954566Y-47821856D01*
X54923537Y-47831268D01*
X54888424Y-47846902D01*
X54833555Y-47858564D01*
X54785659Y-47873094D01*
X54747532Y-47876849D01*
X54704180Y-47886064D01*
X54653973Y-47886064D01*
X54610000Y-47890395D01*
X54566027Y-47886064D01*
X54515820Y-47886064D01*
X54472467Y-47876849D01*
X54434340Y-47873094D01*
X54386441Y-47858563D01*
X54331576Y-47846902D01*
X54296464Y-47831269D01*
X54265433Y-47821856D01*
X54216120Y-47795498D01*
X54159500Y-47770289D01*
X54133175Y-47751163D01*
X54109767Y-47738651D01*
X54062013Y-47699460D01*
X54007113Y-47659573D01*
X53989287Y-47639776D01*
X53973324Y-47626675D01*
X53930425Y-47574402D01*
X53881076Y-47519595D01*
X53870708Y-47501637D01*
X53861348Y-47490232D01*
X53826719Y-47425447D01*
X53786896Y-47356470D01*
X53782315Y-47342371D01*
X53778143Y-47334566D01*
X53755136Y-47258725D01*
X53728689Y-47177328D01*
X53727758Y-47168471D01*
X53726905Y-47165659D01*
X53718600Y-47081342D01*
X53709000Y-46990000D01*
X53718599Y-46898664D01*
X53726905Y-46814340D01*
X53727758Y-46811527D01*
X53728689Y-46802672D01*
X53755132Y-46721288D01*
X53778143Y-46645433D01*
X53782315Y-46637626D01*
X53786896Y-46623530D01*
X53826712Y-46554565D01*
X53861348Y-46489767D01*
X53870710Y-46478359D01*
X53881076Y-46460405D01*
X53930416Y-46405607D01*
X53973324Y-46353324D01*
X53989291Y-46340219D01*
X54007113Y-46320427D01*
X54062002Y-46280546D01*
X54109767Y-46241348D01*
X54133180Y-46228833D01*
X54159500Y-46209711D01*
X54216109Y-46184506D01*
X54265433Y-46158143D01*
X54296471Y-46148727D01*
X54331576Y-46133098D01*
X54386430Y-46121438D01*
X54434340Y-46106905D01*
X54472476Y-46103148D01*
X54515820Y-46093936D01*
X54566016Y-46093936D01*
X54610000Y-46089604D01*
X54653983Y-46093936D01*
G37*
G36*
X57193983Y-46093936D02*
G01*
X57244180Y-46093936D01*
X57287524Y-46103149D01*
X57325659Y-46106905D01*
X57373566Y-46121437D01*
X57428424Y-46133098D01*
X57463530Y-46148728D01*
X57494566Y-46158143D01*
X57543884Y-46184504D01*
X57600500Y-46209711D01*
X57626822Y-46228835D01*
X57650232Y-46241348D01*
X57697988Y-46280540D01*
X57752887Y-46320427D01*
X57770711Y-46340223D01*
X57786675Y-46353324D01*
X57829572Y-46405594D01*
X57878924Y-46460405D01*
X57889292Y-46478363D01*
X57898651Y-46489767D01*
X57933273Y-46554542D01*
X57973104Y-46623530D01*
X57977685Y-46637630D01*
X57981856Y-46645433D01*
X58004852Y-46721242D01*
X58031311Y-46802672D01*
X58032242Y-46811532D01*
X58033094Y-46814340D01*
X58041384Y-46898513D01*
X58051000Y-46990000D01*
X58041383Y-47081494D01*
X58033094Y-47165659D01*
X58032242Y-47168466D01*
X58031311Y-47177328D01*
X58004848Y-47258771D01*
X57981856Y-47334566D01*
X57977686Y-47342366D01*
X57973104Y-47356470D01*
X57933266Y-47425470D01*
X57898651Y-47490232D01*
X57889294Y-47501633D01*
X57878924Y-47519595D01*
X57829563Y-47574415D01*
X57786675Y-47626675D01*
X57770714Y-47639773D01*
X57752887Y-47659573D01*
X57697977Y-47699467D01*
X57650232Y-47738651D01*
X57626827Y-47751161D01*
X57600500Y-47770289D01*
X57543873Y-47795500D01*
X57494566Y-47821856D01*
X57463537Y-47831268D01*
X57428424Y-47846902D01*
X57373555Y-47858564D01*
X57325659Y-47873094D01*
X57287532Y-47876849D01*
X57244180Y-47886064D01*
X57193973Y-47886064D01*
X57150000Y-47890395D01*
X57106027Y-47886064D01*
X57055820Y-47886064D01*
X57012467Y-47876849D01*
X56974340Y-47873094D01*
X56926441Y-47858563D01*
X56871576Y-47846902D01*
X56836464Y-47831269D01*
X56805433Y-47821856D01*
X56756120Y-47795498D01*
X56699500Y-47770289D01*
X56673175Y-47751163D01*
X56649767Y-47738651D01*
X56602013Y-47699460D01*
X56547113Y-47659573D01*
X56529287Y-47639776D01*
X56513324Y-47626675D01*
X56470425Y-47574402D01*
X56421076Y-47519595D01*
X56410708Y-47501637D01*
X56401348Y-47490232D01*
X56366719Y-47425447D01*
X56326896Y-47356470D01*
X56322315Y-47342371D01*
X56318143Y-47334566D01*
X56295136Y-47258725D01*
X56268689Y-47177328D01*
X56267758Y-47168471D01*
X56266905Y-47165659D01*
X56258600Y-47081342D01*
X56249000Y-46990000D01*
X56258599Y-46898664D01*
X56266905Y-46814340D01*
X56267758Y-46811527D01*
X56268689Y-46802672D01*
X56295132Y-46721288D01*
X56318143Y-46645433D01*
X56322315Y-46637626D01*
X56326896Y-46623530D01*
X56366712Y-46554565D01*
X56401348Y-46489767D01*
X56410710Y-46478359D01*
X56421076Y-46460405D01*
X56470416Y-46405607D01*
X56513324Y-46353324D01*
X56529291Y-46340219D01*
X56547113Y-46320427D01*
X56602002Y-46280546D01*
X56649767Y-46241348D01*
X56673180Y-46228833D01*
X56699500Y-46209711D01*
X56756109Y-46184506D01*
X56805433Y-46158143D01*
X56836471Y-46148727D01*
X56871576Y-46133098D01*
X56926430Y-46121438D01*
X56974340Y-46106905D01*
X57012476Y-46103148D01*
X57055820Y-46093936D01*
X57106016Y-46093936D01*
X57150000Y-46089604D01*
X57193983Y-46093936D01*
G37*
G36*
X59733983Y-46093936D02*
G01*
X59784180Y-46093936D01*
X59827524Y-46103149D01*
X59865659Y-46106905D01*
X59913566Y-46121437D01*
X59968424Y-46133098D01*
X60003530Y-46148728D01*
X60034566Y-46158143D01*
X60083884Y-46184504D01*
X60140500Y-46209711D01*
X60166822Y-46228835D01*
X60190232Y-46241348D01*
X60237988Y-46280540D01*
X60292887Y-46320427D01*
X60310711Y-46340223D01*
X60326675Y-46353324D01*
X60369572Y-46405594D01*
X60418924Y-46460405D01*
X60429292Y-46478363D01*
X60438651Y-46489767D01*
X60473273Y-46554542D01*
X60513104Y-46623530D01*
X60517685Y-46637630D01*
X60521856Y-46645433D01*
X60544852Y-46721242D01*
X60571311Y-46802672D01*
X60572242Y-46811532D01*
X60573094Y-46814340D01*
X60581384Y-46898513D01*
X60591000Y-46990000D01*
X60581383Y-47081494D01*
X60573094Y-47165659D01*
X60572242Y-47168466D01*
X60571311Y-47177328D01*
X60544848Y-47258771D01*
X60521856Y-47334566D01*
X60517686Y-47342366D01*
X60513104Y-47356470D01*
X60473266Y-47425470D01*
X60438651Y-47490232D01*
X60429294Y-47501633D01*
X60418924Y-47519595D01*
X60369563Y-47574415D01*
X60326675Y-47626675D01*
X60310714Y-47639773D01*
X60292887Y-47659573D01*
X60237977Y-47699467D01*
X60190232Y-47738651D01*
X60166827Y-47751161D01*
X60140500Y-47770289D01*
X60083873Y-47795500D01*
X60034566Y-47821856D01*
X60003537Y-47831268D01*
X59968424Y-47846902D01*
X59913555Y-47858564D01*
X59865659Y-47873094D01*
X59827532Y-47876849D01*
X59784180Y-47886064D01*
X59733973Y-47886064D01*
X59690000Y-47890395D01*
X59646027Y-47886064D01*
X59595820Y-47886064D01*
X59552467Y-47876849D01*
X59514340Y-47873094D01*
X59466441Y-47858563D01*
X59411576Y-47846902D01*
X59376464Y-47831269D01*
X59345433Y-47821856D01*
X59296120Y-47795498D01*
X59239500Y-47770289D01*
X59213175Y-47751163D01*
X59189767Y-47738651D01*
X59142013Y-47699460D01*
X59087113Y-47659573D01*
X59069287Y-47639776D01*
X59053324Y-47626675D01*
X59010425Y-47574402D01*
X58961076Y-47519595D01*
X58950708Y-47501637D01*
X58941348Y-47490232D01*
X58906719Y-47425447D01*
X58866896Y-47356470D01*
X58862315Y-47342371D01*
X58858143Y-47334566D01*
X58835136Y-47258725D01*
X58808689Y-47177328D01*
X58807758Y-47168471D01*
X58806905Y-47165659D01*
X58798600Y-47081342D01*
X58789000Y-46990000D01*
X58798599Y-46898664D01*
X58806905Y-46814340D01*
X58807758Y-46811527D01*
X58808689Y-46802672D01*
X58835132Y-46721288D01*
X58858143Y-46645433D01*
X58862315Y-46637626D01*
X58866896Y-46623530D01*
X58906712Y-46554565D01*
X58941348Y-46489767D01*
X58950710Y-46478359D01*
X58961076Y-46460405D01*
X59010416Y-46405607D01*
X59053324Y-46353324D01*
X59069291Y-46340219D01*
X59087113Y-46320427D01*
X59142002Y-46280546D01*
X59189767Y-46241348D01*
X59213180Y-46228833D01*
X59239500Y-46209711D01*
X59296109Y-46184506D01*
X59345433Y-46158143D01*
X59376471Y-46148727D01*
X59411576Y-46133098D01*
X59466430Y-46121438D01*
X59514340Y-46106905D01*
X59552476Y-46103148D01*
X59595820Y-46093936D01*
X59646016Y-46093936D01*
X59690000Y-46089604D01*
X59733983Y-46093936D01*
G37*
G36*
X62273983Y-46093936D02*
G01*
X62324180Y-46093936D01*
X62367524Y-46103149D01*
X62405659Y-46106905D01*
X62453566Y-46121437D01*
X62508424Y-46133098D01*
X62543530Y-46148728D01*
X62574566Y-46158143D01*
X62623884Y-46184504D01*
X62680500Y-46209711D01*
X62706822Y-46228835D01*
X62730232Y-46241348D01*
X62777988Y-46280540D01*
X62832887Y-46320427D01*
X62850711Y-46340223D01*
X62866675Y-46353324D01*
X62909572Y-46405594D01*
X62958924Y-46460405D01*
X62969292Y-46478363D01*
X62978651Y-46489767D01*
X63013273Y-46554542D01*
X63053104Y-46623530D01*
X63057685Y-46637630D01*
X63061856Y-46645433D01*
X63084852Y-46721242D01*
X63111311Y-46802672D01*
X63112242Y-46811532D01*
X63113094Y-46814340D01*
X63121384Y-46898513D01*
X63131000Y-46990000D01*
X63121383Y-47081494D01*
X63113094Y-47165659D01*
X63112242Y-47168466D01*
X63111311Y-47177328D01*
X63084848Y-47258771D01*
X63061856Y-47334566D01*
X63057686Y-47342366D01*
X63053104Y-47356470D01*
X63013266Y-47425470D01*
X62978651Y-47490232D01*
X62969294Y-47501633D01*
X62958924Y-47519595D01*
X62909563Y-47574415D01*
X62866675Y-47626675D01*
X62850714Y-47639773D01*
X62832887Y-47659573D01*
X62777977Y-47699467D01*
X62730232Y-47738651D01*
X62706827Y-47751161D01*
X62680500Y-47770289D01*
X62623873Y-47795500D01*
X62574566Y-47821856D01*
X62543537Y-47831268D01*
X62508424Y-47846902D01*
X62453555Y-47858564D01*
X62405659Y-47873094D01*
X62367532Y-47876849D01*
X62324180Y-47886064D01*
X62273973Y-47886064D01*
X62230000Y-47890395D01*
X62186027Y-47886064D01*
X62135820Y-47886064D01*
X62092467Y-47876849D01*
X62054340Y-47873094D01*
X62006441Y-47858563D01*
X61951576Y-47846902D01*
X61916464Y-47831269D01*
X61885433Y-47821856D01*
X61836120Y-47795498D01*
X61779500Y-47770289D01*
X61753175Y-47751163D01*
X61729767Y-47738651D01*
X61682013Y-47699460D01*
X61627113Y-47659573D01*
X61609287Y-47639776D01*
X61593324Y-47626675D01*
X61550425Y-47574402D01*
X61501076Y-47519595D01*
X61490708Y-47501637D01*
X61481348Y-47490232D01*
X61446719Y-47425447D01*
X61406896Y-47356470D01*
X61402315Y-47342371D01*
X61398143Y-47334566D01*
X61375136Y-47258725D01*
X61348689Y-47177328D01*
X61347758Y-47168471D01*
X61346905Y-47165659D01*
X61338600Y-47081342D01*
X61329000Y-46990000D01*
X61338599Y-46898664D01*
X61346905Y-46814340D01*
X61347758Y-46811527D01*
X61348689Y-46802672D01*
X61375132Y-46721288D01*
X61398143Y-46645433D01*
X61402315Y-46637626D01*
X61406896Y-46623530D01*
X61446712Y-46554565D01*
X61481348Y-46489767D01*
X61490710Y-46478359D01*
X61501076Y-46460405D01*
X61550416Y-46405607D01*
X61593324Y-46353324D01*
X61609291Y-46340219D01*
X61627113Y-46320427D01*
X61682002Y-46280546D01*
X61729767Y-46241348D01*
X61753180Y-46228833D01*
X61779500Y-46209711D01*
X61836109Y-46184506D01*
X61885433Y-46158143D01*
X61916471Y-46148727D01*
X61951576Y-46133098D01*
X62006430Y-46121438D01*
X62054340Y-46106905D01*
X62092476Y-46103148D01*
X62135820Y-46093936D01*
X62186016Y-46093936D01*
X62230000Y-46089604D01*
X62273983Y-46093936D01*
G37*
G36*
X64813983Y-46093936D02*
G01*
X64864180Y-46093936D01*
X64907524Y-46103149D01*
X64945659Y-46106905D01*
X64993566Y-46121437D01*
X65048424Y-46133098D01*
X65083530Y-46148728D01*
X65114566Y-46158143D01*
X65163884Y-46184504D01*
X65220500Y-46209711D01*
X65246822Y-46228835D01*
X65270232Y-46241348D01*
X65317988Y-46280540D01*
X65372887Y-46320427D01*
X65390711Y-46340223D01*
X65406675Y-46353324D01*
X65449572Y-46405594D01*
X65498924Y-46460405D01*
X65509292Y-46478363D01*
X65518651Y-46489767D01*
X65553273Y-46554542D01*
X65593104Y-46623530D01*
X65597685Y-46637630D01*
X65601856Y-46645433D01*
X65624852Y-46721242D01*
X65651311Y-46802672D01*
X65652242Y-46811532D01*
X65653094Y-46814340D01*
X65661384Y-46898513D01*
X65671000Y-46990000D01*
X65661383Y-47081494D01*
X65653094Y-47165659D01*
X65652242Y-47168466D01*
X65651311Y-47177328D01*
X65624848Y-47258771D01*
X65601856Y-47334566D01*
X65597686Y-47342366D01*
X65593104Y-47356470D01*
X65553266Y-47425470D01*
X65518651Y-47490232D01*
X65509294Y-47501633D01*
X65498924Y-47519595D01*
X65449563Y-47574415D01*
X65406675Y-47626675D01*
X65390714Y-47639773D01*
X65372887Y-47659573D01*
X65317977Y-47699467D01*
X65270232Y-47738651D01*
X65246827Y-47751161D01*
X65220500Y-47770289D01*
X65163873Y-47795500D01*
X65114566Y-47821856D01*
X65083537Y-47831268D01*
X65048424Y-47846902D01*
X64993555Y-47858564D01*
X64945659Y-47873094D01*
X64907532Y-47876849D01*
X64864180Y-47886064D01*
X64813973Y-47886064D01*
X64770000Y-47890395D01*
X64726027Y-47886064D01*
X64675820Y-47886064D01*
X64632467Y-47876849D01*
X64594340Y-47873094D01*
X64546441Y-47858563D01*
X64491576Y-47846902D01*
X64456464Y-47831269D01*
X64425433Y-47821856D01*
X64376120Y-47795498D01*
X64319500Y-47770289D01*
X64293175Y-47751163D01*
X64269767Y-47738651D01*
X64222013Y-47699460D01*
X64167113Y-47659573D01*
X64149287Y-47639776D01*
X64133324Y-47626675D01*
X64090425Y-47574402D01*
X64041076Y-47519595D01*
X64030708Y-47501637D01*
X64021348Y-47490232D01*
X63986719Y-47425447D01*
X63946896Y-47356470D01*
X63942315Y-47342371D01*
X63938143Y-47334566D01*
X63915136Y-47258725D01*
X63888689Y-47177328D01*
X63887758Y-47168471D01*
X63886905Y-47165659D01*
X63878600Y-47081342D01*
X63869000Y-46990000D01*
X63878599Y-46898664D01*
X63886905Y-46814340D01*
X63887758Y-46811527D01*
X63888689Y-46802672D01*
X63915132Y-46721288D01*
X63938143Y-46645433D01*
X63942315Y-46637626D01*
X63946896Y-46623530D01*
X63986712Y-46554565D01*
X64021348Y-46489767D01*
X64030710Y-46478359D01*
X64041076Y-46460405D01*
X64090416Y-46405607D01*
X64133324Y-46353324D01*
X64149291Y-46340219D01*
X64167113Y-46320427D01*
X64222002Y-46280546D01*
X64269767Y-46241348D01*
X64293180Y-46228833D01*
X64319500Y-46209711D01*
X64376109Y-46184506D01*
X64425433Y-46158143D01*
X64456471Y-46148727D01*
X64491576Y-46133098D01*
X64546430Y-46121438D01*
X64594340Y-46106905D01*
X64632476Y-46103148D01*
X64675820Y-46093936D01*
X64726016Y-46093936D01*
X64770000Y-46089604D01*
X64813983Y-46093936D01*
G37*
G36*
X67353983Y-46093936D02*
G01*
X67404180Y-46093936D01*
X67447524Y-46103149D01*
X67485659Y-46106905D01*
X67533566Y-46121437D01*
X67588424Y-46133098D01*
X67623530Y-46148728D01*
X67654566Y-46158143D01*
X67703884Y-46184504D01*
X67760500Y-46209711D01*
X67786822Y-46228835D01*
X67810232Y-46241348D01*
X67857988Y-46280540D01*
X67912887Y-46320427D01*
X67930711Y-46340223D01*
X67946675Y-46353324D01*
X67989572Y-46405594D01*
X68038924Y-46460405D01*
X68049292Y-46478363D01*
X68058651Y-46489767D01*
X68093273Y-46554542D01*
X68133104Y-46623530D01*
X68137685Y-46637630D01*
X68141856Y-46645433D01*
X68164852Y-46721242D01*
X68191311Y-46802672D01*
X68192242Y-46811532D01*
X68193094Y-46814340D01*
X68201384Y-46898513D01*
X68211000Y-46990000D01*
X68201383Y-47081494D01*
X68193094Y-47165659D01*
X68192242Y-47168466D01*
X68191311Y-47177328D01*
X68164848Y-47258771D01*
X68141856Y-47334566D01*
X68137686Y-47342366D01*
X68133104Y-47356470D01*
X68093266Y-47425470D01*
X68058651Y-47490232D01*
X68049294Y-47501633D01*
X68038924Y-47519595D01*
X67989563Y-47574415D01*
X67946675Y-47626675D01*
X67930714Y-47639773D01*
X67912887Y-47659573D01*
X67857977Y-47699467D01*
X67810232Y-47738651D01*
X67786827Y-47751161D01*
X67760500Y-47770289D01*
X67703873Y-47795500D01*
X67654566Y-47821856D01*
X67623537Y-47831268D01*
X67588424Y-47846902D01*
X67533555Y-47858564D01*
X67485659Y-47873094D01*
X67447532Y-47876849D01*
X67404180Y-47886064D01*
X67353973Y-47886064D01*
X67310000Y-47890395D01*
X67266027Y-47886064D01*
X67215820Y-47886064D01*
X67172467Y-47876849D01*
X67134340Y-47873094D01*
X67086441Y-47858563D01*
X67031576Y-47846902D01*
X66996464Y-47831269D01*
X66965433Y-47821856D01*
X66916120Y-47795498D01*
X66859500Y-47770289D01*
X66833175Y-47751163D01*
X66809767Y-47738651D01*
X66762013Y-47699460D01*
X66707113Y-47659573D01*
X66689287Y-47639776D01*
X66673324Y-47626675D01*
X66630425Y-47574402D01*
X66581076Y-47519595D01*
X66570708Y-47501637D01*
X66561348Y-47490232D01*
X66526719Y-47425447D01*
X66486896Y-47356470D01*
X66482315Y-47342371D01*
X66478143Y-47334566D01*
X66455136Y-47258725D01*
X66428689Y-47177328D01*
X66427758Y-47168471D01*
X66426905Y-47165659D01*
X66418600Y-47081342D01*
X66409000Y-46990000D01*
X66418599Y-46898664D01*
X66426905Y-46814340D01*
X66427758Y-46811527D01*
X66428689Y-46802672D01*
X66455132Y-46721288D01*
X66478143Y-46645433D01*
X66482315Y-46637626D01*
X66486896Y-46623530D01*
X66526712Y-46554565D01*
X66561348Y-46489767D01*
X66570710Y-46478359D01*
X66581076Y-46460405D01*
X66630416Y-46405607D01*
X66673324Y-46353324D01*
X66689291Y-46340219D01*
X66707113Y-46320427D01*
X66762002Y-46280546D01*
X66809767Y-46241348D01*
X66833180Y-46228833D01*
X66859500Y-46209711D01*
X66916109Y-46184506D01*
X66965433Y-46158143D01*
X66996471Y-46148727D01*
X67031576Y-46133098D01*
X67086430Y-46121438D01*
X67134340Y-46106905D01*
X67172476Y-46103148D01*
X67215820Y-46093936D01*
X67266016Y-46093936D01*
X67310000Y-46089604D01*
X67353983Y-46093936D01*
G37*
G36*
X29052023Y-36415073D02*
G01*
X29090657Y-36415073D01*
X29134240Y-36424336D01*
X29185239Y-36430083D01*
X29222321Y-36443058D01*
X29254306Y-36449857D01*
X29300401Y-36470379D01*
X29354541Y-36489324D01*
X29382719Y-36507029D01*
X29407157Y-36517910D01*
X29452720Y-36551014D01*
X29506415Y-36584753D01*
X29525700Y-36604038D01*
X29542512Y-36616253D01*
X29584076Y-36662414D01*
X29633247Y-36711585D01*
X29644555Y-36729582D01*
X29654467Y-36740590D01*
X29688376Y-36799322D01*
X29728676Y-36863459D01*
X29733707Y-36877838D01*
X29738120Y-36885481D01*
X29760718Y-36955030D01*
X29787917Y-37032761D01*
X29788948Y-37041913D01*
X29789823Y-37044606D01*
X29797750Y-37120038D01*
X29808000Y-37211000D01*
X29797750Y-37301969D01*
X29789823Y-37377393D01*
X29788948Y-37380084D01*
X29787917Y-37389239D01*
X29760713Y-37466982D01*
X29738120Y-37536518D01*
X29733708Y-37544159D01*
X29728676Y-37558541D01*
X29688369Y-37622688D01*
X29654467Y-37681409D01*
X29644557Y-37692414D01*
X29633247Y-37710415D01*
X29584067Y-37759594D01*
X29542512Y-37805746D01*
X29525704Y-37817957D01*
X29506415Y-37837247D01*
X29452710Y-37870992D01*
X29407157Y-37904089D01*
X29382725Y-37914966D01*
X29354541Y-37932676D01*
X29300391Y-37951623D01*
X29254306Y-37972142D01*
X29222327Y-37978939D01*
X29185239Y-37991917D01*
X29134237Y-37997663D01*
X29090657Y-38006927D01*
X29052023Y-38006927D01*
X29007000Y-38012000D01*
X28961977Y-38006927D01*
X28923343Y-38006927D01*
X28879761Y-37997663D01*
X28828761Y-37991917D01*
X28791674Y-37978939D01*
X28759693Y-37972142D01*
X28713603Y-37951622D01*
X28659459Y-37932676D01*
X28631277Y-37914968D01*
X28606842Y-37904089D01*
X28561282Y-37870987D01*
X28507585Y-37837247D01*
X28488298Y-37817960D01*
X28471487Y-37805746D01*
X28429922Y-37759584D01*
X28380753Y-37710415D01*
X28369444Y-37692418D01*
X28359532Y-37681409D01*
X28325618Y-37622668D01*
X28285324Y-37558541D01*
X28280293Y-37544163D01*
X28275879Y-37536518D01*
X28253272Y-37466942D01*
X28226083Y-37389239D01*
X28225052Y-37380089D01*
X28224176Y-37377393D01*
X28216235Y-37301837D01*
X28206000Y-37211000D01*
X28216234Y-37120170D01*
X28224176Y-37044606D01*
X28225052Y-37041909D01*
X28226083Y-37032761D01*
X28253267Y-36955070D01*
X28275879Y-36885481D01*
X28280293Y-36877834D01*
X28285324Y-36863459D01*
X28325611Y-36799342D01*
X28359532Y-36740590D01*
X28369446Y-36729578D01*
X28380753Y-36711585D01*
X28429913Y-36662424D01*
X28471487Y-36616253D01*
X28488301Y-36604036D01*
X28507585Y-36584753D01*
X28561278Y-36551015D01*
X28606846Y-36517908D01*
X28631284Y-36507027D01*
X28659459Y-36489324D01*
X28713587Y-36470383D01*
X28759689Y-36449858D01*
X28791679Y-36443058D01*
X28828761Y-36430083D01*
X28879759Y-36424336D01*
X28923343Y-36415073D01*
X28961977Y-36415073D01*
X29007000Y-36410000D01*
X29052023Y-36415073D01*
G37*
G36*
X36052023Y-36415073D02*
G01*
X36090657Y-36415073D01*
X36134240Y-36424336D01*
X36185239Y-36430083D01*
X36222321Y-36443058D01*
X36254306Y-36449857D01*
X36300401Y-36470379D01*
X36354541Y-36489324D01*
X36382719Y-36507029D01*
X36407157Y-36517910D01*
X36452720Y-36551014D01*
X36506415Y-36584753D01*
X36525700Y-36604038D01*
X36542512Y-36616253D01*
X36584076Y-36662414D01*
X36633247Y-36711585D01*
X36644555Y-36729582D01*
X36654467Y-36740590D01*
X36688376Y-36799322D01*
X36728676Y-36863459D01*
X36733707Y-36877838D01*
X36738120Y-36885481D01*
X36760718Y-36955030D01*
X36787917Y-37032761D01*
X36788948Y-37041913D01*
X36789823Y-37044606D01*
X36797750Y-37120038D01*
X36808000Y-37211000D01*
X36797750Y-37301969D01*
X36789823Y-37377393D01*
X36788948Y-37380084D01*
X36787917Y-37389239D01*
X36760713Y-37466982D01*
X36738120Y-37536518D01*
X36733708Y-37544159D01*
X36728676Y-37558541D01*
X36688369Y-37622688D01*
X36654467Y-37681409D01*
X36644557Y-37692414D01*
X36633247Y-37710415D01*
X36584067Y-37759594D01*
X36542512Y-37805746D01*
X36525704Y-37817957D01*
X36506415Y-37837247D01*
X36452710Y-37870992D01*
X36407157Y-37904089D01*
X36382725Y-37914966D01*
X36354541Y-37932676D01*
X36300391Y-37951623D01*
X36254306Y-37972142D01*
X36222327Y-37978939D01*
X36185239Y-37991917D01*
X36134237Y-37997663D01*
X36090657Y-38006927D01*
X36052023Y-38006927D01*
X36007000Y-38012000D01*
X35961977Y-38006927D01*
X35923343Y-38006927D01*
X35879761Y-37997663D01*
X35828761Y-37991917D01*
X35791674Y-37978939D01*
X35759693Y-37972142D01*
X35713603Y-37951622D01*
X35659459Y-37932676D01*
X35631277Y-37914968D01*
X35606842Y-37904089D01*
X35561282Y-37870987D01*
X35507585Y-37837247D01*
X35488298Y-37817960D01*
X35471487Y-37805746D01*
X35429922Y-37759584D01*
X35380753Y-37710415D01*
X35369444Y-37692418D01*
X35359532Y-37681409D01*
X35325618Y-37622668D01*
X35285324Y-37558541D01*
X35280293Y-37544163D01*
X35275879Y-37536518D01*
X35253272Y-37466942D01*
X35226083Y-37389239D01*
X35225052Y-37380089D01*
X35224176Y-37377393D01*
X35216235Y-37301837D01*
X35206000Y-37211000D01*
X35216234Y-37120170D01*
X35224176Y-37044606D01*
X35225052Y-37041909D01*
X35226083Y-37032761D01*
X35253267Y-36955070D01*
X35275879Y-36885481D01*
X35280293Y-36877834D01*
X35285324Y-36863459D01*
X35325611Y-36799342D01*
X35359532Y-36740590D01*
X35369446Y-36729578D01*
X35380753Y-36711585D01*
X35429913Y-36662424D01*
X35471487Y-36616253D01*
X35488301Y-36604036D01*
X35507585Y-36584753D01*
X35561278Y-36551015D01*
X35606846Y-36517908D01*
X35631284Y-36507027D01*
X35659459Y-36489324D01*
X35713587Y-36470383D01*
X35759689Y-36449858D01*
X35791679Y-36443058D01*
X35828761Y-36430083D01*
X35879759Y-36424336D01*
X35923343Y-36415073D01*
X35961977Y-36415073D01*
X36007000Y-36410000D01*
X36052023Y-36415073D01*
G37*
G36*
X27995892Y-26543785D02*
G01*
X28055694Y-26543785D01*
X28109079Y-26552693D01*
X28159109Y-26556631D01*
X28219361Y-26571096D01*
X28283925Y-26581870D01*
X28329712Y-26597589D01*
X28372811Y-26607936D01*
X28435549Y-26633923D01*
X28502775Y-26657002D01*
X28540323Y-26677322D01*
X28575865Y-26692044D01*
X28638860Y-26730647D01*
X28706274Y-26767130D01*
X28735445Y-26789835D01*
X28763257Y-26806878D01*
X28824028Y-26858781D01*
X28888871Y-26909251D01*
X28910025Y-26932230D01*
X28930382Y-26949617D01*
X28986280Y-27015065D01*
X29045586Y-27079488D01*
X29059524Y-27100823D01*
X29073121Y-27116742D01*
X29121438Y-27195588D01*
X29172143Y-27273198D01*
X29180065Y-27291259D01*
X29187955Y-27304134D01*
X29225979Y-27395933D01*
X29265090Y-27485096D01*
X29268515Y-27498624D01*
X29272063Y-27507188D01*
X29297219Y-27611974D01*
X29321892Y-27709403D01*
X29322567Y-27717556D01*
X29323368Y-27720890D01*
X29333288Y-27846935D01*
X29341000Y-27940000D01*
X29333287Y-28033072D01*
X29323368Y-28159109D01*
X29322567Y-28162442D01*
X29321892Y-28170597D01*
X29297215Y-28268043D01*
X29272063Y-28372811D01*
X29268516Y-28381372D01*
X29265090Y-28394904D01*
X29225972Y-28484083D01*
X29187955Y-28575865D01*
X29180067Y-28588736D01*
X29172143Y-28606802D01*
X29121428Y-28684426D01*
X29073121Y-28763257D01*
X29059527Y-28779172D01*
X29045586Y-28800512D01*
X28986268Y-28864947D01*
X28930382Y-28930382D01*
X28910029Y-28947764D01*
X28888871Y-28970749D01*
X28824015Y-29021228D01*
X28763257Y-29073121D01*
X28735451Y-29090160D01*
X28706274Y-29112870D01*
X28638846Y-29149359D01*
X28575865Y-29187955D01*
X28540331Y-29202673D01*
X28502775Y-29222998D01*
X28435535Y-29246081D01*
X28372811Y-29272063D01*
X28329722Y-29282407D01*
X28283925Y-29298130D01*
X28219347Y-29308906D01*
X28159109Y-29323368D01*
X28109090Y-29327304D01*
X28055694Y-29336215D01*
X27995879Y-29336215D01*
X27940000Y-29340613D01*
X27884120Y-29336215D01*
X27824306Y-29336215D01*
X27770910Y-29327304D01*
X27720890Y-29323368D01*
X27660648Y-29308905D01*
X27596075Y-29298130D01*
X27550280Y-29282408D01*
X27507188Y-29272063D01*
X27444458Y-29246079D01*
X27377225Y-29222998D01*
X27339672Y-29202675D01*
X27304134Y-29187955D01*
X27241145Y-29149355D01*
X27173726Y-29112870D01*
X27144552Y-29090163D01*
X27116742Y-29073121D01*
X27055973Y-29021219D01*
X26991129Y-28970749D01*
X26969973Y-28947768D01*
X26949617Y-28930382D01*
X26893717Y-28864932D01*
X26834414Y-28800512D01*
X26820475Y-28779177D01*
X26806878Y-28763257D01*
X26758555Y-28684401D01*
X26707857Y-28606802D01*
X26699935Y-28588742D01*
X26692044Y-28575865D01*
X26654009Y-28484042D01*
X26614910Y-28394904D01*
X26611485Y-28381379D01*
X26607936Y-28372811D01*
X26582765Y-28267967D01*
X26558108Y-28170597D01*
X26557432Y-28162448D01*
X26556631Y-28159109D01*
X26546692Y-28032831D01*
X26539000Y-27940000D01*
X26546691Y-27847176D01*
X26556631Y-27720890D01*
X26557432Y-27717549D01*
X26558108Y-27709403D01*
X26582760Y-27612050D01*
X26607936Y-27507188D01*
X26611485Y-27498618D01*
X26614910Y-27485096D01*
X26654002Y-27395973D01*
X26692044Y-27304134D01*
X26699936Y-27291253D01*
X26707857Y-27273198D01*
X26758545Y-27195613D01*
X26806878Y-27116742D01*
X26820478Y-27100818D01*
X26834414Y-27079488D01*
X26893705Y-27015080D01*
X26949617Y-26949617D01*
X26969978Y-26932226D01*
X26991129Y-26909251D01*
X27055960Y-26858790D01*
X27116742Y-26806878D01*
X27144558Y-26789832D01*
X27173726Y-26767130D01*
X27241131Y-26730652D01*
X27304134Y-26692044D01*
X27339679Y-26677320D01*
X27377225Y-26657002D01*
X27444444Y-26633925D01*
X27507188Y-26607936D01*
X27550289Y-26597588D01*
X27596075Y-26581870D01*
X27660635Y-26571096D01*
X27720890Y-26556631D01*
X27770921Y-26552693D01*
X27824306Y-26543785D01*
X27884108Y-26543785D01*
X27940000Y-26539386D01*
X27995892Y-26543785D01*
G37*
G36*
X73715892Y-26543785D02*
G01*
X73775694Y-26543785D01*
X73829079Y-26552693D01*
X73879109Y-26556631D01*
X73939361Y-26571096D01*
X74003925Y-26581870D01*
X74049712Y-26597589D01*
X74092811Y-26607936D01*
X74155549Y-26633923D01*
X74222775Y-26657002D01*
X74260323Y-26677322D01*
X74295865Y-26692044D01*
X74358860Y-26730647D01*
X74426274Y-26767130D01*
X74455445Y-26789835D01*
X74483257Y-26806878D01*
X74544028Y-26858781D01*
X74608871Y-26909251D01*
X74630025Y-26932230D01*
X74650382Y-26949617D01*
X74706280Y-27015065D01*
X74765586Y-27079488D01*
X74779524Y-27100823D01*
X74793121Y-27116742D01*
X74841438Y-27195588D01*
X74892143Y-27273198D01*
X74900065Y-27291259D01*
X74907955Y-27304134D01*
X74945979Y-27395933D01*
X74985090Y-27485096D01*
X74988515Y-27498624D01*
X74992063Y-27507188D01*
X75017219Y-27611974D01*
X75041892Y-27709403D01*
X75042567Y-27717556D01*
X75043368Y-27720890D01*
X75053288Y-27846935D01*
X75061000Y-27940000D01*
X75053287Y-28033072D01*
X75043368Y-28159109D01*
X75042567Y-28162442D01*
X75041892Y-28170597D01*
X75017215Y-28268043D01*
X74992063Y-28372811D01*
X74988516Y-28381372D01*
X74985090Y-28394904D01*
X74945972Y-28484083D01*
X74907955Y-28575865D01*
X74900067Y-28588736D01*
X74892143Y-28606802D01*
X74841428Y-28684426D01*
X74793121Y-28763257D01*
X74779527Y-28779172D01*
X74765586Y-28800512D01*
X74706268Y-28864947D01*
X74650382Y-28930382D01*
X74630029Y-28947764D01*
X74608871Y-28970749D01*
X74544015Y-29021228D01*
X74483257Y-29073121D01*
X74455451Y-29090160D01*
X74426274Y-29112870D01*
X74358846Y-29149359D01*
X74295865Y-29187955D01*
X74260331Y-29202673D01*
X74222775Y-29222998D01*
X74155535Y-29246081D01*
X74092811Y-29272063D01*
X74049722Y-29282407D01*
X74003925Y-29298130D01*
X73939347Y-29308906D01*
X73879109Y-29323368D01*
X73829090Y-29327304D01*
X73775694Y-29336215D01*
X73715879Y-29336215D01*
X73660000Y-29340613D01*
X73604120Y-29336215D01*
X73544306Y-29336215D01*
X73490910Y-29327304D01*
X73440890Y-29323368D01*
X73380648Y-29308905D01*
X73316075Y-29298130D01*
X73270280Y-29282408D01*
X73227188Y-29272063D01*
X73164458Y-29246079D01*
X73097225Y-29222998D01*
X73059672Y-29202675D01*
X73024134Y-29187955D01*
X72961145Y-29149355D01*
X72893726Y-29112870D01*
X72864552Y-29090163D01*
X72836742Y-29073121D01*
X72775973Y-29021219D01*
X72711129Y-28970749D01*
X72689973Y-28947768D01*
X72669617Y-28930382D01*
X72613717Y-28864932D01*
X72554414Y-28800512D01*
X72540475Y-28779177D01*
X72526878Y-28763257D01*
X72478555Y-28684401D01*
X72427857Y-28606802D01*
X72419935Y-28588742D01*
X72412044Y-28575865D01*
X72374009Y-28484042D01*
X72334910Y-28394904D01*
X72331485Y-28381379D01*
X72327936Y-28372811D01*
X72302765Y-28267967D01*
X72278108Y-28170597D01*
X72277432Y-28162448D01*
X72276631Y-28159109D01*
X72266692Y-28032831D01*
X72259000Y-27940000D01*
X72266691Y-27847176D01*
X72276631Y-27720890D01*
X72277432Y-27717549D01*
X72278108Y-27709403D01*
X72302760Y-27612050D01*
X72327936Y-27507188D01*
X72331485Y-27498618D01*
X72334910Y-27485096D01*
X72374002Y-27395973D01*
X72412044Y-27304134D01*
X72419936Y-27291253D01*
X72427857Y-27273198D01*
X72478545Y-27195613D01*
X72526878Y-27116742D01*
X72540478Y-27100818D01*
X72554414Y-27079488D01*
X72613705Y-27015080D01*
X72669617Y-26949617D01*
X72689978Y-26932226D01*
X72711129Y-26909251D01*
X72775960Y-26858790D01*
X72836742Y-26806878D01*
X72864558Y-26789832D01*
X72893726Y-26767130D01*
X72961131Y-26730652D01*
X73024134Y-26692044D01*
X73059679Y-26677320D01*
X73097225Y-26657002D01*
X73164444Y-26633925D01*
X73227188Y-26607936D01*
X73270289Y-26597588D01*
X73316075Y-26581870D01*
X73380635Y-26571096D01*
X73440890Y-26556631D01*
X73490921Y-26552693D01*
X73544306Y-26543785D01*
X73604108Y-26543785D01*
X73660000Y-26539386D01*
X73715892Y-26543785D01*
G37*
G36*
X70719517Y-25772882D02*
G01*
X70736062Y-25783938D01*
X70747118Y-25800483D01*
X70751000Y-25820000D01*
X70751000Y-27520000D01*
X70747118Y-27539517D01*
X70736062Y-27556062D01*
X70719517Y-27567118D01*
X70700000Y-27571000D01*
X69000000Y-27571000D01*
X68980483Y-27567118D01*
X68963938Y-27556062D01*
X68952882Y-27539517D01*
X68949000Y-27520000D01*
X68949000Y-25820000D01*
X68952882Y-25800483D01*
X68963938Y-25783938D01*
X68980483Y-25772882D01*
X69000000Y-25769000D01*
X70700000Y-25769000D01*
X70719517Y-25772882D01*
G37*
G36*
X41953983Y-25773936D02*
G01*
X42004180Y-25773936D01*
X42047524Y-25783149D01*
X42085659Y-25786905D01*
X42133566Y-25801437D01*
X42188424Y-25813098D01*
X42223530Y-25828728D01*
X42254566Y-25838143D01*
X42303884Y-25864504D01*
X42360500Y-25889711D01*
X42386822Y-25908835D01*
X42410232Y-25921348D01*
X42457988Y-25960540D01*
X42512887Y-26000427D01*
X42530711Y-26020223D01*
X42546675Y-26033324D01*
X42589572Y-26085594D01*
X42638924Y-26140405D01*
X42649292Y-26158363D01*
X42658651Y-26169767D01*
X42693273Y-26234542D01*
X42733104Y-26303530D01*
X42737685Y-26317630D01*
X42741856Y-26325433D01*
X42764852Y-26401242D01*
X42791311Y-26482672D01*
X42792242Y-26491532D01*
X42793094Y-26494340D01*
X42801384Y-26578513D01*
X42811000Y-26670000D01*
X42801383Y-26761494D01*
X42793094Y-26845659D01*
X42792242Y-26848466D01*
X42791311Y-26857328D01*
X42764848Y-26938771D01*
X42741856Y-27014566D01*
X42737686Y-27022366D01*
X42733104Y-27036470D01*
X42693266Y-27105470D01*
X42658651Y-27170232D01*
X42649294Y-27181633D01*
X42638924Y-27199595D01*
X42589563Y-27254415D01*
X42546675Y-27306675D01*
X42530714Y-27319773D01*
X42512887Y-27339573D01*
X42457977Y-27379467D01*
X42410232Y-27418651D01*
X42386827Y-27431161D01*
X42360500Y-27450289D01*
X42303873Y-27475500D01*
X42254566Y-27501856D01*
X42223537Y-27511268D01*
X42188424Y-27526902D01*
X42133555Y-27538564D01*
X42085659Y-27553094D01*
X42047532Y-27556849D01*
X42004180Y-27566064D01*
X41953973Y-27566064D01*
X41910000Y-27570395D01*
X41866027Y-27566064D01*
X41815820Y-27566064D01*
X41772467Y-27556849D01*
X41734340Y-27553094D01*
X41686441Y-27538563D01*
X41631576Y-27526902D01*
X41596464Y-27511269D01*
X41565433Y-27501856D01*
X41516120Y-27475498D01*
X41459500Y-27450289D01*
X41433175Y-27431163D01*
X41409767Y-27418651D01*
X41362013Y-27379460D01*
X41307113Y-27339573D01*
X41289287Y-27319776D01*
X41273324Y-27306675D01*
X41230425Y-27254402D01*
X41181076Y-27199595D01*
X41170708Y-27181637D01*
X41161348Y-27170232D01*
X41126719Y-27105447D01*
X41086896Y-27036470D01*
X41082315Y-27022371D01*
X41078143Y-27014566D01*
X41055136Y-26938725D01*
X41028689Y-26857328D01*
X41027758Y-26848471D01*
X41026905Y-26845659D01*
X41018600Y-26761342D01*
X41009000Y-26670000D01*
X41018599Y-26578664D01*
X41026905Y-26494340D01*
X41027758Y-26491527D01*
X41028689Y-26482672D01*
X41055132Y-26401288D01*
X41078143Y-26325433D01*
X41082315Y-26317626D01*
X41086896Y-26303530D01*
X41126712Y-26234565D01*
X41161348Y-26169767D01*
X41170710Y-26158359D01*
X41181076Y-26140405D01*
X41230416Y-26085607D01*
X41273324Y-26033324D01*
X41289291Y-26020219D01*
X41307113Y-26000427D01*
X41362002Y-25960546D01*
X41409767Y-25921348D01*
X41433180Y-25908833D01*
X41459500Y-25889711D01*
X41516109Y-25864506D01*
X41565433Y-25838143D01*
X41596471Y-25828727D01*
X41631576Y-25813098D01*
X41686430Y-25801438D01*
X41734340Y-25786905D01*
X41772476Y-25783148D01*
X41815820Y-25773936D01*
X41866016Y-25773936D01*
X41910000Y-25769604D01*
X41953983Y-25773936D01*
G37*
G36*
X44493983Y-25773936D02*
G01*
X44544180Y-25773936D01*
X44587524Y-25783149D01*
X44625659Y-25786905D01*
X44673566Y-25801437D01*
X44728424Y-25813098D01*
X44763530Y-25828728D01*
X44794566Y-25838143D01*
X44843884Y-25864504D01*
X44900500Y-25889711D01*
X44926822Y-25908835D01*
X44950232Y-25921348D01*
X44997988Y-25960540D01*
X45052887Y-26000427D01*
X45070711Y-26020223D01*
X45086675Y-26033324D01*
X45129572Y-26085594D01*
X45178924Y-26140405D01*
X45189292Y-26158363D01*
X45198651Y-26169767D01*
X45233273Y-26234542D01*
X45273104Y-26303530D01*
X45277685Y-26317630D01*
X45281856Y-26325433D01*
X45304852Y-26401242D01*
X45331311Y-26482672D01*
X45332242Y-26491532D01*
X45333094Y-26494340D01*
X45341384Y-26578513D01*
X45351000Y-26670000D01*
X45341383Y-26761494D01*
X45333094Y-26845659D01*
X45332242Y-26848466D01*
X45331311Y-26857328D01*
X45304848Y-26938771D01*
X45281856Y-27014566D01*
X45277686Y-27022366D01*
X45273104Y-27036470D01*
X45233266Y-27105470D01*
X45198651Y-27170232D01*
X45189294Y-27181633D01*
X45178924Y-27199595D01*
X45129563Y-27254415D01*
X45086675Y-27306675D01*
X45070714Y-27319773D01*
X45052887Y-27339573D01*
X44997977Y-27379467D01*
X44950232Y-27418651D01*
X44926827Y-27431161D01*
X44900500Y-27450289D01*
X44843873Y-27475500D01*
X44794566Y-27501856D01*
X44763537Y-27511268D01*
X44728424Y-27526902D01*
X44673555Y-27538564D01*
X44625659Y-27553094D01*
X44587532Y-27556849D01*
X44544180Y-27566064D01*
X44493973Y-27566064D01*
X44450000Y-27570395D01*
X44406027Y-27566064D01*
X44355820Y-27566064D01*
X44312467Y-27556849D01*
X44274340Y-27553094D01*
X44226441Y-27538563D01*
X44171576Y-27526902D01*
X44136464Y-27511269D01*
X44105433Y-27501856D01*
X44056120Y-27475498D01*
X43999500Y-27450289D01*
X43973175Y-27431163D01*
X43949767Y-27418651D01*
X43902013Y-27379460D01*
X43847113Y-27339573D01*
X43829287Y-27319776D01*
X43813324Y-27306675D01*
X43770425Y-27254402D01*
X43721076Y-27199595D01*
X43710708Y-27181637D01*
X43701348Y-27170232D01*
X43666719Y-27105447D01*
X43626896Y-27036470D01*
X43622315Y-27022371D01*
X43618143Y-27014566D01*
X43595136Y-26938725D01*
X43568689Y-26857328D01*
X43567758Y-26848471D01*
X43566905Y-26845659D01*
X43558600Y-26761342D01*
X43549000Y-26670000D01*
X43558599Y-26578664D01*
X43566905Y-26494340D01*
X43567758Y-26491527D01*
X43568689Y-26482672D01*
X43595132Y-26401288D01*
X43618143Y-26325433D01*
X43622315Y-26317626D01*
X43626896Y-26303530D01*
X43666712Y-26234565D01*
X43701348Y-26169767D01*
X43710710Y-26158359D01*
X43721076Y-26140405D01*
X43770416Y-26085607D01*
X43813324Y-26033324D01*
X43829291Y-26020219D01*
X43847113Y-26000427D01*
X43902002Y-25960546D01*
X43949767Y-25921348D01*
X43973180Y-25908833D01*
X43999500Y-25889711D01*
X44056109Y-25864506D01*
X44105433Y-25838143D01*
X44136471Y-25828727D01*
X44171576Y-25813098D01*
X44226430Y-25801438D01*
X44274340Y-25786905D01*
X44312476Y-25783148D01*
X44355820Y-25773936D01*
X44406016Y-25773936D01*
X44450000Y-25769604D01*
X44493983Y-25773936D01*
G37*
G36*
X47033983Y-25773936D02*
G01*
X47084180Y-25773936D01*
X47127524Y-25783149D01*
X47165659Y-25786905D01*
X47213566Y-25801437D01*
X47268424Y-25813098D01*
X47303530Y-25828728D01*
X47334566Y-25838143D01*
X47383884Y-25864504D01*
X47440500Y-25889711D01*
X47466822Y-25908835D01*
X47490232Y-25921348D01*
X47537988Y-25960540D01*
X47592887Y-26000427D01*
X47610711Y-26020223D01*
X47626675Y-26033324D01*
X47669572Y-26085594D01*
X47718924Y-26140405D01*
X47729292Y-26158363D01*
X47738651Y-26169767D01*
X47773273Y-26234542D01*
X47813104Y-26303530D01*
X47817685Y-26317630D01*
X47821856Y-26325433D01*
X47844852Y-26401242D01*
X47871311Y-26482672D01*
X47872242Y-26491532D01*
X47873094Y-26494340D01*
X47881384Y-26578513D01*
X47891000Y-26670000D01*
X47881383Y-26761494D01*
X47873094Y-26845659D01*
X47872242Y-26848466D01*
X47871311Y-26857328D01*
X47844848Y-26938771D01*
X47821856Y-27014566D01*
X47817686Y-27022366D01*
X47813104Y-27036470D01*
X47773266Y-27105470D01*
X47738651Y-27170232D01*
X47729294Y-27181633D01*
X47718924Y-27199595D01*
X47669563Y-27254415D01*
X47626675Y-27306675D01*
X47610714Y-27319773D01*
X47592887Y-27339573D01*
X47537977Y-27379467D01*
X47490232Y-27418651D01*
X47466827Y-27431161D01*
X47440500Y-27450289D01*
X47383873Y-27475500D01*
X47334566Y-27501856D01*
X47303537Y-27511268D01*
X47268424Y-27526902D01*
X47213555Y-27538564D01*
X47165659Y-27553094D01*
X47127532Y-27556849D01*
X47084180Y-27566064D01*
X47033973Y-27566064D01*
X46990000Y-27570395D01*
X46946027Y-27566064D01*
X46895820Y-27566064D01*
X46852467Y-27556849D01*
X46814340Y-27553094D01*
X46766441Y-27538563D01*
X46711576Y-27526902D01*
X46676464Y-27511269D01*
X46645433Y-27501856D01*
X46596120Y-27475498D01*
X46539500Y-27450289D01*
X46513175Y-27431163D01*
X46489767Y-27418651D01*
X46442013Y-27379460D01*
X46387113Y-27339573D01*
X46369287Y-27319776D01*
X46353324Y-27306675D01*
X46310425Y-27254402D01*
X46261076Y-27199595D01*
X46250708Y-27181637D01*
X46241348Y-27170232D01*
X46206719Y-27105447D01*
X46166896Y-27036470D01*
X46162315Y-27022371D01*
X46158143Y-27014566D01*
X46135136Y-26938725D01*
X46108689Y-26857328D01*
X46107758Y-26848471D01*
X46106905Y-26845659D01*
X46098600Y-26761342D01*
X46089000Y-26670000D01*
X46098599Y-26578664D01*
X46106905Y-26494340D01*
X46107758Y-26491527D01*
X46108689Y-26482672D01*
X46135132Y-26401288D01*
X46158143Y-26325433D01*
X46162315Y-26317626D01*
X46166896Y-26303530D01*
X46206712Y-26234565D01*
X46241348Y-26169767D01*
X46250710Y-26158359D01*
X46261076Y-26140405D01*
X46310416Y-26085607D01*
X46353324Y-26033324D01*
X46369291Y-26020219D01*
X46387113Y-26000427D01*
X46442002Y-25960546D01*
X46489767Y-25921348D01*
X46513180Y-25908833D01*
X46539500Y-25889711D01*
X46596109Y-25864506D01*
X46645433Y-25838143D01*
X46676471Y-25828727D01*
X46711576Y-25813098D01*
X46766430Y-25801438D01*
X46814340Y-25786905D01*
X46852476Y-25783148D01*
X46895820Y-25773936D01*
X46946016Y-25773936D01*
X46990000Y-25769604D01*
X47033983Y-25773936D01*
G37*
G36*
X49573983Y-25773936D02*
G01*
X49624180Y-25773936D01*
X49667524Y-25783149D01*
X49705659Y-25786905D01*
X49753566Y-25801437D01*
X49808424Y-25813098D01*
X49843530Y-25828728D01*
X49874566Y-25838143D01*
X49923884Y-25864504D01*
X49980500Y-25889711D01*
X50006822Y-25908835D01*
X50030232Y-25921348D01*
X50077988Y-25960540D01*
X50132887Y-26000427D01*
X50150711Y-26020223D01*
X50166675Y-26033324D01*
X50209572Y-26085594D01*
X50258924Y-26140405D01*
X50269292Y-26158363D01*
X50278651Y-26169767D01*
X50313273Y-26234542D01*
X50353104Y-26303530D01*
X50357685Y-26317630D01*
X50361856Y-26325433D01*
X50384852Y-26401242D01*
X50411311Y-26482672D01*
X50412242Y-26491532D01*
X50413094Y-26494340D01*
X50421384Y-26578513D01*
X50431000Y-26670000D01*
X50421383Y-26761494D01*
X50413094Y-26845659D01*
X50412242Y-26848466D01*
X50411311Y-26857328D01*
X50384848Y-26938771D01*
X50361856Y-27014566D01*
X50357686Y-27022366D01*
X50353104Y-27036470D01*
X50313266Y-27105470D01*
X50278651Y-27170232D01*
X50269294Y-27181633D01*
X50258924Y-27199595D01*
X50209563Y-27254415D01*
X50166675Y-27306675D01*
X50150714Y-27319773D01*
X50132887Y-27339573D01*
X50077977Y-27379467D01*
X50030232Y-27418651D01*
X50006827Y-27431161D01*
X49980500Y-27450289D01*
X49923873Y-27475500D01*
X49874566Y-27501856D01*
X49843537Y-27511268D01*
X49808424Y-27526902D01*
X49753555Y-27538564D01*
X49705659Y-27553094D01*
X49667532Y-27556849D01*
X49624180Y-27566064D01*
X49573973Y-27566064D01*
X49530000Y-27570395D01*
X49486027Y-27566064D01*
X49435820Y-27566064D01*
X49392467Y-27556849D01*
X49354340Y-27553094D01*
X49306441Y-27538563D01*
X49251576Y-27526902D01*
X49216464Y-27511269D01*
X49185433Y-27501856D01*
X49136120Y-27475498D01*
X49079500Y-27450289D01*
X49053175Y-27431163D01*
X49029767Y-27418651D01*
X48982013Y-27379460D01*
X48927113Y-27339573D01*
X48909287Y-27319776D01*
X48893324Y-27306675D01*
X48850425Y-27254402D01*
X48801076Y-27199595D01*
X48790708Y-27181637D01*
X48781348Y-27170232D01*
X48746719Y-27105447D01*
X48706896Y-27036470D01*
X48702315Y-27022371D01*
X48698143Y-27014566D01*
X48675136Y-26938725D01*
X48648689Y-26857328D01*
X48647758Y-26848471D01*
X48646905Y-26845659D01*
X48638600Y-26761342D01*
X48629000Y-26670000D01*
X48638599Y-26578664D01*
X48646905Y-26494340D01*
X48647758Y-26491527D01*
X48648689Y-26482672D01*
X48675132Y-26401288D01*
X48698143Y-26325433D01*
X48702315Y-26317626D01*
X48706896Y-26303530D01*
X48746712Y-26234565D01*
X48781348Y-26169767D01*
X48790710Y-26158359D01*
X48801076Y-26140405D01*
X48850416Y-26085607D01*
X48893324Y-26033324D01*
X48909291Y-26020219D01*
X48927113Y-26000427D01*
X48982002Y-25960546D01*
X49029767Y-25921348D01*
X49053180Y-25908833D01*
X49079500Y-25889711D01*
X49136109Y-25864506D01*
X49185433Y-25838143D01*
X49216471Y-25828727D01*
X49251576Y-25813098D01*
X49306430Y-25801438D01*
X49354340Y-25786905D01*
X49392476Y-25783148D01*
X49435820Y-25773936D01*
X49486016Y-25773936D01*
X49530000Y-25769604D01*
X49573983Y-25773936D01*
G37*
G36*
X52113983Y-25773936D02*
G01*
X52164180Y-25773936D01*
X52207524Y-25783149D01*
X52245659Y-25786905D01*
X52293566Y-25801437D01*
X52348424Y-25813098D01*
X52383530Y-25828728D01*
X52414566Y-25838143D01*
X52463884Y-25864504D01*
X52520500Y-25889711D01*
X52546822Y-25908835D01*
X52570232Y-25921348D01*
X52617988Y-25960540D01*
X52672887Y-26000427D01*
X52690711Y-26020223D01*
X52706675Y-26033324D01*
X52749572Y-26085594D01*
X52798924Y-26140405D01*
X52809292Y-26158363D01*
X52818651Y-26169767D01*
X52853273Y-26234542D01*
X52893104Y-26303530D01*
X52897685Y-26317630D01*
X52901856Y-26325433D01*
X52924852Y-26401242D01*
X52951311Y-26482672D01*
X52952242Y-26491532D01*
X52953094Y-26494340D01*
X52961384Y-26578513D01*
X52971000Y-26670000D01*
X52961383Y-26761494D01*
X52953094Y-26845659D01*
X52952242Y-26848466D01*
X52951311Y-26857328D01*
X52924848Y-26938771D01*
X52901856Y-27014566D01*
X52897686Y-27022366D01*
X52893104Y-27036470D01*
X52853266Y-27105470D01*
X52818651Y-27170232D01*
X52809294Y-27181633D01*
X52798924Y-27199595D01*
X52749563Y-27254415D01*
X52706675Y-27306675D01*
X52690714Y-27319773D01*
X52672887Y-27339573D01*
X52617977Y-27379467D01*
X52570232Y-27418651D01*
X52546827Y-27431161D01*
X52520500Y-27450289D01*
X52463873Y-27475500D01*
X52414566Y-27501856D01*
X52383537Y-27511268D01*
X52348424Y-27526902D01*
X52293555Y-27538564D01*
X52245659Y-27553094D01*
X52207532Y-27556849D01*
X52164180Y-27566064D01*
X52113973Y-27566064D01*
X52070000Y-27570395D01*
X52026027Y-27566064D01*
X51975820Y-27566064D01*
X51932467Y-27556849D01*
X51894340Y-27553094D01*
X51846441Y-27538563D01*
X51791576Y-27526902D01*
X51756464Y-27511269D01*
X51725433Y-27501856D01*
X51676120Y-27475498D01*
X51619500Y-27450289D01*
X51593175Y-27431163D01*
X51569767Y-27418651D01*
X51522013Y-27379460D01*
X51467113Y-27339573D01*
X51449287Y-27319776D01*
X51433324Y-27306675D01*
X51390425Y-27254402D01*
X51341076Y-27199595D01*
X51330708Y-27181637D01*
X51321348Y-27170232D01*
X51286719Y-27105447D01*
X51246896Y-27036470D01*
X51242315Y-27022371D01*
X51238143Y-27014566D01*
X51215136Y-26938725D01*
X51188689Y-26857328D01*
X51187758Y-26848471D01*
X51186905Y-26845659D01*
X51178600Y-26761342D01*
X51169000Y-26670000D01*
X51178599Y-26578664D01*
X51186905Y-26494340D01*
X51187758Y-26491527D01*
X51188689Y-26482672D01*
X51215132Y-26401288D01*
X51238143Y-26325433D01*
X51242315Y-26317626D01*
X51246896Y-26303530D01*
X51286712Y-26234565D01*
X51321348Y-26169767D01*
X51330710Y-26158359D01*
X51341076Y-26140405D01*
X51390416Y-26085607D01*
X51433324Y-26033324D01*
X51449291Y-26020219D01*
X51467113Y-26000427D01*
X51522002Y-25960546D01*
X51569767Y-25921348D01*
X51593180Y-25908833D01*
X51619500Y-25889711D01*
X51676109Y-25864506D01*
X51725433Y-25838143D01*
X51756471Y-25828727D01*
X51791576Y-25813098D01*
X51846430Y-25801438D01*
X51894340Y-25786905D01*
X51932476Y-25783148D01*
X51975820Y-25773936D01*
X52026016Y-25773936D01*
X52070000Y-25769604D01*
X52113983Y-25773936D01*
G37*
G36*
X54653983Y-25773936D02*
G01*
X54704180Y-25773936D01*
X54747524Y-25783149D01*
X54785659Y-25786905D01*
X54833566Y-25801437D01*
X54888424Y-25813098D01*
X54923530Y-25828728D01*
X54954566Y-25838143D01*
X55003884Y-25864504D01*
X55060500Y-25889711D01*
X55086822Y-25908835D01*
X55110232Y-25921348D01*
X55157988Y-25960540D01*
X55212887Y-26000427D01*
X55230711Y-26020223D01*
X55246675Y-26033324D01*
X55289572Y-26085594D01*
X55338924Y-26140405D01*
X55349292Y-26158363D01*
X55358651Y-26169767D01*
X55393273Y-26234542D01*
X55433104Y-26303530D01*
X55437685Y-26317630D01*
X55441856Y-26325433D01*
X55464852Y-26401242D01*
X55491311Y-26482672D01*
X55492242Y-26491532D01*
X55493094Y-26494340D01*
X55501384Y-26578513D01*
X55511000Y-26670000D01*
X55501383Y-26761494D01*
X55493094Y-26845659D01*
X55492242Y-26848466D01*
X55491311Y-26857328D01*
X55464848Y-26938771D01*
X55441856Y-27014566D01*
X55437686Y-27022366D01*
X55433104Y-27036470D01*
X55393266Y-27105470D01*
X55358651Y-27170232D01*
X55349294Y-27181633D01*
X55338924Y-27199595D01*
X55289563Y-27254415D01*
X55246675Y-27306675D01*
X55230714Y-27319773D01*
X55212887Y-27339573D01*
X55157977Y-27379467D01*
X55110232Y-27418651D01*
X55086827Y-27431161D01*
X55060500Y-27450289D01*
X55003873Y-27475500D01*
X54954566Y-27501856D01*
X54923537Y-27511268D01*
X54888424Y-27526902D01*
X54833555Y-27538564D01*
X54785659Y-27553094D01*
X54747532Y-27556849D01*
X54704180Y-27566064D01*
X54653973Y-27566064D01*
X54610000Y-27570395D01*
X54566027Y-27566064D01*
X54515820Y-27566064D01*
X54472467Y-27556849D01*
X54434340Y-27553094D01*
X54386441Y-27538563D01*
X54331576Y-27526902D01*
X54296464Y-27511269D01*
X54265433Y-27501856D01*
X54216120Y-27475498D01*
X54159500Y-27450289D01*
X54133175Y-27431163D01*
X54109767Y-27418651D01*
X54062013Y-27379460D01*
X54007113Y-27339573D01*
X53989287Y-27319776D01*
X53973324Y-27306675D01*
X53930425Y-27254402D01*
X53881076Y-27199595D01*
X53870708Y-27181637D01*
X53861348Y-27170232D01*
X53826719Y-27105447D01*
X53786896Y-27036470D01*
X53782315Y-27022371D01*
X53778143Y-27014566D01*
X53755136Y-26938725D01*
X53728689Y-26857328D01*
X53727758Y-26848471D01*
X53726905Y-26845659D01*
X53718600Y-26761342D01*
X53709000Y-26670000D01*
X53718599Y-26578664D01*
X53726905Y-26494340D01*
X53727758Y-26491527D01*
X53728689Y-26482672D01*
X53755132Y-26401288D01*
X53778143Y-26325433D01*
X53782315Y-26317626D01*
X53786896Y-26303530D01*
X53826712Y-26234565D01*
X53861348Y-26169767D01*
X53870710Y-26158359D01*
X53881076Y-26140405D01*
X53930416Y-26085607D01*
X53973324Y-26033324D01*
X53989291Y-26020219D01*
X54007113Y-26000427D01*
X54062002Y-25960546D01*
X54109767Y-25921348D01*
X54133180Y-25908833D01*
X54159500Y-25889711D01*
X54216109Y-25864506D01*
X54265433Y-25838143D01*
X54296471Y-25828727D01*
X54331576Y-25813098D01*
X54386430Y-25801438D01*
X54434340Y-25786905D01*
X54472476Y-25783148D01*
X54515820Y-25773936D01*
X54566016Y-25773936D01*
X54610000Y-25769604D01*
X54653983Y-25773936D01*
G37*
G36*
X57193983Y-25773936D02*
G01*
X57244180Y-25773936D01*
X57287524Y-25783149D01*
X57325659Y-25786905D01*
X57373566Y-25801437D01*
X57428424Y-25813098D01*
X57463530Y-25828728D01*
X57494566Y-25838143D01*
X57543884Y-25864504D01*
X57600500Y-25889711D01*
X57626822Y-25908835D01*
X57650232Y-25921348D01*
X57697988Y-25960540D01*
X57752887Y-26000427D01*
X57770711Y-26020223D01*
X57786675Y-26033324D01*
X57829572Y-26085594D01*
X57878924Y-26140405D01*
X57889292Y-26158363D01*
X57898651Y-26169767D01*
X57933273Y-26234542D01*
X57973104Y-26303530D01*
X57977685Y-26317630D01*
X57981856Y-26325433D01*
X58004852Y-26401242D01*
X58031311Y-26482672D01*
X58032242Y-26491532D01*
X58033094Y-26494340D01*
X58041384Y-26578513D01*
X58051000Y-26670000D01*
X58041383Y-26761494D01*
X58033094Y-26845659D01*
X58032242Y-26848466D01*
X58031311Y-26857328D01*
X58004848Y-26938771D01*
X57981856Y-27014566D01*
X57977686Y-27022366D01*
X57973104Y-27036470D01*
X57933266Y-27105470D01*
X57898651Y-27170232D01*
X57889294Y-27181633D01*
X57878924Y-27199595D01*
X57829563Y-27254415D01*
X57786675Y-27306675D01*
X57770714Y-27319773D01*
X57752887Y-27339573D01*
X57697977Y-27379467D01*
X57650232Y-27418651D01*
X57626827Y-27431161D01*
X57600500Y-27450289D01*
X57543873Y-27475500D01*
X57494566Y-27501856D01*
X57463537Y-27511268D01*
X57428424Y-27526902D01*
X57373555Y-27538564D01*
X57325659Y-27553094D01*
X57287532Y-27556849D01*
X57244180Y-27566064D01*
X57193973Y-27566064D01*
X57150000Y-27570395D01*
X57106027Y-27566064D01*
X57055820Y-27566064D01*
X57012467Y-27556849D01*
X56974340Y-27553094D01*
X56926441Y-27538563D01*
X56871576Y-27526902D01*
X56836464Y-27511269D01*
X56805433Y-27501856D01*
X56756120Y-27475498D01*
X56699500Y-27450289D01*
X56673175Y-27431163D01*
X56649767Y-27418651D01*
X56602013Y-27379460D01*
X56547113Y-27339573D01*
X56529287Y-27319776D01*
X56513324Y-27306675D01*
X56470425Y-27254402D01*
X56421076Y-27199595D01*
X56410708Y-27181637D01*
X56401348Y-27170232D01*
X56366719Y-27105447D01*
X56326896Y-27036470D01*
X56322315Y-27022371D01*
X56318143Y-27014566D01*
X56295136Y-26938725D01*
X56268689Y-26857328D01*
X56267758Y-26848471D01*
X56266905Y-26845659D01*
X56258600Y-26761342D01*
X56249000Y-26670000D01*
X56258599Y-26578664D01*
X56266905Y-26494340D01*
X56267758Y-26491527D01*
X56268689Y-26482672D01*
X56295132Y-26401288D01*
X56318143Y-26325433D01*
X56322315Y-26317626D01*
X56326896Y-26303530D01*
X56366712Y-26234565D01*
X56401348Y-26169767D01*
X56410710Y-26158359D01*
X56421076Y-26140405D01*
X56470416Y-26085607D01*
X56513324Y-26033324D01*
X56529291Y-26020219D01*
X56547113Y-26000427D01*
X56602002Y-25960546D01*
X56649767Y-25921348D01*
X56673180Y-25908833D01*
X56699500Y-25889711D01*
X56756109Y-25864506D01*
X56805433Y-25838143D01*
X56836471Y-25828727D01*
X56871576Y-25813098D01*
X56926430Y-25801438D01*
X56974340Y-25786905D01*
X57012476Y-25783148D01*
X57055820Y-25773936D01*
X57106016Y-25773936D01*
X57150000Y-25769604D01*
X57193983Y-25773936D01*
G37*
G36*
X59733983Y-25773936D02*
G01*
X59784180Y-25773936D01*
X59827524Y-25783149D01*
X59865659Y-25786905D01*
X59913566Y-25801437D01*
X59968424Y-25813098D01*
X60003530Y-25828728D01*
X60034566Y-25838143D01*
X60083884Y-25864504D01*
X60140500Y-25889711D01*
X60166822Y-25908835D01*
X60190232Y-25921348D01*
X60237988Y-25960540D01*
X60292887Y-26000427D01*
X60310711Y-26020223D01*
X60326675Y-26033324D01*
X60369572Y-26085594D01*
X60418924Y-26140405D01*
X60429292Y-26158363D01*
X60438651Y-26169767D01*
X60473273Y-26234542D01*
X60513104Y-26303530D01*
X60517685Y-26317630D01*
X60521856Y-26325433D01*
X60544852Y-26401242D01*
X60571311Y-26482672D01*
X60572242Y-26491532D01*
X60573094Y-26494340D01*
X60581384Y-26578513D01*
X60591000Y-26670000D01*
X60581383Y-26761494D01*
X60573094Y-26845659D01*
X60572242Y-26848466D01*
X60571311Y-26857328D01*
X60544848Y-26938771D01*
X60521856Y-27014566D01*
X60517686Y-27022366D01*
X60513104Y-27036470D01*
X60473266Y-27105470D01*
X60438651Y-27170232D01*
X60429294Y-27181633D01*
X60418924Y-27199595D01*
X60369563Y-27254415D01*
X60326675Y-27306675D01*
X60310714Y-27319773D01*
X60292887Y-27339573D01*
X60237977Y-27379467D01*
X60190232Y-27418651D01*
X60166827Y-27431161D01*
X60140500Y-27450289D01*
X60083873Y-27475500D01*
X60034566Y-27501856D01*
X60003537Y-27511268D01*
X59968424Y-27526902D01*
X59913555Y-27538564D01*
X59865659Y-27553094D01*
X59827532Y-27556849D01*
X59784180Y-27566064D01*
X59733973Y-27566064D01*
X59690000Y-27570395D01*
X59646027Y-27566064D01*
X59595820Y-27566064D01*
X59552467Y-27556849D01*
X59514340Y-27553094D01*
X59466441Y-27538563D01*
X59411576Y-27526902D01*
X59376464Y-27511269D01*
X59345433Y-27501856D01*
X59296120Y-27475498D01*
X59239500Y-27450289D01*
X59213175Y-27431163D01*
X59189767Y-27418651D01*
X59142013Y-27379460D01*
X59087113Y-27339573D01*
X59069287Y-27319776D01*
X59053324Y-27306675D01*
X59010425Y-27254402D01*
X58961076Y-27199595D01*
X58950708Y-27181637D01*
X58941348Y-27170232D01*
X58906719Y-27105447D01*
X58866896Y-27036470D01*
X58862315Y-27022371D01*
X58858143Y-27014566D01*
X58835136Y-26938725D01*
X58808689Y-26857328D01*
X58807758Y-26848471D01*
X58806905Y-26845659D01*
X58798600Y-26761342D01*
X58789000Y-26670000D01*
X58798599Y-26578664D01*
X58806905Y-26494340D01*
X58807758Y-26491527D01*
X58808689Y-26482672D01*
X58835132Y-26401288D01*
X58858143Y-26325433D01*
X58862315Y-26317626D01*
X58866896Y-26303530D01*
X58906712Y-26234565D01*
X58941348Y-26169767D01*
X58950710Y-26158359D01*
X58961076Y-26140405D01*
X59010416Y-26085607D01*
X59053324Y-26033324D01*
X59069291Y-26020219D01*
X59087113Y-26000427D01*
X59142002Y-25960546D01*
X59189767Y-25921348D01*
X59213180Y-25908833D01*
X59239500Y-25889711D01*
X59296109Y-25864506D01*
X59345433Y-25838143D01*
X59376471Y-25828727D01*
X59411576Y-25813098D01*
X59466430Y-25801438D01*
X59514340Y-25786905D01*
X59552476Y-25783148D01*
X59595820Y-25773936D01*
X59646016Y-25773936D01*
X59690000Y-25769604D01*
X59733983Y-25773936D01*
G37*
G36*
X62273983Y-25773936D02*
G01*
X62324180Y-25773936D01*
X62367524Y-25783149D01*
X62405659Y-25786905D01*
X62453566Y-25801437D01*
X62508424Y-25813098D01*
X62543530Y-25828728D01*
X62574566Y-25838143D01*
X62623884Y-25864504D01*
X62680500Y-25889711D01*
X62706822Y-25908835D01*
X62730232Y-25921348D01*
X62777988Y-25960540D01*
X62832887Y-26000427D01*
X62850711Y-26020223D01*
X62866675Y-26033324D01*
X62909572Y-26085594D01*
X62958924Y-26140405D01*
X62969292Y-26158363D01*
X62978651Y-26169767D01*
X63013273Y-26234542D01*
X63053104Y-26303530D01*
X63057685Y-26317630D01*
X63061856Y-26325433D01*
X63084852Y-26401242D01*
X63111311Y-26482672D01*
X63112242Y-26491532D01*
X63113094Y-26494340D01*
X63121384Y-26578513D01*
X63131000Y-26670000D01*
X63121383Y-26761494D01*
X63113094Y-26845659D01*
X63112242Y-26848466D01*
X63111311Y-26857328D01*
X63084848Y-26938771D01*
X63061856Y-27014566D01*
X63057686Y-27022366D01*
X63053104Y-27036470D01*
X63013266Y-27105470D01*
X62978651Y-27170232D01*
X62969294Y-27181633D01*
X62958924Y-27199595D01*
X62909563Y-27254415D01*
X62866675Y-27306675D01*
X62850714Y-27319773D01*
X62832887Y-27339573D01*
X62777977Y-27379467D01*
X62730232Y-27418651D01*
X62706827Y-27431161D01*
X62680500Y-27450289D01*
X62623873Y-27475500D01*
X62574566Y-27501856D01*
X62543537Y-27511268D01*
X62508424Y-27526902D01*
X62453555Y-27538564D01*
X62405659Y-27553094D01*
X62367532Y-27556849D01*
X62324180Y-27566064D01*
X62273973Y-27566064D01*
X62230000Y-27570395D01*
X62186027Y-27566064D01*
X62135820Y-27566064D01*
X62092467Y-27556849D01*
X62054340Y-27553094D01*
X62006441Y-27538563D01*
X61951576Y-27526902D01*
X61916464Y-27511269D01*
X61885433Y-27501856D01*
X61836120Y-27475498D01*
X61779500Y-27450289D01*
X61753175Y-27431163D01*
X61729767Y-27418651D01*
X61682013Y-27379460D01*
X61627113Y-27339573D01*
X61609287Y-27319776D01*
X61593324Y-27306675D01*
X61550425Y-27254402D01*
X61501076Y-27199595D01*
X61490708Y-27181637D01*
X61481348Y-27170232D01*
X61446719Y-27105447D01*
X61406896Y-27036470D01*
X61402315Y-27022371D01*
X61398143Y-27014566D01*
X61375136Y-26938725D01*
X61348689Y-26857328D01*
X61347758Y-26848471D01*
X61346905Y-26845659D01*
X61338600Y-26761342D01*
X61329000Y-26670000D01*
X61338599Y-26578664D01*
X61346905Y-26494340D01*
X61347758Y-26491527D01*
X61348689Y-26482672D01*
X61375132Y-26401288D01*
X61398143Y-26325433D01*
X61402315Y-26317626D01*
X61406896Y-26303530D01*
X61446712Y-26234565D01*
X61481348Y-26169767D01*
X61490710Y-26158359D01*
X61501076Y-26140405D01*
X61550416Y-26085607D01*
X61593324Y-26033324D01*
X61609291Y-26020219D01*
X61627113Y-26000427D01*
X61682002Y-25960546D01*
X61729767Y-25921348D01*
X61753180Y-25908833D01*
X61779500Y-25889711D01*
X61836109Y-25864506D01*
X61885433Y-25838143D01*
X61916471Y-25828727D01*
X61951576Y-25813098D01*
X62006430Y-25801438D01*
X62054340Y-25786905D01*
X62092476Y-25783148D01*
X62135820Y-25773936D01*
X62186016Y-25773936D01*
X62230000Y-25769604D01*
X62273983Y-25773936D01*
G37*
G36*
X64813983Y-25773936D02*
G01*
X64864180Y-25773936D01*
X64907524Y-25783149D01*
X64945659Y-25786905D01*
X64993566Y-25801437D01*
X65048424Y-25813098D01*
X65083530Y-25828728D01*
X65114566Y-25838143D01*
X65163884Y-25864504D01*
X65220500Y-25889711D01*
X65246822Y-25908835D01*
X65270232Y-25921348D01*
X65317988Y-25960540D01*
X65372887Y-26000427D01*
X65390711Y-26020223D01*
X65406675Y-26033324D01*
X65449572Y-26085594D01*
X65498924Y-26140405D01*
X65509292Y-26158363D01*
X65518651Y-26169767D01*
X65553273Y-26234542D01*
X65593104Y-26303530D01*
X65597685Y-26317630D01*
X65601856Y-26325433D01*
X65624852Y-26401242D01*
X65651311Y-26482672D01*
X65652242Y-26491532D01*
X65653094Y-26494340D01*
X65661384Y-26578513D01*
X65671000Y-26670000D01*
X65661383Y-26761494D01*
X65653094Y-26845659D01*
X65652242Y-26848466D01*
X65651311Y-26857328D01*
X65624848Y-26938771D01*
X65601856Y-27014566D01*
X65597686Y-27022366D01*
X65593104Y-27036470D01*
X65553266Y-27105470D01*
X65518651Y-27170232D01*
X65509294Y-27181633D01*
X65498924Y-27199595D01*
X65449563Y-27254415D01*
X65406675Y-27306675D01*
X65390714Y-27319773D01*
X65372887Y-27339573D01*
X65317977Y-27379467D01*
X65270232Y-27418651D01*
X65246827Y-27431161D01*
X65220500Y-27450289D01*
X65163873Y-27475500D01*
X65114566Y-27501856D01*
X65083537Y-27511268D01*
X65048424Y-27526902D01*
X64993555Y-27538564D01*
X64945659Y-27553094D01*
X64907532Y-27556849D01*
X64864180Y-27566064D01*
X64813973Y-27566064D01*
X64770000Y-27570395D01*
X64726027Y-27566064D01*
X64675820Y-27566064D01*
X64632467Y-27556849D01*
X64594340Y-27553094D01*
X64546441Y-27538563D01*
X64491576Y-27526902D01*
X64456464Y-27511269D01*
X64425433Y-27501856D01*
X64376120Y-27475498D01*
X64319500Y-27450289D01*
X64293175Y-27431163D01*
X64269767Y-27418651D01*
X64222013Y-27379460D01*
X64167113Y-27339573D01*
X64149287Y-27319776D01*
X64133324Y-27306675D01*
X64090425Y-27254402D01*
X64041076Y-27199595D01*
X64030708Y-27181637D01*
X64021348Y-27170232D01*
X63986719Y-27105447D01*
X63946896Y-27036470D01*
X63942315Y-27022371D01*
X63938143Y-27014566D01*
X63915136Y-26938725D01*
X63888689Y-26857328D01*
X63887758Y-26848471D01*
X63886905Y-26845659D01*
X63878600Y-26761342D01*
X63869000Y-26670000D01*
X63878599Y-26578664D01*
X63886905Y-26494340D01*
X63887758Y-26491527D01*
X63888689Y-26482672D01*
X63915132Y-26401288D01*
X63938143Y-26325433D01*
X63942315Y-26317626D01*
X63946896Y-26303530D01*
X63986712Y-26234565D01*
X64021348Y-26169767D01*
X64030710Y-26158359D01*
X64041076Y-26140405D01*
X64090416Y-26085607D01*
X64133324Y-26033324D01*
X64149291Y-26020219D01*
X64167113Y-26000427D01*
X64222002Y-25960546D01*
X64269767Y-25921348D01*
X64293180Y-25908833D01*
X64319500Y-25889711D01*
X64376109Y-25864506D01*
X64425433Y-25838143D01*
X64456471Y-25828727D01*
X64491576Y-25813098D01*
X64546430Y-25801438D01*
X64594340Y-25786905D01*
X64632476Y-25783148D01*
X64675820Y-25773936D01*
X64726016Y-25773936D01*
X64770000Y-25769604D01*
X64813983Y-25773936D01*
G37*
G36*
X67353983Y-25773936D02*
G01*
X67404180Y-25773936D01*
X67447524Y-25783149D01*
X67485659Y-25786905D01*
X67533566Y-25801437D01*
X67588424Y-25813098D01*
X67623530Y-25828728D01*
X67654566Y-25838143D01*
X67703884Y-25864504D01*
X67760500Y-25889711D01*
X67786822Y-25908835D01*
X67810232Y-25921348D01*
X67857988Y-25960540D01*
X67912887Y-26000427D01*
X67930711Y-26020223D01*
X67946675Y-26033324D01*
X67989572Y-26085594D01*
X68038924Y-26140405D01*
X68049292Y-26158363D01*
X68058651Y-26169767D01*
X68093273Y-26234542D01*
X68133104Y-26303530D01*
X68137685Y-26317630D01*
X68141856Y-26325433D01*
X68164852Y-26401242D01*
X68191311Y-26482672D01*
X68192242Y-26491532D01*
X68193094Y-26494340D01*
X68201384Y-26578513D01*
X68211000Y-26670000D01*
X68201383Y-26761494D01*
X68193094Y-26845659D01*
X68192242Y-26848466D01*
X68191311Y-26857328D01*
X68164848Y-26938771D01*
X68141856Y-27014566D01*
X68137686Y-27022366D01*
X68133104Y-27036470D01*
X68093266Y-27105470D01*
X68058651Y-27170232D01*
X68049294Y-27181633D01*
X68038924Y-27199595D01*
X67989563Y-27254415D01*
X67946675Y-27306675D01*
X67930714Y-27319773D01*
X67912887Y-27339573D01*
X67857977Y-27379467D01*
X67810232Y-27418651D01*
X67786827Y-27431161D01*
X67760500Y-27450289D01*
X67703873Y-27475500D01*
X67654566Y-27501856D01*
X67623537Y-27511268D01*
X67588424Y-27526902D01*
X67533555Y-27538564D01*
X67485659Y-27553094D01*
X67447532Y-27556849D01*
X67404180Y-27566064D01*
X67353973Y-27566064D01*
X67310000Y-27570395D01*
X67266027Y-27566064D01*
X67215820Y-27566064D01*
X67172467Y-27556849D01*
X67134340Y-27553094D01*
X67086441Y-27538563D01*
X67031576Y-27526902D01*
X66996464Y-27511269D01*
X66965433Y-27501856D01*
X66916120Y-27475498D01*
X66859500Y-27450289D01*
X66833175Y-27431163D01*
X66809767Y-27418651D01*
X66762013Y-27379460D01*
X66707113Y-27339573D01*
X66689287Y-27319776D01*
X66673324Y-27306675D01*
X66630425Y-27254402D01*
X66581076Y-27199595D01*
X66570708Y-27181637D01*
X66561348Y-27170232D01*
X66526719Y-27105447D01*
X66486896Y-27036470D01*
X66482315Y-27022371D01*
X66478143Y-27014566D01*
X66455136Y-26938725D01*
X66428689Y-26857328D01*
X66427758Y-26848471D01*
X66426905Y-26845659D01*
X66418600Y-26761342D01*
X66409000Y-26670000D01*
X66418599Y-26578664D01*
X66426905Y-26494340D01*
X66427758Y-26491527D01*
X66428689Y-26482672D01*
X66455132Y-26401288D01*
X66478143Y-26325433D01*
X66482315Y-26317626D01*
X66486896Y-26303530D01*
X66526712Y-26234565D01*
X66561348Y-26169767D01*
X66570710Y-26158359D01*
X66581076Y-26140405D01*
X66630416Y-26085607D01*
X66673324Y-26033324D01*
X66689291Y-26020219D01*
X66707113Y-26000427D01*
X66762002Y-25960546D01*
X66809767Y-25921348D01*
X66833180Y-25908833D01*
X66859500Y-25889711D01*
X66916109Y-25864506D01*
X66965433Y-25838143D01*
X66996471Y-25828727D01*
X67031576Y-25813098D01*
X67086430Y-25801438D01*
X67134340Y-25786905D01*
X67172476Y-25783148D01*
X67215820Y-25773936D01*
X67266016Y-25773936D01*
X67310000Y-25769604D01*
X67353983Y-25773936D01*
G37*
M02*
