%TF.GenerationSoftware,KiCad,Pcbnew,8.0.1*%
%TF.CreationDate,2024-04-11T01:32:40-05:00*%
%TF.ProjectId,FeatherWing_KC5,46656174-6865-4725-9769-6e675f4b4335,rev?*%
%TF.SameCoordinates,Original*%
%TF.FileFunction,Other,User*%
%FSLAX46Y46*%
G04 Gerber Fmt 4.6, Leading zero omitted, Abs format (unit mm)*
G04 Created by KiCad (PCBNEW 8.0.1) date 2024-04-11 01:32:40*
%MOMM*%
%LPD*%
G01*
G04 APERTURE LIST*
%ADD10C,0.050000*%
G04 APERTURE END LIST*
D10*
X30890000Y-27940000D02*
G75*
G02*
X24990000Y-27940000I-2950000J0D01*
G01*
X24990000Y-27940000D02*
G75*
G02*
X30890000Y-27940000I2950000J0D01*
G01*
X30890000Y-93980000D02*
G75*
G02*
X24990000Y-93980000I-2950000J0D01*
G01*
X24990000Y-93980000D02*
G75*
G02*
X30890000Y-93980000I2950000J0D01*
G01*
X76610000Y-93980000D02*
G75*
G02*
X70710000Y-93980000I-2950000J0D01*
G01*
X70710000Y-93980000D02*
G75*
G02*
X76610000Y-93980000I2950000J0D01*
G01*
X76610000Y-27940000D02*
G75*
G02*
X70710000Y-27940000I-2950000J0D01*
G01*
X70710000Y-27940000D02*
G75*
G02*
X76610000Y-27940000I2950000J0D01*
G01*
X29950000Y-45190000D02*
X71650000Y-45190000D01*
X29950000Y-48740000D02*
X29950000Y-45190000D01*
X71650000Y-45190000D02*
X71650000Y-48740000D01*
X71650000Y-48740000D02*
X29950000Y-48740000D01*
X40150000Y-24870000D02*
X71650000Y-24870000D01*
X40150000Y-28420000D02*
X40150000Y-24870000D01*
X71650000Y-24870000D02*
X71650000Y-28420000D01*
X71650000Y-28420000D02*
X40150000Y-28420000D01*
X26583000Y-48935000D02*
X26583000Y-53935000D01*
X26583000Y-53935000D02*
X31583000Y-53935000D01*
X31583000Y-48935000D02*
X26583000Y-48935000D01*
X31583000Y-53935000D02*
X31583000Y-48935000D01*
X26583000Y-71795000D02*
X26583000Y-76795000D01*
X26583000Y-76795000D02*
X31583000Y-76795000D01*
X31583000Y-71795000D02*
X26583000Y-71795000D01*
X31583000Y-76795000D02*
X31583000Y-71795000D01*
X53360000Y-32003000D02*
X53360000Y-28703000D01*
X53360000Y-32003000D02*
X55860000Y-32003000D01*
X55860000Y-28703000D02*
X53360000Y-28703000D01*
X55860000Y-28703000D02*
X55860000Y-32003000D01*
X55900000Y-32003000D02*
X55900000Y-28703000D01*
X55900000Y-32003000D02*
X58400000Y-32003000D01*
X58400000Y-28703000D02*
X55900000Y-28703000D01*
X58400000Y-28703000D02*
X58400000Y-32003000D01*
X53360000Y-44957000D02*
X53360000Y-41657000D01*
X53360000Y-44957000D02*
X55860000Y-44957000D01*
X55860000Y-41657000D02*
X53360000Y-41657000D01*
X55860000Y-41657000D02*
X55860000Y-44957000D01*
X32610000Y-26140000D02*
X32610000Y-29740000D01*
X32610000Y-26140000D02*
X38510000Y-26140000D01*
X32610000Y-29740000D02*
X38510000Y-29740000D01*
X38510000Y-26140000D02*
X38510000Y-29740000D01*
X26841000Y-57055000D02*
X29801000Y-57055000D01*
X26841000Y-58515000D02*
X26841000Y-57055000D01*
X29801000Y-57055000D02*
X29801000Y-58515000D01*
X29801000Y-58515000D02*
X26841000Y-58515000D01*
X26841000Y-61627000D02*
X29801000Y-61627000D01*
X26841000Y-63087000D02*
X26841000Y-61627000D01*
X29801000Y-61627000D02*
X29801000Y-63087000D01*
X29801000Y-63087000D02*
X26841000Y-63087000D01*
X26841000Y-79915000D02*
X29801000Y-79915000D01*
X26841000Y-81375000D02*
X26841000Y-79915000D01*
X29801000Y-79915000D02*
X29801000Y-81375000D01*
X29801000Y-81375000D02*
X26841000Y-81375000D01*
X26841000Y-84487000D02*
X29801000Y-84487000D01*
X26841000Y-85947000D02*
X26841000Y-84487000D01*
X29801000Y-84487000D02*
X29801000Y-85947000D01*
X29801000Y-85947000D02*
X26841000Y-85947000D01*
X28353000Y-58591000D02*
X29813000Y-58591000D01*
X28353000Y-61551000D02*
X28353000Y-58591000D01*
X29813000Y-58591000D02*
X29813000Y-61551000D01*
X29813000Y-61551000D02*
X28353000Y-61551000D01*
X28353000Y-63163000D02*
X29813000Y-63163000D01*
X28353000Y-66123000D02*
X28353000Y-63163000D01*
X29813000Y-63163000D02*
X29813000Y-66123000D01*
X29813000Y-66123000D02*
X28353000Y-66123000D01*
X28353000Y-76879000D02*
X29813000Y-76879000D01*
X28353000Y-79839000D02*
X28353000Y-76879000D01*
X29813000Y-76879000D02*
X29813000Y-79839000D01*
X29813000Y-79839000D02*
X28353000Y-79839000D01*
X28353000Y-81451000D02*
X29813000Y-81451000D01*
X28353000Y-84411000D02*
X28353000Y-81451000D01*
X29813000Y-81451000D02*
X29813000Y-84411000D01*
X29813000Y-84411000D02*
X28353000Y-84411000D01*
X28353000Y-86023000D02*
X29813000Y-86023000D01*
X28353000Y-88983000D02*
X28353000Y-86023000D01*
X29813000Y-86023000D02*
X29813000Y-88983000D01*
X29813000Y-88983000D02*
X28353000Y-88983000D01*
X28353000Y-54019000D02*
X29813000Y-54019000D01*
X28353000Y-56979000D02*
X28353000Y-54019000D01*
X29813000Y-54019000D02*
X29813000Y-56979000D01*
X29813000Y-56979000D02*
X28353000Y-56979000D01*
X25052000Y-32211000D02*
X39852000Y-32211000D01*
X25052000Y-42211000D02*
X25052000Y-32211000D01*
X25052000Y-42211000D02*
X39852000Y-42211000D01*
X39852000Y-42211000D02*
X39852000Y-32211000D01*
X30016000Y-30258000D02*
X32976000Y-30258000D01*
X30016000Y-31718000D02*
X30016000Y-30258000D01*
X32976000Y-30258000D02*
X32976000Y-31718000D01*
X32976000Y-31718000D02*
X30016000Y-31718000D01*
X41561000Y-34588000D02*
X43021000Y-34588000D01*
X41561000Y-37548000D02*
X41561000Y-34588000D01*
X43021000Y-34588000D02*
X43021000Y-37548000D01*
X43021000Y-37548000D02*
X41561000Y-37548000D01*
X40037000Y-34588000D02*
X41497000Y-34588000D01*
X40037000Y-37548000D02*
X40037000Y-34588000D01*
X41497000Y-34588000D02*
X41497000Y-37548000D01*
X41497000Y-37548000D02*
X40037000Y-37548000D01*
X41561000Y-31540000D02*
X43021000Y-31540000D01*
X41561000Y-34500000D02*
X41561000Y-31540000D01*
X43021000Y-31540000D02*
X43021000Y-34500000D01*
X43021000Y-34500000D02*
X41561000Y-34500000D01*
X40037000Y-31540000D02*
X41497000Y-31540000D01*
X40037000Y-34500000D02*
X40037000Y-31540000D01*
X41497000Y-31540000D02*
X41497000Y-34500000D01*
X41497000Y-34500000D02*
X40037000Y-34500000D01*
X38640000Y-27603000D02*
X40100000Y-27603000D01*
X38640000Y-30563000D02*
X38640000Y-27603000D01*
X40100000Y-27603000D02*
X40100000Y-30563000D01*
X40100000Y-30563000D02*
X38640000Y-30563000D01*
X26841000Y-44355000D02*
X29801000Y-44355000D01*
X26841000Y-45815000D02*
X26841000Y-44355000D01*
X29801000Y-44355000D02*
X29801000Y-45815000D01*
X29801000Y-45815000D02*
X26841000Y-45815000D01*
X26841000Y-42577000D02*
X29801000Y-42577000D01*
X26841000Y-44037000D02*
X26841000Y-42577000D01*
X29801000Y-42577000D02*
X29801000Y-44037000D01*
X29801000Y-44037000D02*
X26841000Y-44037000D01*
X43216000Y-31447000D02*
X45176000Y-31447000D01*
X43216000Y-34847000D02*
X43216000Y-31447000D01*
X45176000Y-31447000D02*
X45176000Y-34847000D01*
X45176000Y-34847000D02*
X43216000Y-34847000D01*
X30847000Y-40633000D02*
X35447000Y-40633000D01*
X30847000Y-42933000D02*
X30847000Y-40633000D01*
X35447000Y-40633000D02*
X35447000Y-42933000D01*
X35447000Y-42933000D02*
X30847000Y-42933000D01*
X50820000Y-32003000D02*
X50820000Y-28703000D01*
X50820000Y-32003000D02*
X53320000Y-32003000D01*
X53320000Y-28703000D02*
X50820000Y-28703000D01*
X53320000Y-28703000D02*
X53320000Y-32003000D01*
X47542000Y-30258000D02*
X50502000Y-30258000D01*
X47542000Y-31718000D02*
X47542000Y-30258000D01*
X50502000Y-30258000D02*
X50502000Y-31718000D01*
X50502000Y-31718000D02*
X47542000Y-31718000D01*
M02*
